<svg width="178" height="127" viewBox="0 0 178 127" fill="none" xmlns="http://www.w3.org/2000/svg">
<path fill-rule="evenodd" clip-rule="evenodd" d="M62.1897 125.275C95.6429 125.275 122.762 97.7925 122.762 63.8911C122.762 29.9896 95.6429 2.50702 62.1897 2.50702C28.7364 2.50702 1.61719 29.9896 1.61719 63.8911C1.61719 97.7925 28.7364 125.275 62.1897 125.275Z" fill="white"/>
<path fill-rule="evenodd" clip-rule="evenodd" d="M65.2388 125.182C97.2576 123.59 122.762 96.7604 122.762 63.8912C122.762 63.5166 122.762 63.0952 122.762 62.7206C118.881 60.4731 114.399 59.1621 109.64 59.1621H65.285V125.182H65.2388Z" fill="#2F4077"/>
<path fill-rule="evenodd" clip-rule="evenodd" d="M93.1916 71.7573C96.3796 65.3426 95.1783 58.647 80.2547 55.9782C51.1004 50.5 48.4668 61.4564 48.513 68.6202C42.7838 73.2088 34.3286 82.2455 31.0482 88.9879L21.5303 109.356C32.2956 119.235 46.5263 125.228 62.1892 125.228C85.6142 125.228 105.944 111.744 116.016 92.0314C107.561 80.3726 98.4587 74.473 93.1916 71.7573Z" fill="#E4794A"/>
<path fill-rule="evenodd" clip-rule="evenodd" d="M93.1917 71.7573C89.8651 78.4061 81.7795 84.8207 79.2383 86.1318C85.753 85.8977 99.2443 78.4529 101.601 77.0951C98.3665 74.6135 95.4095 72.9279 93.1917 71.7573Z" fill="#2F4077"/>
<path fill-rule="evenodd" clip-rule="evenodd" d="M48.6513 72.1319C48.6051 71.1954 48.5127 69.978 48.5127 68.667C46.757 70.0717 45.0475 71.5232 43.4766 72.9747C45.3709 76.6736 49.1596 82.2455 53.3179 84.8675C52.0704 82.1987 48.9286 78.687 48.6513 72.1319Z" fill="#2F4077"/>
<path fill-rule="evenodd" clip-rule="evenodd" d="M83.8586 64.453L86.908 67.6369C86.908 67.6369 72.4464 78.7807 67.7337 105.703C64.6843 123.168 65.7007 125.135 65.7007 125.135L56.7373 124.667C56.7373 124.667 61.7273 95.5899 58.6316 86.4127C55.536 77.2355 58.3544 66.8878 60.4798 65.2022C62.5127 63.4698 83.8586 64.453 83.8586 64.453Z" fill="white"/>
<path fill-rule="evenodd" clip-rule="evenodd" d="M67.087 110.011L53.226 111.509L49.7607 121.248C49.7607 121.248 64.7768 121.342 65.054 121.248C65.3774 121.155 72.2617 114.927 67.087 110.011Z" fill="white"/>
<path fill-rule="evenodd" clip-rule="evenodd" d="M66.9643 108.847L53.1033 110.345C52.6635 110.393 52.2892 110.691 52.1392 111.112L48.6739 120.851C48.4035 121.611 48.9563 122.414 49.7535 122.419L53.2227 122.438L62.005 122.463C64.1294 122.461 64.9575 122.442 65.2914 122.388L65.3703 122.372L65.4069 122.363L65.4863 122.331C66.3412 121.946 68.1968 119.859 69.158 117.976C70.7571 114.844 70.5676 111.714 67.8768 109.157C67.6316 108.924 67.2984 108.811 66.9643 108.847ZM66.6567 111.235L66.7083 111.292C68.1596 112.946 68.1764 114.805 67.1064 116.9C66.6632 117.768 66.0564 118.611 65.3846 119.353L65.2768 119.471C65.0981 119.663 64.9249 119.837 64.7692 119.983L64.6418 120.098L64.1441 120.107C63.8501 120.111 63.4846 120.113 63.0519 120.115L60.1693 120.119L56.1141 120.109L51.4014 120.087L54.0668 112.595L66.6567 111.235Z" fill="#2F4077"/>
<path fill-rule="evenodd" clip-rule="evenodd" d="M96.7255 100.606C97.3602 100.541 97.9267 101.01 97.9908 101.653C98.0523 102.27 97.6285 102.824 97.0329 102.925L96.9576 102.935C96.8551 102.946 96.6145 102.996 96.2836 103.112C95.7083 103.314 95.1293 103.633 94.5875 104.093C93.4637 105.047 92.638 106.484 92.2466 108.547C92.1262 109.181 91.5206 109.597 90.8942 109.475C90.2677 109.353 89.8576 108.739 89.978 108.104C90.4691 105.517 91.5699 103.601 93.1039 102.298C93.8727 101.646 94.6981 101.191 95.527 100.9C96.0388 100.72 96.4535 100.634 96.7255 100.606Z" fill="#2F4077"/>
<path fill-rule="evenodd" clip-rule="evenodd" d="M78.566 83.3843C79.0961 83.6929 79.2935 84.3629 79.0293 84.9116L78.7032 85.5048C78.4696 85.9324 78.209 86.4204 77.9281 86.9599C77.1251 88.5021 76.322 90.1451 75.5734 91.8173C74.8983 93.3252 74.3006 94.7847 73.8012 96.1673C72.9496 98.5248 72.414 100.576 72.2559 102.212C72.1938 102.856 71.6287 103.326 70.9938 103.263C70.3589 103.2 69.8946 102.628 69.9568 101.984C70.137 100.118 70.7188 97.8899 71.6318 95.3625C72.1525 93.9209 72.772 92.4083 73.4696 90.8501C74.2387 89.1321 75.0618 87.4483 75.8849 85.8673L76.2438 85.1848C76.3208 85.0399 76.396 84.8994 76.469 84.7637L76.8017 84.1528L76.9891 83.8162C77.3068 83.2557 78.0129 83.0623 78.566 83.3843Z" fill="#2F4077"/>
<path fill-rule="evenodd" clip-rule="evenodd" d="M55.0398 83.5309C55.6662 83.4084 56.272 83.8236 56.3929 84.4584L56.4498 84.7693C56.494 85.0166 56.5432 85.3019 56.5961 85.6217L56.7088 86.3228C56.8213 87.0409 56.9323 87.809 57.0376 88.6152C57.367 91.1361 57.5905 93.6336 57.6594 95.9761C57.7131 97.8005 57.6702 99.4709 57.5164 100.956C57.4499 101.599 56.8816 102.066 56.2472 101.998C55.6127 101.931 55.1523 101.355 55.2189 100.712C55.3608 99.341 55.4011 97.7725 55.3503 96.0458C55.2839 93.7916 55.0673 91.3703 54.7475 88.9225C54.6107 87.8754 54.4641 86.8945 54.3176 86.0084L54.2299 85.4894L54.1247 84.9022C54.0037 84.2674 54.4135 83.6535 55.0398 83.5309Z" fill="#2F4077"/>
<path fill-rule="evenodd" clip-rule="evenodd" d="M71.428 105.473L71.5317 105.466C72.9307 105.389 77.5601 105.773 84.69 106.5L86.9421 106.733C89.0743 106.955 91.2636 107.191 93.43 107.429L98.5886 108.005C99.2225 108.078 99.6783 108.657 99.6067 109.3C99.5379 109.916 99.008 110.367 98.4049 110.338L98.0796 110.303L94.7978 109.935C92.115 109.637 89.3652 109.339 86.7053 109.061L83.6804 108.751C77.0769 108.084 72.6205 107.723 71.6167 107.807C70.8338 107.872 70.5478 108.035 70.1421 108.595L69.9425 108.884C69.2424 109.916 68.6774 110.414 67.5444 110.644L66.7681 110.804L66.0325 110.96L66.0364 110.973C66.083 111.138 66.1291 111.308 66.1743 111.482L66.2414 111.748C66.6967 113.596 66.9321 115.47 66.8261 117.248C66.7537 118.46 66.5226 119.58 66.1089 120.584L66.0487 120.724L66.0613 120.731C66.4236 120.931 66.8677 121.138 67.401 121.346L67.5821 121.416C68.18 121.641 68.4843 122.315 68.2618 122.921C68.0394 123.527 67.3743 123.835 66.7765 123.61C65.8372 123.256 65.0882 122.888 64.509 122.524C64.1269 122.284 63.8735 122.082 63.7289 121.936C63.3477 121.549 63.2809 120.947 63.568 120.485C64.1301 119.579 64.4406 118.439 64.5201 117.106C64.61 115.599 64.4029 113.951 64 112.315C63.9008 111.912 63.7959 111.537 63.6903 111.194L63.627 110.993C63.5525 110.761 63.4963 110.601 63.4672 110.524C63.2215 109.875 63.5851 109.153 64.2481 108.974L64.4228 108.929L64.8968 108.817C65.4482 108.69 66.1725 108.534 67.0914 108.348C67.4513 108.275 67.6088 108.165 67.9098 107.744L68.1273 107.427C68.9592 106.207 69.7939 105.609 71.428 105.473Z" fill="#2F4077"/>
<path fill-rule="evenodd" clip-rule="evenodd" d="M66.8555 122.794C64.7302 121.998 64.0371 121.342 64.0371 121.342C66.8093 116.941 64.0371 109.683 64.0371 109.683C64.0371 109.683 64.7764 109.496 66.9941 109.028C67.9182 108.841 68.334 108.372 68.7037 107.81C73.324 113.101 70.5518 122.419 69.3043 125.79C68.2416 124.807 68.4726 123.402 66.8555 122.794Z" fill="#2F4077"/>
<path fill-rule="evenodd" clip-rule="evenodd" d="M62.1895 125.275C64.5921 125.275 66.9946 125.135 69.351 124.854C69.1662 124.807 69.0738 124.76 69.0738 124.76L66.394 122.232H57.4768L49.8532 89.5498C49.6684 88.8475 49.0678 88.3324 48.3285 88.3324H6.60693C15.94 110.058 37.2859 125.275 62.1895 125.275Z" fill="#465F9D"/>
<path fill-rule="evenodd" clip-rule="evenodd" d="M82.3341 44.3662C82.3341 44.3662 87.7399 44.4599 86.7697 49.3762C85.7994 54.2925 79.793 51.4364 79.793 51.4364L80.5784 44.4599L82.3341 44.3662Z" fill="white"/>
<path fill-rule="evenodd" clip-rule="evenodd" d="M82.3615 43.196L82.2733 43.1973L80.5176 43.2909C79.9541 43.321 79.4946 43.7591 79.4306 44.3272L78.6452 51.3037C78.589 51.8028 78.8534 52.2827 79.3021 52.4961L79.4464 52.5621C79.7093 52.6783 80.082 52.823 80.5361 52.9664C81.4824 53.2652 82.4374 53.4421 83.3601 53.4315C85.6746 53.4049 87.395 52.1756 87.9022 49.6058C88.4217 46.973 87.4606 45.0814 85.5424 44.0389C84.8997 43.6896 84.1972 43.4613 83.4741 43.3249C83.0744 43.2495 82.7296 43.2124 82.4675 43.1999L82.3615 43.196ZM81.6146 45.5766L82.3442 45.5377L82.3143 45.5366C82.8907 45.5525 83.7312 45.7111 84.4507 46.1021C85.4998 46.6723 85.9503 47.5589 85.6369 49.1466C85.36 50.5499 84.6241 51.0757 83.3339 51.0905L83.1552 51.0891C82.5533 51.0727 81.8908 50.9421 81.2234 50.7313L81.0413 50.6718L81.6146 45.5766Z" fill="#2F4077"/>
<path fill-rule="evenodd" clip-rule="evenodd" d="M66.9025 28.8681C65.4702 28.7276 55.6751 28.1189 54.6125 36.4065C53.5498 44.694 54.7049 53.8244 55.5827 57.9916C56.5068 62.1588 75.2191 60.239 76.2818 59.8645C77.3445 59.4899 78.5919 58.2257 78.5919 58.2257L81.1793 45.5368C81.1793 45.49 82.242 30.1323 66.9025 28.8681Z" fill="white"/>
<path fill-rule="evenodd" clip-rule="evenodd" d="M82.3318 45.6163L82.3415 45.4074C82.3726 44.5428 82.3322 43.4431 82.1643 42.1791C81.9137 40.2922 81.4218 38.4276 80.628 36.6733C78.3198 31.572 73.896 28.27 66.9962 27.7014C65.0597 27.5113 62.6165 27.6246 60.2772 28.3586C56.5206 29.5373 54.0006 32.0945 53.467 36.2556C52.5557 43.3628 53.1601 52.0983 54.4531 58.2359C55.0472 60.9156 59.0538 61.7892 65.6451 61.8016L65.8816 61.8017C70.1124 61.7967 75.7008 61.3086 76.6613 60.97C76.8487 60.904 77.0375 60.82 77.2291 60.7198C77.5771 60.5378 77.9302 60.3045 78.2877 60.0313C78.7647 59.6668 79.1591 59.3063 79.4087 59.0534C79.5682 58.8917 79.6775 58.6864 79.7231 58.4625L82.3105 45.7737C82.3211 45.7217 82.3282 45.6691 82.3318 45.6163ZM66.6437 30.0198L66.7914 30.0333C72.8542 30.5331 76.5599 33.2992 78.5282 37.6492C79.2193 39.1764 79.6529 40.8204 79.8749 42.4915C80.014 43.539 80.0543 44.453 80.0375 45.1714L80.0304 45.3871L77.5345 57.626C77.3325 57.8114 77.117 57.994 76.8969 58.1622C76.6361 58.3615 76.3885 58.5251 76.1697 58.6395C76.0952 58.6785 76.026 58.7107 75.9632 58.736L75.9025 58.7589C75.7432 58.8151 74.286 59.0051 72.6301 59.1497C70.4401 59.341 68.0691 59.4581 65.8791 59.4607C63.2187 59.4638 60.9568 59.2993 59.2924 58.9489C57.6504 58.6032 56.7933 58.1113 56.7098 57.735C55.4705 51.8513 54.8839 43.3746 55.758 36.5574C56.1641 33.3906 58.0052 31.5224 60.9607 30.595C62.09 30.2407 63.3208 30.0491 64.5803 29.9907C65.3733 29.9539 66.0875 29.973 66.6437 30.0198Z" fill="#2F4077"/>
<path fill-rule="evenodd" clip-rule="evenodd" d="M80.301 51.6705L80.6707 61.3627L83.5353 64.6871C83.5353 64.6871 75.0339 70.0249 66.9021 79.3893C66.9021 79.3893 60.2488 72.2723 59.0938 61.1286L75.9117 56.9146L80.301 51.6705Z" fill="white"/>
<path fill-rule="evenodd" clip-rule="evenodd" d="M79.4201 50.9133L75.2717 55.8691L58.8164 59.9923C58.2566 60.1326 57.8846 60.6697 57.9449 61.2509C58.4251 65.8843 59.8393 70.1741 61.8955 74.0501C62.7974 75.7502 63.7644 77.2578 64.7337 78.5581L64.936 78.8266C65.4282 79.4728 65.8183 79.9322 66.0634 80.1944C66.5306 80.6941 67.3204 80.6794 67.7691 80.1626C68.0995 79.7822 68.4339 79.4046 68.7721 79.0299C72.1409 75.2973 75.7531 71.9889 79.3643 69.1437C80.6269 68.1489 81.7981 67.2838 82.8474 66.553L83.4324 66.1512L83.8147 65.8956C83.9789 65.7872 84.0898 65.7159 84.1435 65.6822L84.2089 65.6381C84.7579 65.2399 84.8567 64.4412 84.4052 63.9172L81.809 60.9039L81.4552 51.6253C81.4145 50.5586 80.1014 50.0993 79.4201 50.9133ZM79.2609 54.7224L79.5164 61.408L79.5231 61.4966C79.5498 61.7315 79.6462 61.9535 79.8005 62.1327L81.7943 64.4465L81.539 64.6236C80.4534 65.3796 79.2457 66.2717 77.9464 67.2954L77.4627 67.6792C73.9159 70.5135 70.3798 73.7799 67.0675 77.4498L66.9274 77.6063L66.8394 77.4931C66.754 77.3824 66.6665 77.2669 66.5771 77.147C65.6765 75.9388 64.7736 74.5313 63.9303 72.9416L63.7519 72.6009C62.1037 69.4107 60.9229 65.9309 60.3909 62.2105L60.3643 62.0159L76.1889 58.051C76.4244 57.992 76.6356 57.8593 76.7925 57.6718L79.2609 54.7224Z" fill="#2F4077"/>
<path fill-rule="evenodd" clip-rule="evenodd" d="M79.3309 45.3963C78.4068 46.2859 75.9119 51.5768 75.3112 54.0116C75.3112 54.0116 69.1662 51.9514 60.3414 51.811C60.3414 51.811 55.5362 51.9046 53.5957 52.4665C53.5957 52.4665 54.0115 61.1286 57.8926 65.6235C61.7737 70.1185 70.0441 68.8543 73.9251 66.1386C77.8062 63.4229 78.453 62.1587 79.3309 59.2557C80.2088 56.3527 82.6113 45.5836 82.6113 45.5836L79.3309 45.3963Z" fill="#869ECE"/>
<path fill-rule="evenodd" clip-rule="evenodd" d="M81.8259 47.2224C81.8259 47.2224 84.3671 43.2425 85.3374 39.0753C86.2614 35.1891 84.4595 31.0687 80.9019 29.3363C77.8987 27.8848 75.7271 29.0085 75.7271 29.0085C75.7271 29.0085 78.8689 23.5303 74.1562 18.7076C72.4929 17.022 70.1827 16.0856 67.7801 16.1324C62.0047 16.3197 60.2028 21.2828 60.2028 21.2828C60.2028 21.2828 54.0116 9.71773 41.2595 16.5538C39.9658 17.2561 38.5335 19.1758 37.8404 20.44C33.6359 28.3062 47.4969 37.577 54.7046 38.3262C62.6054 39.1221 67.2719 37.8111 69.8131 35.8446C67.9188 37.062 70.0903 49.0953 81.8259 47.2224Z" fill="#2F4077"/>
<path fill-rule="evenodd" clip-rule="evenodd" d="M57.5228 49.1889C57.9566 49.1889 58.3082 48.6439 58.3082 47.9715C58.3082 47.2992 57.9566 46.7542 57.5228 46.7542C57.089 46.7542 56.7373 47.2992 56.7373 47.9715C56.7373 48.6439 57.089 49.1889 57.5228 49.1889Z" fill="#2F4077"/>
<path fill-rule="evenodd" clip-rule="evenodd" d="M64.5462 48.9548C64.98 48.9548 65.3317 48.4097 65.3317 47.7374C65.3317 47.0651 64.98 46.52 64.5462 46.52C64.1124 46.52 63.7607 47.0651 63.7607 47.7374C63.7607 48.4097 64.1124 48.9548 64.5462 48.9548Z" fill="#2F4077"/>
<path fill-rule="evenodd" clip-rule="evenodd" d="M65.0691 40.446C66.4108 40.2434 67.5828 40.5912 68.5376 41.2875C68.9989 41.6239 69.3184 41.9685 69.5058 42.2344C69.8766 42.7605 69.7563 43.4915 69.2372 43.8673C68.7397 44.2274 68.0565 44.1305 67.6741 43.6588L67.6259 43.5951C67.5747 43.5224 67.4233 43.3592 67.1882 43.1877C66.7253 42.8501 66.1858 42.6775 65.54 42.7448L65.4094 42.7615C64.7784 42.8568 64.1907 42.4156 64.0967 41.7762C64.0028 41.1368 64.4381 40.5412 65.0691 40.446Z" fill="#2F4077"/>
<path fill-rule="evenodd" clip-rule="evenodd" d="M56.5718 40.314C57.1193 40.1788 57.6668 40.1824 58.1839 40.2648L58.3363 40.2918C58.4051 40.3053 58.4627 40.3187 58.5077 40.3306C59.125 40.4938 59.4949 41.1332 59.3338 41.7587C59.1792 42.3592 58.5916 42.7287 57.9987 42.6129L57.9047 42.5916C57.8877 42.5882 57.8606 42.5832 57.8251 42.5775C57.584 42.5391 57.326 42.5374 57.1188 42.5886C56.9 42.6426 56.7859 42.7309 56.7115 42.9446L56.6921 43.0061C56.5148 43.6271 55.8742 43.9848 55.2614 43.805C54.6487 43.6253 54.2957 42.9761 54.4731 42.3551C54.7909 41.2424 55.569 40.5617 56.5718 40.314Z" fill="#2F4077"/>
<path fill-rule="evenodd" clip-rule="evenodd" d="M65.3 57.6156C65.4028 56.9776 65.9965 56.5448 66.6261 56.649C67.2557 56.7531 67.6828 57.3548 67.58 57.9928C67.519 58.3714 67.3667 58.871 67.0611 59.3871C66.3945 60.5129 65.2667 61.1426 63.789 60.8764C63.161 60.7633 62.7423 60.1556 62.854 59.519C62.9612 58.908 63.5181 58.4926 64.1182 58.5604L64.1934 58.5714C64.6512 58.6539 64.8751 58.529 65.0803 58.1824C65.1957 57.9875 65.2653 57.7795 65.292 57.6572L65.3 57.6156Z" fill="#2F4077"/>
<path fill-rule="evenodd" clip-rule="evenodd" d="M59.4709 48.3566C59.5418 47.7141 60.1132 47.2515 60.7472 47.3233C61.3558 47.3923 61.8008 47.9287 61.7728 48.5399L61.7668 48.6167L61.1187 54.4883L62.1452 54.2327C62.74 54.0847 63.3403 54.4326 63.522 55.0162L63.5425 55.0903C63.6886 55.693 63.3453 56.3014 62.7694 56.4855L62.6963 56.5063L60.0627 57.1618C59.307 57.3499 58.5958 56.7439 58.6333 55.9703L58.6392 55.895L59.4709 48.3566Z" fill="#2F4077"/>
<path fill-rule="evenodd" clip-rule="evenodd" d="M62.1896 0.868286C27.8432 0.868286 0 29.0846 0 63.8911C0 98.6976 27.8432 126.914 62.1896 126.914C96.536 126.914 124.379 98.6976 124.379 63.8911C124.379 29.0846 96.536 0.868286 62.1896 0.868286ZM62.1897 4.14585C94.7499 4.14585 121.145 30.8947 121.145 63.8911C121.145 96.8875 94.7499 123.636 62.1897 123.636C29.6296 123.636 3.23438 96.8875 3.23438 63.8911C3.23438 30.8947 29.6296 4.14585 62.1897 4.14585Z" fill="#E4794A"/>
<path fill-rule="evenodd" clip-rule="evenodd" d="M166.563 49.7976H108.024C102.433 49.7976 97.9053 45.209 97.9053 39.5436V14.2595C97.9053 8.59402 102.433 4.00543 108.024 4.00543H166.563C172.154 4.00543 176.682 8.59402 176.682 14.2595V39.5436C176.682 45.209 172.154 49.7976 166.563 49.7976Z" fill="white"/>
<path fill-rule="evenodd" clip-rule="evenodd" d="M166.563 2.83484H108.024C101.795 2.83484 96.75 7.9475 96.75 14.2595V39.5435C96.75 45.8555 101.795 50.9682 108.024 50.9682H166.563C172.792 50.9682 177.837 45.8555 177.837 39.5435V14.2595C177.837 7.9475 172.792 2.83484 166.563 2.83484ZM108.023 5.17593H166.563C171.516 5.17593 175.526 9.24044 175.526 14.2595V39.5435C175.526 44.5625 171.516 48.627 166.563 48.627H108.023C103.071 48.627 99.0601 44.5625 99.0601 39.5435V14.2595C99.0601 9.24044 103.071 5.17593 108.023 5.17593Z" fill="#2F4077"/>
<path fill-rule="evenodd" clip-rule="evenodd" d="M111.581 13.4167L116.202 10.6074C116.294 10.5605 116.34 10.5605 116.433 10.5605C116.571 10.5605 116.664 10.6074 116.756 10.701C116.849 10.7947 116.895 10.8883 116.895 11.0288C116.895 11.2161 116.802 11.3565 116.664 11.4502L112.69 13.8381L116.664 16.226C116.802 16.3197 116.895 16.4602 116.895 16.6474C116.895 16.7879 116.849 16.8816 116.756 16.9752C116.664 17.0688 116.571 17.1157 116.433 17.1157C116.34 17.1157 116.248 17.1157 116.202 17.0688L111.581 14.2595C111.397 14.1659 111.304 14.0254 111.304 13.8381C111.35 13.6508 111.443 13.5104 111.581 13.4167Z" fill="#E4794A"/>
<path fill-rule="evenodd" clip-rule="evenodd" d="M121.654 8.82809C121.746 8.73444 121.839 8.68762 121.977 8.68762C122.116 8.68762 122.208 8.73444 122.301 8.82809C122.393 8.92173 122.439 9.01538 122.439 9.15585C122.439 9.24949 122.439 9.29631 122.393 9.34313L118.697 18.7076C118.651 18.7544 118.651 18.8012 118.604 18.8481C118.512 18.9417 118.419 18.9885 118.281 18.9885C118.142 18.9885 118.05 18.9417 117.957 18.8481C117.865 18.7544 117.819 18.6608 117.819 18.5203C117.819 18.4267 117.819 18.3798 117.865 18.333L121.561 8.96856C121.607 8.92173 121.607 8.87491 121.654 8.82809Z" fill="#E4794A"/>
<path fill-rule="evenodd" clip-rule="evenodd" d="M128.954 13.8381C128.954 14.0254 128.861 14.1659 128.677 14.2595L124.056 17.0688C123.964 17.1157 123.918 17.1157 123.825 17.1157C123.687 17.1157 123.594 17.0688 123.502 16.9752C123.409 16.8816 123.363 16.7879 123.363 16.6474C123.363 16.4602 123.456 16.3197 123.594 16.226L127.568 13.8381L123.594 11.4502C123.456 11.3565 123.363 11.2161 123.363 11.0288C123.363 10.8883 123.409 10.7947 123.502 10.701C123.594 10.6074 123.687 10.5605 123.825 10.5605C123.918 10.5605 124.01 10.5605 124.056 10.6074L128.677 13.4167C128.861 13.5104 128.954 13.6508 128.954 13.8381Z" fill="#E4794A"/>
<path fill-rule="evenodd" clip-rule="evenodd" d="M124.472 29.6641H112.043C111.212 29.6641 110.519 28.9617 110.519 28.1189C110.519 27.2761 111.212 26.5738 112.043 26.5738H124.472C125.304 26.5738 125.997 27.2761 125.997 28.1189C125.997 28.9617 125.304 29.6641 124.472 29.6641Z" fill="#465F9D"/>
<path fill-rule="evenodd" clip-rule="evenodd" d="M125.858 44.2258H112.043C111.212 44.2258 110.519 43.5234 110.519 42.6806C110.519 41.8378 111.212 41.1355 112.043 41.1355H125.858C126.69 41.1355 127.383 41.8378 127.383 42.6806C127.383 43.5234 126.69 44.2258 125.858 44.2258Z" fill="#465F9D"/>
<path fill-rule="evenodd" clip-rule="evenodd" d="M139.442 39.3563H116.34C115.508 39.3563 114.815 38.6539 114.815 37.8111C114.815 36.9683 115.508 36.266 116.34 36.266H139.442C140.273 36.266 140.966 36.9683 140.966 37.8111C140.966 38.6539 140.273 39.3563 139.442 39.3563Z" fill="#FAA184"/>
<path fill-rule="evenodd" clip-rule="evenodd" d="M155.059 39.3563H143.97C143.138 39.3563 142.445 38.6539 142.445 37.8111C142.445 36.9683 143.138 36.266 143.97 36.266H155.059C155.89 36.266 156.584 36.9683 156.584 37.8111C156.63 38.6539 155.937 39.3563 155.059 39.3563Z" fill="#FAA184"/>
<path fill-rule="evenodd" clip-rule="evenodd" d="M160.28 34.5336C159.679 34.5336 159.171 34.0185 159.171 33.4098V32.567C159.171 31.9583 159.679 31.4433 160.28 31.4433C160.88 31.4433 161.389 31.9583 161.389 32.567V33.4098C161.389 34.0185 160.88 34.5336 160.28 34.5336Z" fill="#465F9D"/>
<path fill-rule="evenodd" clip-rule="evenodd" d="M164.207 29.6641C163.606 29.6641 163.098 29.149 163.098 28.5403V27.6975C163.098 27.0888 163.606 26.5738 164.207 26.5738C164.807 26.5738 165.315 27.0888 165.315 27.6975V28.5403C165.362 29.149 164.853 29.6641 164.207 29.6641Z" fill="#465F9D"/>
<path fill-rule="evenodd" clip-rule="evenodd" d="M136.069 34.5336H112.043C111.212 34.5336 110.519 33.8312 110.519 32.9884C110.519 32.1456 111.212 31.4433 112.043 31.4433H136.069C136.901 31.4433 137.594 32.1456 137.594 32.9884C137.594 33.8312 136.901 34.5336 136.069 34.5336Z" fill="#465F9D"/>
<path fill-rule="evenodd" clip-rule="evenodd" d="M144.062 29.6641H128.399C127.568 29.6641 126.875 28.9617 126.875 28.1189C126.875 27.2761 127.568 26.5738 128.399 26.5738H144.062C144.894 26.5738 145.587 27.2761 145.587 28.1189C145.587 28.9617 144.94 29.6641 144.062 29.6641Z" fill="#FAA184"/>
<path fill-rule="evenodd" clip-rule="evenodd" d="M160.741 29.6641H148.359C147.527 29.6641 146.834 28.9617 146.834 28.1189C146.834 27.2761 147.527 26.5738 148.359 26.5738H160.787C161.619 26.5738 162.312 27.2761 162.312 28.1189C162.312 28.9617 161.619 29.6641 160.741 29.6641Z" fill="#E4794A"/>
<path fill-rule="evenodd" clip-rule="evenodd" d="M127.983 24.9818C127.383 24.9818 126.875 24.4668 126.875 23.8581V23.0153C126.875 22.4066 127.383 21.8915 127.983 21.8915C128.584 21.8915 129.092 22.4066 129.092 23.0153V23.8581C129.138 24.4668 128.63 24.9818 127.983 24.9818Z" fill="#FAA184"/>
<path fill-rule="evenodd" clip-rule="evenodd" d="M124.472 24.9818H112.043C111.212 24.9818 110.519 24.2795 110.519 23.4367C110.519 22.5939 111.212 21.8915 112.043 21.8915H124.472C125.304 21.8915 125.997 22.5939 125.997 23.4367C125.997 24.2795 125.304 24.9818 124.472 24.9818Z" fill="#465F9D"/>
<path fill-rule="evenodd" clip-rule="evenodd" d="M144.062 24.9818H131.633C130.801 24.9818 130.108 24.2795 130.108 23.4367C130.108 22.5939 130.801 21.8915 131.633 21.8915H144.062C144.893 21.8915 145.586 22.5939 145.586 23.4367C145.586 24.2795 144.94 24.9818 144.062 24.9818Z" fill="#465F9D"/>
<path fill-rule="evenodd" clip-rule="evenodd" d="M156.398 34.5335H140.366C139.488 34.5335 138.795 33.8312 138.795 32.9416C138.795 32.0519 139.488 31.3496 140.366 31.3496H156.398C157.276 31.3496 157.969 32.0519 157.969 32.9416C157.923 33.8312 157.23 34.5335 156.398 34.5335Z" fill="#E4794A"/>
</svg>
