<svg width="181" height="65" viewBox="0 0 181 65" fill="none" xmlns="http://www.w3.org/2000/svg">
<g id="Group 149">
<g id="Bleu">
<path d="M12.907 12.703C12.9119 12.703 12.9167 12.6959 12.9167 12.6959C12.9553 12.6676 12.9939 12.6322 13.0276 12.5897C13.0228 12.5897 13.018 12.5897 13.0132 12.5826C12.9794 12.618 12.9408 12.6605 12.907 12.703Z" fill="#000091"/>
<path d="M18.2524 10.9126L18.168 10.9849C18.2163 10.9728 18.2524 10.9608 18.2524 10.9126Z" fill="#000091"/>
<path fill-rule="evenodd" clip-rule="evenodd" d="M16.5242 12.7415C16.6791 12.5867 16.8339 12.4225 16.9887 12.2536H16.984C17.2749 11.9252 17.5564 11.6109 17.8942 11.3247C17.9974 11.2309 18.096 11.1512 18.1898 11.0855C18.2036 11.0717 18.2106 11.0512 18.2175 11.0311C18.2247 11.0101 18.2317 10.9896 18.2461 10.9776C18.1792 11.003 18.1259 11.0431 18.0723 11.0834C18.0169 11.1252 17.9611 11.1672 17.8895 11.1934C17.8614 11.1934 17.8332 11.1652 17.8614 11.1371C17.9599 11.0667 18.0584 10.9917 18.1523 10.9166H18.1335C18.1053 10.9166 18.1053 10.8885 18.1053 10.8603C17.7561 10.8052 17.4878 11.0426 17.2477 11.2552L17.2327 11.2685C17.1953 11.2871 17.16 11.2686 17.1322 11.254C17.1182 11.2467 17.1061 11.2403 17.0966 11.2403C16.8841 11.3111 16.7009 11.4417 16.5165 11.5731C16.3466 11.6941 16.1757 11.8159 15.98 11.8924V11.8361C15.9135 11.8589 15.8478 11.8886 15.782 11.9183C15.6851 11.9621 15.5879 12.0061 15.4874 12.0284C15.3037 12.0708 15.1334 12.0653 14.9683 12.06C14.9141 12.0583 14.8604 12.0566 14.8071 12.0566C14.5066 12.0862 14.2099 12.1502 13.9136 12.2141L13.8171 12.2349C13.8124 12.2372 13.8077 12.2384 13.803 12.2395C13.7983 12.2407 13.7936 12.2419 13.789 12.2442C13.6107 12.2912 13.4465 12.3568 13.2823 12.4507L13.2635 12.46C13.257 12.4686 13.2506 12.4762 13.2446 12.4833C13.2375 12.4917 13.231 12.4993 13.226 12.5069C13.1697 12.5726 13.118 12.6289 13.0383 12.6711C12.9205 12.73 12.8187 12.8209 12.7185 12.9102C12.6751 12.949 12.6318 12.9875 12.5879 13.023C12.5785 13.0324 12.5597 13.0371 12.5457 13.0371C12.4002 13.1778 12.2547 13.3186 12.1046 13.4546C12.0952 13.464 12.053 13.4687 12.0202 13.464C12.0202 13.464 12.0249 13.464 12.0249 13.4593L12.0389 13.4311L12.1093 13.3185C12.1234 13.2974 12.1363 13.2763 12.1492 13.2552C12.1621 13.2341 12.175 13.213 12.1891 13.1919C12.2266 13.1356 12.2642 13.0792 12.3064 13.0277C12.3158 13.0136 12.3158 12.9995 12.3064 12.9902C12.297 12.9808 12.2829 12.9761 12.2688 12.9761C12.4049 12.8447 12.5644 12.7321 12.7286 12.6336V12.6289C12.7099 12.6336 12.6817 12.6195 12.6958 12.6008C12.7096 12.5836 12.7208 12.5638 12.7314 12.5453L12.7427 12.5257C12.745 12.521 12.7462 12.5175 12.7474 12.514C12.7486 12.5105 12.7497 12.5069 12.7521 12.5023C12.7497 12.4976 12.7462 12.494 12.7427 12.4905C12.7392 12.487 12.7357 12.4835 12.7333 12.4788L12.7049 12.4975C12.6709 12.5196 12.6359 12.5423 12.6066 12.5679C12.5859 12.5857 12.5666 12.61 12.5468 12.6349C12.5037 12.689 12.4583 12.7462 12.3908 12.7462C12.3861 12.7462 12.3627 12.7462 12.3486 12.7415C12.3345 12.7415 12.3251 12.7368 12.3204 12.7321C12.3204 12.7298 12.3204 12.7286 12.321 12.728C12.3216 12.7274 12.3228 12.7274 12.3251 12.7274C12.3251 12.7274 12.3298 12.7227 12.3298 12.7181C12.3298 12.7181 12.3298 12.7134 12.3345 12.7134C12.3369 12.7087 12.3392 12.7052 12.3416 12.7016C12.3439 12.6981 12.3463 12.6946 12.3486 12.6899C12.3509 12.6852 12.3533 12.6817 12.3556 12.6782C12.358 12.6747 12.3603 12.6711 12.3627 12.6665C12.365 12.6641 12.3662 12.6606 12.3674 12.6571C12.3685 12.6536 12.3697 12.65 12.3721 12.6477L12.3773 12.638C12.382 12.6298 12.3876 12.62 12.3908 12.6102C12.3932 12.6055 12.3955 12.6019 12.3979 12.5984C12.4002 12.5949 12.4026 12.5914 12.4049 12.5867C12.4119 12.5773 12.4178 12.5668 12.4237 12.5562C12.4295 12.5457 12.4354 12.5351 12.4424 12.5257C12.4471 12.5163 12.4518 12.5069 12.4612 12.4976C12.4659 12.4882 12.4706 12.48 12.4753 12.4718C12.48 12.4636 12.4847 12.4553 12.4894 12.446C12.5034 12.4225 12.4894 12.4037 12.4706 12.399C12.5222 12.3334 12.5832 12.2771 12.6583 12.2349H12.6489C12.7136 12.2025 12.7803 12.1645 12.8464 12.1269C12.8855 12.1046 12.925 12.0821 12.9632 12.0613C12.9773 12.0472 12.9914 12.0331 13.0101 12.0237C12.8553 12.0753 12.7146 12.1457 12.5785 12.2395C12.5785 12.2395 12.541 12.2536 12.5316 12.263C12.5316 12.263 12.5034 12.2724 12.4659 12.2395C12.4612 12.2349 12.4612 12.2302 12.4612 12.2208C12.4775 12.1882 12.5111 12.1666 12.5475 12.1432C12.5739 12.1263 12.6017 12.1084 12.6254 12.0847C12.6536 12.0847 12.677 12.0847 12.677 12.1129C13.2174 11.6917 13.8836 11.5942 14.5522 11.4965C14.9633 11.4363 15.3754 11.3761 15.7595 11.2403C15.7994 11.2122 15.8404 11.1852 15.8815 11.1582C15.9225 11.1312 15.9636 11.1043 16.0034 11.0761C16.0719 11.0478 16.1332 10.9993 16.1981 10.948C16.2623 10.8972 16.33 10.8437 16.4116 10.804C16.6274 10.6398 16.7917 10.4522 16.8761 10.1754C16.8761 10.1472 16.848 10.1191 16.848 10.1191C16.4914 10.4991 16.0832 10.7993 15.6469 11.0198C15.2308 11.2381 14.785 11.2704 14.3437 11.3024C14.1779 11.3144 14.0127 11.3264 13.8499 11.3482C13.8781 11.2919 13.9344 11.2919 13.986 11.2919C13.986 11.2253 14.0181 11.1966 14.0593 11.1599C14.0703 11.15 14.082 11.1396 14.0939 11.1277H14.1737C14.1878 11.1277 14.1948 11.1136 14.2018 11.0996C14.2089 11.0855 14.2159 11.0714 14.23 11.0714C14.2863 11.0714 14.366 11.0433 14.3379 11.0433C14.2948 10.9883 14.2323 11.0101 14.1633 11.0341C14.0969 11.0572 14.0246 11.0824 13.9579 11.0433C13.9827 11.0162 13.9901 10.9837 13.9969 10.9542C14.0043 10.9222 14.0108 10.8937 14.0376 10.8791H14.1455C14.1455 10.8228 14.2018 10.7712 14.2018 10.7712C14.4465 10.6249 14.6828 10.4972 14.9147 10.3719C15.0695 10.2882 15.2226 10.2055 15.3748 10.1191C15.344 10.1191 15.3167 10.1317 15.2902 10.1439C15.248 10.1633 15.2079 10.1818 15.1589 10.1472C15.1871 10.1472 15.1871 10.1273 15.1871 10.1074C15.1871 10.0874 15.1871 10.0675 15.2152 10.0675C15.3912 10.0207 15.5479 9.94497 15.7079 9.8676C15.8209 9.81297 15.9355 9.75754 16.0597 9.71095C16.0229 9.71095 15.9887 9.72081 15.9554 9.73043C15.8914 9.74894 15.8305 9.76653 15.7595 9.71095C15.7781 9.70162 15.7932 9.68973 15.808 9.67799C15.838 9.65428 15.8672 9.63119 15.9237 9.63119V9.55144C15.9237 9.5233 15.9518 9.5233 15.98 9.5233C15.9518 9.5233 15.9237 9.49515 15.9237 9.49515C15.9386 9.46535 15.968 9.45921 16.0006 9.45238C16.0297 9.4463 16.0614 9.43968 16.0879 9.4154C16.0597 9.4154 16.0081 9.4154 16.0081 9.38725C16.0879 9.27935 16.224 9.2512 16.36 9.22305C16.3459 9.19491 16.319 9.19491 16.2955 9.19491C16.272 9.19491 16.2521 9.19491 16.2521 9.16676C16.2521 9.13861 16.2803 9.13861 16.3084 9.13861H16.2521C16.2079 9.11652 16.2158 9.0771 16.2212 9.04981C16.2227 9.04233 16.224 9.03576 16.224 9.03071C16.3342 8.90161 16.3704 8.74926 16.4064 8.59778C16.4241 8.52358 16.4417 8.44958 16.4679 8.37862C16.4398 8.37862 16.4116 8.37862 16.4116 8.35048C16.1478 8.64155 15.7297 8.75184 15.3325 8.85662L15.295 8.86652H15.1589C15.0229 8.92281 14.8305 8.92281 14.6945 8.83837C14.6298 8.80462 14.5836 8.76243 14.5338 8.71687C14.5005 8.68644 14.4656 8.65451 14.4223 8.62257C14.2018 8.48652 13.986 8.37862 13.742 8.29418C13.0617 8.07838 12.3533 7.96579 11.6448 7.99394C11.8427 7.88576 12.0527 7.84274 12.2656 7.79915C12.3758 7.77658 12.4868 7.75385 12.5973 7.72184C12.6669 7.70144 12.736 7.6804 12.8046 7.65948C13.1938 7.54088 13.5713 7.42583 13.986 7.44975C13.9317 7.43059 13.8622 7.43751 13.7982 7.44389C13.7682 7.44688 13.7394 7.44975 13.7139 7.44975C13.4003 7.42652 13.0835 7.49594 12.7529 7.56837C12.6829 7.58371 12.6123 7.59919 12.541 7.61395C12.4115 7.64073 12.2884 7.67919 12.1651 7.71771C12.0293 7.76017 11.8932 7.80269 11.7481 7.82974C11.6851 7.85132 11.6346 7.88807 11.5854 7.92386C11.5062 7.98144 11.4304 8.03655 11.3117 8.02209V7.93764C11.5838 7.60925 11.9123 7.28556 12.3486 7.25741C12.7704 7.18913 13.1681 7.23776 13.5829 7.2885C13.6526 7.29702 13.7228 7.30561 13.7936 7.3137C14.1337 7.34091 14.4519 7.41632 14.7948 7.49758L14.8305 7.50604C14.9056 7.50604 14.9478 7.57174 14.9887 7.63536C15.0219 7.68705 15.0543 7.73737 15.1026 7.74999C15.1694 7.77289 15.2362 7.77716 15.303 7.78143C15.4004 7.78766 15.4979 7.79388 15.5953 7.85789C15.5953 7.83895 15.5921 7.82054 15.5889 7.8023C15.5827 7.76634 15.5766 7.73105 15.5953 7.6937C15.6558 7.63317 15.7252 7.64941 15.7935 7.66539C15.847 7.67791 15.8998 7.69026 15.9471 7.66555C16.0959 7.57376 15.9564 7.43285 15.8167 7.29181C15.7494 7.22381 15.682 7.15578 15.6469 7.09321C15.6469 7.06507 15.675 7.03692 15.675 7.03692C15.7366 7.09183 15.794 7.14865 15.851 7.20498C15.9934 7.34597 16.1327 7.4839 16.3272 7.58111C16.4632 7.6374 16.7917 7.71715 16.7354 7.55296C16.639 7.3403 16.4744 7.15589 16.3082 6.96971C16.2397 6.89303 16.171 6.81605 16.1067 6.73668V6.62878C16.0639 6.62878 16.0536 6.61254 16.0409 6.59239C16.0368 6.58602 16.0325 6.57925 16.0269 6.57248V6.46458C15.9581 6.4287 15.9427 6.37186 15.9272 6.3147C15.9184 6.28218 15.9096 6.24956 15.8908 6.22063C15.8438 6.14487 15.8404 6.05165 15.837 5.95556C15.8342 5.87909 15.8313 5.80081 15.8064 5.72805C15.7501 5.56386 15.7266 5.42781 15.6985 5.26361C15.6679 5.09564 15.6343 4.93502 15.6014 4.77777C15.5433 4.50027 15.4875 4.23323 15.4545 3.95475C15.4111 3.55671 15.6133 3.22008 15.82 2.87595C15.8813 2.77394 15.943 2.67126 15.9988 2.56613C16.1911 2.23774 16.4069 1.91404 16.7635 1.69355C16.8413 1.37326 17.053 1.10653 17.2636 0.841115L17.2796 0.820974C17.4875 0.563406 17.8347 0.405946 18.0905 0.289901L18.1194 0.276785C18.4994 0.107899 18.8419 0 18.8466 0H0V14.4444H13.3714C13.729 14.1867 14.0844 14.0241 14.5075 13.8306C14.7005 13.7423 14.9076 13.6475 15.1355 13.5343C15.1837 13.5102 15.2411 13.4822 15.3047 13.451C15.6866 13.2643 16.295 12.9667 16.5242 12.7415ZM12.2813 10.7927C12.2283 10.798 12.172 10.8036 12.1933 10.7613C12.213 10.6663 12.3108 10.6379 12.4063 10.6101C12.4472 10.5982 12.4877 10.5864 12.5214 10.5696L12.5368 10.5616L12.5481 10.5557C12.601 10.5278 12.6657 10.4936 12.7136 10.5134C12.7458 10.559 12.7858 10.5708 12.8246 10.5822C12.8535 10.5907 12.8817 10.599 12.9057 10.621C12.8043 10.7222 12.686 10.7321 12.566 10.7422C12.4863 10.749 12.4059 10.7557 12.3292 10.7893C12.3154 10.7893 12.2985 10.791 12.2813 10.7927ZM8.13049 10.133C8.13049 10.1612 8.15864 10.1893 8.15864 10.1893C8.81549 9.4528 9.41133 8.82417 10.2558 8.30343C10.2785 8.29401 10.27 8.30578 10.2589 8.32141C10.2422 8.3447 10.2194 8.37657 10.284 8.35973C10.5636 8.29636 10.6891 8.05826 10.8113 7.82662C10.8429 7.76672 10.8743 7.70725 10.908 7.65135C11.0361 7.44419 11.2181 7.31147 11.4015 7.17773C11.5337 7.08129 11.6666 6.98432 11.7807 6.85852C11.7807 6.88667 11.7807 6.91482 11.7525 6.94296C11.7807 6.97111 11.8088 6.97111 11.837 6.97111C11.8864 6.93399 11.9405 6.91863 11.9923 6.9039C12.0583 6.88513 12.1207 6.86739 12.1654 6.80692C11.9496 6.72247 11.6727 6.69433 11.4569 6.77877C10.8845 7.05086 10.3966 7.48715 9.93211 7.97974C9.65061 8.27529 9.35972 8.55207 9.00315 8.74441C8.75918 9.23231 8.48706 9.6686 8.13049 10.133ZM10.421 8.38828C10.4063 8.41761 10.3916 8.43289 10.3776 8.44747C10.3648 8.46077 10.3525 8.47352 10.3413 8.49583C10.3132 8.55194 10.2851 8.57532 10.2335 8.60338C10.2054 8.60338 10.1772 8.60338 10.1772 8.57532C10.2054 8.46777 10.2851 8.36022 10.3929 8.33216C10.421 8.33684 10.421 8.3649 10.421 8.38828ZM11.6207 12.5544C11.6442 12.531 11.6723 12.5028 11.6864 12.4747C11.7098 12.4184 11.5645 12.4325 11.5411 12.4465C11.5198 12.4636 11.5062 12.4806 11.4899 12.5011L11.4848 12.5075C11.4653 12.5299 11.4424 12.5506 11.4191 12.5716C11.4034 12.5859 11.3875 12.6003 11.3723 12.6154C11.3067 12.6811 11.2411 12.7468 11.1708 12.8078C11.1239 12.85 11.2739 12.8688 11.3067 12.8406C11.3442 12.8125 11.377 12.7796 11.4098 12.7468C11.4223 12.7468 11.4348 12.7447 11.4431 12.7433L11.4489 12.7424L11.452 12.7421C11.5297 12.7162 11.5875 12.6624 11.6438 12.6101L11.6582 12.5967C11.677 12.5779 11.6536 12.5591 11.6207 12.5544ZM11.1966 12.2494C11.196 12.2495 11.1956 12.2496 11.1954 12.2499C11.1948 12.2504 11.1948 12.2516 11.1948 12.254C11.166 12.2736 11.1376 12.2936 11.1093 12.3135C11.0359 12.3651 10.963 12.4164 10.8851 12.4604C10.8107 12.502 10.7344 12.5381 10.6574 12.5744C10.6131 12.5953 10.5685 12.6164 10.5239 12.6386C10.5239 12.6386 10.5239 12.634 10.5192 12.634C10.5098 12.6199 10.491 12.6152 10.4723 12.6246C10.3691 12.6809 10.2799 12.7559 10.2002 12.8357C10.1861 12.8451 10.172 12.8591 10.1626 12.8732L10.1204 12.9154V12.9201C10.1016 12.9389 10.0829 12.9577 10.0594 12.9858C10.0545 12.9907 10.0508 12.9956 10.0472 13.0002C10.0404 13.0091 10.0341 13.0172 10.0219 13.0233C10.0031 13.0327 9.95619 13.0327 9.96088 13.0046V12.9999C9.9468 13.0093 9.92804 13.0186 9.91396 13.0233C9.90692 13.028 9.89989 13.0315 9.89285 13.0351C9.88581 13.0386 9.87877 13.0421 9.87174 13.0468C9.86704 13.0421 9.85766 13.0421 9.85297 13.0421C9.84828 13.0421 9.83889 13.0421 9.8342 13.0468C9.82325 13.0562 9.81231 13.065 9.80136 13.0739C9.77947 13.0916 9.75757 13.1093 9.73568 13.1312C9.67938 13.1828 9.62777 13.2391 9.57616 13.3001C9.57616 13.3001 9.57616 13.3048 9.57147 13.3048C9.57147 13.3072 9.57029 13.3083 9.56912 13.3095C9.56795 13.3107 9.56677 13.3118 9.56677 13.3142L9.55739 13.3236C9.5556 13.3254 9.55449 13.3272 9.55354 13.3287C9.55201 13.3312 9.55091 13.333 9.54801 13.333L9.54331 13.3376C9.53862 13.347 9.53393 13.3564 9.52455 13.3658C9.51986 13.3705 9.51047 13.3752 9.50109 13.3752C9.4964 13.3705 9.49171 13.3658 9.49171 13.3611C9.48936 13.3588 9.48819 13.3564 9.48701 13.3541C9.48584 13.3517 9.48467 13.3494 9.48232 13.347C9.47763 13.34 9.47411 13.333 9.47059 13.3259C9.46708 13.3189 9.46356 13.3118 9.45886 13.3048V13.3001C9.45886 13.2978 9.45769 13.2954 9.45652 13.2931C9.45535 13.2907 9.45417 13.2884 9.45417 13.286L9.53862 13.1875L9.54331 13.1828C9.548 13.1781 9.55269 13.1723 9.55738 13.1664C9.56207 13.1606 9.56677 13.1547 9.57147 13.15C9.5785 13.1406 9.58671 13.1312 9.59492 13.1218C9.60313 13.1125 9.61135 13.1031 9.61838 13.0937C9.62073 13.089 9.62307 13.0855 9.62542 13.082C9.62777 13.0785 9.63011 13.0749 9.63246 13.0702C9.66061 13.0327 9.68876 12.9952 9.71691 12.953V12.9483C9.7216 12.9436 9.72629 12.9389 9.72629 12.9295C9.74036 12.9107 9.75445 12.892 9.76383 12.8732L9.79198 12.8169V12.8122L9.79667 12.8075C9.79667 12.8052 9.79784 12.804 9.79901 12.8028C9.80019 12.8017 9.80136 12.8005 9.80136 12.7981C9.80605 12.7864 9.81074 12.7759 9.81543 12.7653C9.82012 12.7548 9.82482 12.7442 9.82951 12.7325V12.7278L9.8342 12.709C9.83655 12.7043 9.83772 12.6996 9.83889 12.6949C9.84007 12.6902 9.84124 12.6856 9.84359 12.6809V12.6762C9.84593 12.6691 9.8471 12.6621 9.84828 12.6551C9.84945 12.648 9.85062 12.641 9.85297 12.634C9.85297 12.6293 9.85297 12.6199 9.84828 12.6152C9.87643 12.5636 9.91396 12.5167 9.95619 12.4698C9.95384 12.4698 9.9515 12.4709 9.94915 12.4721C9.9478 12.4728 9.94646 12.4734 9.94511 12.4739C9.94411 12.4742 9.94311 12.4745 9.94211 12.4745C9.92123 12.4875 9.90325 12.5049 9.88495 12.5226C9.87035 12.5368 9.85555 12.5511 9.83889 12.5636C9.81074 12.587 9.75444 12.5495 9.79198 12.5214C9.81543 12.5026 9.83419 12.4838 9.85295 12.4651C9.85295 12.4651 9.85297 12.4604 9.85766 12.4604C9.87636 12.4435 9.89432 12.4245 9.91242 12.4053C9.93972 12.3763 9.96739 12.3469 9.99841 12.3243C10.0313 12.3009 10.0547 12.2821 10.0829 12.2587C10.0876 12.254 10.0922 12.2493 10.0969 12.2493C10.1157 12.2258 10.1345 12.2024 10.1579 12.1789C10.1579 12.1789 10.1626 12.1789 10.1626 12.1742C10.3237 12.0189 10.5501 11.9641 10.7812 11.9081C10.927 11.8729 11.0746 11.8371 11.2089 11.7754C11.2847 11.7441 11.3693 11.7564 11.4529 11.7686C11.5193 11.7783 11.585 11.7879 11.6452 11.7754C11.725 11.7754 11.8094 11.7754 11.8892 11.8317C11.7037 11.9299 11.5266 12.0423 11.3515 12.1534C11.3007 12.1855 11.25 12.2177 11.1995 12.2493C11.1982 12.2493 11.1972 12.2493 11.1966 12.2494ZM11.7828 10.3373C11.7609 10.3398 11.7466 10.3415 11.7588 10.3537C11.8386 10.4334 12.0028 10.4053 12.1154 10.3443C12.1952 10.288 12.2796 10.288 12.3875 10.288C12.4157 10.288 12.4157 10.2364 12.4157 10.2082C12.4954 10.2364 12.5517 10.2364 12.6315 10.2364C13.2837 10.1003 13.9123 9.96429 14.5129 9.66404C13.9052 9.19729 13.1561 8.98938 12.4223 8.78573C12.3006 8.75195 12.1793 8.71828 12.0591 8.68357C12.0855 8.68357 12.1119 8.69231 12.1385 8.70112C12.1922 8.7189 12.2466 8.73691 12.3031 8.68357C12.2286 8.62453 12.1458 8.61324 12.0637 8.60207C11.9958 8.59281 11.9284 8.58364 11.8668 8.54752C11.8732 8.54752 11.8808 8.54899 11.8891 8.55058C11.9172 8.55597 11.9529 8.56282 11.9747 8.51937C11.8321 8.44812 11.6896 8.42392 11.5458 8.39949C11.4718 8.38692 11.3974 8.3743 11.3225 8.35518C11.4586 8.32703 11.543 8.21913 11.543 8.08308C11.543 8.05493 11.4867 8.05493 11.4586 8.05493C11.1348 8.21913 10.9143 8.51937 10.7783 8.87122C10.9009 8.94301 11.0331 8.93469 11.1627 8.92653C11.2363 8.9219 11.3091 8.91731 11.3788 8.92751C11.3173 8.98561 11.2284 9.00138 11.1429 9.01655C11.1111 9.0222 11.0797 9.02777 11.0504 9.03541C10.9659 9.05418 10.8862 9.11516 10.9143 9.17146C10.9331 9.19492 10.9519 9.2043 10.9753 9.20899C10.9143 9.22775 10.858 9.2559 10.8064 9.30751C10.8837 9.36795 10.9633 9.35629 11.0419 9.34477C11.0731 9.3402 11.1042 9.33565 11.1348 9.33565C11.1348 9.36973 11.1573 9.3813 11.1807 9.39334C11.1928 9.39953 11.205 9.40584 11.2146 9.41541C11.0785 9.46701 10.9706 9.5796 10.9425 9.65935C10.9089 9.74062 10.8468 9.79343 10.7852 9.84578C10.7437 9.88107 10.7025 9.91615 10.6704 9.95959V10.044C10.5797 10.1239 10.4866 10.1952 10.3947 10.2656C10.206 10.4101 10.0226 10.5505 9.87747 10.7524C9.90562 10.7524 9.90562 10.7806 9.90562 10.8087C9.87966 10.8477 9.84273 10.8746 9.8077 10.9002C9.76676 10.9301 9.72843 10.9581 9.71326 11.0011C9.71326 11.0292 9.71326 11.0574 9.74141 11.0574C9.91357 11.0008 10.0625 10.9056 10.2086 10.8122C10.3411 10.7274 10.4712 10.6443 10.6141 10.5929C10.7308 10.565 10.8325 10.5124 10.9316 10.461C11.0158 10.4175 11.0982 10.3748 11.1865 10.349C11.2545 10.3349 11.3296 10.315 11.4046 10.295C11.4797 10.2751 11.5548 10.2551 11.6228 10.2411C11.6228 10.2692 11.6228 10.2974 11.6509 10.2974H11.8668C11.8535 10.3293 11.8115 10.3341 11.7828 10.3373Z" fill="#000091"/>
</g>
<path id="Rouge" d="M39.9608 0H24.3317C24.3317 0 24.36 0.00469585 24.4781 0.0657419C24.6057 0.131484 24.7711 0.220705 24.8703 0.272359C25.0734 0.375668 25.2671 0.507152 25.3947 0.709074C25.4514 0.788903 25.5317 0.953258 25.4798 1.06126C25.4231 1.19744 25.3947 1.41815 25.2577 1.4698C25.0923 1.55433 24.875 1.55433 24.6813 1.52615C24.5726 1.52615 24.464 1.49798 24.3506 1.4698C24.7616 1.63416 25.149 1.82669 25.4231 2.20705C25.4514 2.2634 25.5601 2.28688 25.6687 2.28688C25.6971 2.28688 25.6971 2.34323 25.6971 2.36671C25.6404 2.42306 25.5884 2.45124 25.6168 2.53106H25.6971C25.8341 2.47471 25.8058 2.20236 25.9995 2.28688C26.1365 2.36671 26.1932 2.55924 26.1081 2.69542C25.9995 2.80342 25.8908 2.88795 25.7774 2.96778C25.7491 3.02413 25.7491 3.10396 25.7774 3.16031C25.8577 3.26831 25.8861 3.37632 25.9144 3.48902C25.9995 3.68155 26.0231 3.89756 26.1081 4.09009C26.2168 4.49863 26.3255 4.90717 26.3018 5.3204C26.3018 5.53641 26.1932 5.72894 26.2735 5.94965C26.3302 6.16566 26.4672 6.33001 26.5759 6.52254C26.6845 6.68689 26.7932 6.7949 26.8782 6.95925C27.0436 7.23161 27.346 7.50397 27.209 7.83268C27.1287 8.02521 26.8263 7.99704 26.6326 8.10504C26.4672 8.24122 26.6042 8.46193 26.6893 8.59811C26.8263 8.84229 26.5239 9.00665 26.3302 9.09117C26.3869 9.1757 26.4956 9.14752 26.5239 9.19918C26.5522 9.33536 26.6893 9.41518 26.6042 9.55606C26.4956 9.72042 26.1648 9.80025 26.3302 10.0491C26.4389 10.2417 26.368 10.453 26.3018 10.6502C26.2215 10.8944 25.9995 11.0024 25.8058 11.0587C25.6404 11.1151 25.4467 11.1151 25.286 11.0869C25.2293 11.0587 25.1774 11.0306 25.1207 11.0306C24.6529 10.9742 24.1852 10.8427 23.7222 10.8427C23.5852 10.8709 23.4482 10.8944 23.3395 10.9507C23.2166 11.04 23.1033 11.1386 23.0088 11.2419C23.0088 11.2419 23.0088 11.2419 23.004 11.2466C22.9851 11.27 22.9615 11.2888 22.9426 11.3123C22.9332 11.3264 22.919 11.3405 22.9095 11.3546C22.9001 11.364 22.8954 11.3734 22.8859 11.3827C22.8056 11.4814 22.7347 11.5894 22.6686 11.6974C22.6639 11.7068 22.6591 11.7115 22.6544 11.7162C22.6497 11.7302 22.6402 11.7396 22.6308 11.7537C22.541 11.9181 22.4749 12.0871 22.4229 12.2562C22.2339 12.8807 22.319 13.4161 22.4513 13.5475C22.489 13.5851 23.3584 13.8528 23.9631 14.1204C24.2466 14.2472 24.4451 14.3411 24.6104 14.4444H39.9561V0H39.9608Z" fill="#E1000F"/>
<path id="Oeil" d="M25.2587 5.26861C25.3674 5.29674 25.5328 5.29674 25.5328 5.35302C25.4761 5.56875 25.1501 5.62502 24.9847 5.84544H24.8996C24.8193 5.90172 24.8429 6.03772 24.7626 6.03772C24.6822 6.00958 24.5972 6.03772 24.5168 6.06586C24.6255 6.17372 24.7626 6.25814 24.928 6.23C24.9563 6.23 25.0083 6.28627 25.0083 6.33786C25.0083 6.33786 25.0366 6.33786 25.065 6.30972C25.0933 6.30972 25.1217 6.30972 25.1217 6.33786V6.44573C25.0414 6.55359 24.8996 6.502 24.7909 6.52545C25.013 6.58173 25.2304 6.58173 25.4241 6.52545C25.5895 6.46917 25.4241 6.19717 25.5328 6.06117C25.4761 6.06117 25.5328 5.97675 25.4761 5.97675C25.5328 5.92048 25.5848 5.84075 25.6415 5.81261C25.6982 5.81261 25.7786 5.78447 25.8069 5.7282C25.8069 5.67192 25.6982 5.64847 25.7219 5.5922C25.8872 5.48433 26.0243 5.32019 25.9676 5.15605C25.9392 5.07164 25.7219 5.07164 25.5848 5.02005C25.4478 4.96846 25.2824 5.02005 25.117 5.04819C24.9799 5.04819 24.8429 5.1326 24.7059 5.15605C24.5121 5.21233 24.3467 5.32019 24.186 5.42806C24.3798 5.34833 24.5688 5.32019 24.7909 5.26392C24.9563 5.26861 25.0933 5.23109 25.2587 5.26861Z" fill="#808080"/>
<g id="Intitul&#195;&#169; officiel">
<path d="M1.49707 32.5H3.56046V28.4123H4.62122L7.33851 32.5H9.76517L6.5829 28.0223C7.62913 27.5456 8.22489 26.6356 8.22489 25.4078C8.22489 23.53 6.84446 22.3889 4.60669 22.3889H1.49707V32.5ZM4.72294 24.0934C5.5948 24.0934 6.10338 24.6134 6.10338 25.3789C6.10338 26.2023 5.5948 26.7078 4.72294 26.7078H3.56046V24.0934H4.72294Z" fill="#161616"/>
<path d="M15.1699 21.5223L17.0589 19.5723H14.9374L13.2954 21.5223H15.1699ZM11.2901 32.5H17.2188V30.7956H13.3535V28.1956H16.6375V26.4912H13.3535V24.0934H17.2188V22.3889H11.2901V32.5Z" fill="#161616"/>
<path d="M19.8344 32.5H21.8978V28.4123H23.1911C25.4288 28.4123 26.7948 27.2712 26.7948 25.4078C26.7948 23.53 25.4288 22.3889 23.1911 22.3889H19.8344V32.5ZM23.2783 24.0934C24.1501 24.0934 24.6732 24.6134 24.6732 25.3789C24.6732 26.2023 24.1501 26.7078 23.2783 26.7078H21.8978V24.0934H23.2783Z" fill="#161616"/>
<path d="M34.7179 28.7156C34.7179 30.0734 33.9332 30.8678 32.669 30.8678C31.3757 30.8678 30.6056 30.0734 30.6056 28.7156V22.3889H28.5422V28.5423C28.5422 31.2 30.1115 32.7889 32.6545 32.7889C35.2119 32.7889 36.7812 31.2 36.7812 28.5423V22.3889H34.7179V28.7156Z" fill="#161616"/>
<path d="M39.5625 32.5H42.7738C45.1133 32.5 46.5518 31.3734 46.5518 29.5245C46.5518 28.47 45.9561 27.6034 44.8808 27.1267C45.5928 26.6645 45.9706 25.9567 45.9706 25.1334C45.9706 23.4289 44.6773 22.3889 42.5558 22.3889H39.5625V32.5ZM42.5994 24.0934C43.3841 24.0934 43.8491 24.5123 43.8491 25.22C43.8491 25.9567 43.3841 26.3756 42.5994 26.3756H41.6258V24.0934H42.5994ZM42.89 28.08C43.8491 28.08 44.4303 28.5712 44.4303 29.4378C44.4303 30.29 43.8491 30.7956 42.89 30.7956H41.6258V28.08H42.89Z" fill="#161616"/>
<path d="M48.8872 32.5H54.8159V30.6367H50.9506V22.3889H48.8872V32.5Z" fill="#161616"/>
<path d="M56.8497 32.5H58.9131V22.3889H56.8497V32.5Z" fill="#161616"/>
<path d="M70.5038 32.24L69.8935 31.6623C71.1432 30.68 71.8988 29.1345 71.8988 27.4445C71.8988 24.5556 69.7046 22.1 66.5078 22.1C63.2965 22.1 61.1023 24.5556 61.1023 27.4445C61.1023 30.3334 63.2965 32.7889 66.5078 32.7889C67.0019 32.7889 67.4669 32.7312 67.9028 32.6156L69.1088 33.6845C70.1115 34.5512 71.1577 35.0134 72.2911 35.0134C72.7416 35.0134 73.0322 34.9556 73.3664 34.8256V33.0923C73.1484 33.1789 72.8578 33.2078 72.6399 33.2078C71.986 33.2078 71.2885 32.9478 70.5038 32.24ZM66.5078 30.8678C64.5897 30.8678 63.2238 29.38 63.2238 27.4445C63.2238 25.5089 64.5897 24.0212 66.5078 24.0212C68.4114 24.0212 69.7773 25.5089 69.7773 27.4445C69.7773 29.38 68.4114 30.8678 66.5078 30.8678Z" fill="#161616"/>
<path d="M80.093 28.7156C80.093 30.0734 79.3083 30.8678 78.0441 30.8678C76.7509 30.8678 75.9807 30.0734 75.9807 28.7156V22.3889H73.9173V28.5423C73.9173 31.2 75.4867 32.7889 78.0296 32.7889C80.587 32.7889 82.1564 31.2 82.1564 28.5423V22.3889H80.093V28.7156Z" fill="#161616"/>
<path d="M84.9376 32.5H90.8662V30.7956H87.001V28.1956H90.285V26.4912H87.001V24.0934H90.8662V22.3889H84.9376V32.5Z" fill="#161616"/>
<path d="M97.4711 32.5H99.5345V28.1956H102.818V26.4912H99.5345V24.0934H103.4V22.3889H97.4711V32.5Z" fill="#161616"/>
<path d="M105.434 32.5H107.497V28.4123H108.558L111.275 32.5H113.702L110.519 28.0223C111.566 27.5456 112.161 26.6356 112.161 25.4078C112.161 23.53 110.781 22.3889 108.543 22.3889H105.434V32.5ZM108.659 24.0934C109.531 24.0934 110.04 24.6134 110.04 25.3789C110.04 26.2023 109.531 26.7078 108.659 26.7078H107.497V24.0934H108.659Z" fill="#161616"/>
<path d="M114.388 32.5H116.582L117.556 29.8712H121.624L122.598 32.5H124.792L120.941 22.3889H118.239L114.388 32.5ZM118.195 28.1234L119.59 24.3245L120.985 28.1234H118.195Z" fill="#161616"/>
<path d="M126.581 32.5H128.644V25.1912L133.192 32.5H135.837V22.3889H133.773V29.6978L129.225 22.3889H126.581V32.5Z" fill="#161616"/>
<path d="M143.433 30.8678C141.515 30.8678 140.149 29.38 140.149 27.4445C140.149 25.5089 141.515 24.0212 143.433 24.0212C144.596 24.0212 145.511 24.5845 146.092 25.4078L147.72 24.1512C146.79 22.9234 145.279 22.1 143.433 22.1C140.222 22.1 138.028 24.5556 138.028 27.4445C138.028 30.0156 139.771 32.24 142.416 32.7023L141.137 34.8256H142.968L144.232 32.7312C145.715 32.5434 146.935 31.7923 147.72 30.7234L146.092 29.4812C145.511 30.3045 144.596 30.8678 143.433 30.8678Z" fill="#161616"/>
<path d="M148.379 32.5H150.573L151.547 29.8712H155.615L156.589 32.5H158.783L154.932 22.3889H152.23L148.379 32.5ZM152.186 28.1234L153.581 24.3245L154.976 28.1234H152.186Z" fill="#161616"/>
<path d="M160.572 32.5H162.635V22.3889H160.572V32.5Z" fill="#161616"/>
<path d="M164.781 31.0989C165.682 32.1678 166.83 32.7889 168.544 32.7889C170.419 32.7889 171.901 31.6478 171.93 29.7412C171.93 26.2745 167.309 26.7945 167.309 24.96C167.309 24.3534 167.789 23.8912 168.515 23.8912C169.285 23.8912 169.954 24.3967 170.549 25.1623L172.061 23.8045C171.189 22.7789 170.026 22.1 168.501 22.1C166.553 22.1 165.217 23.4289 165.217 25.0323C165.217 28.4556 169.837 27.95 169.837 29.8134C169.837 30.5356 169.343 30.9689 168.53 30.9689C167.701 30.9689 166.888 30.5067 166.277 29.7267L164.781 31.0989Z" fill="#161616"/>
<path d="M174.311 32.5H180.24V30.7956H176.375V28.1956H179.659V26.4912H176.375V24.0934H180.24V22.3889H174.311V32.5Z" fill="#161616"/>
</g>
<path id="Fraternit&#195;&#169;" fill-rule="evenodd" clip-rule="evenodd" d="M37.7514 58.2847L36.4 59.5124H36.0512L36.8504 58.1113H37.7514V58.2847ZM36.7778 63.0361H36.4872C36.1239 63.4695 35.717 63.8161 35.3247 63.8161C34.9178 63.8161 34.7144 63.5706 34.7144 63.0361C34.7144 62.8195 34.7435 62.5884 34.787 62.3862L37.1556 61.6062C37.6206 60.5085 37.0684 60.0319 36.4145 60.0319C35.2956 60.0319 34.0169 61.9818 34.0169 63.5417C34.0169 64.2783 34.3656 64.6827 34.9178 64.6827C35.5572 64.6683 36.2256 64.0472 36.7778 63.0361ZM35.965 60.6678C36.2847 60.6678 36.5608 60.9133 36.4154 61.4766L34.9478 61.8666C35.1803 61.1733 35.6162 60.6678 35.965 60.6678ZM31.3447 60.6963H32.1294L30.8797 64.105C30.7635 64.3939 30.9233 64.6827 31.2285 64.6827C32.1149 64.6827 33.1757 63.9317 33.5825 62.8628H33.3646C33.0449 63.3106 32.3474 63.8017 31.8243 63.8883L32.9722 60.6963H34.1493L34.2946 60.2052H33.1466L33.5825 58.9775H33.1321L32.3183 60.2052L31.3447 60.3352V60.6963ZM30.2541 60.0472C30.4139 60.0472 30.6319 60.2205 30.5302 60.5382L29.1207 63.9325C29.4839 63.8747 29.8618 63.5281 30.0797 63.2103H30.3122C29.978 64.0625 29.2224 64.6836 28.5685 64.6836C28.4086 64.6836 28.1761 64.5102 28.2924 64.1925L29.6002 60.7982C29.2369 60.856 28.8591 61.2026 28.6411 61.5204H28.4232C28.7574 60.6538 29.5711 60.0472 30.2541 60.0472ZM30.6619 59.1802C30.9526 59.1802 31.1996 58.9491 31.1996 58.6457C31.1996 58.3569 30.9526 58.1113 30.6619 58.1113C30.3568 58.1113 30.1243 58.3569 30.1243 58.6457C30.1243 58.9346 30.3713 59.1802 30.6619 59.1802ZM24.3116 61.997C24.6313 61.3037 24.515 60.986 24.3116 60.986C24.1372 60.986 23.9338 61.1738 23.7304 61.5204H23.5124C23.8466 60.7838 24.2825 60.0472 24.7621 60.0472C25.1689 60.0472 25.3143 60.4516 25.3143 60.8993V61.5348C25.3797 61.4592 25.4433 61.385 25.5055 61.3124L25.5067 61.3111L25.5076 61.31C26.1215 60.5939 26.5902 60.0472 27.1307 60.0472C27.5521 60.0472 27.77 60.3071 27.77 60.6971C27.77 60.9282 27.6974 61.2171 27.5375 61.5204L26.3314 63.9325C26.6947 63.8747 27.0725 63.5281 27.2905 63.2103H27.5085C27.1743 64.0769 26.3605 64.6836 25.6775 64.6836C25.3724 64.6836 25.198 64.3658 25.3288 64.1058L26.7238 61.4337C26.8836 61.1304 26.9127 60.9282 26.6657 60.9282C26.3314 60.9282 25.5468 61.4771 25.1254 61.9826L24.2099 64.3802C24.1082 64.6258 24.0065 64.6836 23.774 64.6836C23.3961 64.6836 23.2072 64.438 23.3816 64.048L24.3116 61.997ZM23.366 61.0718C23.5259 60.523 23.4387 60.0319 23.0173 60.0319C22.4917 60.0319 22.3272 60.3769 21.8179 61.4446L21.7821 61.5196V60.884C21.7821 60.4363 21.6368 60.0319 21.2299 60.0319C20.7504 60.0319 20.3145 60.7685 19.9802 61.5051H20.1982C20.4307 61.1729 20.6487 60.9707 20.8231 60.9707C21.0265 60.9707 21.1427 61.2885 20.8231 61.9818L19.8931 64.0328C19.7187 64.4227 19.9076 64.6683 20.2854 64.6683C20.5179 64.6683 20.6196 64.6105 20.7213 64.365L21.6368 61.9673C21.8984 61.6496 22.1309 61.3751 22.4215 61.0718H23.366ZM18.7745 61.4766C18.9198 60.9133 18.6437 60.6678 18.324 60.6678C17.9753 60.6678 17.5393 61.1733 17.3068 61.8666L18.7745 61.4766ZM19.1369 63.0361H18.8462C18.483 63.4695 18.0761 63.8161 17.6838 63.8161C17.2769 63.8161 17.0734 63.5706 17.0734 63.0361C17.0734 62.8195 17.1025 62.5884 17.1461 62.3862L19.5147 61.6062C19.9797 60.5085 19.4275 60.0319 18.7736 60.0319C17.6547 60.0319 16.3759 61.9818 16.3759 63.5417C16.3759 64.2783 16.7247 64.6827 17.2769 64.6827C17.9163 64.6683 18.5847 64.0472 19.1369 63.0361ZM14.4885 60.6963H13.7038V60.3352L14.6774 60.2052L15.4911 58.9775H15.9416L15.5057 60.2052H16.6536L16.5083 60.6963H15.3313L14.1833 63.8883C14.7064 63.8017 15.4039 63.3106 15.7236 62.8628H15.9416C15.5347 63.9317 14.4739 64.6827 13.5875 64.6827C13.2824 64.6827 13.1225 64.3939 13.2388 64.105L14.4885 60.6963ZM9.5486 63.3398C9.5486 62.2854 10.7256 60.8699 11.3795 60.8699C11.5248 60.8699 11.6702 60.8844 11.7864 60.9277L11.1034 62.7476C10.7111 63.2243 10.1008 63.802 9.81016 63.802C9.65032 63.802 9.5486 63.6576 9.5486 63.3398ZM12.7894 59.8156L13.1527 59.8445L11.8885 62.7332C11.5833 63.4265 11.7141 63.7443 11.8885 63.7443C12.0629 63.7443 12.2808 63.542 12.5133 63.2098H12.7313C12.3971 63.9465 11.9611 64.6831 11.4816 64.6831C11.0747 64.6831 10.8277 64.2498 10.9004 63.4698L10.9294 63.1954L10.8503 63.3053C10.3298 64.0286 9.85877 64.6831 9.37459 64.6831C8.95319 64.6831 8.73522 64.4231 8.73522 64.0331C8.73522 62.3577 10.5807 60.22 12.3099 60.22H12.3825L12.7894 59.8156ZM9.46087 61.0718C9.62071 60.523 9.53353 60.0319 9.11212 60.0319C8.58658 60.0319 8.42202 60.3769 7.91274 61.4446L7.87697 61.5196V60.884C7.87697 60.4363 7.73166 60.0319 7.32479 60.0319C6.84526 60.0319 6.40932 60.7685 6.07511 61.5051H6.29307C6.52557 61.1729 6.74354 60.9707 6.90338 60.9707C7.10682 60.9707 7.22307 61.2885 6.90338 61.9818L5.97339 64.0472C5.79901 64.4372 5.98792 64.6827 6.36573 64.6827C6.59823 64.6827 6.69995 64.6249 6.80167 64.3794L7.71713 61.9818C7.97869 61.664 8.21119 61.3896 8.50181 61.0863H9.46087V61.0718ZM3.47295 64.2485L3.38576 64.5085H0L0.0871871 64.2341C1.13343 64.0463 1.30781 63.9597 1.74374 62.7897L2.68827 60.2765C3.10967 59.1066 3.02249 59.0199 2.10702 58.8322L2.19421 58.5722H6.59716L6.33559 59.9732H6.01591C6.01591 59.1355 5.92872 58.9188 5.12951 58.9188H4.92607C4.14139 58.9188 4.03967 59.0344 3.8217 59.641L3.19686 61.3309H4.11232C4.72263 61.3309 4.95513 60.9554 5.23122 60.4643H5.55091L4.79529 62.5153H4.4756C4.54826 61.8942 4.54826 61.6487 3.98154 61.6487H3.06608L2.64467 62.8042C2.18915 64.0069 2.31932 64.0314 3.40403 64.2355C3.42659 64.2398 3.44956 64.2441 3.47295 64.2485Z" fill="#161616"/>
<path id="&#195;&#137;galit&#195;&#169;" fill-rule="evenodd" clip-rule="evenodd" d="M6.34981 47.2339L4.99843 48.2017V48.2161H4.64969L5.44889 47.0605H6.34981V47.2339ZM15.7962 54.0082L17.9613 48.2882L17.8886 48.2015L16.392 48.3749V48.5482L16.6826 48.7649C16.9307 48.9567 16.865 49.1355 16.6591 49.6959L16.6244 49.7904L14.9679 54.1815C14.8371 54.4415 15.0115 54.7593 15.3167 54.7593C15.9996 54.7593 16.7262 54.1382 17.0604 53.286H16.8424C16.6099 53.6037 16.1449 53.9504 15.7962 54.0082ZM25.7198 49.6026L27.0711 48.3749V48.2015H26.1702L25.371 49.6026H25.7198ZM25.806 53.1126H26.0966C25.559 54.1382 24.8906 54.7593 24.2512 54.7593C23.699 54.7593 23.3503 54.3548 23.3503 53.6182C23.3503 52.0582 24.629 50.1082 25.7479 50.1082C26.3872 50.1082 26.9539 50.5848 26.489 51.6826L24.1059 52.4626C24.0623 52.6648 24.0332 52.8959 24.0332 53.1126C24.0332 53.647 24.2367 53.8926 24.6435 53.8926C25.0359 53.8926 25.4427 53.5459 25.806 53.1126ZM25.7326 51.5527C25.878 51.0038 25.6019 50.7582 25.2822 50.7582C24.948 50.7582 24.5121 51.2638 24.265 51.9427L25.7326 51.5527ZM21.4605 50.7868H20.6759V50.4256L21.6494 50.2956L22.4632 49.0679H22.9136L22.4777 50.2956H23.6256L23.4803 50.7868H22.3033L21.1554 53.979C21.6785 53.8923 22.376 53.4012 22.6957 52.9534H22.9136C22.5068 54.0223 21.446 54.7734 20.5596 54.7734C20.2545 54.7734 20.0946 54.4845 20.2109 54.1956L21.4605 50.7868ZM19.8621 50.6134C19.9492 50.2956 19.7458 50.1223 19.5714 50.1223C18.8885 50.1223 18.0748 50.7434 17.7405 51.5956H17.9585C18.1765 51.2778 18.5543 50.9312 18.9175 50.8734L17.6098 54.2678C17.4935 54.5856 17.726 54.7589 17.8859 54.7589C18.5397 54.7589 19.2953 54.1378 19.6296 53.2856H19.4116C19.1936 53.6034 18.8158 53.95 18.4526 54.0078L19.8621 50.6134ZM20.5315 48.736C20.5315 49.0249 20.2845 49.2704 19.9939 49.2704C19.7033 49.2704 19.4563 49.0249 19.4563 48.736C19.4563 48.4471 19.6888 48.2015 19.9939 48.2015C20.2845 48.2015 20.5315 48.4471 20.5315 48.736ZM13.195 50.9604C12.5411 50.9604 11.3641 52.376 11.3641 53.4304C11.3641 53.7482 11.4658 53.8926 11.6402 53.8926C11.9163 53.8926 12.5266 53.3148 12.9189 52.8382L13.6018 51.0182C13.4711 50.9749 13.3403 50.9604 13.195 50.9604ZM14.9681 49.9349L14.6048 49.906L14.198 50.3104H14.1253C12.3961 50.3104 10.5507 52.4482 10.5507 54.1237C10.5507 54.5137 10.7687 54.7737 11.1901 54.7737C11.6742 54.7737 12.1452 54.1192 12.6657 53.3959L12.7449 53.286L12.7158 53.5604C12.6432 54.3404 12.8902 54.7737 13.2971 54.7737C13.7766 54.7737 14.2125 54.0371 14.5467 53.3004H14.3287C14.0962 53.6326 13.8783 53.8349 13.7039 53.8349C13.5295 53.8349 13.3988 53.5171 13.7039 52.8238L14.9681 49.9349ZM7.64372 54.615C7.01889 54.8605 6.58296 55.1494 6.58296 55.5972C6.58296 56.0161 6.9753 56.1894 7.78903 56.1894C8.87884 56.1894 9.47461 55.8716 9.47461 55.4528C9.47461 55.265 9.22758 55.1783 8.5737 54.9617C8.1523 54.8317 7.84715 54.7161 7.64372 54.615ZM8.36931 52.8383C8.07869 52.8383 7.97698 52.5927 7.97698 52.3327C7.97698 51.4949 8.38384 50.4549 9.03773 50.4549C9.32835 50.4549 9.43006 50.7005 9.43006 50.9605C9.41553 51.8127 9.00867 52.8383 8.36931 52.8383ZM8.92295 54.1959C9.72215 54.4415 10.2162 54.6293 10.2162 55.1781C10.2162 55.8859 8.90842 56.7237 7.32455 56.7093C6.4091 56.7093 5.62444 56.4637 5.62444 55.8715C5.62444 55.3081 6.14755 54.8459 7.42627 54.4704C7.2519 54.3548 7.17924 54.2104 7.17924 54.0082C7.17924 53.6615 7.49892 53.387 8.05109 53.1271C7.51345 53.0548 7.16471 52.6504 7.16471 52.0582C7.16471 51.1482 7.92032 50.1082 9.11185 50.1082C9.35887 50.1082 9.57684 50.166 9.75121 50.2815H11.059L10.9137 50.7726H10.1435C10.1871 50.9026 10.2162 51.0471 10.2162 51.206C10.2162 52.0871 9.50418 53.0982 8.37077 53.1559C8.08016 53.3148 7.93485 53.5315 7.93485 53.7048C7.93485 53.9088 8.17254 53.9778 8.69787 54.1302C8.76777 54.1504 8.84275 54.1722 8.92295 54.1959ZM4.31567 51.7261C4.88238 51.7261 4.89691 51.9716 4.80972 52.5927H5.1294L5.88501 50.5416H5.56533C5.28924 51.0327 5.05675 51.4083 4.44645 51.4083H3.19679L3.80709 49.7183C4.02505 49.1116 4.12677 48.9961 4.91144 48.9961H5.46361C6.26281 48.9961 6.35 49.2127 6.35 50.0505H6.66968L6.93123 48.6494H2.19416L2.10698 48.9094C3.02242 49.0972 3.10961 49.1838 2.68821 50.3538L1.74371 52.8816C1.30778 54.0516 1.13341 54.1383 0.0726544 54.326L0 54.6005H5.26018L6.20469 53.1127H5.84141C5.23112 53.7049 4.62082 54.2538 3.42929 54.2538C2.11869 54.2538 2.14204 54.1901 2.53528 53.1162C2.56059 53.0471 2.58744 52.9738 2.61556 52.896L3.05149 51.7405H4.31567V51.7261Z" fill="#161616"/>
<path id="Libert&#195;&#169;" fill-rule="evenodd" clip-rule="evenodd" d="M8.65914 39.3462C8.94976 39.3462 9.19678 39.1006 9.19678 38.8117C9.19678 38.5229 8.94976 38.2773 8.65914 38.2773C8.354 38.2773 8.12151 38.5229 8.12151 38.8117C8.12151 39.1151 8.354 39.3462 8.65914 39.3462ZM12.9618 41.1656C12.9618 40.4724 12.7874 40.2124 12.2934 40.2124C11.6831 40.2124 11.1164 40.8623 10.5497 41.6423L11.7703 38.3925L11.6976 38.2914L10.201 38.4647V38.638L10.4916 38.8547C10.7446 39.0503 10.6712 39.2459 10.4557 39.8208L10.4334 39.8802L9.11115 43.3177C8.9949 43.6066 8.86413 43.9532 8.86413 44.0399C8.86413 44.4443 9.41629 44.8342 9.92487 44.8342C11.0583 44.8487 12.9618 42.7688 12.9618 41.1656ZM25.5599 39.6924L26.9113 38.4647V38.2914H26.0104L25.2112 39.6924H25.5599ZM25.6475 43.2022H25.9381C25.3859 44.2276 24.7175 44.8487 24.0781 44.8343C23.526 44.8343 23.1772 44.4443 23.1772 43.7077C23.1772 42.1478 24.4559 40.1979 25.5748 40.1979C26.2142 40.1979 26.7809 40.6746 26.3159 41.7723L23.9474 42.5522C23.9038 42.7544 23.8747 42.9855 23.8747 43.2022C23.8747 43.7366 24.0781 43.9821 24.485 43.9821C24.8773 43.9821 25.2842 43.6355 25.6475 43.2022ZM25.5734 41.6423C25.7187 41.0935 25.4426 40.8479 25.1229 40.8479C24.7742 40.8479 24.3383 41.3535 24.1058 42.0323L25.5734 41.6423ZM21.2852 40.8777H20.5005V40.5166L21.4741 40.3866L22.2878 39.1589H22.7383L22.3024 40.3866H23.4503L23.305 40.8777H22.128L20.9801 44.0696C21.5032 43.983 22.2006 43.4919 22.5203 43.0441H22.7383C22.3314 44.113 21.2707 44.864 20.3843 44.864C20.0792 44.864 19.9193 44.5751 20.0356 44.2863L21.2852 40.8777ZM20.0964 41.2531C20.2563 40.7043 20.1691 40.2132 19.7477 40.2132C19.2222 40.2132 19.0576 40.5582 18.5484 41.6259L18.5126 41.7009V41.0654C18.5126 40.6176 18.3673 40.2132 17.9604 40.2132C17.4809 40.2132 17.045 40.9498 16.7108 41.6864H16.9287C17.1612 41.3543 17.3792 41.152 17.539 41.152C17.7425 41.152 17.8587 41.4698 17.539 42.1631L16.6091 44.214C16.4347 44.604 16.6236 44.8495 17.0014 44.8495C17.2339 44.8495 17.3356 44.7918 17.4373 44.5462L18.3528 42.1486C18.6143 41.8309 18.8468 41.5565 19.1374 41.2531H20.0964ZM15.4905 41.6423C15.6358 41.0935 15.3598 40.8479 15.0401 40.8479C14.6913 40.8479 14.2699 41.3535 14.0229 42.0323L15.4905 41.6423ZM15.8529 43.2022H15.5623C15.199 43.6355 14.7922 43.9821 14.3998 43.9821C13.993 43.9821 13.7895 43.7366 13.7895 43.2022C13.7895 42.9855 13.8186 42.7544 13.8622 42.5522L16.2307 41.7723C16.6957 40.6746 16.1435 40.1979 15.4896 40.1979C14.3708 40.1979 13.0921 42.1478 13.0921 43.7077C13.0921 44.4443 13.4408 44.8343 13.993 44.8343C14.6323 44.8487 15.3007 44.2276 15.8529 43.2022ZM9.75107 43.7515C9.75107 43.9393 10.0853 44.1559 10.3178 44.1559C11.2623 44.1559 12.1486 42.4661 12.1341 41.5272C12.1341 41.2095 11.9743 41.0795 11.7563 41.0795C11.4076 41.0795 10.7682 41.5995 10.3614 42.0905L9.98356 43.1016C9.85279 43.4338 9.75107 43.6937 9.75107 43.7515ZM8.22561 40.2132C8.39998 40.2132 8.60341 40.3865 8.51622 40.7043L7.12127 44.0985C7.48454 44.0407 7.86234 43.6941 8.0803 43.3763H8.29826C7.96405 44.2285 7.20846 44.8495 6.55457 44.8495C6.3802 44.8495 6.14771 44.6762 6.26396 44.3585L7.57172 40.9643C7.20846 41.0221 6.83066 41.3687 6.6127 41.6864H6.39473C6.72894 40.8343 7.54266 40.2132 8.22561 40.2132ZM2.19414 38.7111H5.31825L5.23106 38.9855C4.17032 39.1733 3.99595 39.2599 3.56003 40.4298L2.63006 42.9718C2.17961 44.1851 2.29586 44.3295 3.09505 44.3295C4.08244 44.3295 4.72988 43.6162 5.29522 42.9933C5.33722 42.947 5.37877 42.9012 5.41996 42.8563H5.78323L4.75155 44.6762H0L0.0871844 44.4162C1.1334 44.2284 1.30777 44.1418 1.74369 42.9718L2.68819 40.4154C3.10958 39.2455 3.02239 39.1588 2.10696 38.971L2.19414 38.7111Z" fill="#161616"/>
</g>
</svg>
