<svg width="242" height="109" viewBox="0 0 242 109" fill="none" xmlns="http://www.w3.org/2000/svg">
<path fill-rule="evenodd" clip-rule="evenodd" d="M57.6183 50.2988C57.8961 50.1719 58.2242 50.2942 58.3511 50.572L60.0846 54.3769C63.4122 61.6932 68.8732 73.7505 71.4938 79.6041C72.7934 82.4459 74.3821 84.7481 76.2443 86.5727C76.4624 86.7864 76.466 87.1366 76.2523 87.3547C76.0385 87.5728 75.6884 87.5764 75.4703 87.3627C73.5089 85.441 71.8428 83.0265 70.4862 80.06L69.1863 77.1649C65.6472 69.2991 59.7245 56.2406 57.345 51.0316C57.2182 50.7538 57.3405 50.4257 57.6183 50.2988Z" fill="#2F4077"/>
<path fill-rule="evenodd" clip-rule="evenodd" d="M53.885 33.1847C54.1877 33.144 54.4661 33.3564 54.5068 33.6591C54.5475 33.9617 54.3351 34.2401 54.0324 34.2808C48.8599 34.9763 44.8346 37.1675 44.9038 39.8143L44.9069 39.892L44.9128 39.9141C44.9659 40.1463 44.8632 40.3927 44.6505 40.5155L44.6208 40.5315C44.3476 40.6681 44.0155 40.5574 43.8789 40.2842C43.8204 40.1673 43.8052 40.0843 43.8025 39.9705L43.8021 39.9427L43.7994 39.8841C43.7276 38.0412 44.9384 36.4887 47.083 35.2868L47.1693 35.2389C48.9916 34.2372 51.4378 33.5137 53.885 33.1847Z" fill="#2F4077"/>
<path fill-rule="evenodd" clip-rule="evenodd" d="M63.9201 38.2065C64.158 38.0342 64.4868 38.0787 64.6709 38.3023L64.6923 38.33L78.6278 57.5743C78.8069 57.8216 78.7516 58.1674 78.5043 58.3465C78.2664 58.5187 77.9376 58.4742 77.7534 58.2506L77.732 58.2229L63.7965 38.9787C63.6174 38.7313 63.6727 38.3856 63.9201 38.2065Z" fill="#2F4077"/>
<path fill-rule="evenodd" clip-rule="evenodd" d="M56.3549 43.6682C56.2811 43.7604 56.2074 43.8525 56.1152 43.9447C56.2258 43.9631 56.318 43.9816 56.4286 44L56.3549 43.6682Z" fill="#E4794A"/>
<path fill-rule="evenodd" clip-rule="evenodd" d="M55.8206 41.235L55.4151 39.3733C55.157 39.8157 54.7331 40.3134 54.0879 40.8664C54.5119 40.8295 54.9358 40.8664 55.3045 40.9954C55.4704 41.0876 55.6547 41.1613 55.8206 41.235Z" fill="#E4794A"/>
<path fill-rule="evenodd" clip-rule="evenodd" d="M47.6546 18.1935L51.7652 36.9954C52.4841 36.7189 53.2214 36.6083 53.9034 36.8664C54.309 37.0138 54.6776 37.1797 54.9541 37.3825L54.2352 34.1567C53.0924 32.6083 50.6592 28.9032 52.0048 26.6175C52.1523 26.3594 52.2998 26.1567 52.4472 26.0276L48.521 8.20276C48.3919 7.63133 47.415 7.2811 46.862 7.24423C45.2951 6.28571 41.6454 5.12441 35.1016 8.66359C28.7422 12.1106 24.1154 11.9263 21.3689 9.17971C20.8528 8.66359 19.968 9.14285 20.1523 9.86174L22.2352 18.5253C22.4011 19.2442 22.7698 19.9078 23.2675 20.4424C25.332 22.6544 30.4564 24.0737 37.8481 20.0737C41.7191 17.9723 45.2214 17.8249 47.6546 18.1935Z" fill="#E4794A"/>
<path fill-rule="evenodd" clip-rule="evenodd" d="M57.848 50.5254C57.5531 50.7466 57.2213 50.9862 56.7973 51.2443C56.1706 51.6314 55.5623 51.8341 55.0093 51.9263L57.9586 65.4378L60.9816 64.8111L57.848 50.5254Z" fill="#E4794A"/>
<path fill-rule="evenodd" clip-rule="evenodd" d="M57.111 47.1705C57.0188 47.2443 56.9266 47.3364 56.8345 47.4286C56.9451 47.4286 57.0557 47.447 57.1663 47.4655L57.111 47.1705Z" fill="#E4794A"/>
<path fill-rule="evenodd" clip-rule="evenodd" d="M56.6591 47.3481C56.7138 47.0476 57.0017 46.8483 57.3021 46.9029C57.6356 46.9636 57.8025 47.0047 58.0004 47.0988L58.0316 47.1139L58.0859 47.1393C59.0729 47.6062 59.6296 48.2145 59.5595 49.0252L59.5543 49.0761C59.455 49.9196 58.6497 50.7571 57.1021 51.6991C54.4417 53.3069 51.8302 52.3526 50.9315 49.8456C50.8285 49.5581 50.978 49.2415 51.2655 49.1384C51.553 49.0354 51.8696 49.1849 51.9726 49.4724C52.6371 51.3259 54.4718 51.9964 56.5286 50.7534L56.673 50.6644C57.8518 49.9279 58.4103 49.3339 58.4559 48.9469C58.4838 48.7097 58.2378 48.4354 57.6214 48.143L57.5111 48.0914C57.428 48.0555 57.3253 48.0313 57.1043 47.9911C56.8038 47.9365 56.6045 47.6486 56.6591 47.3481Z" fill="#2F4077"/>
<path fill-rule="evenodd" clip-rule="evenodd" d="M56.429 43.4286C56.5122 43.4286 56.5831 43.4402 56.6586 43.4609L56.7335 43.4838L56.7843 43.5004C56.8012 43.5046 56.8178 43.5096 56.8342 43.5154C58.0631 43.9492 58.7687 44.6031 58.7042 45.5602C58.6407 46.503 57.7703 47.5255 56.0471 48.7469C52.5638 51.2024 48.7558 50.1228 48.1578 46.7503L48.1447 46.6732L48.1385 46.6474C48.1125 46.539 48.1003 46.469 48.0977 46.3803L48.0972 46.341C48.0972 46.0356 48.3448 45.788 48.6502 45.788C48.9447 45.788 49.1854 46.0183 49.2022 46.3085L49.2032 46.341C49.2032 46.3416 49.207 46.3619 49.2235 46.4281L49.229 46.4525L49.2334 46.4771C49.6336 49.0448 52.5106 49.8867 55.4087 47.8438C56.879 46.8017 57.5665 45.994 57.6007 45.4859C57.6213 45.1796 57.3157 44.8792 56.5908 44.604L56.4857 44.5652L56.445 44.5532L56.3809 44.5322L56.3645 44.5309C56.1 44.5001 55.8925 44.2829 55.8769 44.0141L55.876 43.9816C55.876 43.6762 56.1236 43.4286 56.429 43.4286Z" fill="#2F4077"/>
<path fill-rule="evenodd" clip-rule="evenodd" d="M54.0236 40.3337C54.5518 40.2897 55.0312 40.3387 55.4727 40.4933C56.7433 40.9488 57.4653 41.6213 57.3953 42.6038C57.3262 43.5742 56.4221 44.6333 54.6294 45.907C50.9705 48.5068 46.8334 47.398 46.2787 43.826C46.2331 43.5295 46.2331 43.2308 46.2798 42.9505C46.33 42.6493 46.6149 42.4458 46.9162 42.496C47.2067 42.5444 47.4063 42.8111 47.3752 43.1002L47.3707 43.1324C47.3437 43.2945 47.3437 43.4751 47.3717 43.6571C47.7861 46.3254 50.941 47.171 53.9888 45.0054C55.531 43.9097 56.2538 43.063 56.2921 42.5252C56.3169 42.1772 55.9567 41.8417 55.1034 41.5358C54.8223 41.4373 54.4969 41.4041 54.1154 41.4359C53.8111 41.4612 53.5438 41.2351 53.5184 40.9307C53.4931 40.6263 53.7192 40.3591 54.0236 40.3337Z" fill="#2F4077"/>
<path fill-rule="evenodd" clip-rule="evenodd" d="M52.4993 36.2305C53.0587 36.1396 53.5915 36.1713 54.0859 36.3444C55.4959 36.8379 56.2973 37.5777 56.2269 38.6491C56.1563 39.723 55.1454 40.9103 53.1335 42.3327C49.0271 45.2167 44.4191 43.9811 43.8083 40.0103C43.7618 39.7085 43.9689 39.4261 44.2707 39.3797C44.5726 39.3332 44.855 39.5403 44.9014 39.8422C45.3733 42.9095 49.0023 43.8826 52.4964 41.4286L52.6636 41.3092C54.3068 40.1236 55.0827 39.1938 55.1233 38.5766C55.152 38.1395 54.7156 37.7366 53.7205 37.3883C53.4114 37.2801 53.0633 37.2594 52.6767 37.3222C52.0053 37.4313 51.2553 37.7845 50.489 38.3076C50.1496 38.5393 49.8303 38.7885 49.5417 39.0374C49.4612 39.1069 49.388 39.1721 49.3226 39.2321L49.1938 39.3533C49.1912 39.3558 49.1889 39.3581 49.187 39.36C48.9704 39.5753 48.6202 39.5741 48.405 39.3575C48.1897 39.1408 48.1908 38.7907 48.4075 38.5754L48.4718 38.5129C48.554 38.4346 48.6712 38.3277 48.8193 38.2C49.1376 37.9254 49.4892 37.651 49.8654 37.3941C50.7537 36.7877 51.6407 36.3701 52.4993 36.2305Z" fill="#2F4077"/>
<path fill-rule="evenodd" clip-rule="evenodd" d="M51.5466 26.3005C52.1048 25.3503 52.7536 24.9457 53.4753 25.2225C53.95 25.4045 54.309 25.8155 54.7838 26.5753L54.8301 26.6499C54.8622 26.7019 54.895 26.7558 54.9303 26.8143L55.2563 27.3611C55.8154 28.2897 56.1448 28.6904 56.4162 28.7636L56.435 28.7682C57.2346 28.9408 58.5374 30.2807 60.4494 32.6551L60.5242 32.7482C60.7505 33.03 60.9824 33.3233 61.2193 33.6268C61.9404 34.5508 62.6794 35.5334 63.4034 36.5217L63.6442 36.8513C63.862 37.1504 64.066 37.4328 64.2535 37.6945L64.6971 38.3181C64.8727 38.568 64.8123 38.9129 64.5624 39.0884C64.3125 39.264 63.9676 39.2036 63.792 38.9537L63.5098 38.5558L63.1912 38.1114C63.0797 37.9566 62.9631 37.7954 62.8419 37.6286L62.7502 37.5024C61.9565 36.4128 61.1403 35.3232 60.3474 34.3073C60.1603 34.0676 59.9765 33.8345 59.7963 33.6086L59.5347 33.2829C57.9138 31.2772 56.6491 29.9726 56.218 29.8533L56.2016 29.8492C55.5074 29.6994 55.0877 29.2202 54.358 28.0134L54.0552 27.5054C53.9919 27.3994 53.939 27.312 53.8887 27.2304L53.8141 27.111C53.4847 26.5919 53.2449 26.3187 53.0792 26.2551C53.0443 26.2417 53.0293 26.2433 52.9752 26.2771C52.8485 26.356 52.6853 26.5457 52.5009 26.8594C52.1013 27.5439 52.0812 28.4614 52.4073 29.5736C52.6593 30.4328 53.1049 31.3637 53.689 32.319C54.0266 32.8714 54.3892 33.3971 54.7516 33.8777L54.8577 34.0171C54.9096 34.0846 54.9596 34.1487 55.0075 34.2092L55.1003 34.3253C55.1623 34.4021 55.2057 34.4542 55.2274 34.4796C55.4257 34.7119 55.3981 35.061 55.1658 35.2592C54.9425 35.4499 54.6112 35.4318 54.4097 35.2236L54.3862 35.1977C54.3617 35.169 54.3206 35.1196 54.2648 35.051L54.24 35.0204C54.1276 34.8812 54.0027 34.7215 53.8685 34.5435C53.4857 34.0359 53.1031 33.4812 52.7453 32.8959C52.1146 31.8643 51.6291 30.8498 51.346 29.8848C50.9421 28.5075 50.9688 27.29 51.5466 26.3005Z" fill="#2F4077"/>
<path fill-rule="evenodd" clip-rule="evenodd" d="M199.733 88.075C199.905 87.8229 200.249 87.7583 200.501 87.9307C204.299 90.527 208.711 93.7087 212.693 96.8444L213.044 97.1217C218.74 101.633 222.509 105.246 223.655 107.631C223.788 107.907 223.672 108.237 223.397 108.369C223.121 108.502 222.791 108.386 222.659 108.111C221.592 105.891 217.753 102.237 212.008 97.7133C208.049 94.5954 203.655 91.4271 199.877 88.8436C199.625 88.6713 199.56 88.3271 199.733 88.075Z" fill="#2F4077"/>
<path fill-rule="evenodd" clip-rule="evenodd" d="M115.775 43.3345C125.064 39.8685 132.646 39.3018 136.504 41.5129L137.009 41.8094C138.947 42.9547 143.196 45.5332 147.595 48.2483C147.855 48.4087 147.936 48.7494 147.775 49.0093C147.615 49.2692 147.274 49.3499 147.014 49.1895L144.302 47.5211C140.532 45.2092 137.239 43.2202 135.951 42.4706C132.45 40.4646 125.173 41.0085 116.161 44.3707C115.875 44.4774 115.557 44.332 115.45 44.0459C115.343 43.7597 115.489 43.4412 115.775 43.3345Z" fill="#2F4077"/>
<path fill-rule="evenodd" clip-rule="evenodd" d="M167.65 61.5259C167.815 61.269 168.158 61.1946 168.415 61.3597L169.32 61.9423C176.492 66.5659 181.996 70.2908 185.133 72.6848L185.152 72.7L185.17 72.7159L201.115 87.2597C201.319 87.4458 201.353 87.7522 201.2 87.978L201.179 88.0069L195.852 94.8825C195.665 95.1239 195.318 95.168 195.076 94.9809C194.844 94.8011 194.795 94.473 194.957 94.2334L194.978 94.2051L199.993 87.7327L184.443 73.5497L184.364 73.4895C181.173 71.0644 175.561 67.2746 168.265 62.5788L167.817 62.2901C167.56 62.125 167.485 61.7829 167.65 61.5259Z" fill="#2F4077"/>
<path fill-rule="evenodd" clip-rule="evenodd" d="M147.912 47.3319C148.108 47.0976 148.457 47.0665 148.691 47.2625C148.916 47.4509 148.954 47.7805 148.782 48.0139L148.761 48.0414L143.489 54.3456C139.237 59.4302 139.81 67.0244 144.793 71.2733L145.072 71.4972C146.913 72.9939 149.135 73.6156 151.659 73.4983C153.694 73.4037 155.828 72.8347 157.947 71.9328C159.895 71.1123 161.617 69.7502 162.908 68.0206L162.986 67.9142L168.608 60.1907C168.788 59.9438 169.134 59.8893 169.381 60.0691C169.618 60.2419 169.678 60.5683 169.522 60.8127L169.502 60.8416L163.88 68.5657C162.463 70.5071 160.551 72.0361 158.378 72.9513C156.149 73.8999 153.893 74.5017 151.71 74.6031C148.973 74.7303 146.518 74.0572 144.474 72.4349L144.088 72.1259C138.682 67.5161 138.015 59.3482 142.503 53.8033L142.64 53.6361L147.912 47.3319Z" fill="#2F4077"/>
<path fill-rule="evenodd" clip-rule="evenodd" d="M181.549 42.6247C181.678 42.3476 182.006 42.2271 182.284 42.3555C183.263 42.8093 184.298 43.5198 185.05 44.5145C186.243 46.0929 186.348 47.986 185.004 50.0697C183.923 51.7434 182.524 52.4352 180.949 52.2545C179.783 52.1208 178.627 51.5323 177.49 50.6486C177.249 50.461 177.206 50.1136 177.393 49.8725C177.581 49.6315 177.928 49.588 178.169 49.7755C179.16 50.5461 180.15 51.0496 181.075 51.1557C182.224 51.2876 183.218 50.7961 184.075 49.4699C185.162 47.7837 185.085 46.3957 184.168 45.1815C183.547 44.3604 182.648 43.7433 181.819 43.3589C181.541 43.2305 181.421 42.9018 181.549 42.6247Z" fill="#2F4077"/>
<path fill-rule="evenodd" clip-rule="evenodd" d="M154.177 26.401C154.307 26.1246 154.636 26.0056 154.912 26.1354C155.189 26.2652 155.308 26.5945 155.178 26.871C153.285 30.9041 151.707 35.4467 150.512 39.9932C150.434 40.2886 150.132 40.4651 149.836 40.3874C149.541 40.3098 149.364 40.0074 149.442 39.712C150.653 35.1047 152.253 30.5 154.177 26.401Z" fill="#2F4077"/>
<path fill-rule="evenodd" clip-rule="evenodd" d="M150.08 39.3016C149.838 39.2808 149.612 39.4202 149.521 39.6427L149.506 39.6817L149.461 39.8182L149.431 39.9122C149.378 40.0784 149.32 40.2674 149.258 40.4777L149.231 40.5692C149.024 41.2736 148.818 42.0585 148.626 42.9046C148.061 45.3904 147.728 47.8818 147.746 50.2173C147.76 52.0735 147.998 53.7545 148.495 55.2192C149.512 58.2442 152.108 60.4902 155.624 61.7532C158.695 62.8563 162.234 63.0917 164.896 62.4162L165.171 62.3459C169.595 61.2014 171.005 60.2663 173.359 57.3025L173.483 57.1438C174.26 56.1368 175.66 54.1469 177.522 51.4223L178.023 50.6869L178.483 50.0113C179.255 48.875 180.054 47.6901 180.855 46.4971L182.25 44.4124L182.825 43.5503C183.05 43.2111 182.844 42.7528 182.44 42.6966L178.606 42.162C178.504 42.1478 178.4 42.1624 178.306 42.2041L178.262 42.2243C176.899 42.8719 172.895 46.6831 171.028 49.0542L170.946 49.1599L170.791 49.0384L170.719 48.9823C170.163 48.5509 169.509 48.071 168.763 47.5547C166.633 46.0823 164.179 44.6107 161.436 43.2375C160.068 42.5532 158.659 41.9095 157.21 41.3135L157.047 41.2534L156.785 41.1587C156.668 41.1171 156.544 41.0731 156.413 41.0272L156.314 40.9923C155.642 40.7576 154.939 40.5228 154.241 40.3035C153.873 40.188 153.516 40.0797 153.171 39.9799L152.931 39.9111C151.744 39.5753 150.775 39.3616 150.08 39.3016ZM150.419 40.4577L150.445 40.4618C151.043 40.5573 151.824 40.7448 152.743 41.0076L152.863 41.0423C153.2 41.1397 153.55 41.2456 153.91 41.3587C154.482 41.5383 155.057 41.7287 155.616 41.9209L155.949 42.0364C156.114 42.0942 156.269 42.149 156.412 42.2001L156.798 42.3398L156.79 42.3363C158.213 42.9218 159.597 43.5542 160.941 44.2266C163.636 45.5755 166.045 47.0204 168.134 48.4645C168.863 48.969 169.501 49.4369 170.041 49.8562L170.177 49.9626C170.287 50.0486 170.386 50.1279 170.476 50.2002L170.687 50.3744C170.935 50.5865 171.312 50.5384 171.499 50.2708L171.545 50.206C173.024 48.1312 177.196 44.0914 178.593 43.2979L178.623 43.281L181.416 43.6705L180.417 45.165L179.697 46.2377C178.977 47.3082 178.262 48.3688 177.568 49.3898L176.688 50.6826C174.698 53.596 173.226 55.6855 172.492 56.6161L172.292 56.8655C170.167 59.4953 168.9 60.2595 164.624 61.3442C162.183 61.9636 158.868 61.7432 155.998 60.7123C152.775 59.5546 150.44 57.5347 149.543 54.8652C149.087 53.5217 148.865 51.9551 148.852 50.209C148.835 47.9696 149.157 45.5589 149.704 43.1497C149.877 42.39 150.061 41.6813 150.246 41.0391L150.292 40.88C150.327 40.7607 150.361 40.6482 150.393 40.5429L150.419 40.4577Z" fill="#2F4077"/>
<path fill-rule="evenodd" clip-rule="evenodd" d="M180.281 45.5853C180.281 45.5853 184.539 42.5438 187.231 38.6913C189.756 35.0784 189.553 30.1567 186.567 26.894C184.06 24.1659 181.055 23.7235 181.055 23.7235C181.055 23.7235 185.996 18.8019 182.198 12.3134C180.871 10.0277 178.622 8.38711 176.042 7.79725C169.737 6.34102 166.42 11.1337 166.42 11.1337C166.42 11.1337 162.917 -2.93087 147.286 0.774203C145.701 1.14287 143.618 2.78342 142.512 3.98158C135.784 11.1705 148.171 24.977 155.747 27.7972C164.078 30.894 168.926 30.0645 172.373 29.0876C169.94 29.4747 167.304 42.6544 180.281 45.5853Z" fill="#2F4077"/>
<path fill-rule="evenodd" clip-rule="evenodd" d="M157.264 37.8895C157.422 37.628 157.761 37.5439 158.023 37.7017C158.275 37.8536 158.362 38.1744 158.227 38.4315L158.211 38.4608L154.616 44.4185L157.029 45.4252C157.3 45.5385 157.434 45.8437 157.338 46.1181L157.326 46.1484C157.213 46.4202 156.907 46.5538 156.633 46.4575L156.603 46.4459L153.598 45.1924C153.297 45.0667 153.171 44.7104 153.321 44.4256L153.338 44.3964L157.264 37.8895Z" fill="#2F4077"/>
<path fill-rule="evenodd" clip-rule="evenodd" d="M155.475 37.7608C155.744 37.0789 155.608 36.3869 155.173 36.2152C154.737 36.0435 154.166 36.4571 153.897 37.139C153.629 37.8209 153.764 38.5129 154.199 38.6846C154.635 38.8563 155.206 38.4427 155.475 37.7608Z" fill="#2F4077"/>
<path fill-rule="evenodd" clip-rule="evenodd" d="M163.173 39.9974C163.442 39.3155 163.306 38.6235 162.871 38.4518C162.435 38.2801 161.864 38.6936 161.595 39.3755C161.326 40.0574 161.462 40.7494 161.897 40.9212C162.333 41.0929 162.904 40.6793 163.173 39.9974Z" fill="#2F4077"/>
<path fill-rule="evenodd" clip-rule="evenodd" d="M164.222 32.8895C164.29 32.5919 164.587 32.4063 164.885 32.475C165.919 32.7137 166.729 33.2345 167.33 33.9486C167.627 34.3018 167.853 34.6791 168.02 35.0574C168.122 35.2891 168.182 35.4755 168.211 35.5948C168.282 35.8918 168.099 36.1902 167.802 36.2613C167.515 36.3298 167.228 36.162 167.144 35.8836L167.128 35.8257C167.124 35.8124 167.118 35.7945 167.111 35.7726C167.085 35.6927 167.051 35.6018 167.007 35.5028C166.881 35.216 166.708 34.9283 166.483 34.6607C166.031 34.1237 165.428 33.7353 164.636 33.5526C164.339 33.484 164.153 33.1871 164.222 32.8895Z" fill="#2F4077"/>
<path fill-rule="evenodd" clip-rule="evenodd" d="M155.824 29.6619C156.469 29.5331 157.126 29.669 157.76 29.9653C158.036 30.0939 158.247 30.224 158.377 30.3181C158.623 30.498 158.678 30.844 158.498 31.0907C158.325 31.3281 157.998 31.3873 157.754 31.2316L157.679 31.181C157.663 31.1703 157.643 31.1574 157.619 31.1428C157.522 31.0833 157.412 31.0233 157.292 30.9673C156.852 30.7618 156.416 30.6715 156.04 30.7465C155.748 30.8048 155.49 30.9631 155.259 31.2555C155.069 31.495 154.722 31.5357 154.482 31.3462C154.242 31.1568 154.202 30.809 154.391 30.5695C154.785 30.0715 155.274 29.7717 155.824 29.6619Z" fill="#2F4077"/>
<path fill-rule="evenodd" clip-rule="evenodd" d="M160.17 49.8328C160.134 49.8499 160.081 49.8732 160.012 49.9014L159.977 49.9159C159.764 50.0019 159.514 50.0887 159.228 50.1702C158.476 50.3844 157.626 50.5217 156.692 50.5439C156.374 50.5515 156.128 50.8255 156.154 51.1427C156.163 51.2448 156.186 51.407 156.231 51.6106C156.305 51.9477 156.416 52.2856 156.573 52.6058L156.602 52.6632C157.099 53.6312 157.929 54.2217 159.101 54.1775L159.139 54.1754L159.111 54.1744C160.465 54.2426 161.118 53.3394 161.189 51.9924C161.211 51.558 161.174 51.104 161.099 50.6534C161.084 50.5642 161.069 50.48 161.053 50.4001L161.028 50.2843L161.008 50.1957C160.938 49.8467 160.564 49.6563 160.243 49.7978L160.17 49.8328ZM160.043 51.0719L160.056 51.1746C160.085 51.4369 160.097 51.6942 160.084 51.9346C160.042 52.7468 159.785 53.101 159.166 53.0698L159.136 53.0691L159.106 53.07C158.364 53.1133 157.887 52.7705 157.565 52.1175L157.524 52.0291C157.47 51.91 157.424 51.786 157.386 51.6598L157.373 51.6162L157.514 51.6044C158.238 51.5389 158.913 51.41 159.531 51.2339C159.675 51.1927 159.812 51.1502 159.942 51.1068L160.043 51.0719Z" fill="#2F4077"/>
<path fill-rule="evenodd" clip-rule="evenodd" d="M169.987 84.5057C173.797 83.8497 177.833 84.1127 181.599 85.5029L181.748 85.5586L181.81 85.5771C184.508 86.398 189.262 89.3859 195.567 94.0167L196.154 94.4495C197.02 95.0896 197.907 95.7547 198.813 96.4425C201.797 98.7085 204.864 101.126 207.862 103.553L208.423 104.008C209.288 104.71 210.098 105.373 210.842 105.987L211.827 106.803L212.6 107.448C212.987 107.773 212.77 108.397 212.276 108.423L212.244 108.424H185.24C185.041 108.424 184.859 108.318 184.761 108.148L184.743 108.115L180.301 99.0828C180.166 98.8087 180.279 98.4773 180.553 98.3425C180.817 98.2127 181.134 98.3126 181.278 98.5649L181.294 98.5947L185.584 107.318H210.716L209.652 106.44C209.157 106.033 208.636 105.607 208.092 105.164L207.726 104.867C204.559 102.295 201.304 99.723 198.144 97.3234C197.242 96.6384 196.358 95.976 195.496 95.3388L195.106 95.0505C188.818 90.4224 184.051 87.4166 181.495 86.6372L181.416 86.6138C181.403 86.6097 181.389 86.6052 181.376 86.6001C177.757 85.2291 173.856 84.9618 170.175 85.5957C167.305 86.0898 164.813 87.144 164.114 87.969L163.992 88.1122C163.066 89.1843 161.471 90.734 159.93 92.0168L159.825 92.1038C157.692 93.8649 155.852 94.9885 154.518 95.1832C154.214 95.2274 153.896 95.2578 153.554 95.2768L153.406 95.2842C153.068 95.2996 152.772 95.3044 152.346 95.3022L151.279 95.2909C150.436 95.2848 150.056 95.3043 149.718 95.3773L149.691 95.3834C149.345 95.4615 149.258 95.5378 149.258 95.7237L149.259 95.7999L149.258 95.9576C149.255 96.3915 149.274 96.6321 149.355 96.8956C149.602 97.6956 150.391 98.1292 152.227 97.9989L152.312 97.9925C156.051 97.7028 157.858 97.3499 159.791 96.2727C160.058 96.1241 160.394 96.2198 160.543 96.4866C160.692 96.7534 160.596 97.0902 160.329 97.2388L160.175 97.3237C158.144 98.4222 156.243 98.7917 152.54 99.084L152.398 99.0951C150.026 99.2826 148.717 98.5798 148.298 97.2216C148.18 96.8408 148.151 96.5268 148.152 96.0367L148.153 95.7904L148.152 95.7795C148.125 94.9778 148.619 94.492 149.447 94.3046L149.551 94.2824C149.966 94.1989 150.389 94.1784 151.264 94.1847L152.277 94.1957C152.726 94.1988 153.021 94.1946 153.356 94.1794C153.72 94.1629 154.05 94.1336 154.358 94.0888C155.427 93.9329 157.139 92.8871 159.12 91.251L159.324 91.0814C160.855 89.797 162.427 88.2561 163.269 87.2557C164.174 86.1864 166.885 85.0399 169.987 84.5057Z" fill="#2F4077"/>
<path fill-rule="evenodd" clip-rule="evenodd" d="M165.112 89.5975C165.321 89.8035 165.331 90.1345 165.142 90.3528L165.104 90.393L164.932 90.5694L164.801 90.7066C164.688 90.8249 164.567 90.9531 164.439 91.0899C163.928 91.637 163.418 92.2082 162.943 92.7742C162.739 93.0166 162.546 93.2531 162.366 93.4822L162.259 93.6188C161.355 94.783 160.839 95.6992 160.869 96.0452C160.994 97.511 162.99 100.184 164.06 100.184L164.339 100.183C164.598 100.181 164.886 100.177 165.206 100.17L165.903 100.154L167.438 100.111C167.744 100.104 167.997 100.345 168.004 100.651C168.012 100.956 167.77 101.209 167.465 101.217L165.731 101.264C165.6 101.268 165.474 101.271 165.352 101.274L164.876 101.283C164.575 101.288 164.304 101.29 164.06 101.29C162.308 101.29 159.935 98.1119 159.767 96.1393C159.703 95.3935 160.29 94.3519 161.385 92.9406C161.605 92.6574 161.843 92.3642 162.096 92.063C162.585 91.4808 163.108 90.8956 163.63 90.3354L163.784 90.1716C163.859 90.0919 163.931 90.0155 164.001 89.9427L164.246 89.6879L164.33 89.6022C164.545 89.3849 164.895 89.3828 165.112 89.5975Z" fill="#2F4077"/>
<path fill-rule="evenodd" clip-rule="evenodd" d="M168.772 90.8424C168.994 91.0521 169.004 91.4021 168.794 91.6241L168.651 91.7773L168.469 91.9772C168.405 92.0478 168.339 92.1222 168.269 92.2001C167.874 92.6451 167.478 93.111 167.11 93.5742C166.904 93.834 166.712 94.0858 166.537 94.327L166.445 94.4556C165.843 95.3035 165.504 95.9702 165.516 96.2614C165.553 97.5944 167.301 100.143 168.637 100.477C169.023 100.574 169.507 100.603 170.065 100.57C170.629 100.536 171.24 100.441 171.859 100.304C172.137 100.243 172.398 100.177 172.634 100.111L172.772 100.072L172.915 100.029C172.919 100.028 172.921 100.027 172.924 100.026C173.215 99.9332 173.526 100.094 173.619 100.384C173.712 100.675 173.552 100.987 173.261 101.08L173.13 101.12C173.086 101.133 173.034 101.148 172.976 101.164L172.931 101.177C172.677 101.248 172.396 101.318 172.098 101.384C171.426 101.533 170.76 101.636 170.131 101.674C169.47 101.713 168.878 101.678 168.368 101.55C166.515 101.087 164.46 98.0905 164.411 96.2992C164.384 95.6537 164.829 94.7985 165.641 93.6779C165.826 93.4227 166.028 93.158 166.244 92.886C166.626 92.4054 167.035 91.9244 167.443 91.4653L167.582 91.3094C167.65 91.234 167.715 91.1623 167.777 91.0947L167.99 90.8645C168.2 90.6425 168.55 90.6326 168.772 90.8424Z" fill="#2F4077"/>
<path fill-rule="evenodd" clip-rule="evenodd" d="M171.734 92.3924C171.955 92.1816 172.305 92.19 172.515 92.411C172.726 92.6321 172.718 92.9821 172.497 93.1929L172.465 93.224L172.412 93.2773L172.321 93.3707C172.273 93.4202 172.223 93.4737 172.17 93.531C171.919 93.8045 171.667 94.1053 171.434 94.4228C170.978 95.0421 170.649 95.6446 170.501 96.1848C170.334 96.7928 170.405 97.2667 170.743 97.641L170.768 97.6671L170.843 97.7342C172.772 99.436 174.431 100.144 175.792 100.165L175.857 100.166C176.087 100.166 176.455 100.026 176.901 99.761C177.163 99.6054 177.443 99.4126 177.734 99.1913C178.034 98.9628 178.329 98.7169 178.605 98.4709L178.716 98.3708C178.751 98.3385 178.785 98.3074 178.818 98.2776L178.955 98.1479C179.174 97.9346 179.524 97.939 179.737 98.1577C179.95 98.3763 179.946 98.7264 179.727 98.9397L179.621 99.0406L179.517 99.1375C179.462 99.1878 179.403 99.2409 179.341 99.2964C179.045 99.5602 178.729 99.824 178.404 100.071C178.082 100.317 177.768 100.533 177.466 100.712C176.864 101.07 176.332 101.272 175.857 101.272C174.2 101.272 172.266 100.463 170.113 98.565L170.014 98.4766L169.986 98.4497C169.316 97.76 169.165 96.8707 169.434 95.892C169.624 95.2 170.014 94.4861 170.543 93.7671C170.802 93.4149 171.079 93.084 171.356 92.7827L171.466 92.6646C171.581 92.5423 171.673 92.4502 171.734 92.3924Z" fill="#2F4077"/>
<path fill-rule="evenodd" clip-rule="evenodd" d="M173.611 95.7736C173.696 95.4801 174.002 95.3105 174.295 95.3948C174.558 95.4701 174.721 95.7223 174.693 95.9845L174.689 96.0089L174.691 96.0101L174.694 96.0183C174.713 96.0801 174.763 96.1626 174.858 96.2656C175.191 96.6257 175.879 97.0152 177.009 97.3933C178.005 97.7264 179.289 98.0295 180.887 98.2931C181.188 98.3428 181.392 98.6274 181.343 98.9287C181.293 99.2301 181.008 99.4341 180.707 99.3844L180.381 99.3293C178.877 99.0694 177.644 98.7719 176.659 98.4422C174.326 97.662 173.463 96.7296 173.592 95.8633C173.597 95.8297 173.604 95.7997 173.611 95.7736Z" fill="#2F4077"/>
<path fill-rule="evenodd" clip-rule="evenodd" d="M110.051 76.129C110.345 76.129 110.586 76.3592 110.603 76.6495L110.604 76.682V80.3342L110.639 80.3329C111.668 80.2978 112.918 80.3617 114.318 80.585L114.474 80.6105C116.857 81.0078 119.205 81.8033 121.404 83.0905C125.246 85.3388 128.301 88.8898 130.278 93.9514L130.3 94.0085L130.369 94.001C131.551 93.876 132.975 93.9007 134.547 94.1782C136.78 94.5723 138.972 95.4264 141.024 96.8431C142.548 97.8952 143.954 99.233 145.217 100.88C145.403 101.122 145.358 101.469 145.115 101.655C144.873 101.841 144.526 101.796 144.34 101.553C143.146 99.9977 141.824 98.7398 140.396 97.7532C138.48 96.431 136.438 95.6349 134.355 95.2674C132.892 95.0091 131.57 94.9861 130.485 95.1009L130.362 95.1148C130.322 95.1195 130.285 95.1243 130.249 95.1291L130.1 95.1509L130.045 95.1605C129.779 95.2117 129.515 95.0632 129.421 94.8096C127.542 89.7357 124.587 86.2343 120.846 84.0451C118.77 82.8302 116.549 82.0777 114.292 81.7014C112.76 81.4458 111.414 81.3921 110.368 81.4523L110.204 81.4633L110.11 81.4715C109.794 81.5054 109.517 81.2672 109.499 80.9543L109.498 80.9217V77.235H92.4285V80.9217C92.4285 81.2385 92.1637 81.4881 91.8515 81.4742L91.6794 81.4606C91.6524 81.4587 91.6237 81.4569 91.5932 81.4551L91.5461 81.4524C90.4693 81.3931 89.0869 81.4441 87.5144 81.6902C85.2028 82.052 82.9279 82.777 80.8025 83.9479C76.844 86.1287 73.7496 89.6579 71.8411 94.8096C71.751 95.0528 71.505 95.1992 71.2508 95.1658L71.1135 95.1433L71.0123 95.1288C70.9409 95.1192 70.8619 95.1097 70.7754 95.1005C69.689 94.9852 68.3664 95.008 66.9015 95.2666C64.8175 95.6345 62.7732 96.4317 60.8568 97.7561C57.803 99.8664 55.2708 103.178 53.4419 107.905C53.3317 108.189 53.0115 108.331 52.7266 108.221C52.4418 108.111 52.3002 107.79 52.4105 107.506C54.3174 102.577 56.9869 99.0859 60.228 96.8462C62.2814 95.4272 64.4746 94.5719 66.7093 94.1775C68.2307 93.9089 69.613 93.877 70.7729 93.9886L70.9621 94.0083L70.9876 93.9435C72.9824 88.8516 76.1405 85.2912 80.1434 83.0488L80.2688 82.9792C82.5145 81.742 84.9113 80.9782 87.3434 80.5976C88.8378 80.3636 90.1727 80.2971 91.2644 80.3331L91.3225 80.3351V76.682C91.3225 76.3875 91.5527 76.1468 91.843 76.13L91.8755 76.129H110.051Z" fill="#2F4077"/>
<path fill-rule="evenodd" clip-rule="evenodd" d="M107.802 75.2996C108.096 75.2996 108.337 75.5298 108.354 75.8201L108.355 75.8526V86.9925C109.088 86.9764 109.962 87.0315 110.933 87.197L111.066 87.2203C112.838 87.5379 114.584 88.1717 116.22 89.1958C118.9 90.8744 121.064 93.4643 122.526 97.0992L122.596 97.2747L122.65 97.2692C123.497 97.1888 124.497 97.2087 125.595 97.3902L125.733 97.4138C127.434 97.7139 129.103 98.3649 130.665 99.4448C131.448 99.9859 132.191 100.627 132.888 101.374C133.097 101.597 133.084 101.947 132.861 102.155C132.638 102.364 132.288 102.352 132.08 102.128C131.437 101.44 130.754 100.851 130.037 100.355C128.611 99.3694 127.091 98.7765 125.541 98.503C124.451 98.3108 123.468 98.2939 122.662 98.3795L122.553 98.392C122.536 98.3941 122.52 98.3962 122.503 98.3984L122.391 98.4145L122.34 98.4231C122.074 98.4745 121.811 98.3261 121.717 98.0723C120.34 94.3547 118.248 91.7709 115.633 90.1332C114.124 89.1885 112.51 88.6028 110.871 88.3089C109.802 88.1173 108.86 88.0706 108.122 88.1076L108.038 88.1122C107.948 88.1176 107.89 88.1227 107.864 88.1256C107.547 88.1611 107.268 87.9226 107.25 87.6088L107.249 87.5761V76.4056H93.166V87.5761C93.166 87.8953 92.8973 88.1457 92.583 88.1283L92.4615 88.1176C92.4362 88.1157 92.4063 88.1136 92.372 88.1115C91.6192 88.0656 90.6459 88.1075 89.5357 88.3059C87.899 88.5982 86.2879 89.1823 84.7819 90.1251C82.1668 91.7622 80.0754 94.3483 78.6985 98.072C78.6084 98.3154 78.3622 98.462 78.1078 98.4285L78.0016 98.4111L77.9114 98.3983C77.8631 98.3919 77.8102 98.3856 77.7528 98.3795C76.9484 98.2939 75.9676 98.3106 74.8809 98.5021C73.3348 98.7746 71.8184 99.3656 70.3964 100.348C68.1224 101.919 66.2353 104.388 64.8708 107.923C64.7608 108.208 64.4406 108.349 64.1557 108.239C63.8708 108.129 63.729 107.809 63.839 107.524C65.2815 103.788 67.3062 101.138 69.7678 99.4379C71.3267 98.361 72.9921 97.712 74.689 97.4129C75.8387 97.2103 76.8845 97.1855 77.7649 97.2691L77.8187 97.2745L77.8288 97.2487C79.273 93.5775 81.421 90.9576 84.0894 89.2544L84.195 89.1877C85.828 88.1654 87.5719 87.5332 89.3412 87.2171C90.319 87.0424 91.2026 86.9796 91.9479 86.9896L92.06 86.9917V75.8526C92.06 75.5581 92.2902 75.3173 92.5805 75.3005L92.613 75.2996H107.802Z" fill="#2F4077"/>
<path fill-rule="evenodd" clip-rule="evenodd" d="M105.332 76.129C105.626 76.129 105.867 76.3592 105.884 76.6495L105.885 76.682V92.8793L105.967 92.8796C106.431 92.8833 106.962 92.9258 107.542 93.0235L107.659 93.0438C108.923 93.2709 110.17 93.7247 111.338 94.4584C113.218 95.6393 114.74 97.4497 115.78 99.9754L115.831 100.1L115.844 100.099C117.534 99.9592 119.498 100.333 121.387 101.609L121.486 101.677C122.275 102.224 123.005 102.912 123.665 103.75C123.854 103.99 123.812 104.338 123.572 104.527C123.332 104.716 122.985 104.674 122.796 104.434C122.204 103.682 121.554 103.07 120.855 102.585C119.117 101.38 117.299 101.056 115.783 101.216L115.717 101.223C115.676 101.228 115.643 101.232 115.618 101.236L115.574 101.244C115.309 101.294 115.045 101.146 114.952 100.893C113.996 98.3142 112.552 96.5271 110.75 95.3949C109.709 94.741 108.595 94.3356 107.463 94.1324C106.733 94.0013 106.089 93.9685 105.584 93.9927L105.444 94.0013L105.394 94.0057C105.077 94.0416 104.798 93.8031 104.78 93.489L104.779 93.4562V77.235H95.1935V93.4562C95.1935 93.7752 94.9252 94.0256 94.611 94.0084L94.5094 93.9999C94.4956 93.9989 94.4801 93.9979 94.4627 93.9968C93.9473 93.9656 93.2773 93.9945 92.512 94.1311C91.3828 94.3326 90.2714 94.7347 89.2331 95.3833C87.4222 96.5145 85.9743 98.3046 85.0212 100.892C84.9314 101.135 84.6849 101.282 84.4303 101.249L84.3314 101.233C84.2941 101.227 84.2446 101.221 84.1836 101.215C82.6713 101.054 80.8619 101.371 79.1327 102.561C77.5585 103.644 76.2507 105.354 75.3041 107.812C75.1943 108.097 74.8743 108.239 74.5893 108.129C74.3043 108.019 74.1622 107.699 74.272 107.414C75.2968 104.753 76.7429 102.863 78.5057 101.65C80.3803 100.36 82.3377 99.9675 84.031 100.091L84.1406 100.099L84.1913 99.9745C85.2121 97.4834 86.7051 95.6884 88.5497 94.5069L88.6471 94.4453C89.8123 93.7174 91.0561 93.2674 92.3177 93.0423C92.9414 92.931 93.5115 92.8834 94.0061 92.8796L94.0875 92.8793V76.682C94.0875 76.3875 94.3178 76.1468 94.608 76.13L94.6405 76.129H105.332Z" fill="#2F4077"/>
<path fill-rule="evenodd" clip-rule="evenodd" d="M90.3278 74.6176C89.6273 77.2904 90.2725 79.7235 90.2725 79.7235L92.2817 87.5576C92.3923 87.9632 92.9637 87.9447 93.0559 87.5392L94.8439 83.7235C94.8439 83.7235 97.1849 92.0922 100.521 92.3134C103.839 92.553 107.12 83.5945 107.12 83.5945L108.632 87.6682C108.761 88.0553 109.332 88.0185 109.406 87.6129L111.452 79.8894C111.452 79.8894 111.802 77.3641 111.084 74.5991H90.3278V74.6176Z" fill="#E4794A"/>
<path fill-rule="evenodd" clip-rule="evenodd" d="M91.876 69.5854C86.4013 59.742 84.9451 51.2259 85.2769 44.2213L84.8161 44.2397C84.8161 44.2397 74.9359 57.6222 76.2078 69.5854H91.876Z" fill="#E4794A"/>
<path fill-rule="evenodd" clip-rule="evenodd" d="M115.931 44.295C116.208 51.2812 114.696 59.7789 109.24 69.5854H124.503C125.72 58.0831 116.65 45.2904 115.931 44.295Z" fill="#E4794A"/>
<path fill-rule="evenodd" clip-rule="evenodd" d="M100.632 16.5531C97.8446 16.5531 94.9385 18.6808 92.2387 22.3644C89.8375 25.6408 87.7379 29.9948 86.4615 34.2562C85.0059 39.1154 84.3864 44.1072 84.8248 49.4669L84.8418 49.6688C85.3906 55.9989 87.4128 62.5684 91.1516 69.4165L91.2559 69.6067L89.0336 74.3844C88.8631 74.7509 89.1307 75.1706 89.535 75.1706H111.599L111.631 75.1698C112.018 75.1486 112.267 74.7413 112.101 74.3844L109.878 69.6069L109.985 69.4123C113.767 62.4946 115.817 55.8539 116.374 49.4698C116.844 44.0831 116.245 39.0626 114.802 34.2558C113.525 30.0011 111.425 25.648 109.025 22.3715L108.863 22.1521C106.208 18.5992 103.362 16.5531 100.632 16.5531ZM100.632 17.6591C105.272 17.6591 111.021 25.5076 113.743 34.5739C115.147 39.2518 115.729 44.1331 115.272 49.3737C114.717 55.7361 112.638 62.3736 108.775 69.3165L108.758 69.3501C108.689 69.4978 108.688 69.6695 108.757 69.8186L110.732 74.0644H90.4023L92.3774 69.8186C92.4521 69.6581 92.4454 69.4715 92.3594 69.3167C88.5011 62.3736 86.448 55.7443 85.9272 49.3767C85.5006 44.162 86.1031 39.3068 87.5209 34.5735C90.2383 25.502 95.9865 17.6591 100.632 17.6591Z" fill="#E4794A"/>
<path fill-rule="evenodd" clip-rule="evenodd" d="M100.632 51.3918C101.202 51.3918 101.664 50.8389 101.664 50.1568C101.664 49.4747 101.202 48.9218 100.632 48.9218C100.062 48.9218 99.5996 49.4747 99.5996 50.1568C99.5996 50.8389 100.062 51.3918 100.632 51.3918Z" fill="#E4794A"/>
<path fill-rule="evenodd" clip-rule="evenodd" d="M104.632 51.3918C105.202 51.3918 105.664 50.8389 105.664 50.1568C105.664 49.4747 105.202 48.9218 104.632 48.9218C104.062 48.9218 103.6 49.4747 103.6 50.1568C103.6 50.8389 104.062 51.3918 104.632 51.3918Z" fill="#E4794A"/>
<path fill-rule="evenodd" clip-rule="evenodd" d="M96.3184 51.3918C96.8885 51.3918 97.3507 50.8389 97.3507 50.1568C97.3507 49.4747 96.8885 48.9218 96.3184 48.9218C95.7483 48.9218 95.2861 49.4747 95.2861 50.1568C95.2861 50.8389 95.7483 51.3918 96.3184 51.3918Z" fill="#E4794A"/>
<path fill-rule="evenodd" clip-rule="evenodd" d="M100.632 33.7512C97.7068 33.7512 95.3784 36.5271 95.3784 39.9079C95.3784 43.2887 97.7068 46.0646 100.632 46.0646C103.557 46.0646 105.885 43.2887 105.885 39.9079C105.885 36.5271 103.557 33.7512 100.632 33.7512ZM100.632 34.8572C102.899 34.8572 104.779 37.0991 104.779 39.9079C104.779 42.7167 102.899 44.9586 100.632 44.9586C98.3649 44.9586 96.4844 42.7167 96.4844 39.9079C96.4844 37.0991 98.3649 34.8572 100.632 34.8572Z" fill="#E4794A"/>
<path fill-rule="evenodd" clip-rule="evenodd" d="M101.738 16.7005V7.92634C101.738 7.9079 101.738 7.87104 101.738 7.8526C101.904 7.63141 101.996 7.35491 101.996 7.05998C101.996 6.30422 101.388 5.69592 100.632 5.69592C99.8761 5.69592 99.2678 6.30422 99.2678 7.05998C99.2678 7.35491 99.3599 7.63141 99.5258 7.8526C99.5258 7.87104 99.5258 7.9079 99.5258 7.92634V16.6821C97.2401 17.1429 94.9544 19.06 92.853 21.6406C95.2125 21.0876 97.959 20.7927 101.13 20.977C103.968 21.1429 106.475 21.53 108.687 22.0646C106.549 19.2996 104.134 17.2167 101.738 16.7005Z" fill="#E4794A"/>
<path fill-rule="evenodd" clip-rule="evenodd" d="M110.789 26.8019C108.06 25.8803 104.927 25.0876 100.706 24.9217C96.4107 24.7559 93.1296 25.7144 90.4568 26.7651C89.277 28.9402 88.3554 31.0969 87.5996 33.401C90.8254 31.8342 94.7517 30.1752 100.798 30.2858C106.549 30.3964 110.494 31.6499 113.498 32.9955C112.761 30.8388 111.876 28.848 110.789 26.8019Z" fill="#E4794A"/>
<path fill-rule="evenodd" clip-rule="evenodd" d="M108.926 69.53C109.332 68.8111 109.701 68.1106 110.051 67.4102C108.152 66.636 105.443 66.0092 100.613 66.0461C95.7283 66.0092 93.0002 66.6544 91.1016 67.447C91.4518 68.1475 91.8205 68.8479 92.226 69.5484C92.226 69.5484 96.5209 68.7189 100.613 68.7558C104.632 68.7005 108.926 69.53 108.926 69.53Z" fill="#E4794A"/>
<rect x="137.166" y="98.8387" width="21.3641" height="3.02304" fill="#E4794A"/>
<path fill-rule="evenodd" clip-rule="evenodd" d="M154.954 98.8387V102.12H153.479V98.8387H154.954Z" fill="#2F4077"/>
<path fill-rule="evenodd" clip-rule="evenodd" d="M170.475 101.327C170.769 101.327 171.01 101.557 171.027 101.848L171.028 101.88V107.595C171.028 107.9 170.78 108.148 170.475 108.148C170.18 108.148 169.94 107.917 169.923 107.627L169.922 107.595V102.433H125.018L125.019 104.295C125.019 104.59 124.788 104.83 124.498 104.847L124.466 104.848H113.94C113.741 104.848 113.557 104.741 113.459 104.568C113.23 104.164 112.811 103.908 112.355 103.908C111.665 103.908 111.102 104.471 111.102 105.161C111.102 105.851 111.665 106.415 112.355 106.415C112.811 106.415 113.23 106.159 113.459 105.755C113.551 105.593 113.719 105.488 113.903 105.476L113.94 105.475H124.466C124.76 105.475 125.001 105.705 125.018 105.995L125.019 106.028V107.576C125.019 107.882 124.771 108.129 124.466 108.129C124.171 108.129 123.93 107.899 123.914 107.609L123.913 107.576L123.912 106.581H114.236L114.22 106.602C113.787 107.155 113.133 107.501 112.417 107.52L112.355 107.521C111.054 107.521 109.996 106.462 109.996 105.161C109.996 103.861 111.054 102.802 112.355 102.802C113.095 102.802 113.775 103.152 114.22 103.721L114.236 103.742H123.912L123.913 101.88C123.913 101.586 124.143 101.345 124.433 101.328L124.466 101.327H170.475Z" fill="#E4794A"/>
<path fill-rule="evenodd" clip-rule="evenodd" d="M163.009 102.433V107.595H161.535V102.433H163.009Z" fill="#2F4077"/>
<path fill-rule="evenodd" clip-rule="evenodd" d="M240.945 107.318C241.25 107.318 241.498 107.566 241.498 107.871C241.498 108.165 241.268 108.406 240.977 108.423L240.945 108.424H1.05544C0.750026 108.424 0.502441 108.176 0.502441 107.871C0.502441 107.576 0.732657 107.336 1.02294 107.319L1.05544 107.318H240.945Z" fill="#2F4077"/>
</svg>
