<svg xmlns="http://www.w3.org/2000/svg" width="248" height="85.799" viewBox="0 0 248 85.799">
  <g id="g12" transform="translate(-24.526 -24.487)">
    <g id="Groupe_1" data-name="Groupe 1" transform="translate(24.526 24.487)">
      <g id="g20" transform="translate(0 32.615)">
        <path id="path22" d="M10.516,2.976H-3.364A12.448,12.448,0,0,0-15.7-7.963,12.452,12.452,0,0,0-28.136,4.474,12.451,12.451,0,0,0-15.7,16.912,12.44,12.44,0,0,0-3.3,5.247h13.82a6.751,6.751,0,0,1-.1-1.135,6.76,6.76,0,0,1,.1-1.136M-15.7,14.637A10.175,10.175,0,0,1-25.863,4.474,10.172,10.172,0,0,1-15.7-5.686,10.172,10.172,0,0,1-5.537,4.474,10.174,10.174,0,0,1-15.7,14.637" transform="translate(28.136 7.963)" fill="#2897d5"/>
      </g>
      <g id="g24" transform="translate(14.816 13.501)">
        <path id="path26" d="M4.571,4.134A9.348,9.348,0,0,0,6.581-1.653a9.417,9.417,0,0,0-9.406-9.407,9.415,9.415,0,0,0-9.4,9.407,9.413,9.413,0,0,0,9.4,9.4A9.347,9.347,0,0,0,2.963,5.741l9.923,9.924a6.73,6.73,0,0,1,1.663-1.554ZM-9.958-1.653a7.137,7.137,0,0,1,7.132-7.13A7.136,7.136,0,0,1,4.3-1.653a7.134,7.134,0,0,1-7.13,7.127A7.136,7.136,0,0,1-9.958-1.653" transform="translate(12.23 11.061)" fill="#d60b52"/>
      </g>
      <g id="g28" transform="translate(32.238)">
        <path id="path30" d="M3.12.619a9.109,9.109,0,0,1,4.042.95V-.907A11.4,11.4,0,0,0,3.12-1.656a11.467,11.467,0,1,0,0,22.934c.148,0,.293-.017.44-.023V35.728a6.691,6.691,0,0,1,1.137-.1,6.686,6.686,0,0,1,1.137.1V20.94a11.335,11.335,0,0,0,1.328-.412V18.053A9.109,9.109,0,0,1,3.12,19,9.192,9.192,0,1,1,3.12.619" transform="translate(8.347 1.656)" fill="#a3195b"/>
      </g>
      <g id="g32" transform="translate(35.054 51.839)">
        <path id="path34" d="M2.691,4.477a7.566,7.566,0,0,1,2.8.541V2.613a9.686,9.686,0,0,0-1.667-.34V-11.863a6.755,6.755,0,0,1-.8.053,6.734,6.734,0,0,1-1.478-.168V2.274a9.886,9.886,0,1,0,3.944,19.3v-2.4a7.613,7.613,0,1,1-2.8-14.69" transform="translate(7.199 11.978)" fill="#f39200"/>
      </g>
      <g id="g36" transform="translate(10.455 49.545)">
        <path id="path38" d="M8.53.4A6.759,6.759,0,0,1,6.8-1.083L-3.891,9.611a11.533,11.533,0,0,0-7.346-2.636,11.6,11.6,0,0,0-11.584,11.59A11.6,11.6,0,0,0-11.237,30.15,11.6,11.6,0,0,0,.351,18.565a11.543,11.543,0,0,0-2.634-7.347ZM-1.925,18.565a9.321,9.321,0,0,1-9.312,9.313,9.322,9.322,0,0,1-9.311-9.313A9.323,9.323,0,0,1-11.237,9.25a9.323,9.323,0,0,1,9.312,9.315" transform="translate(22.821 1.083)" fill="#95c11f"/>
      </g>
      <g id="g40" transform="translate(60.137 17.018)">
        <path id="path42" d="M2.157,0H3.693V20.463a4.385,4.385,0,0,1-.337,1.72,4.371,4.371,0,0,1-.937,1.4A4.54,4.54,0,0,1,1,24.534a4.319,4.319,0,0,1-1.736.353h-.614a4.214,4.214,0,0,1-1.721-.353,4.581,4.581,0,0,1-1.4-.952,4.567,4.567,0,0,1-.952-1.4,4.2,4.2,0,0,1-.354-1.72V0h1.537V20.463A2.827,2.827,0,0,0-4,21.584a2.906,2.906,0,0,0,.615.921,2.889,2.889,0,0,0,.922.615,2.821,2.821,0,0,0,1.121.23h.614a2.791,2.791,0,0,0,1.137-.23,2.95,2.95,0,0,0,.907-.615,2.9,2.9,0,0,0,.614-.921,2.814,2.814,0,0,0,.23-1.121Z" transform="translate(5.77)"/>
      </g>
      <g id="g44" transform="translate(73.176 24.179)">
        <path id="path46" d="M0,4.765V-12.441H1.536v1.9A15.634,15.634,0,0,1,3.1-11.642a11.278,11.278,0,0,1,1.428-.768A3.382,3.382,0,0,1,5.9-12.748a2.848,2.848,0,0,1,2.09.86A2.846,2.846,0,0,1,8.848-9.8V4.765H7.313V-9.8a1.293,1.293,0,0,0-.446-1.029,1.457,1.457,0,0,0-.968-.384,3.061,3.061,0,0,0-1.367.384A10.686,10.686,0,0,0,3.1-9.952,14.488,14.488,0,0,0,1.536-8.693V4.765Z" transform="translate(0 12.748)"/>
      </g>
      <g id="g48" transform="translate(85.564 18.11)">
        <path id="path50" d="M0,1.713H1.536V16.277a.808.808,0,0,0,.2.475,2.087,2.087,0,0,0,.491.461,3,3,0,0,0,.66.338,1.931,1.931,0,0,0,.676.138v1.537A3.594,3.594,0,0,1,2.32,19a4.313,4.313,0,0,1-1.152-.629,3.313,3.313,0,0,1-.845-.937A2.2,2.2,0,0,1,0,16.277ZM1.536-1.328H0V-4.584H1.536Z" transform="translate(0 4.584)"/>
      </g>
      <g id="g52" transform="translate(90.928 24.181)">
        <path id="path54" d="M1.99,1.112A2.463,2.463,0,0,0,1.252-.7,2.464,2.464,0,0,0-.56-1.438h-.676A2.464,2.464,0,0,0-3.049-.7a2.465,2.465,0,0,0-.737,1.813v9.648a2.465,2.465,0,0,0,.737,1.813,2.464,2.464,0,0,0,1.813.737H-.56a2.464,2.464,0,0,0,1.812-.737,2.463,2.463,0,0,0,.738-1.813Zm1.536,9.648A3.985,3.985,0,0,1,3.2,12.342a4.134,4.134,0,0,1-.876,1.306,4.188,4.188,0,0,1-1.29.876,3.952,3.952,0,0,1-1.6.322h-.676a3.947,3.947,0,0,1-1.6-.322,4.179,4.179,0,0,1-1.29-.876A4.134,4.134,0,0,1-5,12.342a3.986,3.986,0,0,1-.323-1.582V1.112A3.95,3.95,0,0,1-5-.486a4.179,4.179,0,0,1,.876-1.29,4.179,4.179,0,0,1,1.29-.876,3.934,3.934,0,0,1,1.6-.322H-.56a3.94,3.94,0,0,1,1.6.322,4.188,4.188,0,0,1,1.29.876A4.179,4.179,0,0,1,3.2-.486a3.95,3.95,0,0,1,.322,1.6Z" transform="translate(5.323 2.974)"/>
      </g>
      <g id="g56" transform="translate(103.033 24.179)">
        <path id="path58" d="M0,4.765V-12.441H1.536v1.9A15.634,15.634,0,0,1,3.1-11.642a11.278,11.278,0,0,1,1.428-.768A3.382,3.382,0,0,1,5.9-12.748a2.848,2.848,0,0,1,2.09.86A2.846,2.846,0,0,1,8.848-9.8V4.765H7.313V-9.8a1.293,1.293,0,0,0-.446-1.029,1.457,1.457,0,0,0-.968-.384,3.061,3.061,0,0,0-1.367.384A10.686,10.686,0,0,0,3.1-9.952,14.488,14.488,0,0,0,1.536-8.693V4.765Z" transform="translate(0 12.748)"/>
      </g>
      <g id="g60" transform="translate(120.299 17.016)">
        <path id="path62" d="M1.981,6.687-3.15-16.356h-.614V6.687H-5.3V-17.892h3.38L3.149,5.151h.615V-17.892H5.3V6.687Z" transform="translate(5.301 17.892)"/>
      </g>
      <g id="g64" transform="translate(133.857 24.181)">
        <path id="path66" d="M.418,4.046a1.351,1.351,0,0,0,.445.967,1.35,1.35,0,0,0,.968.446A2.968,2.968,0,0,0,3.2,5.06a11.887,11.887,0,0,0,1.429-.891,14.454,14.454,0,0,0,1.566-1.26V-2.284L2.568-1.146A3.358,3.358,0,0,0,.956.1,3.242,3.242,0,0,0,.418,1.926ZM6.194-6.738a2.536,2.536,0,0,0-.676-1.874,2.534,2.534,0,0,0-1.874-.676,2.415,2.415,0,0,0-1.874.737,2.582,2.582,0,0,0-.676,1.813v.614H-.443v-.614A4.205,4.205,0,0,1-.12-8.413,3.936,3.936,0,0,1,.756-9.7a3.886,3.886,0,0,1,1.29-.83,4.315,4.315,0,0,1,1.6-.291,4.314,4.314,0,0,1,1.6.291,3.882,3.882,0,0,1,1.29.83,3.947,3.947,0,0,1,.876,1.29A4.218,4.218,0,0,1,7.73-6.738V6.688H6.194v-1.9A15.544,15.544,0,0,1,4.628,5.889,11.149,11.149,0,0,1,3.2,6.657,3.384,3.384,0,0,1,1.831,7a2.847,2.847,0,0,1-2.09-.861,2.842,2.842,0,0,1-.86-2.089V1.926a4.516,4.516,0,0,1,.86-2.78A4.952,4.952,0,0,1,1.924-2.529l4.27-1.352Z" transform="translate(1.118 10.824)"/>
      </g>
      <g id="g68" transform="translate(144.231 19.979)">
        <path id="path70" d="M0,1.622V.116H2.458V-4.339H3.994V.116H7.282V1.622H3.994V14.68a.808.808,0,0,0,.2.476,2.106,2.106,0,0,0,.492.461,3.035,3.035,0,0,0,.66.337,1.93,1.93,0,0,0,.676.138v1.537a3.61,3.61,0,0,1-1.244-.23,4.322,4.322,0,0,1-1.152-.63,3.327,3.327,0,0,1-.845-.937,2.2,2.2,0,0,1-.322-1.152V1.622Z" transform="translate(0 4.339)"/>
      </g>
      <g id="g72" transform="translate(153.304 18.11)">
        <path id="path74" d="M0,1.713H1.536V16.277a.808.808,0,0,0,.2.475,2.087,2.087,0,0,0,.491.461,3,3,0,0,0,.66.338,1.931,1.931,0,0,0,.676.138v1.537A3.594,3.594,0,0,1,2.32,19a4.313,4.313,0,0,1-1.152-.629,3.313,3.313,0,0,1-.845-.937A2.2,2.2,0,0,1,0,16.277ZM1.536-1.328H0V-4.584H1.536Z" transform="translate(0 4.584)"/>
      </g>
      <g id="g76" transform="translate(158.69 24.181)">
        <path id="path78" d="M1.99,1.112A2.463,2.463,0,0,0,1.252-.7,2.464,2.464,0,0,0-.56-1.438h-.676A2.464,2.464,0,0,0-3.049-.7a2.465,2.465,0,0,0-.737,1.813v9.648a2.465,2.465,0,0,0,.737,1.813,2.464,2.464,0,0,0,1.813.737H-.56a2.464,2.464,0,0,0,1.812-.737,2.463,2.463,0,0,0,.738-1.813Zm1.536,9.648A3.985,3.985,0,0,1,3.2,12.342a4.134,4.134,0,0,1-.876,1.306,4.188,4.188,0,0,1-1.29.876,3.952,3.952,0,0,1-1.6.322h-.676a3.947,3.947,0,0,1-1.6-.322,4.179,4.179,0,0,1-1.29-.876A4.134,4.134,0,0,1-5,12.342a3.986,3.986,0,0,1-.323-1.582V1.112A3.95,3.95,0,0,1-5-.486a4.179,4.179,0,0,1,.876-1.29,4.179,4.179,0,0,1,1.29-.876,3.934,3.934,0,0,1,1.6-.322H-.56a3.94,3.94,0,0,1,1.6.322,4.188,4.188,0,0,1,1.29.876A4.179,4.179,0,0,1,3.2-.486a3.95,3.95,0,0,1,.322,1.6Z" transform="translate(5.323 2.974)"/>
      </g>
      <g id="g80" transform="translate(170.795 24.179)">
        <path id="path82" d="M0,4.765V-12.441H1.536v1.9A15.634,15.634,0,0,1,3.1-11.642a11.278,11.278,0,0,1,1.428-.768A3.382,3.382,0,0,1,5.9-12.748a2.848,2.848,0,0,1,2.09.86A2.846,2.846,0,0,1,8.848-9.8V4.765H7.313V-9.8a1.293,1.293,0,0,0-.446-1.029,1.457,1.457,0,0,0-.968-.384,3.061,3.061,0,0,0-1.367.384A10.686,10.686,0,0,0,3.1-9.952,14.488,14.488,0,0,0,1.536-8.693V4.765Z" transform="translate(0 12.748)"/>
      </g>
      <g id="g84" transform="translate(182.121 24.181)">
        <path id="path86" d="M.418,4.046a1.351,1.351,0,0,0,.445.967,1.35,1.35,0,0,0,.968.446A2.968,2.968,0,0,0,3.2,5.06a11.887,11.887,0,0,0,1.429-.891,14.454,14.454,0,0,0,1.566-1.26V-2.284L2.568-1.146A3.358,3.358,0,0,0,.956.1,3.242,3.242,0,0,0,.418,1.926ZM6.194-6.738a2.536,2.536,0,0,0-.676-1.874,2.534,2.534,0,0,0-1.874-.676,2.415,2.415,0,0,0-1.874.737,2.582,2.582,0,0,0-.676,1.813v.614H-.443v-.614A4.205,4.205,0,0,1-.12-8.413,3.936,3.936,0,0,1,.756-9.7a3.886,3.886,0,0,1,1.29-.83,4.315,4.315,0,0,1,1.6-.291,4.314,4.314,0,0,1,1.6.291,3.882,3.882,0,0,1,1.29.83,3.947,3.947,0,0,1,.876,1.29A4.218,4.218,0,0,1,7.73-6.738V6.688H6.194v-1.9A15.544,15.544,0,0,1,4.628,5.889,11.149,11.149,0,0,1,3.2,6.657,3.384,3.384,0,0,1,1.831,7a2.847,2.847,0,0,1-2.09-.861,2.842,2.842,0,0,1-.86-2.089V1.926a4.516,4.516,0,0,1,.86-2.78A4.952,4.952,0,0,1,1.924-2.529l4.27-1.352Z" transform="translate(1.118 10.824)"/>
      </g>
      <g id="g88" transform="translate(194.473 18.14)">
        <path id="path90" d="M0,0H1.536V20.831a.81.81,0,0,0,.2.476,2.084,2.084,0,0,0,.491.46,3,3,0,0,0,.66.338,1.931,1.931,0,0,0,.676.138v1.537A3.61,3.61,0,0,1,2.32,23.55a4.315,4.315,0,0,1-1.152-.63,3.313,3.313,0,0,1-.845-.937A2.2,2.2,0,0,1,0,20.831Z"/>
      </g>
      <g id="g92" transform="translate(200.47 24.18)">
        <path id="path94" d="M1.99,1.781V-.678A2.461,2.461,0,0,0,1.252-2.49,2.461,2.461,0,0,0-.56-3.228h-.676a2.462,2.462,0,0,0-1.813.738A2.464,2.464,0,0,0-3.786-.678V1.781ZM-.56,11.52a2.464,2.464,0,0,0,1.812-.737A2.462,2.462,0,0,0,1.99,8.97V6.757H3.526V8.97a3.947,3.947,0,0,1-.322,1.6,4.17,4.17,0,0,1-.876,1.29,4.175,4.175,0,0,1-1.29.876,3.953,3.953,0,0,1-1.6.323h-.676a3.947,3.947,0,0,1-1.6-.323,4.166,4.166,0,0,1-1.29-.876A4.17,4.17,0,0,1-5,10.568a3.947,3.947,0,0,1-.323-1.6V-.678A3.95,3.95,0,0,1-5-2.275a4.188,4.188,0,0,1,.876-1.29,4.179,4.179,0,0,1,1.29-.876,3.947,3.947,0,0,1,1.6-.322H-.56a3.952,3.952,0,0,1,1.6.322,4.188,4.188,0,0,1,1.29.876A4.188,4.188,0,0,1,3.2-2.275a3.95,3.95,0,0,1,.322,1.6V3.286H-3.786V8.97a2.464,2.464,0,0,0,.737,1.813,2.464,2.464,0,0,0,1.813.737Z" transform="translate(5.323 4.764)"/>
      </g>
      <g id="g96" transform="translate(216.385 18.14)">
        <path id="path98" d="M1.99,2.683a2.263,2.263,0,0,0-.2-.937A2.312,2.312,0,0,0,1.237.978,2.66,2.66,0,0,0,.422.472,2.607,2.607,0,0,0-.56.287h-.676a2.465,2.465,0,0,0-1.813.738,2.464,2.464,0,0,0-.737,1.813V13.652a1.29,1.29,0,0,0,.445,1.03,1.451,1.451,0,0,0,.968.384,2.966,2.966,0,0,0,1.367-.4,11.883,11.883,0,0,0,1.428-.892A14.543,14.543,0,0,0,1.99,12.515ZM3.526,16.294H1.99v-1.9A15.553,15.553,0,0,1,.422,15.495a11.143,11.143,0,0,1-1.428.769,3.382,3.382,0,0,1-1.367.337,2.845,2.845,0,0,1-2.09-.86,2.843,2.843,0,0,1-.861-2.09V2.837A3.983,3.983,0,0,1-5,1.255,4.125,4.125,0,0,1-4.125-.051a4.153,4.153,0,0,1,1.29-.876,3.935,3.935,0,0,1,1.6-.323H-.56A3.75,3.75,0,0,1,.9-.973a4.725,4.725,0,0,1,1.09.614v-6.82H3.526Z" transform="translate(5.323 7.179)"/>
      </g>
      <g id="g100" transform="translate(228.306 24.18)">
        <path id="path102" d="M1.99,1.781V-.678A2.461,2.461,0,0,0,1.252-2.49,2.461,2.461,0,0,0-.56-3.228h-.676a2.462,2.462,0,0,0-1.813.738A2.464,2.464,0,0,0-3.786-.678V1.781ZM-.56,11.52a2.464,2.464,0,0,0,1.812-.737A2.462,2.462,0,0,0,1.99,8.97V6.757H3.526V8.97a3.947,3.947,0,0,1-.322,1.6,4.17,4.17,0,0,1-.876,1.29,4.175,4.175,0,0,1-1.29.876,3.953,3.953,0,0,1-1.6.323h-.676a3.947,3.947,0,0,1-1.6-.323,4.166,4.166,0,0,1-1.29-.876A4.17,4.17,0,0,1-5,10.568a3.947,3.947,0,0,1-.323-1.6V-.678A3.95,3.95,0,0,1-5-2.275a4.188,4.188,0,0,1,.876-1.29,4.179,4.179,0,0,1,1.29-.876,3.947,3.947,0,0,1,1.6-.322H-.56a3.952,3.952,0,0,1,1.6.322,4.188,4.188,0,0,1,1.29.876A4.188,4.188,0,0,1,3.2-2.275a3.95,3.95,0,0,1,.322,1.6V3.286H-3.786V8.97a2.464,2.464,0,0,0,.737,1.813,2.464,2.464,0,0,0,1.813.737Z" transform="translate(5.323 4.764)"/>
      </g>
      <g id="g104" transform="translate(239.152 24.18)">
        <path id="path106" d="M.418,1.279A1.726,1.726,0,0,0,.971,2.4,9.963,9.963,0,0,0,2.2,3.522q.8.585,1.751,1.2a11.319,11.319,0,0,1,1.9,1.352,8.041,8.041,0,0,1,1.29,1.444A2.994,2.994,0,0,1,7.73,9.268v1.044a3.983,3.983,0,0,1-.322,1.582A4.117,4.117,0,0,1,6.532,13.2a4.166,4.166,0,0,1-1.29.876,3.94,3.94,0,0,1-1.6.323H2.968a3.935,3.935,0,0,1-1.6-.323A4.175,4.175,0,0,1,.08,13.2,4.117,4.117,0,0,1-.8,11.894a3.983,3.983,0,0,1-.322-1.582V7.578H.418v2.734a2.462,2.462,0,0,0,.738,1.813,2.459,2.459,0,0,0,1.812.737h.676a2.517,2.517,0,0,0,2.55-2.55V9.268a1.836,1.836,0,0,0-.553-1.152,7.97,7.97,0,0,0-1.26-1.152q-.8-.614-1.813-1.26A10.463,10.463,0,0,1,.725,4.413,8,8,0,0,1-.55,3a2.9,2.9,0,0,1-.569-1.72V.664A3.946,3.946,0,0,1-.8-.933,4.14,4.14,0,0,1,1.37-3.1a3.935,3.935,0,0,1,1.6-.323h.676a3.94,3.94,0,0,1,1.6.323A4.14,4.14,0,0,1,7.408-.933,3.946,3.946,0,0,1,7.73.664v.615H6.194V.664a2.464,2.464,0,0,0-.737-1.812,2.464,2.464,0,0,0-1.813-.738H2.968a2.46,2.46,0,0,0-1.812.738A2.461,2.461,0,0,0,.418.664Z" transform="translate(1.118 3.422)"/>
      </g>
      <g id="g108" transform="translate(60.16 49.527)">
        <path id="path110" d="M3.879,0,4.8,24.579H3.264L2.374,1.536H1.759L-2.02,24.272H-3.556L-7.305,1.536H-7.92l-.921,23.043h-1.536L-9.425,0h3.349l3.288,21.2L.561,0Z" transform="translate(10.377)"/>
      </g>
      <g id="g112" transform="translate(79.109 50.603)">
        <path id="path114" d="M0,1.713H1.536V16.277a.808.808,0,0,0,.2.475,2.087,2.087,0,0,0,.491.461,3,3,0,0,0,.66.338,1.931,1.931,0,0,0,.676.138v1.537A3.594,3.594,0,0,1,2.32,19a4.313,4.313,0,0,1-1.152-.629,3.313,3.313,0,0,1-.845-.937A2.2,2.2,0,0,1,0,16.277ZM1.536-1.328H0V-4.584H1.536Z" transform="translate(0 4.584)"/>
      </g>
      <g id="g116" transform="translate(84.158 56.594)">
        <path id="path118" d="M.418,1.279A1.726,1.726,0,0,0,.971,2.4,9.963,9.963,0,0,0,2.2,3.522q.8.585,1.751,1.2a11.319,11.319,0,0,1,1.9,1.352,8.041,8.041,0,0,1,1.29,1.444A2.994,2.994,0,0,1,7.73,9.268v1.044a3.983,3.983,0,0,1-.322,1.582A4.117,4.117,0,0,1,6.532,13.2a4.166,4.166,0,0,1-1.29.876,3.94,3.94,0,0,1-1.6.323H2.968a3.935,3.935,0,0,1-1.6-.323A4.175,4.175,0,0,1,.08,13.2,4.117,4.117,0,0,1-.8,11.894a3.983,3.983,0,0,1-.322-1.582V7.578H.418v2.734a2.462,2.462,0,0,0,.738,1.813,2.459,2.459,0,0,0,1.812.737h.676a2.517,2.517,0,0,0,2.55-2.55V9.268a1.836,1.836,0,0,0-.553-1.152,7.97,7.97,0,0,0-1.26-1.152q-.8-.614-1.813-1.26A10.463,10.463,0,0,1,.725,4.413,8,8,0,0,1-.55,3a2.9,2.9,0,0,1-.569-1.72V.664A3.946,3.946,0,0,1-.8-.933,4.14,4.14,0,0,1,1.37-3.1a3.935,3.935,0,0,1,1.6-.323h.676a3.94,3.94,0,0,1,1.6.323A4.14,4.14,0,0,1,7.408-.933,3.946,3.946,0,0,1,7.73.664v.615H6.194V.664a2.464,2.464,0,0,0-.737-1.812,2.464,2.464,0,0,0-1.813-.738H2.968a2.46,2.46,0,0,0-1.812.738A2.461,2.461,0,0,0,.418.664Z" transform="translate(1.118 3.422)"/>
      </g>
      <g id="g120" transform="translate(95.327 56.594)">
        <path id="path122" d="M.418,1.279A1.726,1.726,0,0,0,.971,2.4,9.963,9.963,0,0,0,2.2,3.522q.8.585,1.751,1.2a11.319,11.319,0,0,1,1.9,1.352,8.041,8.041,0,0,1,1.29,1.444A2.994,2.994,0,0,1,7.73,9.268v1.044a3.983,3.983,0,0,1-.322,1.582A4.117,4.117,0,0,1,6.532,13.2a4.166,4.166,0,0,1-1.29.876,3.94,3.94,0,0,1-1.6.323H2.968a3.935,3.935,0,0,1-1.6-.323A4.175,4.175,0,0,1,.08,13.2,4.117,4.117,0,0,1-.8,11.894a3.983,3.983,0,0,1-.322-1.582V7.578H.418v2.734a2.462,2.462,0,0,0,.738,1.813,2.459,2.459,0,0,0,1.812.737h.676a2.517,2.517,0,0,0,2.55-2.55V9.268a1.836,1.836,0,0,0-.553-1.152,7.97,7.97,0,0,0-1.26-1.152q-.8-.614-1.813-1.26A10.463,10.463,0,0,1,.725,4.413,8,8,0,0,1-.55,3a2.9,2.9,0,0,1-.569-1.72V.664A3.946,3.946,0,0,1-.8-.933,4.14,4.14,0,0,1,1.37-3.1a3.935,3.935,0,0,1,1.6-.323h.676a3.94,3.94,0,0,1,1.6.323A4.14,4.14,0,0,1,7.408-.933,3.946,3.946,0,0,1,7.73.664v.615H6.194V.664a2.464,2.464,0,0,0-.737-1.812,2.464,2.464,0,0,0-1.813-.738H2.968a2.46,2.46,0,0,0-1.812.738A2.461,2.461,0,0,0,.418.664Z" transform="translate(1.118 3.422)"/>
      </g>
      <g id="g124" transform="translate(107.24 50.603)">
        <path id="path126" d="M0,1.713H1.536V16.277a.808.808,0,0,0,.2.475,2.087,2.087,0,0,0,.491.461,3,3,0,0,0,.66.338,1.931,1.931,0,0,0,.676.138v1.537A3.594,3.594,0,0,1,2.32,19a4.313,4.313,0,0,1-1.152-.629,3.313,3.313,0,0,1-.845-.937A2.2,2.2,0,0,1,0,16.277ZM1.536-1.328H0V-4.584H1.536Z" transform="translate(0 4.584)"/>
      </g>
      <g id="g128" transform="translate(112.611 56.594)">
        <path id="path130" d="M1.99,1.112A2.463,2.463,0,0,0,1.252-.7,2.464,2.464,0,0,0-.56-1.438h-.676A2.464,2.464,0,0,0-3.049-.7a2.465,2.465,0,0,0-.737,1.813v9.648a2.465,2.465,0,0,0,.737,1.813,2.464,2.464,0,0,0,1.813.737H-.56a2.464,2.464,0,0,0,1.812-.737,2.463,2.463,0,0,0,.738-1.813Zm1.536,9.648A3.985,3.985,0,0,1,3.2,12.342a4.134,4.134,0,0,1-.876,1.306,4.188,4.188,0,0,1-1.29.876,3.952,3.952,0,0,1-1.6.322h-.676a3.947,3.947,0,0,1-1.6-.322,4.179,4.179,0,0,1-1.29-.876A4.134,4.134,0,0,1-5,12.342a3.986,3.986,0,0,1-.323-1.582V1.112A3.95,3.95,0,0,1-5-.486a4.179,4.179,0,0,1,.876-1.29,4.179,4.179,0,0,1,1.29-.876,3.934,3.934,0,0,1,1.6-.322H-.56a3.94,3.94,0,0,1,1.6.322,4.188,4.188,0,0,1,1.29.876A4.179,4.179,0,0,1,3.2-.486a3.95,3.95,0,0,1,.322,1.6Z" transform="translate(5.323 2.974)"/>
      </g>
      <g id="g132" transform="translate(124.716 56.594)">
        <path id="path134" d="M0,4.765V-12.441H1.536v1.9A15.634,15.634,0,0,1,3.1-11.642a11.278,11.278,0,0,1,1.428-.768A3.382,3.382,0,0,1,5.9-12.748a2.848,2.848,0,0,1,2.09.86A2.846,2.846,0,0,1,8.848-9.8V4.765H7.313V-9.8a1.293,1.293,0,0,0-.446-1.029,1.457,1.457,0,0,0-.968-.384,3.061,3.061,0,0,0-1.367.384A10.686,10.686,0,0,0,3.1-9.952,14.488,14.488,0,0,0,1.536-8.693V4.765Z" transform="translate(0 12.748)"/>
      </g>
      <g id="g136" transform="translate(136.353 56.594)">
        <path id="path138" d="M.418,1.279A1.726,1.726,0,0,0,.971,2.4,9.963,9.963,0,0,0,2.2,3.522q.8.585,1.751,1.2a11.319,11.319,0,0,1,1.9,1.352,8.041,8.041,0,0,1,1.29,1.444A2.994,2.994,0,0,1,7.73,9.268v1.044a3.983,3.983,0,0,1-.322,1.582A4.117,4.117,0,0,1,6.532,13.2a4.166,4.166,0,0,1-1.29.876,3.94,3.94,0,0,1-1.6.323H2.968a3.935,3.935,0,0,1-1.6-.323A4.175,4.175,0,0,1,.08,13.2,4.117,4.117,0,0,1-.8,11.894a3.983,3.983,0,0,1-.322-1.582V7.578H.418v2.734a2.462,2.462,0,0,0,.738,1.813,2.459,2.459,0,0,0,1.812.737h.676a2.517,2.517,0,0,0,2.55-2.55V9.268a1.836,1.836,0,0,0-.553-1.152,7.97,7.97,0,0,0-1.26-1.152q-.8-.614-1.813-1.26A10.463,10.463,0,0,1,.725,4.413,8,8,0,0,1-.55,3a2.9,2.9,0,0,1-.569-1.72V.664A3.946,3.946,0,0,1-.8-.933,4.14,4.14,0,0,1,1.37-3.1a3.935,3.935,0,0,1,1.6-.323h.676a3.94,3.94,0,0,1,1.6.323A4.14,4.14,0,0,1,7.408-.933,3.946,3.946,0,0,1,7.73.664v.615H6.194V.664a2.464,2.464,0,0,0-.737-1.812,2.464,2.464,0,0,0-1.813-.738H2.968a2.46,2.46,0,0,0-1.812.738A2.461,2.461,0,0,0,.418.664Z" transform="translate(1.118 3.422)"/>
      </g>
      <g id="g140" transform="translate(152.532 49.527)">
        <path id="path142" d="M.41,6.27H6.493V7.806H-1.1v-24.58H.41Z" transform="translate(1.096 16.774)"/>
      </g>
      <g id="g144" transform="translate(161.498 56.594)">
        <path id="path146" d="M1.99,1.112A2.463,2.463,0,0,0,1.252-.7,2.464,2.464,0,0,0-.56-1.438h-.676A2.464,2.464,0,0,0-3.049-.7a2.465,2.465,0,0,0-.737,1.813v9.648a2.465,2.465,0,0,0,.737,1.813,2.464,2.464,0,0,0,1.813.737H-.56a2.464,2.464,0,0,0,1.812-.737,2.463,2.463,0,0,0,.738-1.813Zm1.536,9.648A3.985,3.985,0,0,1,3.2,12.342a4.134,4.134,0,0,1-.876,1.306,4.188,4.188,0,0,1-1.29.876,3.952,3.952,0,0,1-1.6.322h-.676a3.947,3.947,0,0,1-1.6-.322,4.179,4.179,0,0,1-1.29-.876A4.134,4.134,0,0,1-5,12.342a3.986,3.986,0,0,1-.323-1.582V1.112A3.95,3.95,0,0,1-5-.486a4.179,4.179,0,0,1,.876-1.29,4.179,4.179,0,0,1,1.29-.876,3.934,3.934,0,0,1,1.6-.322H-.56a3.94,3.94,0,0,1,1.6.322,4.188,4.188,0,0,1,1.29.876A4.179,4.179,0,0,1,3.2-.486a3.95,3.95,0,0,1,.322,1.6Z" transform="translate(5.323 2.974)"/>
      </g>
      <g id="g148" transform="translate(173.291 56.594)">
        <path id="path150" d="M1.99,3.135H3.526V5.346A3.98,3.98,0,0,1,3.2,6.929a4.129,4.129,0,0,1-.876,1.306,4.188,4.188,0,0,1-1.29.876,3.952,3.952,0,0,1-1.6.322h-.676a3.947,3.947,0,0,1-1.6-.322,4.179,4.179,0,0,1-1.29-.876A4.129,4.129,0,0,1-5,6.929a3.981,3.981,0,0,1-.323-1.582V-4.3A3.95,3.95,0,0,1-5-5.9a4.17,4.17,0,0,1,.876-1.29,4.166,4.166,0,0,1,1.29-.876,3.934,3.934,0,0,1,1.6-.322H-.56a3.94,3.94,0,0,1,1.6.322,4.175,4.175,0,0,1,1.29.876A4.17,4.17,0,0,1,3.2-5.9a3.95,3.95,0,0,1,.322,1.6V-2H1.99V-4.3a2.463,2.463,0,0,0-.738-1.813A2.464,2.464,0,0,0-.56-6.85h-.676a2.464,2.464,0,0,0-1.813.737A2.465,2.465,0,0,0-3.786-4.3V5.346A2.466,2.466,0,0,0-3.049,7.16,2.464,2.464,0,0,0-1.237,7.9H-.56A2.464,2.464,0,0,0,1.252,7.16,2.464,2.464,0,0,0,1.99,5.346Z" transform="translate(5.323 8.387)"/>
      </g>
      <g id="g152" transform="translate(183.68 56.594)">
        <path id="path154" d="M.418,4.046a1.351,1.351,0,0,0,.445.967,1.35,1.35,0,0,0,.968.446A2.968,2.968,0,0,0,3.2,5.06a11.887,11.887,0,0,0,1.429-.891,14.454,14.454,0,0,0,1.566-1.26V-2.284L2.568-1.146A3.358,3.358,0,0,0,.956.1,3.242,3.242,0,0,0,.418,1.926ZM6.194-6.738a2.536,2.536,0,0,0-.676-1.874,2.534,2.534,0,0,0-1.874-.676,2.415,2.415,0,0,0-1.874.737,2.582,2.582,0,0,0-.676,1.813v.614H-.443v-.614A4.205,4.205,0,0,1-.12-8.413,3.936,3.936,0,0,1,.756-9.7a3.886,3.886,0,0,1,1.29-.83,4.315,4.315,0,0,1,1.6-.291,4.314,4.314,0,0,1,1.6.291,3.882,3.882,0,0,1,1.29.83,3.947,3.947,0,0,1,.876,1.29A4.218,4.218,0,0,1,7.73-6.738V6.688H6.194v-1.9A15.544,15.544,0,0,1,4.628,5.889,11.149,11.149,0,0,1,3.2,6.657,3.384,3.384,0,0,1,1.831,7a2.847,2.847,0,0,1-2.09-.861,2.842,2.842,0,0,1-.86-2.089V1.926a4.516,4.516,0,0,1,.86-2.78A4.952,4.952,0,0,1,1.924-2.529l4.27-1.352Z" transform="translate(1.118 10.824)"/>
      </g>
      <g id="g156" transform="translate(196.032 50.633)">
        <path id="path158" d="M0,0H1.536V20.831a.81.81,0,0,0,.2.476,2.084,2.084,0,0,0,.491.46,3,3,0,0,0,.66.338,1.931,1.931,0,0,0,.676.138v1.537A3.61,3.61,0,0,1,2.32,23.55a4.315,4.315,0,0,1-1.152-.63,3.313,3.313,0,0,1-.845-.937A2.2,2.2,0,0,1,0,20.831Z"/>
      </g>
      <g id="g160" transform="translate(202.006 56.594)">
        <path id="path162" d="M1.99,1.781V-.678A2.461,2.461,0,0,0,1.252-2.49,2.461,2.461,0,0,0-.56-3.228h-.676a2.462,2.462,0,0,0-1.813.738A2.464,2.464,0,0,0-3.786-.678V1.781ZM-.56,11.52a2.464,2.464,0,0,0,1.812-.737A2.462,2.462,0,0,0,1.99,8.97V6.757H3.526V8.97a3.947,3.947,0,0,1-.322,1.6,4.17,4.17,0,0,1-.876,1.29,4.175,4.175,0,0,1-1.29.876,3.953,3.953,0,0,1-1.6.323h-.676a3.947,3.947,0,0,1-1.6-.323,4.166,4.166,0,0,1-1.29-.876A4.17,4.17,0,0,1-5,10.568a3.947,3.947,0,0,1-.323-1.6V-.678A3.95,3.95,0,0,1-5-2.275a4.188,4.188,0,0,1,.876-1.29,4.179,4.179,0,0,1,1.29-.876,3.947,3.947,0,0,1,1.6-.322H-.56a3.952,3.952,0,0,1,1.6.322,4.188,4.188,0,0,1,1.29.876A4.188,4.188,0,0,1,3.2-2.275a3.95,3.95,0,0,1,.322,1.6V3.286H-3.786V8.97a2.464,2.464,0,0,0,.737,1.813,2.464,2.464,0,0,0,1.813.737Z" transform="translate(5.323 4.764)"/>
      </g>
      <g id="g164" transform="translate(212.852 56.594)">
        <path id="path166" d="M.418,1.279A1.726,1.726,0,0,0,.971,2.4,9.963,9.963,0,0,0,2.2,3.522q.8.585,1.751,1.2a11.319,11.319,0,0,1,1.9,1.352,8.041,8.041,0,0,1,1.29,1.444A2.994,2.994,0,0,1,7.73,9.268v1.044a3.983,3.983,0,0,1-.322,1.582A4.117,4.117,0,0,1,6.532,13.2a4.166,4.166,0,0,1-1.29.876,3.94,3.94,0,0,1-1.6.323H2.968a3.935,3.935,0,0,1-1.6-.323A4.175,4.175,0,0,1,.08,13.2,4.117,4.117,0,0,1-.8,11.894a3.983,3.983,0,0,1-.322-1.582V7.578H.418v2.734a2.462,2.462,0,0,0,.738,1.813,2.459,2.459,0,0,0,1.812.737h.676a2.517,2.517,0,0,0,2.55-2.55V9.268a1.836,1.836,0,0,0-.553-1.152,7.97,7.97,0,0,0-1.26-1.152q-.8-.614-1.813-1.26A10.463,10.463,0,0,1,.725,4.413,8,8,0,0,1-.55,3a2.9,2.9,0,0,1-.569-1.72V.664A3.946,3.946,0,0,1-.8-.933,4.14,4.14,0,0,1,1.37-3.1a3.935,3.935,0,0,1,1.6-.323h.676a3.94,3.94,0,0,1,1.6.323A4.14,4.14,0,0,1,7.408-.933,3.946,3.946,0,0,1,7.73.664v.615H6.194V.664a2.464,2.464,0,0,0-.737-1.812,2.464,2.464,0,0,0-1.813-.738H2.968a2.46,2.46,0,0,0-1.812.738A2.461,2.461,0,0,0,.418.664Z" transform="translate(1.118 3.422)"/>
      </g>
    </g>
  </g>
</svg>
