<svg width="40" height="40" viewBox="0 0 40 40" fill="none" xmlns="http://www.w3.org/2000/svg">
<g id="avatar">
<circle id="bg" cx="20" cy="20" r="19" fill="white" stroke="#465F9D" stroke-width="2"/>
<g id="head_6_">
<path id="ear_5_" fill-rule="evenodd" clip-rule="evenodd" d="M28.3159 19.7361C28.3159 19.7361 31.2035 19.7921 30.6819 22.3855C30.1602 24.979 26.9746 23.4863 26.9746 23.4863L27.4031 19.8107L28.3159 19.7361Z" fill="white"/>
<path id="ear_6_" fill-rule="evenodd" clip-rule="evenodd" d="M28.3271 19.1759C28.3083 19.1755 28.2895 19.1761 28.2708 19.1776L27.3579 19.2523C27.0925 19.274 26.8792 19.4803 26.8483 19.7452L26.4198 23.4209C26.3919 23.6603 26.5201 23.8907 26.7381 23.9928L26.8015 24.0215C26.9387 24.0818 27.1374 24.1583 27.3815 24.2341C27.8819 24.3895 28.387 24.4805 28.8737 24.4725C30.076 24.4525 30.9639 23.8187 31.2301 22.4955C31.5299 21.0048 30.9097 19.9973 29.7524 19.4963C29.4395 19.3609 29.1105 19.2729 28.7824 19.2213C28.5846 19.1902 28.4269 19.1778 28.3271 19.1759ZM27.9052 20.3309L28.3285 20.2964L28.3769 20.2997C28.446 20.3051 28.5242 20.3141 28.609 20.3274C28.8503 20.3654 29.0906 20.4296 29.3089 20.5241C30.0088 20.8271 30.3228 21.3372 30.1342 22.2746C29.9794 23.0447 29.5634 23.3416 28.8552 23.3533C28.5029 23.3592 28.109 23.2882 27.7125 23.1651L27.6323 23.1395L27.5798 23.1216L27.9052 20.3309Z" fill="#2E186A"/>
<path id="face_6_" fill-rule="evenodd" clip-rule="evenodd" d="M20.0816 11.5826C19.3178 11.5266 14.1016 11.1908 13.5241 15.5568C12.9465 19.9227 13.5613 24.7365 14.0457 26.9381C14.53 29.1398 24.5154 28.1136 25.0743 27.927C25.6332 27.7404 26.3225 27.0687 26.3225 27.0687L27.7011 20.3705C27.7011 20.3519 28.2599 12.2543 20.0816 11.5826Z" fill="white"/>
<path id="face_7_" fill-rule="evenodd" clip-rule="evenodd" d="M28.2592 20.4076L28.2631 20.3286L28.2641 20.3022C28.2803 19.852 28.2585 19.2754 28.1689 18.6122C28.0349 17.6207 27.7725 16.641 27.3495 15.7198C26.1241 13.0511 23.7827 11.3241 20.1278 11.0239C19.7087 10.9932 19.2987 10.9818 18.7899 11.006C18.0234 11.0426 17.2734 11.158 16.5687 11.3757C14.5849 11.9888 13.2572 13.3152 12.9705 15.4824C12.4742 19.2348 12.7996 23.8722 13.5004 27.0577C13.799 28.415 15.8881 28.875 19.3217 28.8869L19.6943 28.8863C21.9073 28.8709 24.7558 28.6227 25.2516 28.4572C25.3696 28.4178 25.4895 28.3642 25.6125 28.2981C25.7782 28.209 25.9476 28.0981 26.1196 27.9701C26.2663 27.8609 26.4073 27.7451 26.5384 27.6292L26.6421 27.5357C26.6714 27.5088 26.6951 27.4863 26.7127 27.4691C26.7929 27.391 26.8478 27.2906 26.8704 27.1809L28.249 20.4827C28.2541 20.4579 28.2575 20.4328 28.2592 20.4076ZM20.0412 12.1403C23.2783 12.4062 25.273 13.8775 26.3338 16.1878C26.7069 17.0003 26.941 17.8745 27.0611 18.7626C27.1368 19.323 27.1585 19.8113 27.1491 20.1921L27.1453 20.2987L25.8117 26.7784L25.7989 26.7899C25.6897 26.8864 25.5724 26.9828 25.4528 27.0718C25.3215 27.1695 25.1963 27.2515 25.0837 27.312C25.0135 27.3498 24.9507 27.3778 24.8979 27.3954L24.8798 27.4004C24.7289 27.4363 23.9799 27.5299 23.1359 27.6026C21.9625 27.7036 20.6988 27.7658 19.5314 27.7678L19.2428 27.767C16.5163 27.7458 14.7098 27.3531 14.5918 26.8171C13.9172 23.7506 13.6008 19.241 14.0785 15.6297C14.3023 13.9373 15.3015 12.9391 16.8981 12.4457C17.5045 12.2584 18.1639 12.1569 18.8429 12.1245C19.3001 12.1027 19.668 12.1129 20.0412 12.1403Z" fill="#2E186A"/>
<path id="beard_1_" fill-rule="evenodd" clip-rule="evenodd" d="M26.714 20.2952C26.211 20.7803 24.8883 23.5417 24.5716 24.8291C24.5716 24.8291 21.2742 23.7469 16.5796 23.6723C16.5796 23.6723 14.0087 23.7282 12.9841 24.0268C12.9841 24.0268 13.2077 28.598 15.2942 30.9675C17.3807 33.3371 21.7772 32.6654 23.8451 31.2474C25.913 29.8294 26.2483 29.1391 26.7327 27.6278C27.217 26.0978 28.4652 20.4258 28.4652 20.4258L26.714 20.2952Z" fill="#968BB4"/>
<path id="hair_5_" fill-rule="evenodd" clip-rule="evenodd" d="M28.0554 21.2659C28.0554 21.2659 29.4154 19.1576 29.937 16.9746C30.4214 14.9222 29.4713 12.7579 27.571 11.8436C25.9875 11.0787 24.7953 11.6757 24.7953 11.6757C24.7953 11.6757 26.4905 8.80238 23.9569 6.24623C23.0627 5.35065 21.8332 4.84688 20.5664 4.8842C17.4739 4.97749 16.5238 7.58961 16.5238 7.58961C16.5238 7.58961 13.2078 1.48844 6.42663 5.10809C5.73734 5.4626 4.97354 6.48879 4.60095 7.16047C2.36542 11.3026 9.74267 16.2096 13.599 16.5828C17.8279 17.0119 20.3056 16.3029 21.6655 15.2767C20.6409 15.9111 21.7773 22.2361 28.0554 21.2659Z" fill="#2E186A"/>
<path id="eye_II_6_" fill-rule="evenodd" clip-rule="evenodd" d="M15.0892 22.2727C15.3155 22.2727 15.499 21.9886 15.499 21.6383C15.499 21.2879 15.3155 21.0039 15.0892 21.0039C14.8628 21.0039 14.6793 21.2879 14.6793 21.6383C14.6793 21.9886 14.8628 22.2727 15.0892 22.2727Z" fill="#2E186A"/>
<path id="eye_6_" fill-rule="evenodd" clip-rule="evenodd" d="M18.8339 22.1799C19.0603 22.1799 19.2438 21.8959 19.2438 21.5455C19.2438 21.1952 19.0603 20.9111 18.8339 20.9111C18.6076 20.9111 18.4241 21.1952 18.4241 21.5455C18.4241 21.8959 18.6076 22.1799 18.8339 22.1799Z" fill="#2E186A"/>
<path id="brow_II_4_" fill-rule="evenodd" clip-rule="evenodd" d="M19.1188 17.7457C19.8318 17.6324 20.4487 17.8131 20.945 18.1807C21.0821 18.2822 21.2 18.3912 21.2996 18.5015C21.3631 18.5718 21.4091 18.6311 21.4382 18.6739C21.6119 18.9294 21.5459 19.2776 21.2908 19.4516C21.0451 19.6191 20.7136 19.564 20.5343 19.3315L20.5143 19.3039C20.4862 19.2626 20.4059 19.1737 20.2804 19.0807C20.0258 18.8922 19.7233 18.7979 19.3531 18.8431L19.294 18.8514C18.9892 18.8998 18.7028 18.6916 18.6545 18.3863C18.6061 18.081 18.814 17.7942 19.1188 17.7457Z" fill="#2E186A"/>
<path id="brow_7_" fill-rule="evenodd" clip-rule="evenodd" d="M14.5919 17.6915C14.8771 17.6225 15.1636 17.6247 15.4343 17.6676C15.5074 17.6792 15.565 17.6916 15.6037 17.7018C15.9023 17.7802 16.0808 18.0862 16.0025 18.3852C15.927 18.6736 15.6402 18.8501 15.3521 18.7921L15.3068 18.7817C15.2963 18.7796 15.2802 18.7766 15.2596 18.7733C15.1222 18.7516 14.9754 18.7504 14.8546 18.7797C14.7167 18.8131 14.6389 18.8739 14.5912 19.0084L14.5814 19.0384C14.4927 19.3345 14.1811 19.5025 13.8855 19.4137C13.5899 19.3249 13.4221 19.0128 13.5108 18.7167C13.6786 18.1565 14.0776 17.8161 14.5919 17.6915Z" fill="#2E186A"/>
<path id="mouth_6_" fill-rule="evenodd" clip-rule="evenodd" d="M19.3058 26.7594C19.3527 26.4538 19.6381 26.2442 19.9431 26.2913C20.2482 26.3383 20.4575 26.6241 20.4105 26.9296C20.4019 26.986 20.3843 27.0672 20.3547 27.1663C20.3063 27.3278 20.239 27.4898 20.1474 27.6449C19.8057 28.2237 19.2229 28.5439 18.4533 28.4026C18.1497 28.3468 17.9487 28.0552 18.0044 27.7511C18.058 27.4579 18.3308 27.2602 18.6224 27.2965L18.6549 27.3015C18.9279 27.3516 19.0672 27.2751 19.1853 27.075C19.2269 27.0046 19.26 26.9249 19.284 26.8449L19.2941 26.8092C19.2998 26.7881 19.3033 26.7726 19.3049 26.7642L19.3058 26.7594Z" fill="#2E186A"/>
<path id="nose_6_" fill-rule="evenodd" clip-rule="evenodd" d="M16.1923 21.8537C16.2281 21.5467 16.5057 21.3269 16.8123 21.3627C17.1079 21.3973 17.3225 21.657 17.3054 21.9509L17.3025 21.9836L16.9317 25.1613L17.5553 24.997C17.8431 24.9212 18.1376 25.0845 18.2287 25.3643L18.238 25.3959C18.3137 25.6842 18.1507 25.9791 17.8713 26.0704L17.8397 26.0796L16.4239 26.4528C16.0537 26.5504 15.701 26.2554 15.7237 25.879L15.7266 25.8465L16.1923 21.8537Z" fill="#2E186A"/>
</g>
</g>
</svg>
