<svg width="393" height="208" viewBox="0 0 393 208" fill="none" xmlns="http://www.w3.org/2000/svg">
<path fill-rule="evenodd" clip-rule="evenodd" d="M87.8513 82.2989C88.1726 82.2954 88.4378 82.5542 88.4593 82.8837L88.4606 82.9206L88.6215 99.9392C88.6255 100.359 88.2403 100.665 87.8526 100.549L87.6157 100.478C85.5075 99.8296 84.0533 99.0893 83.4065 98.104L83.3714 98.049C82.8323 97.1896 82.3257 96.7465 82.1533 96.7709L82.1497 96.7734C82.1373 96.7846 82.0989 96.8382 82.039 97.0074C81.9209 97.3407 81.8568 97.8826 81.8657 98.6187C81.8802 99.8199 82.6908 100.936 84.0755 101.92C84.5869 102.283 85.1385 102.6 85.6902 102.867C85.8511 102.945 86.0021 103.014 86.1403 103.074L86.3399 103.157L86.4113 103.185C87.0278 103.414 86.902 104.357 86.249 104.403L85.609 104.45C85.3587 104.469 85.0893 104.49 84.8046 104.513L84.0826 104.574C83.2423 104.646 82.4118 104.723 81.6256 104.806L81.2872 104.842C79.4001 105.046 78.0339 105.254 77.464 105.442C77.1036 105.561 76.9347 105.803 76.9765 105.946C77.0054 106.045 77.1191 106.169 77.3563 106.293C77.6975 106.47 78.2113 106.596 78.8917 106.646C79.6248 106.699 79.6468 107.812 78.9164 107.896L78.7372 107.918C78.0968 108.001 77.6377 108.113 77.3653 108.255C77.1993 108.339 77.0741 108.426 76.9931 108.508C76.974 108.527 76.9591 108.543 76.9479 108.557L76.9296 108.582L76.9377 108.594C76.9614 108.625 77.0013 108.664 77.0593 108.708L77.0899 108.731C77.734 109.186 79.2962 109.474 81.5321 109.428C81.6035 109.427 81.6722 109.438 81.7362 109.461L81.7443 109.464L81.9277 109.47C82.2606 109.483 82.5208 109.774 82.5088 110.121C82.4968 110.467 82.2171 110.738 81.8842 110.726L81.6185 110.716C80.4858 110.68 79.5969 110.694 78.9465 110.769C78.6254 110.806 78.3757 110.858 78.2107 110.918L78.1672 110.934L78.1713 110.951C78.3702 111.735 79.7478 112.219 83.7548 112.436L83.8744 112.442H84.2785C85.0598 112.442 85.0866 113.637 84.3329 113.696L84.2925 113.698C83.3847 113.72 82.5093 113.811 81.6767 113.981C81.398 114.036 81.168 114.094 80.9863 114.152L80.9272 114.172L80.9505 114.185C81.0165 114.221 81.0897 114.257 81.1687 114.294L81.2291 114.322C81.4163 114.406 81.6201 114.485 81.8243 114.556L81.9277 114.591L82.0584 114.634L82.2545 114.666C84.3261 115.007 86.2206 115.136 87.9649 115.087L88.1581 115.08C88.4853 115.069 88.7594 115.33 88.781 115.666L88.7823 115.702L89.0236 140.884C89.0268 141.221 88.7748 141.498 88.4558 141.517L88.4201 141.519L10.1659 141.477C9.84707 141.477 9.58569 141.219 9.56438 140.892L9.56301 140.855L9.00003 83.7706C8.99673 83.4362 9.24514 83.1601 9.56157 83.1376L9.59699 83.1362L87.8513 82.2989ZM87.2603 83.5601L10.2124 84.3845L10.7632 140.22L87.8112 140.261L87.582 116.35L87.3869 116.352C85.7404 116.36 83.9734 116.219 82.0675 115.906L81.8285 115.866C81.8058 115.862 81.7833 115.857 81.7612 115.851L81.6114 115.804C81.5743 115.791 81.5331 115.778 81.4884 115.762L81.4426 115.747C81.2078 115.665 80.9727 115.574 80.7503 115.474C80.4173 115.324 80.1403 115.167 79.9281 114.993C79.5582 114.691 79.3509 114.313 79.4885 113.852C79.5565 113.624 79.6956 113.439 79.9106 113.285L79.9327 113.269L79.8552 113.253L79.6723 113.212C77.7868 112.774 77.005 112.044 76.9424 110.862L76.94 110.806C76.9332 110.566 77.0023 110.363 77.1283 110.195L77.1603 110.154L77.0962 110.129C76.8527 110.032 76.6404 109.923 76.4607 109.802L76.4125 109.769C75.3807 109.04 75.5317 107.968 76.536 107.3L76.575 107.274L76.5581 107.263C76.2 107.023 75.9558 106.721 75.8375 106.36L75.8221 106.31C75.5624 105.419 76.1701 104.551 77.0989 104.244L77.1834 104.217C77.9315 103.99 79.4282 103.772 81.505 103.555L82.0956 103.495C82.5934 103.445 83.1045 103.398 83.6209 103.352L83.9472 103.324L83.87 103.276C83.763 103.208 83.657 103.138 83.5521 103.066L83.3956 102.957C81.7191 101.766 80.68 100.334 80.6594 98.6336C80.6369 96.7722 81.0303 95.6618 81.9904 95.5255C82.7761 95.4139 83.5714 96.0935 84.3363 97.29L84.3831 97.3639C84.7471 97.9507 85.7743 98.5273 87.2711 99.0475L87.4071 99.0939L87.2603 83.5601Z" fill="#2F4077"/>
<rect x="47.665" y="123.703" width="21.715" height="1.25599" fill="#869ECE"/>
<rect x="32.3838" y="123.703" width="5.9917" height="1.25599" fill="#869ECE"/>
<path fill-rule="evenodd" clip-rule="evenodd" d="M23.0743 123.703H17.5651C17.2233 123.703 16.9619 123.976 16.9619 124.331C16.9619 124.687 17.2233 124.959 17.5651 124.959H23.0743" fill="#869ECE"/>
<path fill-rule="evenodd" clip-rule="evenodd" d="M69.3595 115.561H47.5439L47.7249 116.817H69.3595V115.561Z" fill="#869ECE"/>
<path fill-rule="evenodd" clip-rule="evenodd" d="M38.2148 115.561H17.5856C17.2438 115.561 16.9824 115.833 16.9824 116.189C16.9824 116.545 17.2438 116.817 17.5856 116.817H38.3958L38.2148 115.561Z" fill="#869ECE"/>
<path fill-rule="evenodd" clip-rule="evenodd" d="M83.0318 123.704H78.6084V124.96H83.0318C83.3736 124.96 83.635 124.688 83.635 124.332C83.635 123.976 83.3736 123.704 83.0318 123.704Z" fill="#869ECE"/>
<path fill-rule="evenodd" clip-rule="evenodd" d="M83.0318 116.817C83.3736 116.817 83.635 116.545 83.635 116.189C83.635 115.833 83.3736 115.561 83.0318 115.561H78.6084L78.6285 116.817H83.0318Z" fill="#869ECE"/>
<path fill-rule="evenodd" clip-rule="evenodd" d="M76.3764 107.418H17.5651C17.2233 107.418 16.9619 107.69 16.9619 108.046C16.9619 108.402 17.2233 108.674 17.5651 108.674H76.3764C76.7182 108.674 76.9796 108.402 76.9796 108.046C76.9796 107.69 76.7182 107.418 76.3764 107.418Z" fill="#869ECE"/>
<path fill-rule="evenodd" clip-rule="evenodd" d="M81.1421 100.531H17.5856C17.2438 100.531 16.9824 100.259 16.9824 99.9031C16.9824 99.5473 17.2438 99.2751 17.5856 99.2751H81.1421C81.4839 99.2751 81.7453 99.5473 81.7453 99.9031C81.7453 100.259 81.4638 100.531 81.1421 100.531Z" fill="#869ECE"/>
<rect width="9.16815" height="37.1753" transform="matrix(0.999943 -0.0106457 0.0098216 0.999952 53.6631 94.7776)" fill="#E4794A"/>
<path fill-rule="evenodd" clip-rule="evenodd" d="M76.3719 107.397C76.705 107.394 76.9774 107.673 76.9802 108.02C76.983 108.354 76.7341 108.63 76.4176 108.652L76.3822 108.653L69.8883 108.71L70.0978 131.296L78.1205 131.205L77.9454 112.323C77.9423 111.988 78.1908 111.712 78.5073 111.69L78.5427 111.689C78.8639 111.685 79.1289 111.944 79.1504 112.274L79.1517 112.31L79.3327 131.82C79.3358 132.154 79.0876 132.43 78.7715 132.453L78.7361 132.454L69.5072 132.559C69.1857 132.562 68.9203 132.304 68.8988 131.974L68.8975 131.937L68.6763 108.094C68.6732 107.759 68.9222 107.483 69.2389 107.461L69.2743 107.46L76.3719 107.397Z" fill="#2F4077"/>
<path fill-rule="evenodd" clip-rule="evenodd" d="M47.5092 107.385L38.2808 107.483C37.9477 107.487 37.6804 107.771 37.6838 108.117L37.9176 131.958C37.921 132.304 38.1938 132.583 38.5269 132.579L47.7553 132.481C48.0884 132.477 48.3557 132.193 48.3523 131.846L48.1185 108.006C48.1151 107.659 47.8423 107.381 47.5092 107.385ZM46.918 108.647L47.1393 131.232L39.1172 131.317L38.8959 108.733L46.918 108.647Z" fill="#2F4077"/>
<path fill-rule="evenodd" clip-rule="evenodd" d="M32.2368 119.769L23.0683 119.874C22.7347 119.878 22.4675 120.163 22.4717 120.51L22.6125 131.939C22.6167 132.286 22.8896 132.563 23.2222 132.559L32.3908 132.455C32.7243 132.451 32.9916 132.166 32.9873 131.819L32.8465 120.389C32.8423 120.043 32.5695 119.765 32.2368 119.769ZM31.6482 121.031L31.7735 131.205L23.8113 131.296L23.6861 121.122L31.6482 121.031Z" fill="#2F4077"/>
<path fill-rule="evenodd" clip-rule="evenodd" d="M17.5651 91.2573C17.8863 91.2573 18.1489 91.5188 18.1673 91.8484L18.1683 91.8853L18.1681 131.302H83.0317C83.3529 131.302 83.6155 131.564 83.6338 131.893L83.6349 131.93C83.6349 132.265 83.3837 132.538 83.0671 132.557L83.0317 132.558H17.5651C17.2439 132.558 16.9813 132.297 16.9629 131.967L16.9619 131.93V91.8853C16.9619 91.5385 17.232 91.2573 17.5651 91.2573Z" fill="#2F4077"/>
<path fill-rule="evenodd" clip-rule="evenodd" d="M29.9712 133.667C30.3043 133.667 30.5744 133.948 30.5744 134.295C30.5744 134.629 30.3233 134.903 30.0067 134.922L29.9712 134.923H24.5827C24.2496 134.923 23.9795 134.642 23.9795 134.295C23.9795 133.96 24.2306 133.687 24.5472 133.668L24.5827 133.667H29.9712Z" fill="#E4794A"/>
<path fill-rule="evenodd" clip-rule="evenodd" d="M45.7549 133.667C46.088 133.667 46.3581 133.948 46.3581 134.295C46.3581 134.629 46.107 134.903 45.7903 134.922L45.7549 134.923H40.3664C40.0332 134.923 39.7632 134.642 39.7632 134.295C39.7632 133.96 40.0143 133.687 40.3309 133.668L40.3664 133.667H45.7549Z" fill="#E4794A"/>
<path fill-rule="evenodd" clip-rule="evenodd" d="M61.2373 133.667C61.5704 133.667 61.8405 133.948 61.8405 134.295C61.8405 134.629 61.5894 134.903 61.2728 134.922L61.2373 134.923H55.8488C55.5157 134.923 55.2456 134.642 55.2456 134.295C55.2456 133.96 55.4967 133.687 55.8134 133.668L55.8488 133.667H61.2373Z" fill="#E4794A"/>
<path fill-rule="evenodd" clip-rule="evenodd" d="M76.7393 133.667C77.0724 133.667 77.3425 133.948 77.3425 134.295C77.3425 134.629 77.0913 134.903 76.7747 134.922L76.7393 134.923H71.3508C71.0176 134.923 70.7476 134.642 70.7476 134.295C70.7476 133.96 70.9987 133.687 71.3153 133.668L71.3508 133.667H76.7393Z" fill="#E4794A"/>
<path fill-rule="evenodd" clip-rule="evenodd" d="M14.8713 101.305C14.5295 101.305 14.2681 101.033 14.2681 100.677V99.6928C14.2681 99.3369 14.5295 99.0648 14.8713 99.0648C15.2131 99.0648 15.4745 99.3369 15.4745 99.6928V100.677C15.4745 101.012 15.2131 101.305 14.8713 101.305Z" fill="#869ECE"/>
<path fill-rule="evenodd" clip-rule="evenodd" d="M14.8713 109.155C14.5295 109.155 14.2681 108.883 14.2681 108.527V107.543C14.2681 107.187 14.5295 106.915 14.8713 106.915C15.2131 106.915 15.4745 107.187 15.4745 107.543V108.527C15.4745 108.883 15.2131 109.155 14.8713 109.155Z" fill="#869ECE"/>
<path fill-rule="evenodd" clip-rule="evenodd" d="M14.8713 117.8C14.5295 117.8 14.2681 117.528 14.2681 117.172V116.188C14.2681 115.833 14.5295 115.56 14.8713 115.56C15.2131 115.56 15.4745 115.833 15.4745 116.188V117.172C15.4745 117.507 15.2131 117.8 14.8713 117.8Z" fill="#869ECE"/>
<path fill-rule="evenodd" clip-rule="evenodd" d="M14.8713 125.943C14.5295 125.943 14.2681 125.671 14.2681 125.315V124.331C14.2681 123.975 14.5295 123.703 14.8713 123.703C15.2131 123.703 15.4745 123.975 15.4745 124.331V125.315C15.4745 125.65 15.2131 125.943 14.8713 125.943Z" fill="#869ECE"/>
<path fill-rule="evenodd" clip-rule="evenodd" d="M76.1506 107.397C76.4837 107.394 76.7561 107.673 76.7591 108.02C76.7619 108.354 76.5131 108.63 76.1966 108.652L76.1612 108.653L69.8883 108.71L70.0978 131.296L78.1205 131.205L77.9454 112.155C77.9423 111.821 78.1909 111.545 78.5073 111.523L78.5428 111.521C78.864 111.518 79.129 111.777 79.1504 112.106L79.1517 112.143L79.3327 131.82C79.3357 132.154 79.0876 132.43 78.7715 132.453L78.7361 132.454L69.5072 132.559C69.1857 132.563 68.9203 132.304 68.8988 131.974L68.8975 131.937L68.6763 108.094C68.6732 107.76 68.9221 107.484 69.2387 107.462L69.2742 107.46L76.1506 107.397Z" fill="#2F4077"/>
<path fill-rule="evenodd" clip-rule="evenodd" d="M314.826 174.802H74.0738C70.5901 174.802 67.7686 172.179 67.7686 168.921V48.7375H321.102V168.892C321.102 172.15 318.281 174.802 314.826 174.802Z" fill="white"/>
<path fill-rule="evenodd" clip-rule="evenodd" d="M321.102 47.8728H67.7685C67.2915 47.8728 66.9048 48.26 66.9048 48.7376V168.921C66.9048 172.668 70.1233 175.667 74.0738 175.667H314.826C318.748 175.667 321.966 172.638 321.966 168.892V48.7376C321.966 48.26 321.579 47.8728 321.102 47.8728ZM68.6323 49.6025H320.239V168.892C320.239 171.658 317.817 173.937 314.826 173.937H74.0738L73.9733 173.936C70.9972 173.887 68.6323 171.653 68.6323 168.921V49.6025Z" fill="#2F4077"/>
<path fill-rule="evenodd" clip-rule="evenodd" d="M67.0487 50.842L66.7607 21.034C66.7607 17.3152 69.6111 14.3171 73.0948 14.3171L315.718 14C319.231 14 322.052 17.0269 322.052 20.7169V50.842H67.0487Z" fill="#3558A2"/>
<path fill-rule="evenodd" clip-rule="evenodd" d="M197.79 18.5836C199.898 18.5836 201.627 20.1835 201.675 22.2139L201.677 22.3024V33.6318C201.677 34.1094 201.29 34.4966 200.813 34.4966C200.353 34.4966 199.977 34.1366 199.951 33.6826L199.949 33.6318V22.3024C199.949 21.2321 199.036 20.35 197.863 20.3144L197.79 20.3133H175.505C175.028 20.3133 174.642 19.9261 174.642 19.4485C174.642 18.9879 175.001 18.6114 175.455 18.5851L175.505 18.5836H197.79Z" fill="white"/>
<path fill-rule="evenodd" clip-rule="evenodd" d="M175.592 18.6124C178.062 18.6124 180.464 19.9072 182.013 21.9871L182.033 22.0141L182.051 22.0419L189.772 34.266H322.081V35.9956H189.296C189.02 35.9956 188.761 35.8633 188.599 35.6419L188.566 35.5931L180.61 22.9966L180.554 22.9227C179.344 21.3572 177.535 20.3825 175.706 20.3433L175.592 20.3421H123.739C121.854 20.3421 120.018 21.315 118.777 22.9221L118.72 22.9963L110.764 35.5931C110.617 35.8259 110.369 35.9736 110.097 35.9934L110.038 35.9956L66.8513 36.1974L66.8433 34.4678L109.557 34.2683L117.288 22.0279L117.317 21.9871C118.846 19.9345 121.166 18.6578 123.608 18.6136L123.739 18.6124H175.592Z" fill="white"/>
<path fill-rule="evenodd" clip-rule="evenodd" d="M77.3273 28.6158C79.458 28.6158 81.1853 26.8863 81.1853 24.7528C81.1853 22.6194 79.458 20.8899 77.3273 20.8899C75.1965 20.8899 73.4692 22.6194 73.4692 24.7528C73.4692 26.8863 75.1965 28.6158 77.3273 28.6158Z" fill="white"/>
<path fill-rule="evenodd" clip-rule="evenodd" d="M90.024 28.6158C92.1548 28.6158 93.8821 26.8863 93.8821 24.7528C93.8821 22.6194 92.1548 20.8899 90.024 20.8899C87.8933 20.8899 86.166 22.6194 86.166 24.7528C86.166 26.8863 87.8933 28.6158 90.024 28.6158Z" fill="white"/>
<path fill-rule="evenodd" clip-rule="evenodd" d="M102.75 28.6158C104.881 28.6158 106.608 26.8863 106.608 24.7528C106.608 22.6194 104.881 20.8899 102.75 20.8899C100.619 20.8899 98.8921 22.6194 98.8921 24.7528C98.8921 26.8863 100.619 28.6158 102.75 28.6158Z" fill="white"/>
<path fill-rule="evenodd" clip-rule="evenodd" d="M170.794 26.0882C171.095 25.7415 171.611 25.6927 171.97 25.9679L172.012 26.0025L175.525 29.0583C175.885 29.3716 175.923 29.9178 175.61 30.2784C175.309 30.625 174.794 30.6738 174.434 30.3986L174.392 30.364L170.879 27.3082C170.519 26.9949 170.481 26.4487 170.794 26.0882Z" fill="white"/>
<path fill-rule="evenodd" clip-rule="evenodd" d="M174.432 26.0216C174.798 25.7146 175.342 25.7625 175.649 26.1284C175.944 26.4803 175.911 26.9982 175.583 27.3104L175.542 27.3468L171.972 30.3449C171.607 30.6519 171.062 30.604 170.755 30.238C170.46 29.8862 170.493 29.3683 170.821 29.0561L170.862 29.0197L174.432 26.0216Z" fill="white"/>
<path fill-rule="evenodd" clip-rule="evenodd" d="M192.152 24.0609C192.612 24.0641 192.986 24.4267 193.009 24.8808L193.01 24.9317L192.981 29.1405C192.978 29.6182 192.589 30.0027 192.112 29.9994C191.652 29.9963 191.278 29.6337 191.255 29.1795L191.254 29.1287L191.283 24.9198C191.286 24.4422 191.675 24.0577 192.152 24.0609Z" fill="white"/>
<path fill-rule="evenodd" clip-rule="evenodd" d="M194.248 26.1654C194.725 26.1654 195.112 26.5526 195.112 27.0302C195.112 27.4908 194.753 27.8673 194.299 27.8936L194.248 27.8951H190.016C189.539 27.8951 189.152 27.5079 189.152 27.0302C189.152 26.5697 189.512 26.1932 189.965 26.1669L190.016 26.1654H194.248Z" fill="white"/>
<path fill-rule="evenodd" clip-rule="evenodd" d="M247.052 107.143H134.737C131.973 107.143 129.728 104.894 129.728 102.127V87.7706C129.728 85.0031 131.973 82.7545 134.737 82.7545H247.052C249.816 82.7545 252.061 85.0031 252.061 87.7706V102.156C252.033 104.894 249.816 107.143 247.052 107.143Z" fill="#3558A2"/>
<path fill-rule="evenodd" clip-rule="evenodd" d="M247.656 113.312H134.593C131.726 113.312 129.411 115.631 129.411 118.501V124.411C129.411 127.281 131.726 129.6 134.593 129.6H247.656C250.523 129.6 252.839 127.281 252.839 124.411V118.501C252.839 115.631 250.523 113.312 247.656 113.312ZM134.593 115.042H247.656C249.569 115.042 251.111 116.586 251.111 118.501V124.411C251.111 126.326 249.569 127.87 247.656 127.87H134.593C132.68 127.87 131.138 126.326 131.138 124.411V118.501C131.138 116.586 132.68 115.042 134.593 115.042Z" fill="#2F4077"/>
<path fill-rule="evenodd" clip-rule="evenodd" d="M167.386 123.949H142.395C141.417 123.949 140.639 123.171 140.639 122.191V120.548C140.639 119.568 141.417 118.789 142.395 118.789H167.386C168.365 118.789 169.142 119.568 169.142 120.548V122.191C169.142 123.171 168.336 123.949 167.386 123.949Z" fill="#E4794A"/>
<path fill-rule="evenodd" clip-rule="evenodd" d="M246.073 123.949H231.447C230.468 123.949 229.69 123.171 229.69 122.191V120.548C229.69 119.568 230.468 118.789 231.447 118.789H246.073C247.052 118.789 247.829 119.568 247.829 120.548V122.191C247.829 123.171 247.052 123.949 246.073 123.949Z" fill="#E4794A"/>
<path fill-rule="evenodd" clip-rule="evenodd" d="M223.184 123.949H175.218C174.239 123.949 173.461 123.171 173.461 122.191V120.548C173.461 119.568 174.239 118.789 175.218 118.789H223.184C224.163 118.789 224.94 119.568 224.94 120.548V122.191C224.94 123.171 224.163 123.949 223.184 123.949Z" fill="#E4794A"/>
<path fill-rule="evenodd" clip-rule="evenodd" d="M311.804 39.5991C312.281 39.5991 312.668 39.9863 312.668 40.464C312.668 40.9245 312.308 41.301 311.855 41.3273L311.804 41.3288H306.967C306.49 41.3288 306.104 40.9416 306.104 40.464C306.104 40.0034 306.463 39.6269 306.917 39.6006L306.967 39.5991H311.804Z" fill="white"/>
<path fill-rule="evenodd" clip-rule="evenodd" d="M311.804 42.2802C312.281 42.2802 312.668 42.6674 312.668 43.145C312.668 43.6056 312.308 43.9821 311.855 44.0084L311.804 44.0098H306.967C306.49 44.0098 306.104 43.6226 306.104 43.145C306.104 42.6844 306.463 42.3079 306.917 42.2816L306.967 42.2802H311.804Z" fill="white"/>
<path fill-rule="evenodd" clip-rule="evenodd" d="M311.804 44.9611C312.281 44.9611 312.668 45.3483 312.668 45.8259C312.668 46.2865 312.308 46.663 311.855 46.6893L311.804 46.6907H306.967C306.49 46.6907 306.104 46.3035 306.104 45.8259C306.104 45.3653 306.463 44.9888 306.917 44.9625L306.967 44.9611H311.804Z" fill="white"/>
<path fill-rule="evenodd" clip-rule="evenodd" d="M298.444 41.5883C298.329 41.2135 298.012 40.9541 297.609 40.9541H295.622L295.018 39.0802C294.902 38.7343 294.557 38.4749 294.183 38.4749C293.808 38.4749 293.463 38.7055 293.348 39.0802L292.743 40.9541H290.757C290.382 40.9541 290.037 41.1847 289.922 41.5594C289.806 41.9054 289.922 42.309 290.238 42.5396L291.851 43.6927L291.246 45.5665C291.131 45.9124 291.246 46.316 291.563 46.5467C291.707 46.662 291.879 46.7196 292.081 46.7196C292.282 46.7196 292.426 46.662 292.599 46.5467L294.24 45.3359L295.853 46.2584C296.169 46.4313 296.544 46.4025 296.831 46.1719C297.119 45.9413 297.206 45.5665 297.119 45.2206L296.544 43.4044L298.041 42.5396C298.386 42.3666 298.559 41.963 298.444 41.5883Z" fill="white"/>
<path fill-rule="evenodd" clip-rule="evenodd" d="M281.658 46.5179H111.33C110.524 46.5179 109.89 45.8837 109.89 45.0765V42.3667C109.89 41.5595 110.524 40.9253 111.33 40.9253H281.658C282.465 40.9253 283.098 41.5595 283.098 42.3667V45.0765C283.098 45.8837 282.465 46.5179 281.658 46.5179Z" fill="white"/>
<path fill-rule="evenodd" clip-rule="evenodd" d="M81.4933 40.0868C81.8445 39.7635 82.3909 39.7866 82.7137 40.1382C83.0241 40.4763 83.0148 40.9952 82.7014 41.3219L82.6624 41.3602L80.5061 43.3445L82.7752 45.4178C83.114 45.7274 83.1502 46.2451 82.8666 46.5981L82.831 46.6396C82.5218 46.9789 82.0048 47.015 81.6522 46.7311L81.6108 46.6954L78.6453 43.9856C78.2847 43.6562 78.2704 43.0969 78.6031 42.7493L78.643 42.7101L81.4933 40.0868Z" fill="white"/>
<path fill-rule="evenodd" clip-rule="evenodd" d="M86.4541 42.5397C86.9311 42.5397 87.3178 42.9269 87.3178 43.4045C87.3178 43.8651 86.9583 44.2416 86.5049 44.2679L86.4541 44.2693H79.2275C78.7505 44.2693 78.3638 43.8821 78.3638 43.4045C78.3638 42.9439 78.7233 42.5674 79.1768 42.5411L79.2275 42.5397H86.4541Z" fill="white"/>
<path fill-rule="evenodd" clip-rule="evenodd" d="M95.6936 40.1382C96.004 39.8001 96.5211 39.7658 96.8726 40.051L96.914 40.0868L99.7643 42.7101C100.124 43.0409 100.136 43.6001 99.8021 43.9466L99.7621 43.9856L96.7966 46.6954C96.4442 47.0174 95.8979 46.9924 95.5763 46.6396C95.2671 46.3004 95.2783 45.7816 95.5929 45.456L95.6321 45.4178L97.9009 43.3445L95.745 41.3602C95.4073 41.0494 95.373 40.5316 95.6579 40.1796L95.6936 40.1382Z" fill="white"/>
<path fill-rule="evenodd" clip-rule="evenodd" d="M99.1797 42.5397C99.6567 42.5397 100.043 42.9269 100.043 43.4045C100.043 43.8651 99.6838 44.2416 99.2304 44.2679L99.1797 44.2693H91.9531C91.4761 44.2693 91.0894 43.8821 91.0894 43.4045C91.0894 42.9439 91.4489 42.5674 91.9023 42.5411L91.9531 42.5397H99.1797Z" fill="white"/>
<path fill-rule="evenodd" clip-rule="evenodd" d="M304.219 25.4171C304.314 24.949 304.77 24.6463 305.237 24.7411C305.688 24.8326 305.985 25.2602 305.921 25.7103L305.912 25.7604L305.64 27.1086L307.088 27.2658C307.545 27.3155 307.88 27.714 307.858 28.1682L307.854 28.2188C307.804 28.6767 307.406 29.0122 306.952 28.9894L306.902 28.9854L304.512 28.726C304.024 28.6729 303.681 28.2247 303.75 27.7443L303.759 27.6945L304.219 25.4171Z" fill="white"/>
<path fill-rule="evenodd" clip-rule="evenodd" d="M307.61 24.6588C307.995 24.3778 308.536 24.4632 308.816 24.8495C309.086 25.2209 309.017 25.7353 308.669 26.0241L308.626 26.0576L305.142 28.5945C304.756 28.8754 304.216 28.79 303.935 28.4037C303.665 28.0323 303.734 27.5179 304.083 27.2292L304.126 27.1956L307.61 24.6588Z" fill="white"/>
<path fill-rule="evenodd" clip-rule="evenodd" d="M310.714 20.8509C310.766 20.3932 311.165 20.0593 311.619 20.0839L311.669 20.0881L313.973 20.3476C314.457 20.4021 314.796 20.8448 314.732 21.3214L314.724 21.3726L314.263 23.7365C314.172 24.2053 313.718 24.5112 313.25 24.4197C312.799 24.3315 312.498 23.906 312.559 23.4554L312.568 23.4053L312.849 21.9614L311.476 21.807C311.019 21.7555 310.686 21.3556 310.71 20.9015L310.714 20.8509Z" fill="white"/>
<path fill-rule="evenodd" clip-rule="evenodd" d="M313.397 20.5364C313.782 20.2555 314.323 20.3409 314.603 20.7272C314.873 21.0986 314.804 21.613 314.456 21.9017L314.413 21.9353L310.929 24.4721C310.543 24.7531 310.003 24.6677 309.722 24.2814C309.453 23.91 309.521 23.3956 309.87 23.1068L309.913 23.0733L313.397 20.5364Z" fill="white"/>
<path fill-rule="evenodd" clip-rule="evenodd" d="M147.838 82.4735C147.839 82.4735 147.84 82.4729 147.84 82.4722C147.843 77.9365 146.507 73.5016 143.999 69.7281C143.162 68.4691 142.208 67.3026 141.152 66.2424C141.149 66.2388 141.149 66.233 141.152 66.2294C141.156 66.2259 141.156 66.2201 141.152 66.2165C137.955 63.0153 133.883 60.8368 129.452 59.9562C128.213 59.7099 126.961 59.5683 125.709 59.53C123.987 59.4753 122.255 59.616 120.548 59.9554C116.117 60.8359 112.046 63.0143 108.848 66.2153C108.844 66.2191 108.844 66.2252 108.848 66.229C108.852 66.2328 108.852 66.239 108.848 66.2428C107.792 67.3031 106.838 68.4697 106.001 69.7289C103.493 73.5024 102.157 77.9372 102.161 82.4729C102.161 82.4737 102.161 82.4743 102.162 82.4743C102.163 82.4743 102.164 82.475 102.164 82.4758L102.164 108.497C102.164 111.027 104.214 113.077 106.743 113.077C109.273 113.077 111.323 111.027 111.323 108.497L111.323 82.4766C111.323 82.471 111.328 82.4664 111.333 82.4664C111.339 82.4664 111.344 82.4618 111.344 82.4562C111.343 79.7464 112.143 77.0971 113.641 74.8425C115.141 72.5851 117.274 70.8249 119.771 69.7843C121.569 69.0353 123.496 68.6835 125.424 68.7417C127.067 68.7945 128.695 69.1445 130.229 69.7835C132.726 70.824 134.859 72.5843 136.359 74.8417C137.858 77.0962 138.657 79.7454 138.656 82.4552C138.656 82.4609 138.661 82.4656 138.667 82.4656C138.673 82.4656 138.677 82.4702 138.677 82.4759V108.496C138.677 111.026 140.728 113.076 143.257 113.076C145.786 113.076 147.837 111.026 147.837 108.496V82.4748C147.837 82.4741 147.837 82.4735 147.838 82.4735Z" fill="#E4794A"/>
<path d="M143.999 69.7281L144.832 69.1746L143.999 69.7281ZM129.452 59.9562L129.257 60.9371L129.452 59.9562ZM125.709 59.53L125.677 60.5295L125.679 60.5296L125.709 59.53ZM120.548 59.9554L120.743 60.9362L120.548 59.9554ZM106.001 69.7289L105.168 69.1754L106.001 69.7289ZM113.641 74.8425L112.808 74.289V74.289L113.641 74.8425ZM119.771 69.7843L119.387 68.8613L119.771 69.7843ZM125.424 68.7417L125.457 67.7422L125.455 67.7421L125.424 68.7417ZM130.229 69.7835L130.614 68.8604V68.8604L130.229 69.7835ZM136.359 74.8417L135.526 75.3951L136.359 74.8417ZM138.656 82.4552L137.656 82.4551L138.656 82.4552ZM111.344 82.4562L112.344 82.4561L111.344 82.4562ZM102.161 82.4729L103.161 82.4721L102.161 82.4729ZM108.848 66.2428L109.557 66.9484L108.848 66.2428ZM111.323 82.4766H112.323H111.323ZM141.152 66.2165L141.86 65.5098L141.152 66.2165ZM108.848 66.2153L108.141 65.5085L108.848 66.2153ZM141.152 66.2424L140.444 66.9479L141.152 66.2424ZM147.84 82.4722L148.84 82.473L147.84 82.4722ZM143.166 70.2815C145.565 73.8906 146.843 78.1327 146.84 82.4714L148.84 82.473C148.843 77.7404 147.449 73.1125 144.832 69.1746L143.166 70.2815ZM140.444 66.9479C141.453 67.9618 142.366 69.0774 143.166 70.2815L144.832 69.1746C143.959 67.8607 142.963 66.6433 141.861 65.5368L140.444 66.9479ZM141.86 65.5098C138.522 62.1687 134.273 59.8946 129.647 58.9754L129.257 60.9371C133.494 61.7789 137.387 63.8619 140.445 66.9233L141.86 65.5098ZM129.647 58.9754C128.354 58.7183 127.047 58.5704 125.74 58.5305L125.679 60.5296C126.875 60.5661 128.072 60.7016 129.257 60.9371L129.647 58.9754ZM120.743 60.9362C122.375 60.6118 124.031 60.4772 125.677 60.5295L125.741 58.5305C123.943 58.4734 122.136 58.6203 120.353 58.9746L120.743 60.9362ZM109.556 66.922C112.614 63.8608 116.507 61.7781 120.743 60.9362L120.353 58.9746C115.728 59.8937 111.478 62.1677 108.141 65.5085L109.556 66.922ZM108.14 65.5372C107.038 66.6438 106.041 67.8614 105.168 69.1754L106.834 70.2824C107.634 69.0781 108.547 67.9623 109.557 66.9484L108.14 65.5372ZM105.168 69.1754C102.551 73.1133 101.157 77.7411 101.161 82.4737L103.161 82.4721C103.157 78.1334 104.436 73.8914 106.834 70.2824L105.168 69.1754ZM101.164 82.4758L101.164 108.497H103.164L103.164 82.4758H101.164ZM112.323 108.497L112.323 82.4766H110.323L110.323 108.497H112.323ZM112.344 82.4561C112.343 79.943 113.085 77.4863 114.474 75.396L112.808 74.289C111.201 76.7078 110.343 79.5498 110.344 82.4563L112.344 82.4561ZM114.474 75.396C115.865 73.3031 117.842 71.6716 120.156 70.7074L119.387 68.8613C116.707 69.9781 114.417 71.8671 112.808 74.289L114.474 75.396ZM120.156 70.7074C121.822 70.0133 123.608 69.6873 125.394 69.7412L125.455 67.7421C123.385 67.6797 121.316 68.0574 119.387 68.8613L120.156 70.7074ZM130.614 68.8604C128.968 68.1745 127.22 67.7989 125.457 67.7422L125.392 69.7412C126.914 69.7901 128.423 70.1144 129.844 70.7066L130.614 68.8604ZM137.192 74.2882C135.583 71.8663 133.294 69.9772 130.614 68.8604L129.844 70.7066C132.158 71.6708 134.136 73.3022 135.526 75.3951L137.192 74.2882ZM139.656 82.4553C139.657 79.5488 138.8 76.707 137.192 74.2882L135.526 75.3951C136.916 77.4854 137.657 79.9421 137.656 82.4551L139.656 82.4553ZM139.677 108.496V82.4759H137.677V108.496H139.677ZM146.837 82.4748V108.496H148.837V82.4748H146.837ZM137.677 108.496C137.677 111.578 140.175 114.076 143.257 114.076V112.076C141.28 112.076 139.677 110.473 139.677 108.496H137.677ZM138.666 83.4656C138.12 83.4651 137.677 83.0221 137.677 82.4759H139.677C139.677 81.9182 139.225 81.466 138.668 81.4656L138.666 83.4656ZM137.656 82.4551C137.656 83.0115 138.107 83.4651 138.666 83.4656L138.668 81.4656C139.215 81.466 139.657 81.9104 139.656 82.4553L137.656 82.4551ZM111.334 83.4664C111.893 83.4659 112.344 83.0123 112.344 82.4561L110.344 82.4563C110.344 81.9113 110.785 81.4669 111.333 81.4664L111.334 83.4664ZM102.163 83.4743C101.611 83.4747 101.164 83.0275 101.164 82.4758H103.164C103.164 81.9224 102.715 81.474 102.161 81.4743L102.163 83.4743ZM101.161 82.4737C101.161 83.0265 101.609 83.4747 102.163 83.4743L102.161 81.4743C102.713 81.474 103.16 81.9209 103.161 82.4721L101.161 82.4737ZM108.139 66.9342C107.755 66.5477 107.755 65.9233 108.14 65.5372L109.557 66.9484C109.949 66.5547 109.949 65.918 109.557 65.5238L108.139 66.9342ZM112.323 82.4766C112.323 83.0229 111.881 83.4659 111.334 83.4664L111.333 81.4664C110.775 81.4669 110.323 81.919 110.323 82.4766H112.323ZM141.861 66.9347C142.254 66.54 142.252 65.9028 141.86 65.5098L140.445 66.9233C140.059 66.5374 140.058 65.9118 140.443 65.5242L141.861 66.9347ZM108.141 65.5085C107.748 65.9017 107.746 66.5393 108.139 66.9342L109.557 65.5238C109.942 65.9112 109.941 66.5364 109.556 66.922L108.141 65.5085ZM106.743 114.077C109.825 114.077 112.323 111.579 112.323 108.497H110.323C110.323 110.475 108.721 112.077 106.743 112.077V114.077ZM148.837 82.4748C148.837 83.0266 148.389 83.4739 147.837 83.4735L147.839 81.4735C147.286 81.4731 146.837 81.9215 146.837 82.4748H148.837ZM141.861 65.5368C142.246 65.9232 142.246 66.548 141.861 66.9347L140.443 65.5242C140.052 65.9181 140.052 66.5544 140.444 66.9479L141.861 65.5368ZM101.164 108.497C101.164 111.579 103.662 114.077 106.743 114.077V112.077C104.766 112.077 103.164 110.475 103.164 108.497H101.164ZM143.257 114.076C146.339 114.076 148.837 111.578 148.837 108.496H146.837C146.837 110.473 145.234 112.076 143.257 112.076V114.076ZM146.84 82.4714C146.84 81.9201 147.287 81.4731 147.839 81.4735L147.837 83.4735C148.391 83.4739 148.839 83.0257 148.84 82.473L146.84 82.4714Z" fill="#2F4077"/>
<path d="M92.0277 142.335C92.0124 147.858 96.4771 152.347 102 152.363L147.852 152.491C153.375 152.506 157.865 148.041 157.88 142.519L157.972 109.158C157.988 103.635 153.523 99.1456 148 99.1302L102.148 99.0023C96.6249 98.9869 92.1354 103.452 92.1201 108.974L92.0277 142.335Z" fill="white" stroke="#2F4077" stroke-width="2"/>
<mask id="path-58-inside-1_270_5968" fill="white">
<path fill-rule="evenodd" clip-rule="evenodd" d="M120.004 132.833C120.343 130.883 119.326 128.995 118.098 127.442C116.904 125.933 116.191 124.023 116.191 121.946C116.191 117.061 120.137 113.101 125.005 113.101C129.873 113.101 133.819 117.061 133.819 121.946C133.819 124.023 133.106 125.933 131.912 127.442C130.684 128.994 129.668 130.882 130.006 132.833C130.51 135.736 128.275 138.392 125.329 138.392L124.681 138.392C121.735 138.392 119.5 135.736 120.004 132.833Z"/>
</mask>
<path fill-rule="evenodd" clip-rule="evenodd" d="M120.004 132.833C120.343 130.883 119.326 128.995 118.098 127.442C116.904 125.933 116.191 124.023 116.191 121.946C116.191 117.061 120.137 113.101 125.005 113.101C129.873 113.101 133.819 117.061 133.819 121.946C133.819 124.023 133.106 125.933 131.912 127.442C130.684 128.994 129.668 130.882 130.006 132.833C130.51 135.736 128.275 138.392 125.329 138.392L124.681 138.392C121.735 138.392 119.5 135.736 120.004 132.833Z" fill="#2F4077"/>
<path d="M125.329 138.392L125.329 141.392L125.329 138.392ZM119.191 121.946C119.191 123.325 119.662 124.583 120.451 125.581L115.745 129.303C114.147 127.282 113.191 124.722 113.191 121.946L119.191 121.946ZM125.005 116.101C121.804 116.101 119.191 118.708 119.191 121.946L113.191 121.946C113.191 115.414 118.47 110.101 125.005 110.101L125.005 116.101ZM130.819 121.946C130.819 118.708 128.206 116.101 125.005 116.101L125.005 110.101C131.54 110.101 136.819 115.414 136.819 121.946L130.819 121.946ZM129.559 125.581C130.348 124.583 130.819 123.325 130.819 121.946L136.819 121.946C136.819 124.721 135.863 127.282 134.265 129.303L129.559 125.581ZM124.681 135.392L125.329 135.392L125.329 141.392L124.681 141.392L124.681 135.392ZM132.962 132.32C133.784 137.057 130.137 141.392 125.329 141.392L125.329 135.392C126.413 135.392 127.236 134.414 127.051 133.346L132.962 132.32ZM134.265 129.303C133.152 130.71 132.854 131.698 132.962 132.32L127.051 133.346C126.482 130.067 128.216 127.279 129.559 125.581L134.265 129.303ZM124.681 141.392C119.873 141.392 116.226 137.057 117.048 132.32L122.96 133.346C122.775 134.414 123.597 135.392 124.681 135.392L124.681 141.392ZM120.451 125.581C121.795 127.279 123.529 130.067 122.96 133.346L117.048 132.32C117.156 131.698 116.858 130.71 115.745 129.303L120.451 125.581Z" fill="#2F4077" mask="url(#path-58-inside-1_270_5968)"/>
<path fill-rule="evenodd" clip-rule="evenodd" d="M318.832 97.7633L344.068 84.9569C346.078 88.9351 347.128 93.3157 347.128 97.7633C347.128 113.296 334.353 126.08 318.832 126.08C310.211 126.08 302.059 122.147 296.699 115.397L318.832 97.7633Z" fill="#E4794A"/>
<path fill-rule="evenodd" clip-rule="evenodd" d="M363.901 75.4802C364.271 75.4802 364.571 75.7804 364.571 76.1507C364.571 76.5078 364.292 76.7997 363.94 76.8201L363.901 76.8212H340.518C340.148 76.8212 339.848 76.521 339.848 76.1507C339.848 75.7936 340.127 75.5018 340.478 75.4814L340.518 75.4802H363.901Z" fill="#2F4077"/>
<path fill-rule="evenodd" clip-rule="evenodd" d="M363.901 78.6321C364.271 78.6321 364.571 78.9323 364.571 79.3026C364.571 79.6596 364.292 79.9515 363.94 79.9719L363.901 79.9731H351.439C351.069 79.9731 350.769 79.6729 350.769 79.3026C350.769 78.9455 351.047 78.6536 351.399 78.6332L351.439 78.6321H363.901Z" fill="#2F4077"/>
<path fill-rule="evenodd" clip-rule="evenodd" d="M363.901 81.8052C364.271 81.8052 364.571 82.1054 364.571 82.4757C364.571 82.8327 364.292 83.1246 363.94 83.145L363.901 83.1462H355.615C355.245 83.1462 354.945 82.846 354.945 82.4757C354.945 82.1186 355.224 81.8267 355.575 81.8063L355.615 81.8052H363.901Z" fill="#2F4077"/>
<path fill-rule="evenodd" clip-rule="evenodd" d="M364.593 100.579C364.963 100.579 365.263 100.879 365.263 101.249C365.263 101.606 364.984 101.898 364.632 101.919L364.593 101.92H334.42C334.05 101.92 333.75 101.62 333.75 101.249C333.75 100.892 334.029 100.6 334.381 100.58L334.42 100.579H364.593Z" fill="#2F4077"/>
<path fill-rule="evenodd" clip-rule="evenodd" d="M364.593 103.06C364.963 103.06 365.263 103.36 365.263 103.73C365.263 104.087 364.984 104.379 364.632 104.399L364.593 104.401H358.942C358.572 104.401 358.272 104.1 358.272 103.73C358.272 103.373 358.551 103.081 358.903 103.061L358.942 103.06H364.593Z" fill="#2F4077"/>
<path fill-rule="evenodd" clip-rule="evenodd" d="M301.68 72.866C302.05 72.866 302.35 73.1662 302.35 73.5365C302.35 73.8935 302.071 74.1854 301.719 74.2058L301.68 74.2069H283.701C283.331 74.2069 283.031 73.9068 283.031 73.5365C283.031 73.1794 283.31 72.8875 283.662 72.8671L283.701 72.866H301.68Z" fill="#2F4077"/>
<path fill-rule="evenodd" clip-rule="evenodd" d="M287.297 75.4139C287.667 75.4139 287.967 75.7141 287.967 76.0844C287.967 76.4415 287.688 76.7334 287.336 76.7538L287.297 76.7549H283.701C283.331 76.7549 283.031 76.4547 283.031 76.0844C283.031 75.7274 283.31 75.4355 283.662 75.4151L283.701 75.4139H287.297Z" fill="#2F4077"/>
<path fill-rule="evenodd" clip-rule="evenodd" d="M313.554 98.3443L286.329 98.6348C285.959 98.6388 285.663 98.9422 285.667 99.3124C285.734 105.59 287.878 111.53 291.708 116.351C291.938 116.64 292.359 116.689 292.649 116.459L313.977 99.5402C314.478 99.1433 314.192 98.3375 313.554 98.3443ZM311.611 99.706L292.347 114.987L292.295 114.918C289.089 110.642 287.238 105.504 287.025 100.068L287.022 99.9686L311.611 99.706Z" fill="#E4794A"/>
<path fill-rule="evenodd" clip-rule="evenodd" d="M288.705 86.502C287.467 89.7031 286.828 93.0962 286.828 96.6001V96.9577C286.828 97.3315 287.133 97.633 287.507 97.6281L314.709 97.2705C315.446 97.2609 315.629 96.2418 314.943 95.9751L289.572 86.1189C289.227 85.9847 288.838 86.1564 288.705 86.502ZM289.72 87.6147L311.24 95.9748L288.17 96.2781L288.172 96.1455C288.219 93.2716 288.719 90.4812 289.647 87.8212L289.72 87.6147Z" fill="#E4794A"/>
<path fill-rule="evenodd" clip-rule="evenodd" d="M332.699 70.0531L319.277 93.6766C318.95 94.2519 319.565 94.903 320.157 94.6085L344.479 82.5174C344.809 82.353 344.945 81.9518 344.781 81.6204C342.339 76.6636 338.432 72.5346 333.612 69.8011C333.291 69.6188 332.882 69.7315 332.699 70.0531ZM333.529 71.3053L333.609 71.3532C337.677 73.8182 341.015 77.3464 343.234 81.5373L343.276 81.6177L321.526 92.4309L333.529 71.3053Z" fill="#E4794A"/>
<path fill-rule="evenodd" clip-rule="evenodd" d="M330.155 71.0104C326.224 68.7531 321.668 67.4568 316.822 67.4121H316.375C304.963 67.5239 295.248 74.6534 291.317 84.6884L316.643 94.634L330.155 71.0104Z" fill="#2F4077"/>
<path fill-rule="evenodd" clip-rule="evenodd" d="M291.406 103.149C291.776 103.149 292.076 103.449 292.076 103.82C292.076 104.177 291.797 104.468 291.446 104.489L291.406 104.49H273.428C273.058 104.49 272.758 104.19 272.758 103.82C272.758 103.462 273.037 103.171 273.388 103.15L273.428 103.149H291.406Z" fill="#2F4077"/>
<path fill-rule="evenodd" clip-rule="evenodd" d="M279.927 105.697C280.297 105.697 280.597 105.997 280.597 106.368C280.597 106.725 280.318 107.016 279.966 107.037L279.927 107.038H273.428C273.058 107.038 272.758 106.738 272.758 106.368C272.758 106.01 273.037 105.719 273.388 105.698L273.428 105.697H279.927Z" fill="#2F4077"/>
<path fill-rule="evenodd" clip-rule="evenodd" d="M277.081 193.944H209.307C206.14 193.944 203.548 191.349 203.548 188.178V158.716C203.548 155.545 206.14 152.95 209.307 152.95H277.081C280.248 152.95 282.839 155.545 282.839 158.716V188.178C282.839 191.378 280.248 193.944 277.081 193.944Z" fill="#FAA184"/>
<path fill-rule="evenodd" clip-rule="evenodd" d="M222.925 178.348C227.457 178.348 231.13 174.669 231.13 170.132C231.13 165.594 227.457 161.916 222.925 161.916C218.393 161.916 214.719 165.594 214.719 170.132C214.719 174.669 218.393 178.348 222.925 178.348Z" fill="#E4794A"/>
<path fill-rule="evenodd" clip-rule="evenodd" d="M268.847 183.306H258.597C257.561 183.306 256.726 182.47 256.726 181.432V180.395C256.726 179.357 257.561 178.521 258.597 178.521H268.847C269.883 178.521 270.718 179.357 270.718 180.395V181.432C270.718 182.47 269.883 183.306 268.847 183.306Z" fill="#E4794A"/>
<path fill-rule="evenodd" clip-rule="evenodd" d="M205.304 161.166C208.723 161.166 211.494 158.391 211.494 154.968C211.494 151.545 208.723 148.77 205.304 148.77C201.886 148.77 199.114 151.545 199.114 154.968C199.114 158.391 201.886 161.166 205.304 161.166Z" fill="#3558A2"/>
<path fill-rule="evenodd" clip-rule="evenodd" d="M236.485 168.863L269.912 168.95L236.485 168.863Z" fill="white"/>
<path fill-rule="evenodd" clip-rule="evenodd" d="M236.488 167.999L269.914 168.085C270.391 168.086 270.777 168.474 270.776 168.952C270.774 169.413 270.414 169.788 269.96 169.813L269.91 169.815L236.483 169.728C236.006 169.727 235.62 169.339 235.622 168.861C235.623 168.401 235.983 168.025 236.437 168L236.488 167.999Z" fill="#2F4077"/>
<path fill-rule="evenodd" clip-rule="evenodd" d="M236.859 173.072L270.257 173.188L236.859 173.072Z" fill="white"/>
<path fill-rule="evenodd" clip-rule="evenodd" d="M236.862 172.208L270.26 172.323C270.737 172.324 271.123 172.713 271.121 173.191C271.119 173.651 270.758 174.026 270.305 174.051L270.254 174.052L236.856 173.937C236.379 173.936 235.994 173.547 235.996 173.069C235.997 172.609 236.358 172.234 236.812 172.209L236.862 172.208Z" fill="#2F4077"/>
</svg>
