<svg width="124" height="126" viewBox="0 0 124 126" fill="none" xmlns="http://www.w3.org/2000/svg">
<path fill-rule="evenodd" clip-rule="evenodd" d="M61.6353 123.962C94.7823 123.962 121.653 96.7313 121.653 63.1401C121.653 29.549 94.7823 2.31796 61.6353 2.31796C28.4882 2.31796 1.61719 29.549 1.61719 63.1401C1.61719 96.7313 28.4882 123.962 61.6353 123.962Z" fill="white"/>
<path fill-rule="evenodd" clip-rule="evenodd" d="M69.8132 44.7858H4.38938C2.58746 50.5918 1.61719 56.7723 1.61719 63.1401C1.61719 83.6015 11.5971 101.675 26.8442 112.725H69.8132C72.5854 112.725 74.8956 110.431 74.8956 107.575V49.9363C74.8956 47.0801 72.6316 44.7858 69.8132 44.7858Z" fill="#E4794A"/>
<path fill-rule="evenodd" clip-rule="evenodd" d="M60.8036 50.0767H3.00329C2.07922 54.2907 1.61719 58.6452 1.61719 63.1402C1.61719 79.6216 8.08565 94.6047 18.62 105.561H60.8036C63.622 105.561 65.886 103.267 65.886 100.411V55.2272C65.886 52.371 63.622 50.0767 60.8036 50.0767Z" fill="white"/>
<path fill-rule="evenodd" clip-rule="evenodd" d="M70.5061 45.3477C71.1186 45.3477 71.6197 45.8307 71.6588 46.4413L71.6612 46.5182V110.524C71.6612 111.171 71.1441 111.695 70.5061 111.695C69.8937 111.695 69.3926 111.212 69.3535 110.601L69.3511 110.524V46.5182C69.3511 45.8717 69.8682 45.3477 70.5061 45.3477Z" fill="#2F4077"/>
<path fill-rule="evenodd" clip-rule="evenodd" d="M60.8498 53.1202C61.4622 53.1202 61.9633 53.6032 62.0025 54.2138L62.0049 54.2908V104.765C62.0049 105.412 61.4878 105.936 60.8498 105.936C60.2374 105.936 59.7363 105.453 59.6972 104.842L59.6947 104.765V55.4613H17.8341L17.8346 103.876C17.8346 104.496 17.358 105.004 16.7554 105.044L16.6795 105.046C16.0671 105.046 15.566 104.563 15.5269 103.953L15.5244 103.876V54.2908C15.5244 53.6701 16.001 53.1623 16.6035 53.1227L16.6795 53.1202H60.8498Z" fill="#2F4077"/>
<path fill-rule="evenodd" clip-rule="evenodd" d="M34.2828 57.8024H21.8079C21.17 57.8024 20.6528 58.3265 20.6528 58.973V63.1402C20.6528 63.7866 21.17 64.3107 21.8079 64.3107H34.2828C34.9207 64.3107 35.4379 63.7866 35.4379 63.1402V58.973C35.4379 58.3265 34.9207 57.8024 34.2828 57.8024ZM33.1276 60.1435V61.9696H22.9629V60.1435H33.1276Z" fill="#2F4077"/>
<path fill-rule="evenodd" clip-rule="evenodd" d="M34.2828 67.5415C34.9207 67.5415 35.4379 68.0655 35.4379 68.712C35.4379 69.3326 34.9613 69.8405 34.3587 69.8801L34.2828 69.8826H21.8079C21.17 69.8826 20.6528 69.3585 20.6528 68.712C20.6528 68.0914 21.1294 67.5836 21.732 67.5439L21.8079 67.5415H34.2828Z" fill="#2F4077"/>
<path fill-rule="evenodd" clip-rule="evenodd" d="M32.4808 70.9127C33.1188 70.9127 33.6359 71.4367 33.6359 72.0832C33.6359 72.7038 33.1593 73.2117 32.5568 73.2513L32.4808 73.2538H24.2566C23.6187 73.2538 23.1016 72.7297 23.1016 72.0832C23.1016 71.4626 23.5782 70.9548 24.1807 70.9151L24.2566 70.9127H32.4808Z" fill="#2F4077"/>
<path fill-rule="evenodd" clip-rule="evenodd" d="M28.5998 74.0966C29.2377 74.0966 29.7549 74.6207 29.7549 75.2671C29.7549 75.8878 29.2782 76.3956 28.6757 76.4352L28.5998 76.4377H24.2566C23.6187 76.4377 23.1016 75.9136 23.1016 75.2671C23.1016 74.6465 23.5782 74.1387 24.1807 74.0991L24.2566 74.0966H28.5998Z" fill="#2F4077"/>
<path fill-rule="evenodd" clip-rule="evenodd" d="M27.0288 77.2805C27.6668 77.2805 28.1839 77.8046 28.1839 78.4511C28.1839 79.0717 27.7073 79.5795 27.1048 79.6191L27.0288 79.6216H24.2566C23.6187 79.6216 23.1016 79.0975 23.1016 78.4511C23.1016 77.8304 23.5782 77.3226 24.1807 77.283L24.2566 77.2805H27.0288Z" fill="#2F4077"/>
<path fill-rule="evenodd" clip-rule="evenodd" d="M31.0947 80.5112C31.7327 80.5112 32.2498 81.0353 32.2498 81.6818C32.2498 82.3024 31.7732 82.8102 31.1707 82.8499L31.0947 82.8524H24.2566C23.6187 82.8524 23.1016 82.3283 23.1016 81.6818C23.1016 81.0612 23.5782 80.5534 24.1807 80.5137L24.2566 80.5112H31.0947Z" fill="#2F4077"/>
<path fill-rule="evenodd" clip-rule="evenodd" d="M34.2828 84.1165C34.9207 84.1165 35.4379 84.6406 35.4379 85.2871C35.4379 85.9077 34.9613 86.4155 34.3587 86.4552L34.2828 86.4576H21.8079C21.17 86.4576 20.6528 85.9336 20.6528 85.2871C20.6528 84.6665 21.1294 84.1587 21.732 84.119L21.8079 84.1165H34.2828Z" fill="#2F4077"/>
<path fill-rule="evenodd" clip-rule="evenodd" d="M32.4808 87.4877C33.1188 87.4877 33.6359 88.0118 33.6359 88.6583C33.6359 89.2789 33.1593 89.7867 32.5568 89.8264L32.4808 89.8289H24.2566C23.6187 89.8289 23.1016 89.3048 23.1016 88.6583C23.1016 88.0377 23.5782 87.5299 24.1807 87.4902L24.2566 87.4877H32.4808Z" fill="#2F4077"/>
<path fill-rule="evenodd" clip-rule="evenodd" d="M28.5998 90.6717C29.2377 90.6717 29.7549 91.1958 29.7549 91.8422C29.7549 92.4629 29.2782 92.9707 28.6757 93.0103L28.5998 93.0128H24.2566C23.6187 93.0128 23.1016 92.4887 23.1016 91.8422C23.1016 91.2216 23.5782 90.7138 24.1807 90.6742L24.2566 90.6717H28.5998Z" fill="#2F4077"/>
<path fill-rule="evenodd" clip-rule="evenodd" d="M56.0909 66.1836H37.702C37.064 66.1836 36.5469 66.7077 36.5469 67.3542V82.2905C36.5469 82.937 37.064 83.461 37.702 83.461H56.0909C56.7288 83.461 57.2459 82.937 57.2459 82.2905V67.3542C57.2459 66.7077 56.7288 66.1836 56.0909 66.1836ZM54.9354 68.5243V81.1195H38.8567V68.5243H54.9354Z" fill="#2F4077"/>
<path fill-rule="evenodd" clip-rule="evenodd" d="M42.6457 84.6316H37.702C37.064 84.6316 36.5469 85.1557 36.5469 85.8021V90.8121C36.5469 91.4586 37.064 91.9827 37.702 91.9827H42.6457C43.2836 91.9827 43.8008 91.4586 43.8008 90.8121V85.8021C43.8008 85.1557 43.2836 84.6316 42.6457 84.6316ZM41.4903 86.9722V89.6411H38.8567V86.9722H41.4903Z" fill="#2F4077"/>
<path fill-rule="evenodd" clip-rule="evenodd" d="M49.3449 84.6316H44.4012C43.7632 84.6316 43.2461 85.1557 43.2461 85.8021V90.8121C43.2461 91.4586 43.7632 91.9827 44.4012 91.9827H49.3449C49.9829 91.9827 50.5 91.4586 50.5 90.8121V85.8021C50.5 85.1557 49.9829 84.6316 49.3449 84.6316ZM48.1895 86.9722V89.6411H45.5559V86.9722H48.1895Z" fill="#2F4077"/>
<path fill-rule="evenodd" clip-rule="evenodd" d="M56.091 84.6316H51.1473C50.5093 84.6316 49.9922 85.1557 49.9922 85.8021V90.8121C49.9922 91.4586 50.5093 91.9827 51.1473 91.9827H56.091C56.7289 91.9827 57.2461 91.4586 57.2461 90.8121V85.8021C57.2461 85.1557 56.7289 84.6316 56.091 84.6316ZM54.9358 86.9722V89.6411H52.3022V86.9722H54.9358Z" fill="#2F4077"/>
<path fill-rule="evenodd" clip-rule="evenodd" d="M43.4774 60.4713C44.1153 60.4713 44.6324 60.9954 44.6324 61.6418C44.6324 62.2625 44.1558 62.7703 43.5533 62.8099L43.4774 62.8124H37.702C37.064 62.8124 36.5469 62.2883 36.5469 61.6418C36.5469 61.0212 37.0235 60.5134 37.626 60.4738L37.702 60.4713H43.4774Z" fill="#2F4077"/>
<path fill-rule="evenodd" clip-rule="evenodd" d="M55.7211 60.4713C56.359 60.4713 56.8762 60.9954 56.8762 61.6418C56.8762 62.2625 56.3996 62.7703 55.797 62.8099L55.7211 62.8124H47.8665C47.2286 62.8124 46.7114 62.2883 46.7114 61.6418C46.7114 61.0212 47.188 60.5134 47.7906 60.4738L47.8665 60.4713H55.7211Z" fill="#2F4077"/>
<path fill-rule="evenodd" clip-rule="evenodd" d="M56.3219 93.0128H37.702C37.064 93.0128 36.5469 93.5368 36.5469 94.1833V103.126C36.5469 103.773 37.064 104.297 37.702 104.297H56.3219C56.9598 104.297 57.477 103.773 57.477 103.126V94.1833C57.477 93.5368 56.9598 93.0128 56.3219 93.0128ZM55.1664 95.3539V101.956H38.8567V95.3539H55.1664Z" fill="#2F4077"/>
<path fill-rule="evenodd" clip-rule="evenodd" d="M9.88746 53.1202C10.4999 53.1202 11.001 53.6032 11.0401 54.2138L11.0425 54.2908V91.8422C11.0425 92.4887 10.5254 93.0128 9.88746 93.0128C9.27504 93.0128 8.77394 92.5298 8.73483 91.9192L8.73238 91.8422L8.73191 55.4613H2.86456C2.25214 55.4613 1.75104 54.9783 1.71193 54.3677L1.70947 54.2908C1.70947 53.6701 2.18608 53.1623 2.78861 53.1227L2.86456 53.1202H9.88746Z" fill="#2F4077"/>
<path fill-rule="evenodd" clip-rule="evenodd" d="M74.4795 64.0297L81.0404 70.4444L97.1191 66.4645L83.2119 54.8526L74.4795 64.0297Z" fill="white"/>
<path fill-rule="evenodd" clip-rule="evenodd" d="M82.3807 54.04L73.6483 63.2172C73.2056 63.6825 73.2188 64.4234 73.6778 64.8721L80.2387 71.2868C80.5237 71.5655 80.9299 71.6768 81.3147 71.5815L97.3935 67.6016C98.3174 67.3729 98.5879 66.174 97.8539 65.5611L83.9467 53.9492C83.4813 53.5606 82.7993 53.6002 82.3807 54.04ZM83.3018 56.4441L94.6049 65.8816L81.3843 69.154L76.1125 63.9998L83.3018 56.4441Z" fill="#2F4077"/>
<path fill-rule="evenodd" clip-rule="evenodd" d="M115.878 89.267L110.61 74.4243C108.023 67.12 100.399 62.9997 92.9608 64.8726C89.1259 65.8558 84.4132 67.2137 78.915 69.227C60.5261 75.829 66.2091 92.0295 66.9945 98.1632L93.007 94.2769L90.281 112.069H97.3501C105.205 106.123 111.627 98.3037 115.878 89.267Z" fill="#465F9D"/>
<path fill-rule="evenodd" clip-rule="evenodd" d="M61.0346 50.0767C61.0808 52.9329 62.8827 66.0899 71.9385 66.4645C80.9944 66.8391 86.5388 58.177 86.9084 49.6085C87.278 41.04 83.0735 34.1571 77.3443 33.7826C71.6151 33.408 60.5725 29.3344 61.0346 50.0767Z" fill="white"/>
<path fill-rule="evenodd" clip-rule="evenodd" d="M70.8329 32.0487C63.5698 32.1804 59.6726 37.1748 59.8726 49.7206L59.8797 50.0959C59.9195 52.5503 60.6789 56.4826 62.0492 59.6689C64.11 64.4609 67.3473 67.4461 71.8915 67.6341C80.982 68.0101 87.6275 59.7436 88.0625 49.6596C88.4515 40.6412 83.9915 33.1886 77.6127 32.6292L76.9387 32.5776C76.8098 32.5657 76.6687 32.5508 76.4878 32.53L74.559 32.2933C72.983 32.1039 71.9592 32.0283 70.8329 32.0487ZM74.3019 34.62L76.333 34.8684C76.5131 34.8886 76.6568 34.9032 76.7935 34.9152L77.27 34.9507C82.279 35.2781 86.0987 41.5781 85.7545 49.5573C85.3698 58.4757 79.6335 65.6112 71.9857 65.2949C68.473 65.1496 65.9096 62.7857 64.1669 58.7335C62.962 55.9317 62.2662 52.4303 62.1944 50.2518L62.1894 50.0503C62.0472 43.6662 63.0015 39.4764 64.8377 37.0792C66.2271 35.2654 68.1058 34.4776 70.6752 34.3945L70.8742 34.3895C71.8742 34.3713 72.8164 34.4413 74.3019 34.62Z" fill="#2F4077"/>
<rect width="3.23889" height="5.79785" transform="matrix(0.943841 0.330399 -0.322635 0.946524 87.2847 22.8672)" fill="#E4794A"/>
<path fill-rule="evenodd" clip-rule="evenodd" d="M90.6511 24.9799C93.8153 24.9799 96.3803 22.3805 96.3803 19.174C96.3803 15.9674 93.8153 13.368 90.6511 13.368C87.4869 13.368 84.9219 15.9674 84.9219 19.174C84.9219 22.3805 87.4869 24.9799 90.6511 24.9799Z" fill="#2F4077"/>
<path fill-rule="evenodd" clip-rule="evenodd" d="M86.0308 26.5719C81.0408 24.6522 75.635 23.6221 70.6913 25.3077C55.8138 31.2073 55.1669 42.3042 61.0348 47.6888V47.6888C61.2196 39.8226 63.2987 36.0768 66.0709 34.438C68.7507 39.3076 77.9452 43.8962 86.5852 44.458C86.5852 44.5517 86.6314 44.5985 86.6314 44.6921C89.034 44.5048 92.7302 44.9262 92.7764 49.1871C92.8226 55.0867 86.9548 54.4312 86.2156 54.3375C85.9383 55.4144 86.2618 56.1168 85.7997 57.1469L90.1428 61.1268L106.129 58.1301C107.284 58.177 108.162 57.0532 107.839 55.9295C105.898 48.7657 102.063 32.9397 86.0308 26.5719Z" fill="#2F4077"/>
<path fill-rule="evenodd" clip-rule="evenodd" d="M84.9678 54.0098L86.1229 54.2907C86.1229 54.2907 92.8223 55.4613 92.7761 49.1871C92.7299 44.4112 88.1096 44.458 85.8456 44.739" fill="white"/>
<path fill-rule="evenodd" clip-rule="evenodd" d="M85.7053 43.5771C87.4673 43.3584 89.1184 43.4259 90.5491 43.9711C92.6517 44.7722 93.9055 46.5218 93.9312 49.1784C93.9556 52.4793 92.3443 54.4715 89.7688 55.2218C88.6164 55.5575 87.4286 55.6083 86.3455 55.4987L86.1726 55.4795C86.1203 55.4732 86.0735 55.4669 86.0324 55.461L85.9267 55.4443L85.8534 55.429L84.6983 55.148C84.078 54.9972 83.6958 54.3652 83.8447 53.7366C83.9876 53.1331 84.568 52.7521 85.163 52.856L85.2374 52.8716L86.3484 53.1417L86.458 53.1563L86.575 53.1692C87.3915 53.2518 88.3033 53.2128 89.1306 52.9718C90.748 52.5006 91.6374 51.401 91.6212 49.1986C91.605 47.5283 90.9605 46.629 89.7361 46.1624C88.7267 45.7778 87.4111 45.724 85.9861 45.9009C85.3529 45.9794 84.7767 45.5229 84.6992 44.8812C84.6217 44.2396 85.0721 43.6557 85.7053 43.5771Z" fill="#2F4077"/>
<path fill-rule="evenodd" clip-rule="evenodd" d="M72.8577 57.4897C73.1557 56.9181 73.8546 56.6995 74.4186 57.0015C74.9827 57.3035 75.1984 58.0117 74.9004 58.5833C74.4946 59.3616 73.9857 59.938 73.3863 60.3104C72.4395 60.8987 71.4394 60.9107 70.5322 60.5911C70.3102 60.5129 70.1369 60.4295 70.0181 60.3595C69.4666 60.0346 69.2794 59.3181 69.6001 58.7592C69.9073 58.2236 70.5695 58.0271 71.1095 58.2976L71.1913 58.3409C71.2085 58.3484 71.2429 58.3629 71.2907 58.3798C71.6011 58.4891 71.9037 58.4855 72.1789 58.3145C72.4078 58.1723 72.6376 57.912 72.8577 57.4897Z" fill="#2F4077"/>
<path fill-rule="evenodd" clip-rule="evenodd" d="M67.2782 43.4953C67.3435 42.8522 67.911 42.3846 68.5455 42.4508C69.1547 42.5144 69.6044 43.0469 69.5815 43.6584L69.5762 43.7352L68.6074 53.2611L69.9186 53.1698C70.5296 53.1271 71.0623 53.574 71.1428 54.1804L71.1504 54.257C71.1926 54.8762 70.7516 55.416 70.1532 55.4975L70.0776 55.5053L67.3978 55.6926C66.7074 55.7409 66.1365 55.1691 66.164 54.4792L66.1693 54.4049L67.2782 43.4953Z" fill="#2F4077"/>
<path fill-rule="evenodd" clip-rule="evenodd" d="M74.7874 40.8113C75.9104 40.3868 77.0286 40.6416 78.0627 41.2733C78.4484 41.5089 78.7419 41.7465 78.927 41.9253C79.3886 42.3714 79.4061 43.1123 78.9658 43.5802C78.5448 44.0277 77.8575 44.0633 77.3945 43.6752L77.3328 43.6196C77.2608 43.5501 77.0942 43.4152 76.8701 43.2783C76.3798 42.9788 75.9329 42.877 75.5948 43.0048C75.504 43.0391 75.4124 43.0913 75.3183 43.1658L75.2472 43.2259C74.7704 43.6554 74.0403 43.6119 73.6165 43.1287C73.1927 42.6455 73.2356 41.9056 73.7124 41.4761C74.0425 41.1788 74.403 40.9566 74.7874 40.8113Z" fill="#2F4077"/>
<path fill-rule="evenodd" clip-rule="evenodd" d="M62.6718 42.1189C63.5149 41.9749 64.3496 42.1558 65.1498 42.5289C65.505 42.6945 65.7806 42.8629 65.9568 42.9905C66.476 43.3662 66.5962 44.0973 66.2254 44.6234C65.8701 45.1275 65.1927 45.2604 64.68 44.9399L64.6141 44.8955C64.5481 44.8477 64.3934 44.7532 64.1844 44.6557C63.7678 44.4615 63.366 44.3745 63.0555 44.4275C62.8629 44.4604 62.6967 44.547 62.535 44.7196L62.4746 44.7884C62.0649 45.2839 61.3364 45.3491 60.8474 44.9339C60.3584 44.5187 60.2941 43.7804 60.7038 43.2849C61.2407 42.6355 61.9172 42.2477 62.6718 42.1189Z" fill="#2F4077"/>
<path fill-rule="evenodd" clip-rule="evenodd" d="M74.9875 49.5494C75.4708 49.5103 75.8132 48.8518 75.7524 48.0785C75.6915 47.3052 75.2504 46.71 74.7671 46.7491C74.2839 46.7881 73.9414 47.4467 74.0023 48.22C74.0631 48.9932 74.5042 49.5885 74.9875 49.5494Z" fill="#2F4077"/>
<path fill-rule="evenodd" clip-rule="evenodd" d="M65.5163 50.3447C65.9996 50.3056 66.3421 49.6471 66.2812 48.8738C66.2203 48.1005 65.7792 47.5053 65.296 47.5443C64.8127 47.5834 64.4702 48.2419 64.5311 49.0152C64.5919 49.7885 65.0331 50.3837 65.5163 50.3447Z" fill="#2F4077"/>
<path fill-rule="evenodd" clip-rule="evenodd" d="M75.7792 37.3336C71.9686 37.6923 69.435 41.9696 69.9255 46.7697C70.4161 51.5698 73.7672 55.2931 77.5778 54.9344C81.3884 54.5757 83.922 50.2985 83.4315 45.4984C82.941 40.6983 79.5898 36.9749 75.7792 37.3336ZM76.0189 39.6769C78.4057 39.4521 80.7764 42.0869 81.1469 45.7133C81.5174 49.3397 79.7251 52.3665 77.3383 52.5912C74.9515 52.816 72.5808 50.1812 72.2103 46.5548C71.8398 42.9284 73.6321 39.9016 76.0189 39.6769Z" fill="#E4794A"/>
<path fill-rule="evenodd" clip-rule="evenodd" d="M59.7006 39.2533C55.89 39.612 53.3564 43.8893 53.8469 48.6894C54.3374 53.4895 57.6886 57.2128 61.4992 56.8541C65.3098 56.4954 67.8434 52.2181 67.3529 47.418C66.8623 42.6179 63.5112 38.8946 59.7006 39.2533ZM59.9403 41.5965C62.3271 41.3718 64.6978 44.0066 65.0683 47.6329C65.4387 51.2593 63.6464 54.2861 61.2596 54.5109C58.8728 54.7356 56.5022 52.1008 56.1317 48.4744C55.7612 44.8481 57.5535 41.8213 59.9403 41.5965Z" fill="#E4794A"/>
<path fill-rule="evenodd" clip-rule="evenodd" d="M70.7577 44.7451C71.3923 44.6788 71.9597 45.1464 72.0251 45.7895C72.0879 46.4068 71.6652 46.9615 71.0699 47.0635L70.9946 47.0739L66.5129 47.5421C65.8783 47.6084 65.3109 47.1408 65.2454 46.4978C65.1826 45.8804 65.6053 45.3257 66.2007 45.2237L66.276 45.2133L70.7577 44.7451Z" fill="#E4794A"/>
<path fill-rule="evenodd" clip-rule="evenodd" d="M82.4968 43.2428L87.8101 43.5706C88.4469 43.6098 88.9317 44.1648 88.8929 44.8101C88.8557 45.4296 88.3495 45.9071 87.7457 45.9095L87.6698 45.9074L82.3564 45.5796C81.7197 45.5403 81.2349 44.9854 81.2737 44.3401C81.3109 43.7206 81.817 43.2431 82.4208 43.2406L82.4968 43.2428Z" fill="#E4794A"/>
<path fill-rule="evenodd" clip-rule="evenodd" d="M67.8726 97.9759L68.8891 103.126C68.8891 103.126 44.1704 101.862 36.4082 112.023H91.9908C94.763 112.023 96.8421 109.354 96.1029 106.591L92.9148 94.2301L67.8726 97.9759Z" fill="white"/>
<path fill-rule="evenodd" clip-rule="evenodd" d="M67.704 96.8179L67.6295 96.8315C67.0171 96.9644 66.6153 97.5739 66.74 98.2055L67.4716 101.915L66.8837 101.908C66.1214 101.902 65.3013 101.907 64.4323 101.926C61.3216 101.993 58.1178 102.223 54.9714 102.664C45.962 103.924 39.068 106.629 35.4948 111.306C34.9072 112.075 35.4482 113.193 36.4082 113.193H91.9907C95.4978 113.193 98.0896 109.857 97.2495 106.409L94.0324 93.9341C93.8833 93.3564 93.3291 92.9849 92.7461 93.0721L67.704 96.8179ZM92.0591 95.5412L94.9853 106.887L95.0117 106.993C95.4694 108.962 93.9894 110.852 91.9907 110.852H39.124L39.1419 110.837C42.6152 107.878 48.2374 105.969 55.2873 104.983C58.338 104.556 61.4548 104.332 64.4818 104.266C65.3275 104.248 66.1249 104.243 66.8649 104.249L67.485 104.256C67.8258 104.262 68.1199 104.269 68.3635 104.277L68.8342 104.296L68.9086 104.297C69.6229 104.286 70.1642 103.619 70.0218 102.897L69.2435 98.954L92.0591 95.5412Z" fill="#2F4077"/>
<path fill-rule="evenodd" clip-rule="evenodd" d="M97.3504 112.023H25.9663C35.9462 119.514 48.2825 123.915 61.6352 123.915C75.0342 123.962 87.3705 119.514 97.3504 112.023Z" fill="#2F4077"/>
<path fill-rule="evenodd" clip-rule="evenodd" d="M61.6351 0.679169C27.595 0.679169 0 28.6439 0 63.1401C0 97.6364 27.595 125.601 61.6351 125.601C95.6753 125.601 123.27 97.6364 123.27 63.1401C123.27 28.6439 95.6753 0.679169 61.6351 0.679169ZM61.6351 3.95674C93.889 3.95674 120.036 30.4541 120.036 63.1401C120.036 95.8262 93.889 122.324 61.6351 122.324C29.3811 122.324 3.23413 95.8262 3.23413 63.1401C3.23413 30.4541 29.3811 3.95674 61.6351 3.95674Z" fill="#E4794A"/>
</svg>
