<svg width="281" height="158" viewBox="0 0 281 158" fill="none" xmlns="http://www.w3.org/2000/svg">
<path fill-rule="evenodd" clip-rule="evenodd" d="M4.37836 31.7826C7.6914 29.5913 12.4131 28.2609 19.0392 29.1218C19.0392 29.1218 25.5871 7.88698 45.7784 16C45.7784 16 54.1523 -6.01737 76.4305 3.68698L78.0219 4.49567C84.4914 8.85219 87.2305 16 87.2305 16C107.396 7.86089 113.97 29.1218 113.97 29.1218C134.422 26.5131 136.509 44.5913 136.509 44.5913H8.23923C1.32619 44.5913 -1.41294 35.5913 4.37836 31.7826Z" fill="white"/>
<path fill-rule="evenodd" clip-rule="evenodd" d="M59.9723 1.25264C55.9709 2.44583 52.5878 4.84915 49.7833 8.09673C48.3474 9.75942 47.1552 11.5381 46.1918 13.3174L46.0921 13.5033C45.8302 13.9953 45.6018 14.4585 45.4059 14.8855L45.3554 14.9964L45.2921 14.9728C40.0054 13.0066 35.3139 12.8933 31.211 14.3779C27.7022 15.6474 24.7828 18.0196 22.402 21.1647C21.1255 22.851 20.0843 24.6538 19.2587 26.4569L19.1733 26.6451C18.9494 27.1434 18.7556 27.6125 18.5908 28.0449L18.5064 28.2692L18.5026 28.2687C12.5237 27.6033 7.68374 28.658 3.94652 31.1298C-2.48708 35.3609 0.543156 45.3739 8.23913 45.3739H136.509C136.976 45.3739 137.34 44.9662 137.286 44.5015L137.271 44.3864C137.251 44.2397 137.217 44.0313 137.166 43.768C137.059 43.2065 136.91 42.5832 136.713 41.9133C136.151 40.0015 135.316 38.0897 134.152 36.3009C132.404 33.6147 130.067 31.4509 127.066 30.01L126.903 29.9327C123.518 28.3495 119.426 27.7438 114.579 28.2622L114.502 28.2708L114.478 28.2045C114.28 27.6753 114.038 27.0874 113.748 26.4552C112.921 24.6512 111.878 22.8474 110.601 21.1603C108.218 18.0116 105.297 15.6371 101.789 14.3674L101.639 14.3138C97.6235 12.9039 93.0509 13.0196 87.9151 14.8981L87.651 14.9961L87.6721 15.0421C87.4359 14.5197 87.1488 13.9393 86.8093 13.3154C85.8408 11.5358 84.6437 9.75689 83.2033 8.094C81.7876 6.45949 80.2085 5.02467 78.4589 3.84647C78.4324 3.82862 78.4048 3.81241 78.3763 3.79794L76.785 2.98924L76.743 2.96943C70.4887 0.245104 64.9001 -0.216814 59.9723 1.25264ZM76.0978 4.39571L77.6223 5.17049L77.5846 5.14477C79.2136 6.24174 80.691 7.58412 82.0202 9.11877C83.3816 10.6906 84.5168 12.3774 85.4344 14.0636C85.755 14.6527 86.0251 15.1987 86.246 15.687L86.3521 15.9261C86.3845 16.0007 86.414 16.0701 86.4406 16.1341L86.4996 16.28C86.6562 16.6887 87.1175 16.8895 87.5234 16.7257C92.7769 14.6052 97.3283 14.4177 101.256 15.8392C104.453 16.9959 107.14 19.1807 109.353 22.105C110.556 23.6943 111.543 25.401 112.325 27.1075C112.598 27.7041 112.827 28.257 113.011 28.7517L113.1 28.994C113.118 29.0444 113.135 29.0924 113.15 29.1381L113.222 29.3529C113.334 29.7162 113.691 29.9461 114.069 29.898C119.017 29.2668 123.092 29.8382 126.389 31.421C129.117 32.7311 131.241 34.6982 132.84 37.1547C133.915 38.8062 134.69 40.5804 135.211 42.3546L135.264 42.5393C135.368 42.9058 135.456 43.2554 135.53 43.5847L135.578 43.8087H8.23913C2.09357 43.8087 -0.326124 35.8131 4.80829 32.4365C8.3532 30.0918 13.0257 29.1296 18.9383 29.8978C19.3005 29.9449 19.6448 29.7353 19.7717 29.3971L19.8356 29.2044L19.8828 29.0675C19.908 28.9955 19.9357 28.9182 19.966 28.8357L19.9971 28.7516C20.1812 28.2573 20.4088 27.7047 20.6818 27.1086C21.4626 25.4033 22.4477 23.6977 23.65 22.1094C25.8608 19.1889 28.5467 17.0064 31.7435 15.8497C35.672 14.4283 40.2268 14.6127 45.4865 16.7261C45.8928 16.8894 46.3541 16.6875 46.5098 16.2782L46.5684 16.1324L46.625 15.9973C46.6654 15.9025 46.7109 15.7984 46.7616 15.6855C46.981 15.1973 47.2494 14.6515 47.5683 14.0627C48.4808 12.3771 49.611 10.6909 50.9679 9.11974C53.5899 6.08349 56.73 3.85278 60.4196 2.75259C64.9293 1.40781 70.0735 1.81347 75.9162 4.31725L76.0978 4.39571Z" fill="#2F4077"/>
<path fill-rule="evenodd" clip-rule="evenodd" d="M89.3173 143.956C92.6304 141.765 97.3521 140.435 103.978 141.296C103.978 141.296 110.526 120.061 130.717 128.174C130.717 128.174 139.091 106.156 161.37 115.861L162.961 116.67C169.43 121.026 172.17 128.174 172.17 128.174C192.335 120.035 198.909 141.296 198.909 141.296C219.361 138.687 221.448 156.765 221.448 156.765H93.1782C86.2652 156.739 83.526 147.739 89.3173 143.956Z" fill="white"/>
<path fill-rule="evenodd" clip-rule="evenodd" d="M144.911 113.427C140.91 114.62 137.527 117.023 134.722 120.271C133.287 121.933 132.094 123.712 131.131 125.491L131.031 125.677C130.769 126.169 130.541 126.632 130.345 127.059L130.295 127.17L130.231 127.147C124.945 125.181 120.253 125.067 116.15 126.552C112.641 127.821 109.722 130.194 107.341 133.339C106.065 135.025 105.023 136.828 104.198 138.631L104.112 138.819C103.889 139.317 103.695 139.786 103.53 140.219L103.446 140.443L103.442 140.443C97.4629 139.777 92.6229 140.832 88.8857 143.304C82.4514 147.506 85.4815 157.519 93.1753 157.548L221.448 157.548C221.916 157.548 222.279 157.14 222.225 156.675L222.21 156.56C222.19 156.414 222.156 156.205 222.106 155.942C221.998 155.38 221.849 154.757 221.652 154.087C221.09 152.175 220.255 150.264 219.091 148.475C217.343 145.789 215.006 143.625 212.006 142.184L211.842 142.107C208.457 140.523 204.365 139.918 199.519 140.436L199.441 140.445L199.417 140.378C199.219 139.849 198.977 139.261 198.687 138.629C197.86 136.825 196.818 135.021 195.541 133.334C193.157 130.186 190.237 127.811 186.728 126.541L186.578 126.488C182.563 125.078 177.99 125.194 172.854 127.072L172.59 127.17L172.611 127.216C172.375 126.694 172.088 126.113 171.748 125.489C170.78 123.71 169.583 121.931 168.142 120.268C166.727 118.633 165.148 117.199 163.398 116.02C163.371 116.003 163.344 115.986 163.315 115.972L161.724 115.163L161.682 115.143C155.428 112.419 149.839 111.957 144.911 113.427ZM161.037 116.57L162.562 117.344L162.524 117.319C164.153 118.416 165.63 119.758 166.959 121.293C168.321 122.865 169.456 124.551 170.374 126.238C170.694 126.827 170.964 127.373 171.185 127.861L171.291 128.1C171.324 128.175 171.353 128.244 171.38 128.308L171.439 128.454C171.595 128.863 172.057 129.063 172.463 128.9C177.716 126.779 182.267 126.592 186.195 128.013C189.392 129.17 192.079 131.355 194.293 134.279C195.496 135.868 196.482 137.575 197.264 139.281C197.538 139.878 197.766 140.431 197.95 140.926L198.039 141.168C198.057 141.218 198.074 141.266 198.089 141.312L198.161 141.527C198.273 141.89 198.631 142.12 199.008 142.072C203.956 141.441 208.032 142.012 211.328 143.595C214.056 144.905 216.181 146.872 217.779 149.329C218.854 150.98 219.629 152.754 220.15 154.529L220.204 154.713C220.325 155.141 220.424 155.545 220.505 155.922L220.517 155.982L93.1783 155.983C87.0335 155.959 84.6137 147.964 89.7454 144.612C93.2924 142.266 97.9648 141.304 103.877 142.072C104.24 142.119 104.584 141.909 104.711 141.571L104.775 141.378L104.822 141.241C104.847 141.169 104.875 141.092 104.905 141.01L104.936 140.926C105.12 140.431 105.348 139.879 105.621 139.283C106.402 137.577 107.387 135.872 108.589 134.283C110.8 131.363 113.486 129.18 116.683 128.024C120.611 126.602 125.166 126.787 130.426 128.9C130.832 129.063 131.293 128.861 131.449 128.452L131.508 128.306L131.564 128.171C131.605 128.076 131.65 127.972 131.701 127.859C131.92 127.371 132.189 126.825 132.507 126.237C133.42 124.551 134.55 122.865 135.907 121.294C138.529 118.257 141.669 116.027 145.359 114.927C149.868 113.582 155.013 113.987 160.855 116.491L161.037 116.57Z" fill="#2F4077"/>
<path fill-rule="evenodd" clip-rule="evenodd" d="M147.543 77.3304C150.857 75.1391 155.578 73.8086 162.204 74.6695C162.204 74.6695 168.752 53.4347 188.943 61.5477C188.943 61.5477 197.317 39.5304 219.596 49.2347L221.187 50.0434C227.657 54.3999 230.396 61.5477 230.396 61.5477C250.561 53.4086 257.135 74.6695 257.135 74.6695C277.587 72.0608 279.674 90.1391 279.674 90.1391H151.43C144.491 90.1391 141.752 81.1391 147.543 77.3304Z" fill="white"/>
<path fill-rule="evenodd" clip-rule="evenodd" d="M203.138 46.8005C199.136 47.9937 195.753 50.397 192.949 53.6446C191.513 55.3073 190.32 57.086 189.357 58.8653L189.257 59.0511C188.995 59.5431 188.767 60.0063 188.571 60.4334L188.521 60.5443L188.457 60.5206C183.171 58.5544 178.479 58.4412 174.376 59.9257C170.867 61.1953 167.948 63.5675 165.567 66.7126C164.291 68.3988 163.25 70.2017 162.424 72.0048L162.339 72.193C162.115 72.6913 161.921 73.1603 161.756 73.5928L161.672 73.817L161.668 73.8166C155.689 73.1511 150.849 74.2058 147.112 76.6777C140.673 80.9121 143.714 90.9217 151.43 90.9217H279.674C280.142 90.9217 280.505 90.5141 280.451 90.0494L280.437 89.9342C280.416 89.7876 280.382 89.5791 280.332 89.3158C280.224 88.7544 280.075 88.1311 279.878 87.4611C279.316 85.5493 278.481 83.6375 277.317 81.8487C275.569 79.1626 273.232 76.9988 270.232 75.5579L270.068 75.4805C266.683 73.8974 262.592 73.2916 257.745 73.8101L257.667 73.8186L257.643 73.7524C257.445 73.2232 257.203 72.6352 256.913 72.0031C256.086 70.1991 255.044 68.3953 253.767 66.7082C251.383 63.5594 248.463 61.1849 244.954 59.9152L244.804 59.8616C240.789 58.4517 236.216 58.5674 231.08 60.4459L230.816 60.544L230.837 60.59C230.601 60.0675 230.314 59.4872 229.975 58.8632C229.006 57.0837 227.809 55.3047 226.369 53.6418C224.953 52.0073 223.374 50.5725 221.624 49.3943C221.598 49.3765 221.57 49.3603 221.542 49.3458L219.95 48.5371L219.908 48.5173C213.654 45.793 208.065 45.331 203.138 46.8005ZM219.263 49.9436L220.788 50.7183L220.75 50.6926C222.379 51.7896 223.856 53.132 225.185 54.6666C226.547 56.2384 227.682 57.9252 228.6 59.6114C228.92 60.2005 229.19 60.7465 229.411 61.2349L229.517 61.474C229.55 61.5486 229.579 61.618 229.606 61.682L229.665 61.8279C229.822 62.2365 230.283 62.4373 230.689 62.2735C235.942 60.1531 240.494 59.9655 244.422 61.387C247.618 62.5438 250.305 64.7285 252.519 67.6528C253.722 69.2421 254.708 70.9489 255.49 72.6554C255.764 73.2519 255.992 73.8049 256.176 74.2996L256.265 74.5418C256.283 74.5922 256.3 74.6403 256.316 74.6859L256.387 74.9007C256.499 75.264 256.857 75.494 257.234 75.4459C262.182 74.8147 266.258 75.386 269.554 76.9689C272.283 78.279 274.407 80.246 276.005 82.7025C277.08 84.354 277.855 86.1282 278.376 87.9025L278.43 88.0871C278.551 88.5147 278.651 88.9193 278.731 89.2955L278.743 89.3563L151.43 89.3565C145.264 89.3565 142.835 81.3636 147.974 77.9843C151.518 75.6396 156.191 74.6775 162.104 75.4456C162.466 75.4927 162.81 75.2831 162.937 74.945L163.001 74.7522L163.048 74.6153C163.073 74.5433 163.101 74.466 163.131 74.3836L163.162 74.2995C163.346 73.8052 163.574 73.2526 163.847 72.6564C164.628 70.9511 165.613 69.2455 166.815 67.6573C169.026 64.7367 171.712 62.5542 174.909 61.3976C178.837 59.9761 183.392 60.1606 188.652 62.274C189.058 62.4373 189.519 62.2353 189.675 61.826L189.734 61.6803L189.79 61.5452C189.831 61.4504 189.876 61.3463 189.927 61.2334C190.146 60.7452 190.415 60.1994 190.734 59.6105C191.646 57.925 192.776 56.2388 194.133 54.6676C196.755 51.6313 199.895 49.4006 203.585 48.3004C208.095 46.9557 213.239 47.3613 219.081 49.8651L219.263 49.9436Z" fill="#2F4077"/>
<path fill-rule="evenodd" clip-rule="evenodd" d="M175.013 109.287H53.3173C50.7608 109.287 48.6738 107.2 48.6738 104.643V32.2782C48.6738 29.7217 50.7608 27.6348 53.3173 27.6348H175.013C177.569 27.6348 179.656 29.7217 179.656 32.2782V104.643C179.656 107.2 177.569 109.287 175.013 109.287Z" fill="#465F9D"/>
<path fill-rule="evenodd" clip-rule="evenodd" d="M175.864 29.3902C176.205 29.1254 176.697 29.1876 176.962 29.5292C177.216 29.8577 177.169 30.3248 176.861 30.5957L176.823 30.6272L117.06 76.9557C115.369 78.2775 113.088 78.2985 111.381 77.0205L111.299 76.9577L51.5334 30.6272C51.1918 30.3624 51.1295 29.8708 51.3943 29.5292C51.649 29.2008 52.1133 29.1306 52.4523 29.3611L52.4924 29.3902L112.26 75.7226C113.389 76.6049 114.883 76.6226 116.029 75.7737L116.099 75.7206L175.864 29.3902Z" fill="white"/>
<path fill-rule="evenodd" clip-rule="evenodd" d="M87.076 57.0475C87.3859 56.7462 87.8814 56.7532 88.1827 57.0631C88.4719 57.3606 88.4771 57.8292 88.2028 58.1327L88.1671 58.1698L50.6279 94.6654C50.318 94.9667 49.8226 94.9597 49.5213 94.6498C49.232 94.3523 49.2269 93.8838 49.5011 93.5802L49.5369 93.5432L87.076 57.0475Z" fill="white"/>
<path fill-rule="evenodd" clip-rule="evenodd" d="M140.487 57.0631C140.776 56.7656 141.244 56.7473 141.555 57.0129L141.593 57.0475L179.132 93.5432C179.442 93.8445 179.449 94.3399 179.148 94.6498C178.859 94.9473 178.391 94.9657 178.079 94.7001L178.041 94.6654L140.502 58.1698C140.192 57.8685 140.185 57.373 140.487 57.0631Z" fill="white"/>
<path fill-rule="evenodd" clip-rule="evenodd" d="M175.483 151.522C195.667 151.522 212.03 135.159 212.03 114.974C212.03 94.789 195.667 78.426 175.483 78.426C155.298 78.426 138.935 94.789 138.935 114.974C138.935 135.159 155.298 151.522 175.483 151.522Z" fill="#FAA184"/>
<path fill-rule="evenodd" clip-rule="evenodd" d="M204.257 80.1217C202.744 79.1826 200.735 79.6522 199.796 81.1652L191.813 94C187.065 90.1652 181.039 87.8696 174.491 87.8696C159.257 87.8696 146.865 100.261 146.865 115.496C146.865 130.73 159.257 143.122 174.491 143.122C189.726 143.122 202.117 130.73 202.117 115.496C202.117 109.209 200.004 103.417 196.457 98.7478L205.274 84.5565C206.239 83.0435 205.77 81.0609 204.257 80.1217ZM200.083 115.496C200.083 129.609 188.604 141.087 174.491 141.087C160.378 141.087 148.9 129.609 148.9 115.496C148.9 101.383 160.378 89.9044 174.491 89.9044C180.648 89.9044 186.309 92.0957 190.717 95.7217L176.265 118.965L167.891 107.826C166.822 106.391 164.787 106.104 163.352 107.174C161.917 108.243 161.63 110.278 162.7 111.713L173.917 126.635C174.543 127.443 175.483 127.939 176.5 127.939C176.552 127.939 176.604 127.939 176.63 127.939C177.7 127.887 178.665 127.313 179.239 126.426L195.283 100.652C198.309 104.826 200.083 109.965 200.083 115.496Z" fill="#E4794A"/>
</svg>
