<svg width="129" height="132" viewBox="0 0 129 132" fill="none" xmlns="http://www.w3.org/2000/svg">
<path fill-rule="evenodd" clip-rule="evenodd" d="M62.0049 130.268C95.3561 130.268 122.393 102.87 122.393 69.0715C122.393 35.2735 95.3561 7.87482 62.0049 7.87482C28.6537 7.87482 1.61719 35.2735 1.61719 69.0715C1.61719 102.87 28.6537 130.268 62.0049 130.268Z" fill="white"/>
<path fill-rule="evenodd" clip-rule="evenodd" d="M71.8 59.2389H35.8076C23.9796 59.2389 14.4155 68.9311 14.4155 80.9176V105.546C21.4846 115.192 31.3259 122.636 42.7381 126.71H71.8C72.8165 126.71 73.6019 125.914 73.6019 124.884V61.0649C73.6019 60.0349 72.8165 59.2389 71.8 59.2389Z" fill="#2F4077"/>
<path fill-rule="evenodd" clip-rule="evenodd" d="M91.344 68.2756C87.925 64.7171 83.4894 62.5633 78.7767 62.3291L55.5365 63.0315C49.2528 63.2188 43.2464 65.8876 38.5337 70.5231C33.0355 75.9544 28.2303 95.2452 27.3063 106.81C26.567 116.034 46.3882 126.757 51.3782 129.285C52.5795 129.519 53.827 129.66 55.0282 129.8L69.9981 129.66C87.8788 127.225 103.311 116.924 112.69 102.222C108.67 91.7336 102.063 79.5129 91.344 68.2756Z" fill="#465F9D"/>
<path fill-rule="evenodd" clip-rule="evenodd" d="M55.314 79.9886C55.9478 79.9158 56.5199 80.3775 56.5918 81.0199C56.8458 83.2912 56.3379 86.1639 55.2271 89.5321C54.6511 91.2787 53.925 93.1175 53.0831 95.0095C52.3127 96.7409 51.4882 98.4224 50.6635 99.9901L50.4211 100.448C50.342 100.596 50.2648 100.739 50.1895 100.878L49.7446 101.686L49.5561 102.018C49.2169 102.604 48.4582 102.775 47.9056 102.391C44.0465 99.7035 40.6401 99.1944 37.9369 99.8833L37.7564 99.9316C37.5326 99.9947 37.3759 100.051 37.2915 100.087L37.2632 100.1C36.6843 100.372 35.9977 100.116 35.7297 99.5296C35.4617 98.9429 35.7137 98.2472 36.2926 97.9756C36.5102 97.8735 36.8744 97.74 37.3735 97.6129C40.3629 96.851 43.9723 97.2692 47.8918 99.6066L48.1559 99.7668L48.506 99.114L48.625 98.8887C49.427 97.3641 50.2293 95.7279 50.9771 94.0471C51.789 92.2226 52.4868 90.4554 53.0361 88.7901C54.0495 85.7171 54.5044 83.1441 54.2963 81.2835C54.2245 80.6411 54.6801 80.0614 55.314 79.9886Z" fill="#2F4077"/>
<path fill-rule="evenodd" clip-rule="evenodd" d="M47.4476 100.775C47.8115 100.278 48.4893 100.158 48.9957 100.485L49.1336 100.586L54.9514 104.954L60.0915 108.794C62.365 110.485 63.8666 111.589 64.1869 111.8L64.2344 111.83C64.7904 112.147 64.9876 112.861 64.6749 113.424C64.3621 113.988 63.6579 114.188 63.1018 113.871L63.0102 113.814C62.5105 113.488 60.6843 112.145 57.6459 109.879L54.1515 107.266L47.6861 102.412C47.174 102.027 47.0672 101.293 47.4476 100.775Z" fill="#2F4077"/>
<path fill-rule="evenodd" clip-rule="evenodd" d="M90.1287 75.6785C90.7639 75.6189 91.3265 76.0925 91.3853 76.7362L91.4119 77.052L91.4592 77.6802C91.48 77.9746 91.5005 78.2901 91.52 78.6239C91.6332 80.5603 91.6838 82.5342 91.6364 84.3843L91.6223 84.8553C91.479 89.0391 90.8774 91.718 89.3121 92.6859C88.7675 93.0227 88.0567 92.8483 87.7244 92.2964C87.406 91.7675 87.5508 91.0839 88.0427 90.7315L88.1088 90.6875C88.7292 90.3038 89.2368 87.8444 89.327 84.3235C89.3725 82.5485 89.3235 80.6377 89.2139 78.7624L89.17 78.0655C89.1601 77.9179 89.15 77.7754 89.1399 77.6383L89.085 76.9519C89.0262 76.3082 89.4935 75.738 90.1287 75.6785Z" fill="#2F4077"/>
<path fill-rule="evenodd" clip-rule="evenodd" d="M57.5234 64.1084L63.7147 48.0952L77.2523 56.8509L75.5889 64.5766L76.051 81.0112L57.5234 64.1084Z" fill="white"/>
<path fill-rule="evenodd" clip-rule="evenodd" d="M62.6391 47.6681L56.4478 63.6813C56.2723 64.1354 56.3929 64.6521 56.7505 64.9783L75.278 81.8812L75.334 81.9294C76.0908 82.5422 77.2336 81.9818 77.2054 80.9779L76.7471 64.6866L78.3806 57.1004C78.4837 56.6214 78.2813 56.128 77.8735 55.8642L64.336 47.1084C63.7226 46.7117 62.9045 46.9816 62.6391 47.6681ZM64.2772 49.8477L75.9519 57.3983L74.4602 64.3271L74.4439 64.4206C74.4356 64.4833 74.4323 64.5466 74.4341 64.6099L74.8194 78.3124L58.8904 63.7802L64.2772 49.8477Z" fill="#2F4077"/>
<path fill-rule="evenodd" clip-rule="evenodd" d="M84.4596 27.8211C84.4596 27.8211 73.0011 35.219 78.5917 42.1019C78.5917 42.1019 81.0867 44.9581 83.1659 44.3962C83.1659 44.3962 81.6412 41.9614 83.3969 40.6972C83.3969 40.6972 83.9513 48.0483 89.9116 46.5032C89.9116 46.5032 87.6938 43.2725 88.2944 39.3394C89.4033 31.2391 87.5552 26.3696 84.4596 27.8211Z" fill="#2F4077"/>
<path fill-rule="evenodd" clip-rule="evenodd" d="M60.665 39.5735C60.665 39.5735 58.3548 25.2459 72.6316 22.6707C73.9715 22.4365 83.1198 20.9851 84.8293 28.6639C85.9844 33.7675 86.2154 39.3862 86.123 43.6939C86.123 43.7407 86.0306 51.8878 82.8887 56.4295C79.7469 60.9713 72.6778 60.5967 68.9353 58.3961C65.1929 56.1954 64.4998 55.0249 63.4372 52.4028C62.4207 49.7808 60.665 39.6203 60.665 39.5735Z" fill="white"/>
<path fill-rule="evenodd" clip-rule="evenodd" d="M86.0539 28.8504L85.956 28.4063C85.0912 24.5221 82.4845 22.3321 78.8291 21.5543C77.536 21.2792 76.1801 21.1965 74.8103 21.2591C73.896 21.3009 73.1363 21.3946 72.4353 21.5171C66.3239 22.6195 62.5028 25.8426 60.6368 30.4834C59.5048 33.2985 59.2221 36.2285 59.4238 38.8272L59.4551 39.1874L59.4833 39.4532C59.4925 39.532 59.5013 39.6008 59.5095 39.6593L59.5228 39.7496L59.5294 39.8058C59.7396 41.5536 61.5905 50.8406 62.362 52.8308L62.5012 53.1688C63.7472 56.1439 64.8474 57.3456 68.3556 59.4085C73.2523 62.2879 80.6334 61.729 83.8345 57.1015C85.2918 54.9948 86.2321 52.1271 86.7845 48.8071C86.979 47.6381 87.1118 46.485 87.1942 45.3886C87.2183 45.0681 87.2369 44.7666 87.2508 44.4869L87.2743 43.8858L87.2779 43.709C87.389 38.5306 87.0227 33.3544 86.0539 28.8504ZM62.0914 41.0185L61.841 39.6104C61.8334 39.5758 61.8201 39.5209 61.8201 39.5735C61.8201 39.5103 61.815 39.4471 61.8049 39.3847L61.7868 39.2547C61.7773 39.1798 61.7663 39.0825 61.7549 38.9642L61.7462 38.8716C61.5357 36.551 61.7677 33.8748 62.7762 31.3668C64.3476 27.4588 67.5218 24.7813 72.834 23.8231C73.4409 23.7171 74.1088 23.6347 74.9144 23.5979C76.1031 23.5435 77.2696 23.6147 78.3545 23.8455C81.1335 24.4368 82.9823 25.9559 83.6639 28.756L83.7034 28.9256C84.6648 33.1734 85.0532 38.1414 84.9776 43.1502L84.9677 43.7045C84.9625 44.032 84.9401 44.5553 84.8908 45.2109C84.8135 46.2399 84.6887 47.3234 84.5065 48.4179C84.0062 51.425 83.1647 53.9914 81.9429 55.7576C79.5246 59.2534 73.4741 59.7116 69.5151 57.3836L69.1697 57.1788C66.2633 55.4395 65.571 54.5867 64.5057 51.9581L64.4507 51.8101C64.0575 50.709 63.4885 48.2553 62.8485 45.0254L62.8026 44.7933C62.5544 43.533 62.3113 42.2371 62.0914 41.0185Z" fill="#2F4077"/>
<path fill-rule="evenodd" clip-rule="evenodd" d="M79.9681 39.412C80.5671 39.2825 81.1566 39.6489 81.3206 40.2378L81.3388 40.3125L82.8173 47.3359C82.9817 48.1166 82.3455 48.8229 81.576 48.7453L81.5011 48.7353L78.9599 48.3139C78.3304 48.2095 77.9035 47.6077 78.0065 46.9697C78.1054 46.3572 78.6567 45.9341 79.2577 45.9935L79.333 46.0035L80.205 46.1478L79.0795 40.801C78.9517 40.194 79.3133 39.5966 79.8944 39.4305L79.9681 39.412Z" fill="#2F4077"/>
<path fill-rule="evenodd" clip-rule="evenodd" d="M83.5585 41.122C83.965 41.0835 84.2484 40.5514 84.1915 39.9335C84.1345 39.3155 83.7588 38.8457 83.3523 38.8842C82.9458 38.9227 82.6624 39.4548 82.7193 40.0728C82.7763 40.6907 83.152 41.1605 83.5585 41.122Z" fill="#2F4077"/>
<path fill-rule="evenodd" clip-rule="evenodd" d="M77.3441 40.8414C77.4021 40.2236 77.1197 39.6909 76.7132 39.6517C76.3068 39.6125 75.9302 40.0816 75.8722 40.6994C75.8141 41.3172 76.0966 41.8499 76.503 41.8891C76.9095 41.9283 77.286 41.4592 77.3441 40.8414Z" fill="#2F4077"/>
<path fill-rule="evenodd" clip-rule="evenodd" d="M72.4577 34.1135C73.3396 33.4301 74.439 33.069 75.7163 33.2128C76.3503 33.2842 76.8072 33.863 76.7367 34.5055C76.6691 35.1223 76.1401 35.5737 75.5369 35.5456L75.4612 35.5396C74.8136 35.4667 74.2946 35.6372 73.8609 35.9733C73.6675 36.1231 73.5377 36.2663 73.4808 36.344L73.4629 36.37C73.1163 36.9127 72.4012 37.068 71.8656 36.7168C71.33 36.3656 71.1768 35.6409 71.5233 35.0982C71.7004 34.8208 72.0067 34.463 72.4577 34.1135Z" fill="#2F4077"/>
<path fill-rule="evenodd" clip-rule="evenodd" d="M83.9444 32.1776C84.9369 32.2285 85.8011 32.6349 86.3774 33.4728C86.7422 34.0032 86.6136 34.7328 86.0903 35.1024C85.5887 35.4567 84.9066 35.3518 84.5296 34.8756L84.4822 34.8114C84.354 34.6251 84.1574 34.5326 83.8278 34.5157C83.5193 34.4999 83.1516 34.5608 82.7793 34.6753L82.6372 34.7213C82.5278 34.7586 82.4417 34.7925 82.3867 34.8166L82.3574 34.8298C81.7785 35.1014 81.092 34.846 80.824 34.2593C80.5559 33.6727 80.808 32.9769 81.3869 32.7053C81.5455 32.6309 81.7936 32.5319 82.1085 32.435C82.6542 32.2672 83.2095 32.1676 83.7608 32.1722L83.9444 32.1776Z" fill="#2F4077"/>
<path fill-rule="evenodd" clip-rule="evenodd" d="M71.7997 28.8044C71.7997 28.8044 77.3441 47.9547 64.7306 50.0617C64.7306 50.0617 57.3843 51.4195 55.721 48.7975C55.721 48.7975 61.0344 45.8945 60.3413 42.8042C60.3413 42.8042 54.3811 49.4998 49.1602 44.7708C49.1602 44.7708 57.8464 43.2256 57.0147 35.3127C56.4141 29.6472 69.8592 24.2158 71.7997 28.8044Z" fill="#2F4077"/>
<path fill-rule="evenodd" clip-rule="evenodd" d="M48.7908 31.7073L56.4605 30.49C57.1998 25.2459 60.1568 17.7075 70.7835 16.3965C87.3243 14.3363 87.925 30.6773 87.925 30.6773L49.5763 36.7642C48.1902 36.9983 46.9427 36.0618 46.7116 34.6572C46.4806 33.2057 47.4047 31.8946 48.7908 31.7073Z" fill="#E4794A"/>
<path fill-rule="evenodd" clip-rule="evenodd" d="M73.6042 47.8173C74.1651 47.5707 74.8132 47.8103 75.0898 48.3527L75.1237 48.4251C75.1697 48.5325 75.325 48.7709 75.6003 49.0214C76.2258 49.5906 77.1122 49.8653 78.4095 49.655C79.0394 49.5529 79.6318 49.9875 79.7326 50.6259C79.8334 51.2643 79.4044 51.8646 78.7745 51.9667C76.7799 52.2901 75.1947 51.7987 74.0569 50.7634C73.7393 50.4743 73.4812 50.1636 73.2762 49.8492C73.1455 49.6486 73.0568 49.4794 73.0045 49.3571C72.7505 48.7641 73.019 48.0747 73.6042 47.8173Z" fill="#2F4077"/>
<path fill-rule="evenodd" clip-rule="evenodd" d="M70.9224 87.9409C70.1831 87.9409 69.4901 88.4559 69.3053 89.2051L61.4507 122.917H46.8505C46.8505 122.917 46.1112 126.85 49.022 128.77C51.1012 129.238 53.2727 129.566 55.4443 129.847C58.0317 129.847 62.6982 129.847 68.3812 129.847C92.3607 127.272 112.182 110.462 119.39 87.8941H70.9224V87.9409Z" fill="#E4794A"/>
<path fill-rule="evenodd" clip-rule="evenodd" d="M62.0048 6.23604C27.7605 6.23604 0 34.3685 0 69.0716C0 103.775 27.7605 131.907 62.0048 131.907C96.2491 131.907 124.01 103.775 124.01 69.0716C124.01 34.3685 96.2491 6.23604 62.0048 6.23604ZM62.0047 9.5136C94.4628 9.5136 120.775 36.1786 120.775 69.0715C120.775 101.964 94.4628 128.63 62.0047 128.63C29.5466 128.63 3.23413 101.964 3.23413 69.0715C3.23413 36.1786 29.5466 9.5136 62.0047 9.5136Z" fill="#E4794A"/>
<rect width="24.073" height="24.3951" transform="matrix(0.999654 0.0262873 -0.0255973 0.999672 97.3115 1.62383)" fill="white"/>
<path fill-rule="evenodd" clip-rule="evenodd" d="M121.408 1.04656L97.3869 0.45182C96.7503 0.436059 96.22 0.94806 96.2023 1.59541L95.5364 26.0225C95.5188 26.6698 96.0205 27.2074 96.6571 27.2232L120.678 27.8179C121.315 27.8337 121.845 27.3217 121.863 26.6743L122.529 2.24722C122.547 1.59987 122.045 1.06232 121.408 1.04656ZM120.191 3.36005L119.588 25.443L97.8715 24.907L98.4751 2.82408L120.191 3.36005Z" fill="#2F4077"/>
<path fill-rule="evenodd" clip-rule="evenodd" d="M120.584 1.40406C121.048 0.960792 121.779 0.982939 122.217 1.45352C122.635 1.90365 122.633 2.60103 122.226 3.04874L122.168 3.1082L97.4954 26.6598C97.0311 27.1031 96.3 27.0809 95.8626 26.6103C95.4442 26.1602 95.446 25.4628 95.8534 25.0151L95.9114 24.9557L120.584 1.40406Z" fill="#2F4077"/>
<path fill-rule="evenodd" clip-rule="evenodd" d="M96.5087 0.798734C96.9512 0.372963 97.6394 0.372033 98.0828 0.783055L98.1417 0.841656L121.567 25.8448C122.006 26.3136 121.987 27.0545 121.524 27.4996C121.082 27.9254 120.394 27.9263 119.95 27.5153L119.891 27.4567L96.4663 2.4536C96.0271 1.98477 96.0461 1.24386 96.5087 0.798734Z" fill="#2F4077"/>
<path fill-rule="evenodd" clip-rule="evenodd" d="M122.762 31.1923H104.651C102.026 31.1923 99.8916 33.3552 99.8916 36.015V37.0919C99.8916 39.7518 102.026 41.9146 104.651 41.9146H122.762C125.387 41.9146 127.521 39.7518 127.521 37.0919V36.015C127.521 33.3552 125.387 31.1923 122.762 31.1923ZM104.651 33.5334H122.762C124.111 33.5334 125.211 34.6481 125.211 36.015V37.0919C125.211 38.4588 124.111 39.5735 122.762 39.5735H104.651C103.302 39.5735 102.202 38.4588 102.202 37.0919V36.015C102.202 34.6481 103.302 33.5334 104.651 33.5334Z" fill="#2F4077"/>
<path fill-rule="evenodd" clip-rule="evenodd" d="M121.792 42.8511C125.313 42.8511 128.168 39.9582 128.168 36.3896C128.168 32.821 125.313 29.9281 121.792 29.9281C118.271 29.9281 115.416 32.821 115.416 36.3896C115.416 39.9582 118.271 42.8511 121.792 42.8511Z" fill="#465F9D"/>
</svg>
