<svg width="304" height="143" viewBox="0 0 304 143" fill="none" xmlns="http://www.w3.org/2000/svg">
<rect x="61.0667" y="89.373" width="52.0607" height="13.0043" transform="rotate(90 61.0667 89.373)" fill="#465F9D"/>
<rect x="57.7131" y="93.7971" width="24.2351" height="6.98577" transform="rotate(90 57.7131 93.7971)" fill="white"/>
<rect x="57.7097" y="119.052" width="2.26195" height="6.98576" transform="rotate(90 57.7097 119.052)" fill="#E4794A"/>
<path fill-rule="evenodd" clip-rule="evenodd" d="M54.0919 129.487C52.4399 129.487 51.1006 130.83 51.1006 132.485C51.1006 134.141 52.4399 135.483 54.0919 135.483C55.744 135.483 57.0833 134.141 57.0833 132.485C57.0833 130.83 55.744 129.487 54.0919 129.487ZM54.0919 130.564C55.1504 130.564 56.0085 131.424 56.0085 132.485C56.0085 133.546 55.1504 134.406 54.0919 134.406C53.0334 134.406 52.1753 133.546 52.1753 132.485C52.1753 131.424 53.0334 130.564 54.0919 130.564Z" fill="white"/>
<path fill-rule="evenodd" clip-rule="evenodd" d="M56.9039 99.0229C57.2007 99.0229 57.4413 99.2641 57.4413 99.5615C57.4413 99.8483 57.2176 100.083 56.9355 100.099L56.9039 100.1H51.7273C51.4305 100.1 51.1899 99.8589 51.1899 99.5615C51.1899 99.2747 51.4137 99.0402 51.6957 99.0239L51.7273 99.0229H56.9039Z" fill="#E4794A"/>
<path fill-rule="evenodd" clip-rule="evenodd" d="M56.9039 101.698C57.2007 101.698 57.4413 101.939 57.4413 102.236C57.4413 102.523 57.2176 102.758 56.9355 102.774L56.9039 102.775H51.7273C51.4305 102.775 51.1899 102.534 51.1899 102.236C51.1899 101.949 51.4137 101.715 51.6957 101.699L51.7273 101.698H56.9039Z" fill="#E4794A"/>
<path fill-rule="evenodd" clip-rule="evenodd" d="M56.9039 104.373C57.2007 104.373 57.4413 104.614 57.4413 104.911C57.4413 105.198 57.2176 105.432 56.9355 105.449L56.9039 105.45H51.7273C51.4305 105.45 51.1899 105.209 51.1899 104.911C51.1899 104.624 51.4137 104.39 51.6957 104.373L51.7273 104.373H56.9039Z" fill="#E4794A"/>
<rect x="74.0112" y="89.4141" width="52.0607" height="13.0043" transform="rotate(90 74.0112 89.4141)" fill="#465F9D"/>
<rect x="70.6577" y="93.856" width="24.2351" height="6.98576" transform="rotate(90 70.6577 93.856)" fill="white"/>
<rect x="70.6543" y="119.111" width="2.26195" height="6.98576" transform="rotate(90 70.6543 119.111)" fill="#2F4077"/>
<path fill-rule="evenodd" clip-rule="evenodd" d="M67.0245 129.541C65.3725 129.541 64.0332 130.884 64.0332 132.539C64.0332 134.195 65.3725 135.537 67.0245 135.537C68.6766 135.537 70.0159 134.195 70.0159 132.539C70.0159 130.884 68.6766 129.541 67.0245 129.541ZM67.0245 130.618C68.083 130.618 68.9411 131.478 68.9411 132.539C68.9411 133.6 68.083 134.46 67.0245 134.46C65.966 134.46 65.1079 133.6 65.1079 132.539C65.1079 131.478 65.966 130.618 67.0245 130.618Z" fill="white"/>
<path fill-rule="evenodd" clip-rule="evenodd" d="M69.7829 110.189C70.0797 110.189 70.3203 110.43 70.3203 110.728C70.3203 111.015 70.0966 111.249 69.8145 111.265L69.7829 111.266H64.5884C64.2916 111.266 64.051 111.025 64.051 110.728C64.051 110.441 64.2747 110.207 64.5568 110.19L64.5884 110.189H69.7829Z" fill="#2F4077"/>
<path fill-rule="evenodd" clip-rule="evenodd" d="M69.7829 96.4021C70.0797 96.4021 70.3203 96.6432 70.3203 96.9407C70.3203 97.2275 70.0966 97.4619 69.8145 97.4783L69.7829 97.4792H64.5884C64.2916 97.4792 64.051 97.2381 64.051 96.9407C64.051 96.6538 64.2747 96.4194 64.5568 96.403L64.5884 96.4021H69.7829Z" fill="#2F4077"/>
<path fill-rule="evenodd" clip-rule="evenodd" d="M69.7829 112.846C70.0797 112.846 70.3203 113.087 70.3203 113.385C70.3203 113.671 70.0966 113.906 69.8145 113.922L69.7829 113.923H64.5884C64.2916 113.923 64.051 113.682 64.051 113.385C64.051 113.098 64.2747 112.863 64.5568 112.847L64.5884 112.846H69.7829Z" fill="#2F4077"/>
<path fill-rule="evenodd" clip-rule="evenodd" d="M69.7829 115.521C70.0797 115.521 70.3203 115.762 70.3203 116.059C70.3203 116.346 70.0966 116.581 69.8145 116.597L69.7829 116.598H64.5884C64.2916 116.598 64.051 116.357 64.051 116.059C64.051 115.772 64.2747 115.538 64.5568 115.522L64.5884 115.521H69.7829Z" fill="#2F4077"/>
<rect x="48.2498" y="89.4177" width="52.0607" height="13.0043" transform="rotate(90 48.2498 89.4177)" fill="#465F9D"/>
<rect x="44.8962" y="93.8596" width="24.2351" height="6.98577" transform="rotate(90 44.8962 93.8596)" fill="white"/>
<rect x="44.8928" y="119.097" width="2.26194" height="6.98577" transform="rotate(90 44.8928 119.097)" fill="#E4794A"/>
<path fill-rule="evenodd" clip-rule="evenodd" d="M41.2667 129.541C39.6147 129.541 38.2754 130.884 38.2754 132.539C38.2754 134.195 39.6147 135.537 41.2667 135.537C42.9188 135.537 44.2581 134.195 44.2581 132.539C44.2581 130.884 42.9188 129.541 41.2667 129.541ZM41.2667 130.618C42.3252 130.618 43.1833 131.478 43.1833 132.539C43.1833 133.6 42.3252 134.46 41.2667 134.46C40.2082 134.46 39.3501 133.6 39.3501 132.539C39.3501 131.478 40.2082 130.618 41.2667 130.618Z" fill="white"/>
<path fill-rule="evenodd" clip-rule="evenodd" d="M44.0072 110.189C44.304 110.189 44.5446 110.43 44.5446 110.728C44.5446 111.014 44.3209 111.249 44.0388 111.265L44.0072 111.266H38.8306C38.5338 111.266 38.2932 111.025 38.2932 110.728C38.2932 110.441 38.5169 110.206 38.799 110.19L38.8306 110.189H44.0072Z" fill="#2F4077"/>
<path fill-rule="evenodd" clip-rule="evenodd" d="M44.0072 96.4019C44.304 96.4019 44.5446 96.643 44.5446 96.9404C44.5446 97.2272 44.3209 97.4617 44.0388 97.4781L44.0072 97.479H38.8306C38.5338 97.479 38.2932 97.2379 38.2932 96.9404C38.2932 96.6536 38.5169 96.4192 38.799 96.4028L38.8306 96.4019H44.0072Z" fill="#2F4077"/>
<path fill-rule="evenodd" clip-rule="evenodd" d="M44.0072 112.846C44.304 112.846 44.5446 113.087 44.5446 113.385C44.5446 113.671 44.3209 113.906 44.0388 113.922L44.0072 113.923H38.8306C38.5338 113.923 38.2932 113.682 38.2932 113.385C38.2932 113.098 38.5169 112.863 38.799 112.847L38.8306 112.846H44.0072Z" fill="#2F4077"/>
<path fill-rule="evenodd" clip-rule="evenodd" d="M44.0072 115.521C44.304 115.521 44.5446 115.762 44.5446 116.059C44.5446 116.346 44.3209 116.581 44.0388 116.597L44.0072 116.598H38.8306C38.5338 116.598 38.2932 116.357 38.2932 116.059C38.2932 115.772 38.5169 115.538 38.799 115.522L38.8306 115.521H44.0072Z" fill="#2F4077"/>
<path fill-rule="evenodd" clip-rule="evenodd" d="M62.6898 72.7054C62.6898 72.7054 63.0122 69.6536 60.7731 66.9249C58.5341 64.1962 58.5162 62.4728 57.2624 61.1803C56.0085 59.8698 54.0202 60.4801 55.8115 64.8963C57.6027 69.3125 58.3729 71.1257 58.3729 71.1257L62.6898 72.7054Z" fill="white"/>
<path fill-rule="evenodd" clip-rule="evenodd" d="M54.9747 60.5551C54.3257 61.3716 54.4346 62.9317 55.3137 65.0991L56.3893 67.7396C56.6572 68.394 56.9028 68.9912 57.1267 69.5329L57.6446 70.7799L57.8785 71.3366C57.9367 71.4736 58.049 71.5804 58.1886 71.6315L62.5054 73.2112C62.8338 73.3314 63.1873 73.1104 63.2241 72.7621L63.2308 72.6829C63.232 72.6659 63.2332 72.6469 63.2343 72.626C63.2636 72.1066 63.2309 71.4427 63.0895 70.6858C62.8799 69.5646 62.4662 68.4584 61.8 67.4227C61.6144 67.1342 61.4107 66.8539 61.1882 66.5828C60.559 65.816 60.0768 65.093 59.6598 64.3289C59.5163 64.0659 59.3845 63.8062 59.2377 63.501L58.7745 62.5225C58.4021 61.7547 58.0931 61.2639 57.6477 60.8048C56.8067 59.9258 55.6364 59.7228 54.9747 60.5551ZM56.8745 61.553C57.198 61.8865 57.4382 62.2529 57.7277 62.8305L57.8079 62.9934C57.8874 63.1573 58.1737 63.768 58.2118 63.8481C58.3896 64.2217 58.5447 64.5302 58.7169 64.8457C59.1653 65.6676 59.685 66.4465 60.3581 67.2669C60.5541 67.5058 60.7334 67.7525 60.8967 68.0063C61.4831 68.918 61.848 69.8937 62.0331 70.8841L62.051 70.9833C62.1085 71.3116 62.1425 71.6175 62.1584 71.8941L62.1606 71.9383L58.7767 70.7L58.2602 69.4605L57.5523 67.7425C57.2022 66.8889 56.8112 65.9304 56.378 64.8629L56.3093 64.6935C55.5626 62.8525 55.4786 61.6498 55.8153 61.2263C55.9847 61.0132 56.4013 61.079 56.8381 61.5157L56.8745 61.553Z" fill="#2F4077"/>
<path fill-rule="evenodd" clip-rule="evenodd" d="M52.4441 66.4763C52.6411 66.4763 64.8393 65.8479 66.2902 77.9655L52.4441 66.4763Z" fill="white"/>
<path fill-rule="evenodd" clip-rule="evenodd" d="M55.1214 66.1045C56.6799 66.3265 58.2195 66.7506 59.6639 67.4274C63.5915 69.268 66.1958 72.6563 66.8238 77.9013C66.8591 78.1966 66.6489 78.4647 66.3543 78.5002C66.0596 78.5356 65.7921 78.3249 65.7567 78.0296C65.1745 73.1668 62.8104 70.091 59.2086 68.4032C57.8683 67.7751 56.4298 67.3788 54.9702 67.1709C54.0495 67.0398 53.2731 67.0004 52.646 67.0102L52.4441 67.0148C52.1473 67.0148 51.9067 66.7736 51.9067 66.4762C51.9067 66.1894 52.1304 65.9549 52.4125 65.9386L52.5366 65.935C53.233 65.9189 54.0951 65.9583 55.1214 66.1045Z" fill="#2F4077"/>
<path fill-rule="evenodd" clip-rule="evenodd" d="M60.6838 90.6576C60.6838 90.6576 59.1791 81.7175 57.1909 78.6118C55.2026 75.5061 50.7783 75.7395 50.7783 75.7395C50.7783 75.7395 39.5294 65.7402 37.8994 63.9451C36.2694 62.1319 36.8963 60.4085 39.7981 62.4191C42.6999 64.4298 51.459 70.7847 51.459 70.7847C51.459 70.7847 66.0395 65.83 68.4218 79.8684L71.1087 88.1981L60.6838 90.6576Z" fill="white"/>
<path fill-rule="evenodd" clip-rule="evenodd" d="M36.7254 61.4171C36.1864 62.1104 36.5596 63.2592 37.5001 64.3054L37.5647 64.3755C38.2517 65.1119 40.1742 66.9072 43.0147 69.4881L43.8806 70.2736L44.7506 71.0602C45.8269 72.0319 46.9471 73.0382 48.0709 74.0441L50.4217 76.1423C50.5177 76.2276 50.6407 76.2754 50.7681 76.2778L50.8479 76.2757C51.1576 76.2671 51.582 76.2834 52.0783 76.3455C52.828 76.4392 53.5671 76.6192 54.2528 76.9039C55.3101 77.343 56.1591 77.9973 56.7385 78.9025C57.4078 79.9479 58.087 81.816 58.7381 84.2501C59.118 85.6701 59.4651 87.1939 59.772 88.7181L59.8653 89.1878C59.9052 89.3916 59.943 89.5887 59.9787 89.7783L60.0824 90.3411L60.1538 90.747C60.2054 91.0537 60.5048 91.2529 60.8068 91.1817L71.2317 88.7222L71.2629 88.7139C71.5494 88.6282 71.7132 88.3215 71.6199 88.0324L68.9446 79.7387L68.9515 79.778C67.9525 73.8907 64.8009 70.701 60.2165 69.717C57.8679 69.2128 55.3741 69.332 52.9841 69.8333C52.5749 69.9191 52.1994 70.0106 51.8628 70.1028L51.6544 70.1614L51.556 70.1902L49.8387 68.9467C49.0562 68.3807 48.2728 67.8147 47.5033 67.2596L44.7951 65.3101C42.6747 63.7875 41.0535 62.6341 40.1036 61.976L39.9702 61.8851C38.489 60.8923 37.3069 60.6689 36.7254 61.4171ZM37.9376 62.0813C38.3101 62.1597 38.8147 62.401 39.4194 62.8119L39.8126 63.0848C40.535 63.5895 41.5489 64.3092 42.802 65.2057L44.9381 66.7382L45.8956 67.4274C46.4344 67.8155 46.9836 68.2117 47.5378 68.6118L51.1438 71.2209C51.2848 71.3232 51.4666 71.3507 51.6315 71.2946L51.732 71.2624L51.8453 71.2278C51.8855 71.2157 51.9282 71.2032 51.9733 71.1903L52.0427 71.1705C52.3844 71.0743 52.7741 70.9778 53.2042 70.8876C55.4598 70.4144 57.8109 70.3021 59.9915 70.7702C64.1524 71.6633 66.9679 74.5129 67.892 79.9586L67.8999 79.9966C67.903 80.0092 67.9065 80.0216 67.9105 80.034L70.4179 87.8076L61.1134 90.0025L61.0348 89.5789C60.9716 89.2427 60.9017 88.8833 60.8255 88.505C60.5145 86.9604 60.1625 85.4154 59.7762 83.9712L59.7021 83.6969C59.0464 81.2949 58.362 79.4438 57.6431 78.3208C56.9359 77.2162 55.9121 76.427 54.6641 75.9088C53.8819 75.584 53.0508 75.3816 52.2114 75.2766L52.1084 75.2642C51.734 75.2209 51.3969 75.201 51.1102 75.1972L50.9774 75.1965L49.0931 73.5148L48.1751 72.6928C47.3605 71.9627 46.5517 71.2358 45.7643 70.5255L44.1231 69.0411C41.0114 66.2182 38.9119 64.2599 38.2968 63.5824C37.6661 62.8809 37.455 62.231 37.5732 62.079C37.5751 62.0765 37.5825 62.072 37.6133 62.0649C37.684 62.0485 37.7932 62.0509 37.9376 62.0813Z" fill="#2F4077"/>
<path fill-rule="evenodd" clip-rule="evenodd" d="M50.599 75.3084C50.599 75.3084 44.8313 62.4369 43.9536 60.0134C43.0759 57.5898 44.2581 56.3153 46.2285 59.5287C48.1988 62.7421 52.6589 70.1921 52.6589 70.1921" fill="white"/>
<path fill-rule="evenodd" clip-rule="evenodd" d="M43.7797 57.177C44.6143 56.7523 45.6159 57.5255 46.6423 59.1755L46.9534 59.6833C47.2983 60.2481 47.71 60.9259 48.1798 61.7023L49.4818 63.8586C50.096 64.8778 50.7426 65.9529 51.396 67.0409L53.1197 69.9151C53.2724 70.1702 53.1899 70.501 52.9354 70.654C52.6904 70.8014 52.3752 70.7301 52.2158 70.4969L52.1953 70.4645L50.6713 67.923C50.1479 67.0512 49.6273 66.1849 49.1224 65.3462L47.0727 61.9501C46.5577 61.0999 46.1194 60.3795 45.7706 59.8107C45.332 59.0953 44.9256 58.5985 44.5865 58.3316C44.47 58.2399 44.3718 58.1838 44.2981 58.1589L44.2745 58.1517L44.2667 58.1497L44.2585 58.168C44.2273 58.2379 44.2048 58.3467 44.1985 58.4873C44.1839 58.8183 44.2605 59.2575 44.4297 59.7476L44.4587 59.8297C44.7549 60.6476 45.6409 62.7397 46.9549 65.7494L47.7124 67.4783L48.3488 68.9232C48.7261 69.7778 49.1125 70.6504 49.5019 71.5271L51.0892 75.0879C51.2108 75.3592 51.0899 75.678 50.8192 75.7998C50.5485 75.9217 50.2304 75.8005 50.1088 75.5292L49.1215 73.3174L48.3229 71.521C47.899 70.5657 47.4799 69.6181 47.0737 68.6961L46.1133 66.5084C44.7089 63.2965 43.7663 61.0748 43.4485 60.1972C42.9422 58.7991 42.9964 57.5757 43.7797 57.177Z" fill="#2F4077"/>
<path fill-rule="evenodd" clip-rule="evenodd" d="M50.0438 74.2673C50.0438 74.2673 49.5781 63.2268 49.5781 61.0905C49.5781 57.5719 51.6918 56.5666 52.2291 61.3059C52.5874 64.4834 52.9994 70.3178 52.9994 70.3178" fill="white"/>
<path fill-rule="evenodd" clip-rule="evenodd" d="M50.6144 57.5701C51.7261 57.3858 52.4681 58.762 52.7535 61.1623L52.7631 61.2454C52.7946 61.5244 52.827 61.829 52.8604 62.1579L52.8893 62.4457C52.9575 63.134 53.0288 63.9116 53.1023 64.7624C53.1971 65.8598 53.2913 67.0281 53.3813 68.2029L53.4823 69.5475L53.5354 70.2798C53.5563 70.5765 53.3333 70.834 53.0373 70.855C52.7518 70.8753 52.5027 70.6682 52.4665 70.3873L52.4625 70.3435L52.3589 68.9331L52.2827 67.9343C52.2102 66.9986 52.1354 66.0713 52.0599 65.1855L51.9849 64.3213C51.9385 63.7978 51.8932 63.306 51.8491 62.8504L51.7913 62.2674C51.7582 61.9422 51.7262 61.6414 51.6952 61.3667C51.5747 60.3034 51.3685 59.5124 51.1135 59.0304C51.0148 58.8439 50.9177 58.7215 50.8358 58.6611L50.8114 58.644C50.7958 58.6337 50.7912 58.6326 50.7898 58.6328C50.7716 58.6359 50.731 58.6607 50.6734 58.7244C50.5852 58.822 50.4955 58.9744 50.4154 59.1741C50.226 59.6464 50.1155 60.3128 50.1155 61.0905L50.1167 61.3031C50.1249 62.105 50.174 63.7277 50.2548 65.9671L50.3198 67.7216L50.348 68.4592C50.3734 69.1212 50.3998 69.7943 50.4266 70.4688L50.5807 74.2445C50.5933 74.5417 50.3631 74.7927 50.0666 74.8053C49.7806 74.8174 49.5375 74.6033 49.5092 74.3216L49.5017 74.1653L49.4342 72.5308C49.3978 71.6402 49.3614 70.7347 49.3261 69.8375L49.2458 67.7624L49.1467 65.0452C49.0787 63.0844 49.0408 61.712 49.0408 61.0905C49.0408 59.1872 49.6234 57.7344 50.6144 57.5701Z" fill="#2F4077"/>
<path fill-rule="evenodd" clip-rule="evenodd" d="M215.965 72.7053C215.965 72.7053 215.642 69.6535 217.881 66.9248C220.12 64.1961 220.138 62.4727 221.392 61.1802C222.646 59.8876 224.634 60.4801 222.843 64.8962C221.052 69.3124 220.282 71.1256 220.282 71.1256L215.965 72.7053Z" fill="white"/>
<path fill-rule="evenodd" clip-rule="evenodd" d="M221.007 60.8047C220.579 61.2455 220.277 61.7154 219.924 62.4316L219.726 62.8458C219.618 63.0759 219.495 63.3374 219.473 63.3842C219.303 63.7413 219.156 64.0329 218.995 64.3288C218.578 65.0929 218.096 65.8159 217.466 66.5826C217.244 66.8538 217.04 67.1341 216.855 67.4226C216.188 68.4583 215.775 69.5645 215.565 70.6857C215.43 71.4065 215.394 72.043 215.416 72.5507L215.42 72.6259C215.424 72.6885 215.427 72.7343 215.43 72.762C215.467 73.1103 215.821 73.3313 216.149 73.2111L220.466 71.6314C220.606 71.5803 220.718 71.4735 220.776 71.3364L221.04 70.7082L221.576 69.4159C222.063 68.2381 222.649 66.8048 223.341 65.099C224.22 62.9311 224.329 61.375 223.679 60.5609C223.019 59.7339 221.852 59.9333 221.007 60.8047ZM222.84 61.2338C223.17 61.6477 223.094 62.8148 222.38 64.6062L221.689 66.3068C221.399 67.018 221.132 67.671 220.887 68.2676L220.356 69.5534L219.878 70.6998L216.494 71.9382L216.496 71.894C216.514 71.5897 216.553 71.25 216.621 70.884C216.807 69.8935 217.172 68.9178 217.758 68.0062C217.921 67.7523 218.1 67.5057 218.296 67.2668C218.97 66.4464 219.489 65.6674 219.938 64.8456C220.091 64.5651 220.23 64.2902 220.384 63.9702L220.837 63.0142L220.927 62.8304C221.216 62.2528 221.456 61.8866 221.777 61.5555C222.229 61.0906 222.666 61.0158 222.84 61.2338Z" fill="#2F4077"/>
<path fill-rule="evenodd" clip-rule="evenodd" d="M226.211 66.476C226.013 66.476 213.815 65.8477 212.364 77.9653L226.211 66.476Z" fill="white"/>
<path fill-rule="evenodd" clip-rule="evenodd" d="M223.533 66.1043C224.515 65.9644 225.346 65.9223 226.026 65.933L226.21 65.9374C226.507 65.9374 226.748 66.1785 226.748 66.476C226.748 66.7628 226.524 66.9972 226.242 67.0136L226.21 67.0145C226.197 67.0145 226.119 67.0122 226.093 67.0116C225.452 66.9967 224.647 67.0336 223.684 67.1707C222.225 67.3785 220.786 67.7748 219.446 68.4029C215.844 70.0908 213.48 73.1665 212.898 78.0294C212.863 78.3247 212.595 78.5354 212.3 78.4999C212.006 78.4645 211.795 78.1964 211.831 77.901C212.459 72.656 215.063 69.2678 218.991 67.4272C220.435 66.7503 221.975 66.3262 223.533 66.1043Z" fill="#2F4077"/>
<path fill-rule="evenodd" clip-rule="evenodd" d="M217.971 90.6573C217.971 90.6573 219.476 81.7172 221.464 78.6116C223.452 75.5059 227.876 75.7392 227.876 75.7392C227.876 75.7392 239.125 65.74 240.755 63.9448C242.385 62.1317 241.758 60.4083 238.857 62.4189C235.955 64.4295 227.196 70.7845 227.196 70.7845C227.196 70.7845 212.615 65.8298 210.233 79.8682L207.546 88.1979L217.971 90.6573Z" fill="white"/>
<path fill-rule="evenodd" clip-rule="evenodd" d="M238.551 61.976L237.863 62.4563C237.154 62.9549 236.232 63.6105 235.131 64.3987L233.09 65.8631L231.807 66.7867C231.155 67.2564 230.49 67.7364 229.821 68.2198L227.098 70.1902L226.953 70.1477L226.903 70.1336C226.538 70.031 226.125 69.9287 225.671 69.8333C223.281 69.332 220.787 69.2128 218.438 69.717L218.301 69.7471C213.836 70.7548 210.755 73.8854 209.734 79.6022L209.71 79.7387L207.035 88.0324C206.938 88.3318 207.117 88.6501 207.423 88.7222L217.848 91.1817C218.15 91.2529 218.449 91.0537 218.501 90.747L218.572 90.3411L218.65 89.919C218.719 89.5476 218.797 89.1451 218.883 88.7181C219.189 87.1939 219.537 85.6701 219.916 84.2501L219.988 83.9868C220.617 81.6812 221.271 79.9098 221.916 78.9025C222.496 77.9973 223.344 77.343 224.402 76.9039C225.087 76.6192 225.827 76.4392 226.576 76.3455C227.042 76.2873 227.444 76.2693 227.747 76.2744L227.848 76.2772C227.976 76.2839 228.102 76.2445 228.203 76.1667L228.245 76.1318L230.277 74.3184L231.196 73.4956C232.317 72.4907 233.427 71.4917 234.486 70.5338L236.013 69.1487C238.741 66.6661 240.557 64.9637 241.153 64.3074C242.095 63.2592 242.468 62.1104 241.929 61.4171C241.33 60.6465 240.095 60.9065 238.551 61.976ZM241.041 62.0649L241.065 62.0712C241.076 62.0748 241.08 62.0773 241.081 62.079C241.2 62.231 240.988 62.8809 240.356 63.5844L240.273 63.6745C239.598 64.3907 237.689 66.1724 234.911 68.6963L234.054 69.4743L233.185 70.26C232.207 71.1423 231.194 72.0534 230.174 72.9667L227.677 75.1965L227.621 75.1965C227.294 75.1976 226.894 75.2203 226.443 75.2766C225.604 75.3816 224.773 75.584 223.99 75.9088C222.743 76.427 221.719 77.2162 221.012 78.3208C220.265 79.4862 219.557 81.4357 218.878 83.9712C218.492 85.4154 218.14 86.9604 217.829 88.505L217.735 88.9806C217.674 89.2903 217.618 89.5848 217.567 89.8612L217.541 90.0025L208.237 87.8076L210.744 80.034C210.752 80.0093 210.758 79.9841 210.763 79.9586C211.687 74.5129 214.502 71.6633 218.663 70.7702C220.844 70.3021 223.195 70.4144 225.45 70.8876C225.837 70.9688 226.192 71.0551 226.508 71.1417L226.612 71.1705C226.683 71.1906 226.749 71.2097 226.809 71.2278L226.986 71.2826C227.003 71.288 227.015 71.292 227.023 71.2947C227.176 71.3467 227.344 71.3267 227.48 71.2416L227.699 71.0843L230.115 69.3354C231.008 68.6899 231.897 68.0484 232.759 67.4274L235.853 65.2057C237.304 64.1677 238.434 63.3667 239.162 62.862C239.799 62.4205 240.33 62.1628 240.717 62.0813C240.861 62.0509 240.971 62.0485 241.041 62.0649Z" fill="#2F4077"/>
<path fill-rule="evenodd" clip-rule="evenodd" d="M228.056 75.3084C228.056 75.3084 233.823 62.4369 234.701 60.0134C235.561 57.5898 234.396 56.3153 232.426 59.5287C230.456 62.7421 225.996 70.1921 225.996 70.1921" fill="white"/>
<path fill-rule="evenodd" clip-rule="evenodd" d="M231.968 59.2467C233.011 57.546 234.024 56.7454 234.869 57.1775C235.635 57.569 235.702 58.7552 235.23 60.1294L235.206 60.1971C234.87 61.1263 233.833 63.5624 232.289 67.0853L231.926 67.9124L231.406 69.0926C230.879 70.287 230.333 71.5195 229.785 72.7518L228.546 75.529C228.424 75.8004 228.106 75.9215 227.835 75.7997C227.565 75.6778 227.444 75.3591 227.565 75.0878L228.552 72.8783L229.531 70.6748C229.892 69.8589 230.25 69.0505 230.598 68.261L231.693 65.7642C233.011 62.7465 233.899 60.6493 234.195 59.8329C234.381 59.3088 234.465 58.8382 234.448 58.4883C234.443 58.3627 234.424 58.2624 234.398 58.1923L234.38 58.1501L234.376 58.1515C234.309 58.1693 234.216 58.218 234.104 58.3017L234.066 58.3309C233.741 58.5878 233.353 59.0582 232.933 59.732L232.884 59.8106C232.577 60.3112 232.201 60.9291 231.764 61.6495L230.093 64.4154L228.57 66.9456L226.456 70.4692C226.304 70.7242 225.974 70.8069 225.719 70.6539C225.474 70.5065 225.388 70.1943 225.519 69.9436L225.54 69.9059L226.669 68.0223L228.038 65.7441L230.009 62.4727C230.814 61.1402 231.479 60.0452 231.968 59.2467Z" fill="#2F4077"/>
<path fill-rule="evenodd" clip-rule="evenodd" d="M228.611 74.2673C228.611 74.2673 229.076 63.2268 229.076 61.0905C229.076 57.5719 226.963 56.5666 226.425 61.3059C226.067 64.4834 225.655 70.3178 225.655 70.3178" fill="white"/>
<path fill-rule="evenodd" clip-rule="evenodd" d="M225.892 61.2451L225.911 61.0796C226.204 58.7306 226.941 57.388 228.04 57.5701C229.017 57.7321 229.597 59.1466 229.614 61.0103L229.614 61.1929C229.609 62.0122 229.553 63.852 229.458 66.4504L229.39 68.2521L229.329 69.8375C229.302 70.5104 229.275 71.188 229.248 71.8604L229.148 74.29C229.135 74.5872 228.885 74.8179 228.588 74.8053C228.302 74.7932 228.078 74.5593 228.074 74.2761L228.079 74.1201L228.147 72.4867L228.228 70.4688L228.316 68.2108L228.428 65.1667C228.497 63.2031 228.536 61.8093 228.539 61.156L228.539 61.0905C228.539 60.3128 228.429 59.6464 228.239 59.1741C228.159 58.9744 228.069 58.822 227.981 58.7244C227.924 58.6607 227.883 58.6359 227.865 58.6328L227.861 58.6337C227.856 58.6358 227.844 58.6423 227.819 58.6611C227.737 58.7215 227.64 58.8439 227.541 59.0304C227.294 59.4968 227.093 60.2527 226.971 61.2644L226.96 61.3664C226.929 61.6413 226.896 61.9422 226.863 62.2674L226.806 62.8504C226.747 63.4579 226.686 64.1296 226.623 64.8553C226.538 65.8396 226.454 66.8816 226.372 67.9343L226.264 69.3576L226.191 70.3558C226.17 70.6525 225.913 70.876 225.617 70.855C225.321 70.834 225.098 70.5765 225.119 70.2798L225.213 68.9967L225.246 68.5554C225.336 67.3801 225.429 66.2046 225.524 65.0937L225.615 64.0514C225.661 63.5322 225.707 63.0451 225.751 62.5945L225.794 62.1579C225.828 61.829 225.86 61.5243 225.892 61.2451Z" fill="#2F4077"/>
<path fill-rule="evenodd" clip-rule="evenodd" d="M221.32 85.8641C221.553 83.1174 221.195 82.0224 221.195 82.0224C214.89 82.6866 209.839 76.6547 209.839 76.6547C209.839 76.6547 209.23 77.3369 207.546 79.527C205.844 81.7172 202.638 79.2398 200.721 82.3814C199.181 84.9306 193.736 98.2509 191.694 103.26C185.514 84.8408 177.561 75.4878 164.592 73.1361C162.909 62.8676 155.6 49.8345 126.547 52.1144C108.491 55.3816 102.974 64.6449 104.228 74.4287H104.139C104.139 74.4287 92.442 74.2671 85.9041 93.7629C83.9874 89.239 82.035 84.8049 81.2111 83.4226C79.3124 80.281 72.8102 81.6813 71.1086 79.5091C69.4069 77.3189 68.8158 76.6368 68.8158 76.6368C68.8158 76.6368 63.7646 82.6686 57.4595 82.0044C57.4595 82.0044 57.1012 83.0995 57.3341 85.8461C57.5669 88.5928 54.2353 88.9159 54.9876 92.5063C55.722 96.0967 67.4724 128.32 67.4724 128.32C68.5829 131.318 70.0338 140.689 76.1061 141.012C76.1598 141.12 76.2315 141.174 76.321 141.174C85.9399 141.138 203.534 141.246 203.534 141.246C203.534 141.246 203.551 141.12 203.551 140.869C208.782 139.63 210.143 131.139 211.2 128.303C211.2 128.303 222.933 96.0967 223.685 92.4883C224.419 88.9159 221.088 88.6107 221.32 85.8641Z" fill="#E4794A"/>
<path fill-rule="evenodd" clip-rule="evenodd" d="M221.374 85.4153C221.822 82.543 221.267 81.4659 221.267 81.4659C215.517 82.7225 210.197 76.1521 210.197 76.1521C210.197 76.1521 209.48 76.7804 207.761 79.2039C207.062 80.1733 206.364 80.281 205.647 80.4785C208.03 88.2697 219.243 89.3468 223.147 89.4545C222.843 87.767 221.034 87.6054 221.374 85.4153Z" fill="#2F4077"/>
<path fill-rule="evenodd" clip-rule="evenodd" d="M57.2623 85.4333C56.8145 82.5609 57.3877 81.4659 57.3877 81.4659C63.1375 82.7225 68.4574 76.1521 68.4574 76.1521C68.4574 76.1521 69.3172 76.2419 71.0547 78.6654C71.7533 79.6348 72.9355 80.4606 73.652 80.658C71.2696 88.4492 59.3043 89.5084 55.3994 89.5981C55.686 87.9286 57.6026 87.6234 57.2623 85.4333Z" fill="#2F4077"/>
<path fill-rule="evenodd" clip-rule="evenodd" d="M104.174 73.8362C100.682 74.5543 97.0454 76.4033 93.8391 79.9578C96.8305 84.2842 107.255 99.0228 126.475 102.146C126.475 102.057 126.439 101.913 126.386 101.751C115.728 97.3712 105.303 85.1818 104.174 73.8362Z" fill="#2F4077"/>
<path fill-rule="evenodd" clip-rule="evenodd" d="M164.592 73.0645C165.255 77.0498 165.076 80.6402 164.987 82.7585C164.682 89.7418 161.565 94.6248 159.595 98.1074L159.452 101.68C167.584 99.759 173.961 84.6794 175.053 77.2652C172.169 75.6675 171.65 74.5006 164.592 73.0645Z" fill="#2F4077"/>
<path fill-rule="evenodd" clip-rule="evenodd" d="M124.755 97.1989C125.086 97.0065 125.508 97.1099 125.714 97.4278L125.76 97.5056L125.905 97.7604C125.967 97.8704 126.035 97.9923 126.109 98.1257L126.371 98.6001C126.573 98.9693 126.788 99.3679 127.014 99.7932L127.09 99.9359C128.104 101.852 129.117 103.897 130.064 105.989C130.976 108.005 131.778 109.96 132.439 111.819C133.481 114.745 134.144 117.341 134.354 119.527C134.391 119.922 134.103 120.273 133.709 120.311C133.315 120.349 132.965 120.059 132.927 119.665C132.731 117.614 132.095 115.126 131.09 112.302C130.442 110.483 129.655 108.564 128.759 106.582C127.883 104.648 126.949 102.752 126.011 100.965L125.824 100.609C125.474 99.947 125.149 99.3488 124.857 98.8248L124.657 98.4673L124.494 98.1802C124.296 97.837 124.413 97.3977 124.755 97.1989Z" fill="#2F4077"/>
<path fill-rule="evenodd" clip-rule="evenodd" d="M158.585 96.302C158.954 96.4038 159.176 96.7779 159.095 97.1488L158.965 97.6402L158.855 98.07C158.798 98.2958 158.738 98.5379 158.675 98.7952L158.643 98.9251C158.31 100.301 157.976 101.804 157.665 103.387C157.128 106.118 156.715 108.79 156.475 111.291C156.21 114.054 156.168 116.498 156.385 118.532C156.427 118.927 156.142 119.281 155.748 119.323C155.355 119.365 155.002 119.079 154.96 118.685C154.732 116.542 154.775 114.005 155.049 111.153C155.293 108.601 155.714 105.883 156.259 103.109C156.556 101.599 156.873 100.161 157.191 98.8336L157.251 98.5861C157.337 98.2307 157.419 97.9021 157.495 97.6028L157.595 97.2131L157.704 96.8041C157.809 96.4217 158.203 96.1969 158.585 96.302Z" fill="#2F4077"/>
<path fill-rule="evenodd" clip-rule="evenodd" d="M85.2908 93.7298C85.5659 93.6511 85.8523 93.8022 85.9455 94.0696L85.9551 94.0997C85.9703 94.153 87.3527 97.1215 89.3103 101.303L91.3286 105.611L94.5582 112.491C94.6847 112.76 94.5695 113.081 94.301 113.207C94.0325 113.334 93.7124 113.219 93.5859 112.95L90.356 106.069L87.0479 99.0053C85.6436 96.0001 84.9531 94.5058 84.9217 94.3956C84.8402 94.1096 85.0054 93.8116 85.2908 93.7298Z" fill="#2F4077"/>
<path fill-rule="evenodd" clip-rule="evenodd" d="M191.675 103.404C191.823 103.146 192.151 103.057 192.409 103.205C192.657 103.348 192.748 103.658 192.623 103.911L192.608 103.94L186.75 114.173C186.603 114.431 186.274 114.52 186.017 114.372C185.769 114.23 185.677 113.919 185.803 113.666L185.818 113.637L191.675 103.404Z" fill="#2F4077"/>
<path fill-rule="evenodd" clip-rule="evenodd" d="M110.775 126.508C111.071 126.523 111.3 126.775 111.285 127.072L111.275 127.242L111.257 127.492C111.251 127.56 111.246 127.631 111.239 127.706C111.196 128.202 111.136 128.754 111.056 129.349C110.826 131.049 110.479 132.751 109.989 134.343C109.335 136.467 108.476 138.237 107.373 139.535C106.029 141.117 104.361 141.944 102.377 141.856C102.081 141.842 101.851 141.591 101.864 141.294C101.878 140.997 102.129 140.766 102.425 140.78C105.481 140.916 107.614 138.406 108.961 134.026C109.432 132.496 109.768 130.85 109.991 129.204C110.062 128.68 110.116 128.19 110.157 127.745L110.168 127.613C110.176 127.53 110.182 127.451 110.188 127.377L110.211 127.032C110.211 127.027 110.211 127.023 110.212 127.019C110.226 126.733 110.46 126.51 110.743 126.507L110.775 126.508Z" fill="#2F4077"/>
<path fill-rule="evenodd" clip-rule="evenodd" d="M154.078 141.282C152.484 128.949 150.8 110.692 153.397 102.972C157.499 90.8188 155.905 75.5417 153.129 73.3336C150.352 71.1255 119.776 71.5384 119.776 71.5384L114.277 73.4413C114.277 73.4413 135.216 92.9371 141.414 128.5C142.381 134.083 143.044 138.463 143.474 141.892" fill="white"/>
<path fill-rule="evenodd" clip-rule="evenodd" d="M124.541 61.2161L124.093 68.9893L119.525 72.1488C119.525 72.1488 131.491 80.4606 142.184 92.8474C142.184 92.8474 148.758 88.1979 150.281 73.4593L146.842 72.9207L130.362 63.1369L124.541 61.2161Z" fill="white"/>
<path fill-rule="evenodd" clip-rule="evenodd" d="M124.004 61.1851L123.572 68.6955L119.22 71.7057C118.921 71.9128 118.911 72.3487 119.191 72.5707L119.549 72.8251L119.819 73.0199C120.135 73.2485 120.491 73.5105 120.884 73.8049L121.207 74.047C122.453 74.9867 123.826 76.0636 125.296 77.2682C129.861 81.0097 134.427 85.2074 138.687 89.7622C139.749 90.8977 140.78 92.0439 141.778 93.1999C141.959 93.4093 142.268 93.4472 142.494 93.2875L142.535 93.2576C142.618 93.1959 142.741 93.0972 142.899 92.959C143.202 92.6942 143.536 92.3666 143.895 91.9723C144.911 90.8565 145.922 89.428 146.863 87.6566C148.822 83.9695 150.218 79.2915 150.815 73.5148L150.818 73.4833C150.83 73.2109 150.636 72.9699 150.364 72.9273L147.027 72.4045L130.636 62.6736C130.603 62.6538 130.567 62.6376 130.53 62.6255L124.709 60.7046C124.374 60.594 124.025 60.8319 124.004 61.1851ZM125.037 61.9468L130.138 63.63L146.568 73.3842L146.604 73.4037C146.652 73.4279 146.705 73.4445 146.759 73.4529L149.691 73.9121L149.676 74.0499C149.058 79.3922 147.734 83.7249 145.914 87.1504C145.016 88.8415 144.057 90.1965 143.101 91.2466L143.025 91.3294C142.776 91.5988 142.542 91.831 142.327 92.0275L142.247 92.0991L142.591 92.4951C141.583 91.3281 140.542 90.1713 139.471 89.0256C135.176 84.4334 130.576 80.2042 125.976 76.4344L125.592 76.1205C124.127 74.9288 122.763 73.8661 121.527 72.9418L121.184 72.6863C120.992 72.5439 120.81 72.41 120.639 72.2849L120.461 72.1559L124.398 69.4326C124.535 69.3383 124.62 69.1862 124.629 69.0204L125.037 61.9468Z" fill="#2F4077"/>
<path fill-rule="evenodd" clip-rule="evenodd" d="M119.364 47.016C119.364 47.016 112.307 47.9855 114.313 54.2866C116.319 60.5877 123.717 55.9382 123.717 55.9382L121.621 46.8904L119.364 47.016Z" fill="white"/>
<path fill-rule="evenodd" clip-rule="evenodd" d="M121.591 46.3526L119.334 46.4783C119.32 46.4791 119.306 46.4805 119.291 46.4825L119.219 46.4932C119.024 46.524 118.734 46.584 118.378 46.6815C117.706 46.8651 117.034 47.1219 116.402 47.4663C113.895 48.8334 112.747 51.1404 113.801 54.4503C114.634 57.0667 116.422 58.2122 118.787 58.1242C119.915 58.0821 121.104 57.7635 122.293 57.2603C122.687 57.0934 123.057 56.9161 123.396 56.7373L123.522 56.6702C123.747 56.5482 123.911 56.452 124.002 56.3944C124.197 56.2723 124.292 56.0402 124.24 55.8164L122.145 46.7686C122.086 46.5136 121.852 46.3381 121.591 46.3526ZM121.2 47.4532L123.103 55.6718L123.011 55.7224C122.668 55.9082 122.285 56.0944 121.875 56.2681C120.796 56.7247 119.727 57.0113 118.747 57.0478C116.846 57.1186 115.505 56.2593 114.825 54.1229C113.94 51.3434 114.833 49.5481 116.916 48.4125C117.468 48.1115 118.064 47.8837 118.66 47.7207C118.839 47.6718 119.007 47.6319 119.16 47.6003L119.267 47.5789L119.389 47.5571L119.417 47.5524L121.2 47.4532Z" fill="#2F4077"/>
<path fill-rule="evenodd" clip-rule="evenodd" d="M136.166 21.8474C138.011 21.4704 150.693 19.1367 153.326 29.836C155.959 40.5354 155.815 52.6889 155.26 58.3078C154.705 63.9268 129.95 64.2679 128.517 63.9448C127.084 63.6216 125.239 62.1675 125.239 62.1675L119.991 45.8851C119.991 45.8851 116.319 25.9046 136.166 21.8474Z" fill="white"/>
<path fill-rule="evenodd" clip-rule="evenodd" d="M139.218 20.8949C137.995 20.9808 136.964 21.1349 136.059 21.3199C131.306 22.2913 127.613 24.2099 124.886 26.9336C122.575 29.2426 121.022 32.0612 120.119 35.2404C119.42 37.7031 119.147 40.239 119.19 42.7094C119.204 43.5164 119.252 44.2631 119.323 44.9355L119.338 45.0784C119.362 45.2966 119.388 45.4932 119.413 45.6668L119.439 45.8446C119.449 45.9066 119.457 45.9529 119.463 45.9828C119.467 46.0058 119.473 46.0285 119.48 46.0508L124.728 62.3332C124.761 62.4351 124.823 62.5248 124.907 62.591L125.019 62.677L125.13 62.7592C125.187 62.8018 125.249 62.8469 125.315 62.8939C125.628 63.1173 125.965 63.3406 126.313 63.5498C126.718 63.7935 127.114 64.0022 127.493 64.1654C127.812 64.3029 128.115 64.4061 128.399 64.4703C129.563 64.7326 136.866 64.5181 142.28 63.8897L142.671 63.8434C146.107 63.4282 149.025 62.8561 151.22 62.1151L151.414 62.0488C154.092 61.1149 155.64 59.9264 155.795 58.3611C156.12 55.0716 156.229 50.5584 156.026 45.9535C155.772 40.2081 155.064 34.6491 153.848 29.7072C152.629 24.7548 149.279 22.0552 144.55 21.1591C142.838 20.8346 141.036 20.7672 139.218 20.8949ZM144.35 22.2174C148.695 23.0407 151.695 25.4588 152.804 29.9652C154.002 34.8317 154.701 40.322 154.952 46.001C155.153 50.5558 155.045 55.0177 154.726 58.2549C154.523 60.3038 149.829 61.9078 142.383 62.7932L142.156 62.8198C136.861 63.4344 129.642 63.6465 128.635 63.4195C128.421 63.3711 128.18 63.2888 127.917 63.1759C127.587 63.0335 127.233 62.8466 126.865 62.6259C126.543 62.4325 126.23 62.2245 125.939 62.0166L125.822 61.9321L125.699 61.8411L120.514 45.7556L120.491 45.6135L120.486 45.58C120.46 45.4024 120.432 45.1947 120.406 44.9591C120.331 44.2824 120.279 43.5202 120.265 42.6904C120.223 40.3194 120.485 37.8871 121.153 35.5353C122.008 32.5244 123.471 29.8677 125.645 27.6965C128.219 25.1255 131.722 23.3056 136.273 22.3753C137.136 22.199 138.122 22.0516 139.293 21.9694C141.025 21.8477 142.737 21.9118 144.35 22.2174Z" fill="#2F4077"/>
<path fill-rule="evenodd" clip-rule="evenodd" d="M122.302 45.4722C123.627 46.5313 127.568 53.0479 128.714 56.1715C128.714 56.1715 136.255 52.5452 147.468 51.0373C147.468 51.0373 153.612 50.4449 156.138 50.8937C156.138 50.8937 156.908 62.347 152.609 68.8277C148.31 75.3083 137.617 74.9134 132.297 71.9513C126.959 68.9892 125.956 67.3915 124.38 63.7293C122.803 60.0671 118.182 46.28 118.182 46.28L122.302 45.4722Z" fill="#869ECE"/>
<path fill-rule="evenodd" clip-rule="evenodd" d="M119.364 48.2907C119.364 48.2907 115.459 43.4257 113.561 38.1299C111.787 33.1393 113.507 27.5024 117.913 24.6659C121.585 22.2963 124.648 23.4632 124.648 23.4632C124.648 23.4632 119.704 16.7671 125.204 9.71196C127.138 7.21664 130.022 5.63687 133.121 5.36759C140.716 4.70337 143.796 10.9686 143.796 10.9686C143.796 10.9686 150.209 -5.15226 167.835 1.88491C169.608 2.60299 171.793 4.90084 172.886 6.49856C179.531 16.1747 162.801 30.4824 153.487 32.5469C143.259 34.8088 137.008 33.7676 133.389 31.5774C136.04 32.8341 135.019 48.919 119.364 48.2907Z" fill="#2F4077"/>
<path fill-rule="evenodd" clip-rule="evenodd" d="M146.054 43.2105C146.428 43.1246 146.8 43.3485 146.904 43.714L146.913 43.7498L149.152 53.5337C149.238 53.908 149.014 54.2812 148.65 54.3848L148.614 54.394L145.73 55.0583C145.344 55.1471 144.96 54.9058 144.871 54.5192C144.786 54.1448 145.009 53.7715 145.373 53.6678L145.409 53.6586L147.595 53.1551L145.516 44.0709C145.43 43.6964 145.654 43.3232 146.019 43.2196L146.054 43.2105Z" fill="#2F4077"/>
<path fill-rule="evenodd" clip-rule="evenodd" d="M150.043 47.8469C150.594 47.7852 150.962 47.0323 150.865 46.1652C150.768 45.2981 150.244 44.6452 149.693 44.7069C149.143 44.7686 148.775 45.5215 148.871 46.3886C148.968 47.2557 149.493 47.9086 150.043 47.8469Z" fill="#2F4077"/>
<path fill-rule="evenodd" clip-rule="evenodd" d="M140.495 48.4753C141.046 48.4136 141.414 47.6607 141.317 46.7936C141.22 45.9265 140.696 45.2736 140.145 45.3353C139.595 45.397 139.227 46.1499 139.323 47.017C139.42 47.8841 139.945 48.537 140.495 48.4753Z" fill="#2F4077"/>
<path fill-rule="evenodd" clip-rule="evenodd" d="M140.791 40.6613C141.187 40.6534 141.514 40.9685 141.521 41.365C141.552 42.9216 140.581 43.9666 139.052 44.5687C138.561 44.762 138.043 44.8972 137.526 44.9863L137.405 45.0063C137.151 45.0467 136.949 45.0679 136.819 45.076C136.424 45.1003 136.084 44.7991 136.06 44.4032C136.036 44.0194 136.318 43.6875 136.695 43.6456L136.792 43.6375C136.814 43.6354 136.84 43.6328 136.871 43.6295C136.994 43.616 137.133 43.5968 137.283 43.5709C137.711 43.4973 138.137 43.386 138.528 43.232C139.537 42.8347 140.082 42.2622 140.089 41.4458L140.089 41.3934C140.081 40.9969 140.395 40.6691 140.791 40.6613Z" fill="#2F4077"/>
<path fill-rule="evenodd" clip-rule="evenodd" d="M148.787 36.6245C149.401 36.473 150.04 36.4237 150.661 36.5438C151.631 36.7315 152.405 37.3161 152.838 38.3324C152.994 38.6971 152.825 39.119 152.461 39.2749C152.097 39.4308 151.676 39.2615 151.52 38.8968C151.281 38.3363 150.908 38.0543 150.389 37.9539C150.001 37.8789 149.56 37.913 149.129 38.0191C149.054 38.0375 148.985 38.0569 148.923 38.0762L148.859 38.097L148.805 38.116C148.437 38.2611 148.021 38.0796 147.876 37.7106C147.731 37.3415 147.913 36.9246 148.281 36.7795C148.389 36.737 148.562 36.68 148.787 36.6245Z" fill="#2F4077"/>
<path fill-rule="evenodd" clip-rule="evenodd" d="M145.214 58.1928C143.863 58.4634 142.422 58.5374 140.991 58.4702C139.749 58.4203 138.681 59.2976 139.175 60.3198C139.909 61.8767 141.46 62.7556 143.93 62.4693C146.379 62.1816 147.508 61.0685 147.505 59.5355L147.504 59.4825C147.504 58.5495 146.343 57.9911 145.264 58.1832L145.214 58.1928ZM146.218 59.3322C146.307 59.3741 146.373 59.4225 146.41 59.4668L146.429 59.4928C146.448 60.4766 145.76 61.1697 143.805 61.3994C141.826 61.6288 140.718 61.02 140.168 59.9046L140.144 59.8551C140.13 59.8257 140.136 59.8072 140.217 59.741C140.369 59.6154 140.64 59.534 140.945 59.5463C142.453 59.6171 143.978 59.5388 145.424 59.249C145.7 59.1937 145.997 59.2287 146.218 59.3322Z" fill="#2F4077"/>
<rect width="55.0628" height="13.0333" transform="matrix(-0.999989 0.00476093 -0.00473987 -0.999989 205.875 140.882)" fill="#2F4077"/>
<rect width="24.1818" height="7.00134" transform="matrix(-0.999989 0.00476094 -0.00473988 -0.999989 205.024 137.567)" fill="white"/>
<rect width="2.25697" height="7.00134" transform="matrix(-0.999989 0.00476093 -0.00473989 -0.999989 179.828 137.683)" fill="#E4794A"/>
<path fill-rule="evenodd" clip-rule="evenodd" d="M163.07 131.462C161.418 131.462 160.079 132.804 160.079 134.46C160.079 136.116 161.418 137.458 163.07 137.458C164.722 137.458 166.061 136.116 166.061 134.46C166.061 132.804 164.722 131.462 163.07 131.462ZM163.07 132.539C164.128 132.539 164.987 133.399 164.987 134.46C164.987 135.521 164.128 136.381 163.07 136.381C162.011 136.381 161.153 135.521 161.153 134.46C161.153 133.399 162.011 132.539 163.07 132.539Z" fill="white"/>
<path fill-rule="evenodd" clip-rule="evenodd" d="M199.231 131.049C199.517 131.047 199.753 131.27 199.771 131.553L199.772 131.584L199.808 136.79C199.81 137.088 199.571 137.33 199.274 137.332C198.988 137.334 198.753 137.112 198.734 136.829L198.733 136.798L198.697 131.592C198.695 131.294 198.934 131.051 199.231 131.049Z" fill="#E4794A"/>
<path fill-rule="evenodd" clip-rule="evenodd" d="M196.582 131.067C196.868 131.066 197.103 131.29 197.12 131.572L197.121 131.604L197.139 136.792C197.14 137.089 196.9 137.331 196.604 137.332C196.317 137.333 196.083 137.11 196.065 136.827L196.064 136.796L196.046 131.608C196.045 131.31 196.285 131.068 196.582 131.067Z" fill="#E4794A"/>
<path fill-rule="evenodd" clip-rule="evenodd" d="M193.913 131.085C194.199 131.084 194.434 131.308 194.451 131.59L194.452 131.622L194.47 136.81C194.471 137.107 194.231 137.349 193.935 137.35C193.648 137.351 193.414 137.128 193.396 136.845L193.395 136.814L193.377 131.626C193.376 131.328 193.616 131.086 193.913 131.085Z" fill="#E4794A"/>
<rect x="212.248" y="128.622" width="51.9454" height="13.6973" transform="rotate(-180 212.248 128.622)" fill="#2F4077"/>
<rect x="207.82" y="124.591" width="24.1815" height="7.00127" transform="rotate(-180 207.82 124.591)" fill="white"/>
<rect x="182.625" y="124.591" width="2.25694" height="7.00127" transform="rotate(-180 182.625 124.591)" fill="#E4794A"/>
<path fill-rule="evenodd" clip-rule="evenodd" d="M169.232 117.962C167.58 117.962 166.24 119.304 166.24 120.96C166.24 122.616 167.58 123.958 169.232 123.958C170.884 123.958 172.223 122.616 172.223 120.96C172.223 119.304 170.884 117.962 169.232 117.962ZM169.232 119.039C170.29 119.039 171.148 119.899 171.148 120.96C171.148 122.021 170.29 122.881 169.232 122.881C168.173 122.881 167.315 122.021 167.315 120.96C167.315 119.899 168.173 119.039 169.232 119.039Z" fill="white"/>
<path fill-rule="evenodd" clip-rule="evenodd" d="M190.995 117.98C191.281 117.98 191.515 118.204 191.532 118.487L191.533 118.519V123.707C191.533 124.004 191.292 124.245 190.995 124.245C190.709 124.245 190.475 124.021 190.459 123.739L190.458 123.707V118.519C190.458 118.221 190.698 117.98 190.995 117.98Z" fill="#E4794A"/>
<path fill-rule="evenodd" clip-rule="evenodd" d="M204.734 117.98C205.02 117.98 205.254 118.204 205.27 118.487L205.271 118.519V123.707C205.271 124.004 205.03 124.245 204.734 124.245C204.447 124.245 204.214 124.021 204.197 123.739L204.196 123.707V118.519C204.196 118.221 204.437 117.98 204.734 117.98Z" fill="#E4794A"/>
<path fill-rule="evenodd" clip-rule="evenodd" d="M188.326 117.98C188.612 117.98 188.846 118.204 188.863 118.487L188.864 118.519V123.707C188.864 124.004 188.623 124.245 188.326 124.245C188.04 124.245 187.806 124.021 187.79 123.739L187.789 123.707V118.519C187.789 118.221 188.029 117.98 188.326 117.98Z" fill="#E4794A"/>
<path fill-rule="evenodd" clip-rule="evenodd" d="M185.675 117.98C185.961 117.98 186.195 118.204 186.212 118.487L186.212 118.519V123.707C186.212 124.004 185.972 124.245 185.675 124.245C185.389 124.245 185.155 124.021 185.139 123.739L185.138 123.707V118.519C185.138 118.221 185.378 117.98 185.675 117.98Z" fill="#E4794A"/>
<rect x="202.423" y="95.9353" width="64.3228" height="45.4723" fill="#465F9D"/>
<path fill-rule="evenodd" clip-rule="evenodd" d="M239.053 95.5044V141.677H237.979V95.5044H239.053Z" fill="white"/>
<path fill-rule="evenodd" clip-rule="evenodd" d="M258.972 100.423C259.269 100.423 259.509 100.664 259.509 100.962C259.509 101.249 259.286 101.483 259.003 101.5L258.972 101.5H229.865C229.568 101.5 229.327 101.259 229.327 100.962C229.327 100.675 229.551 100.441 229.833 100.424L229.865 100.423H258.972Z" fill="white"/>
<path fill-rule="evenodd" clip-rule="evenodd" d="M266.173 116.76C266.469 116.76 266.71 117.001 266.71 117.298C266.71 117.585 266.486 117.819 266.204 117.836L266.173 117.837H247.472C247.175 117.837 246.935 117.596 246.935 117.298C246.935 117.011 247.159 116.777 247.441 116.76L247.472 116.76H266.173Z" fill="white"/>
<path fill-rule="evenodd" clip-rule="evenodd" d="M263.414 132.001C263.711 132.001 263.951 132.242 263.951 132.539C263.951 132.826 263.728 133.061 263.446 133.077L263.414 133.078H226.945C226.648 133.078 226.407 132.837 226.407 132.539C226.407 132.252 226.631 132.018 226.913 132.002L226.945 132.001H263.414Z" fill="white"/>
<path fill-rule="evenodd" clip-rule="evenodd" d="M232.05 112.684C232.347 112.684 232.587 112.925 232.587 113.223C232.587 113.51 232.363 113.744 232.081 113.761L232.05 113.761H213.206C212.909 113.761 212.669 113.52 212.669 113.223C212.669 112.936 212.892 112.702 213.174 112.685L213.206 112.684H232.05Z" fill="white"/>
<path fill-rule="evenodd" clip-rule="evenodd" d="M213.923 105.54C214.219 105.54 214.46 105.781 214.46 106.078C214.46 106.365 214.236 106.599 213.954 106.616L213.923 106.617H202.495C202.198 106.617 201.957 106.376 201.957 106.078C201.957 105.791 202.181 105.557 202.463 105.54L202.495 105.54H213.923Z" fill="white"/>
<path fill-rule="evenodd" clip-rule="evenodd" d="M224.777 126.543C225.074 126.543 225.315 126.785 225.315 127.082C225.315 127.369 225.091 127.603 224.809 127.62L224.777 127.621H202.423C202.126 127.621 201.886 127.379 201.886 127.082C201.886 126.795 202.109 126.561 202.391 126.544L202.423 126.543H224.777Z" fill="white"/>
<path fill-rule="evenodd" clip-rule="evenodd" d="M202.333 106.15C197.533 108.053 202.477 111.212 202.477 111.212C202.477 111.212 203.713 107.622 210.054 106.15C209.23 106.15 202.333 106.15 202.333 106.15Z" fill="#465F9D"/>
<path fill-rule="evenodd" clip-rule="evenodd" d="M210.054 105.611H202.333C202.266 105.611 202.199 105.624 202.136 105.649C200.713 106.213 199.917 106.957 199.737 107.874C199.546 108.845 200.056 109.788 200.981 110.692C201.244 110.95 201.524 111.185 201.804 111.396L201.886 111.456C202.016 111.552 202.12 111.623 202.188 111.666C202.472 111.848 202.847 111.725 202.973 111.418L202.993 111.367C203.005 111.335 203.029 111.28 203.066 111.206C203.15 111.035 203.262 110.841 203.407 110.63C203.829 110.013 204.424 109.392 205.223 108.807C206.477 107.889 208.11 107.154 210.175 106.675C210.798 106.53 210.693 105.611 210.054 105.611ZM206.743 106.688L206.709 106.704C205.919 107.067 205.213 107.48 204.589 107.937C203.69 108.595 203.01 109.305 202.521 110.02L202.464 110.104C202.408 110.188 202.357 110.27 202.309 110.35L202.278 110.402L202.239 110.371C202.065 110.231 201.894 110.08 201.732 109.921C201.042 109.247 200.69 108.597 200.791 108.082L200.798 108.049C200.907 107.585 201.394 107.126 202.389 106.709L202.438 106.688H206.743Z" fill="white"/>
<path fill-rule="evenodd" clip-rule="evenodd" d="M266.943 117.226C271.743 119.129 266.8 122.289 266.8 122.289C266.8 122.289 265.564 118.698 259.223 117.226C260.065 117.244 266.943 117.226 266.943 117.226Z" fill="#465F9D"/>
<path fill-rule="evenodd" clip-rule="evenodd" d="M266.941 116.688L263.29 116.695L259.731 116.693C259.494 116.691 259.326 116.69 259.234 116.688C258.588 116.674 258.472 117.605 259.101 117.751C261.167 118.23 262.799 118.965 264.053 119.883C264.852 120.468 265.447 121.09 265.869 121.706C266.014 121.917 266.126 122.111 266.21 122.282L266.239 122.341C266.264 122.395 266.28 122.434 266.288 122.455L266.291 122.464C266.405 122.794 266.795 122.93 267.088 122.743L267.159 122.697C267.238 122.643 267.345 122.568 267.472 122.472C267.752 122.262 268.032 122.026 268.295 121.769C269.22 120.864 269.73 119.921 269.539 118.95C269.359 118.033 268.563 117.289 267.14 116.726C267.077 116.7 267.009 116.688 266.941 116.688ZM266.839 117.765L266.887 117.785C267.905 118.212 268.391 118.683 268.485 119.158C268.586 119.673 268.235 120.323 267.544 120.998L267.446 121.092C267.314 121.216 267.176 121.335 267.037 121.447L266.998 121.478L266.967 121.426C266.904 121.32 266.833 121.21 266.755 121.096C266.266 120.381 265.586 119.671 264.687 119.013L264.593 118.945C264.032 118.544 263.408 118.177 262.716 117.85L262.55 117.772L266.839 117.765Z" fill="white"/>
<path fill-rule="evenodd" clip-rule="evenodd" d="M219.314 127.118C219.314 127.118 208.173 129.218 208.442 135.806C208.442 135.806 199.503 132.521 202.513 127.118H219.314Z" fill="#465F9D"/>
<path fill-rule="evenodd" clip-rule="evenodd" d="M219.314 126.579H202.513C202.318 126.579 202.138 126.685 202.043 126.855C201.155 128.45 201.149 130.007 201.897 131.455C202.489 132.602 203.521 133.626 204.866 134.539C205.607 135.042 206.399 135.481 207.19 135.854C207.432 135.968 207.659 136.069 207.868 136.157L207.956 136.193C208.097 136.251 208.199 136.291 208.256 136.312C208.616 136.444 208.994 136.168 208.978 135.785C208.871 133.14 210.783 131.035 214.109 129.429C215.268 128.869 216.515 128.414 217.762 128.056C218.151 127.945 218.514 127.85 218.845 127.772L219.089 127.716C219.128 127.707 219.165 127.699 219.2 127.691L219.414 127.647C220.055 127.526 219.967 126.579 219.314 126.579ZM215.53 127.656L215.411 127.701C214.809 127.929 214.216 128.181 213.642 128.459L213.533 128.512C210.29 130.102 208.223 132.206 207.934 134.904L207.924 135.007L207.839 134.968C207.776 134.94 207.712 134.91 207.647 134.879C206.903 134.529 206.16 134.117 205.469 133.647L205.388 133.592C202.863 131.851 201.798 129.905 202.805 127.726L202.838 127.656H215.53Z" fill="white"/>
<path fill-rule="evenodd" clip-rule="evenodd" d="M302.839 140.636C303.235 140.636 303.555 140.957 303.555 141.354C303.555 141.738 303.254 142.052 302.875 142.071L302.839 142.072H1.018C0.622297 142.072 0.301514 141.75 0.301514 141.354C0.301514 140.969 0.60315 140.655 0.982242 140.637L1.018 140.636H302.839Z" fill="#2F4077"/>
</svg>
