<svg width="56" height="56" viewBox="0 0 56 56" fill="none" xmlns="http://www.w3.org/2000/svg">
<path fill-rule="evenodd" clip-rule="evenodd" d="M49 48.3004C48.614 48.3004 48.3 47.9864 48.3 47.6004C48.3 47.2144 48.614 46.9004 49 46.9004C49.386 46.9004 49.7 47.2144 49.7 47.6004C49.7 47.9864 49.386 48.3004 49 48.3004Z" fill="#CACAFB"/>
<path fill-rule="evenodd" clip-rule="evenodd" d="M47.6 9.1002C47.214 9.1002 46.9 8.78618 46.9 8.4002C46.9 8.01418 47.214 7.7002 47.6 7.7002C47.986 7.7002 48.3 8.01418 48.3 8.4002C48.3 8.78618 47.986 9.1002 47.6 9.1002Z" fill="#CACAFB"/>
<path fill-rule="evenodd" clip-rule="evenodd" d="M9.8 48.3004C9.41402 48.3004 9.1 47.9864 9.1 47.6004C9.1 47.2144 9.41402 46.9004 9.8 46.9004C10.186 46.9004 10.5 47.2144 10.5 47.6004C10.5 47.9864 10.186 48.3004 9.8 48.3004Z" fill="#CACAFB"/>
<path fill-rule="evenodd" clip-rule="evenodd" d="M13.5776 8.40477C13.7169 8.40185 13.8578 8.40039 14 8.40039L14.2123 8.40148C14.2827 8.40221 14.3527 8.40331 14.4224 8.40477L14.8356 8.41788L15.2386 8.43974C15.4374 8.45284 15.632 8.46922 15.8218 8.48886L16.1949 8.5325C18.2098 8.79644 19.6 9.45498 19.6 10.5004V14.7004C19.6 15.087 19.2866 15.4004 18.9 15.4004C18.541 15.4004 18.2451 15.1302 18.2047 14.782L18.2 14.7004V11.9887C17.6532 12.2067 16.9703 12.3667 16.1949 12.4683L15.8218 12.5119C15.632 12.5316 15.4374 12.5479 15.2386 12.561L14.8356 12.5829L14.4224 12.596C14.2831 12.5989 14.1422 12.6004 14 12.6004C13.8578 12.6004 13.7169 12.5989 13.5776 12.596L13.1644 12.5829L12.7614 12.561C12.5626 12.5479 12.368 12.5316 12.1782 12.5119L11.8051 12.4683C9.79017 12.2043 8.4 11.5458 8.4 10.5004C8.4 9.45498 9.79017 8.79644 11.8051 8.5325L12.1782 8.48886C12.368 8.46922 12.5626 8.45284 12.7614 8.43974L13.1644 8.41788L13.5776 8.40477ZM18.2 10.5004L18.1847 10.4906C18.0258 10.4005 17.8015 10.3093 17.5236 10.225L17.3802 10.1835C16.5068 9.94189 15.2975 9.80039 14.0004 9.80039C12.7032 9.80039 11.4939 9.94189 10.6205 10.1835C10.3251 10.2652 10.0813 10.3553 9.90087 10.4455L9.8 10.5004L9.91912 10.5643C10.0668 10.6365 10.2548 10.7083 10.4772 10.7758L10.6205 10.8173C11.4939 11.0589 12.7032 11.2004 14.0004 11.2004C15.2975 11.2004 16.5068 11.0589 17.3802 10.8173C17.6757 10.7355 17.9195 10.6455 18.0999 10.5553L18.2 10.5004Z" fill="#E1000F"/>
<path d="M41.8122 34.8631C41.0706 34.0618 40.0559 33.6004 38.9726 33.6004C37.2401 33.6004 35.771 34.771 35.2262 36.4004H34.3L34.2184 36.4051C33.8702 36.4455 33.6 36.7414 33.6 37.1004C33.6 37.487 33.9134 37.8004 34.3 37.8004H35C35 38.0388 35.0188 38.2727 35.055 38.5004H34.3L34.2184 38.5051C33.8702 38.5455 33.6 38.8414 33.6 39.2004C33.6 39.587 33.9134 39.9004 34.3 39.9004H35.5316C36.2177 41.1547 37.5 42.0004 38.9726 42.0004C39.9609 42.0004 40.8939 41.6165 41.6158 40.9358C41.8922 40.6752 41.9118 40.2325 41.6596 39.9469C41.4075 39.6613 40.979 39.6411 40.7026 39.9017C40.2271 40.35 39.6185 40.6004 38.9726 40.6004C38.3099 40.6004 37.7033 40.3364 37.2412 39.9004H38.5L38.5816 39.8957C38.9298 39.8552 39.2 39.5594 39.2 39.2004C39.2 38.8138 38.8866 38.5004 38.5 38.5004H36.4372C36.3835 38.2768 36.3548 38.0423 36.3548 37.8004H38.5L38.5816 37.7957C38.9298 37.7552 39.2 37.4594 39.2 37.1004C39.2 36.7138 38.8866 36.4004 38.5 36.4004H36.7049C37.1583 35.5624 38.0057 35.0004 38.9726 35.0004C39.6807 35.0004 40.3435 35.3018 40.833 35.8307C41.0916 36.1101 41.5204 36.12 41.7908 35.8528C42.0612 35.5856 42.0707 35.1425 41.8122 34.8631Z" fill="#E1000F"/>
<path d="M9.1 14.0004C9.45898 14.0004 9.75485 14.2461 9.79529 14.5625L9.8 14.6368V27.364C9.8 27.7155 9.4866 28.0004 9.1 28.0004C8.74101 28.0004 8.44514 27.7547 8.40471 27.4382L8.4 27.364V14.6368C8.4 14.2853 8.7134 14.0004 9.1 14.0004Z" fill="#E1000F"/>
<path d="M9.1 30.8004C9.4866 30.8004 9.8 30.487 9.8 30.1004C9.8 29.7138 9.4866 29.4004 9.1 29.4004C8.7134 29.4004 8.4 29.7138 8.4 30.1004C8.4 30.487 8.7134 30.8004 9.1 30.8004Z" fill="#E1000F"/>
<path fill-rule="evenodd" clip-rule="evenodd" d="M42 19.6004C41.8578 19.6004 41.7169 19.6018 41.5776 19.6048L41.1644 19.6179L40.7614 19.6397C40.5626 19.6528 40.368 19.6692 40.1782 19.6889L39.8051 19.7325C37.7902 19.9964 36.4 20.655 36.4 21.7004C36.4 22.7458 37.7902 23.4043 39.8051 23.6683L40.1782 23.7119C40.368 23.7316 40.5626 23.7479 40.7614 23.761L41.1644 23.7829L41.5776 23.796C41.7169 23.7989 41.8578 23.8004 42 23.8004C42.1422 23.8004 42.2831 23.7989 42.4224 23.796L42.8356 23.7829L43.2386 23.761C43.4374 23.7479 43.632 23.7316 43.8218 23.7119L44.1949 23.6683C44.9703 23.5667 45.6532 23.4067 46.2 23.1887V25.9004L46.2047 25.982C46.2451 26.3302 46.541 26.6004 46.9 26.6004C47.2866 26.6004 47.6 26.287 47.6 25.9004V21.7004C47.6 20.655 46.2098 19.9964 44.1949 19.7325L43.8218 19.6889C43.632 19.6692 43.4374 19.6528 43.2386 19.6397L42.8356 19.6179L42.4224 19.6048C42.3527 19.6033 42.2827 19.6022 42.2123 19.6015L42 19.6004ZM46.0998 21.7553L46.2 21.7004L46.1847 21.6906C46.0258 21.6005 45.8015 21.5093 45.5236 21.425L45.3802 21.3835C44.5068 21.1419 43.2975 21.0004 42.0004 21.0004C40.7032 21.0004 39.4939 21.1419 38.6205 21.3835C38.3251 21.4652 38.0813 21.5553 37.9009 21.6455L37.8 21.7004L37.9191 21.7643C38.0668 21.8365 38.2548 21.9083 38.4772 21.9758L38.6205 22.0173C39.4939 22.2589 40.7032 22.4004 42.0004 22.4004C43.2975 22.4004 44.5068 22.2589 45.3802 22.0173C45.6757 21.9355 45.9195 21.8455 46.0998 21.7553Z" fill="#E1000F"/>
<path d="M37.7953 24.4188C37.7549 24.0706 37.459 23.8004 37.1 23.8004C36.7134 23.8004 36.4 24.1138 36.4 24.5004V27.3004L36.4047 27.382C36.4451 27.7302 36.741 28.0004 37.1 28.0004C37.4866 28.0004 37.8 27.687 37.8 27.3004V24.5004L37.7953 24.4188Z" fill="#E1000F"/>
<path fill-rule="evenodd" clip-rule="evenodd" d="M25.6634 15.4004L25.1958 15.4088C25.1185 15.4109 25.0416 15.4133 24.965 15.4161L24.51 15.437L24.0643 15.4661C23.8439 15.4827 23.6273 15.5023 23.415 15.5249L22.9961 15.5741C22.9273 15.5829 22.859 15.5921 22.7912 15.6016L22.3908 15.6626C19.896 16.0737 18.2 16.9523 18.2 18.1999V21.4005L18.2034 21.5043C18.2051 21.5297 18.2074 21.555 18.2103 21.5801C18.2035 21.6192 18.2 21.6594 18.2 21.7004V24.9005L18.2034 25.0043C18.2051 25.0297 18.2074 25.055 18.2103 25.0801C18.2035 25.1192 18.2 25.1594 18.2 25.2004V28.4005L18.2034 28.5043C18.2051 28.5296 18.2074 28.5547 18.2102 28.5798C18.2035 28.6188 18.2 28.6589 18.2 28.6998V31.8999L18.2034 32.0037C18.2099 32.1018 18.2256 32.1979 18.2501 32.292C18.1462 32.2827 18.0414 32.274 17.9357 32.2661L17.49 32.237L17.035 32.2161C16.9584 32.2133 16.8815 32.2109 16.8042 32.2088L16.3366 32.2004H15.8634L15.3958 32.2088C15.3185 32.2109 15.2416 32.2133 15.165 32.2161L14.71 32.237L14.2643 32.2661C14.0439 32.2827 13.8273 32.3023 13.615 32.3249L13.1961 32.3741C13.1273 32.3829 13.059 32.3921 12.9912 32.4016L12.5908 32.4626C10.096 32.8737 8.4 33.7523 8.4 34.9999V38.2001L8.40341 38.3039C8.40509 38.3293 8.40739 38.3546 8.4103 38.3798C8.40353 38.4189 8.4 38.4591 8.4 38.5001V41.7002L8.40341 41.804C8.49414 43.1777 10.3866 44.1604 13.0558 44.5776L13.4619 44.6359C13.5991 44.6539 13.7381 44.6705 13.8789 44.6856L14.3059 44.7266C14.8818 44.7753 15.4825 44.8003 16.1 44.8003C16.7175 44.8003 17.3182 44.7753 17.8941 44.7266L18.3211 44.6856C18.4619 44.6705 18.6009 44.6539 18.7381 44.6359L19.1442 44.5776C21.7606 44.1686 23.6307 43.2163 23.7891 41.885C24.4568 41.9612 25.154 42.0004 25.8649 42.0004C27.6081 42.0004 29.7435 41.7776 30.9288 41.443C32.2856 44.2579 35.166 46.2004 38.5 46.2004C43.1392 46.2004 46.9 42.4395 46.9 37.8001C46.9 33.1608 43.1392 29.3998 38.5 29.3998C36.6713 29.3998 34.9792 29.9842 33.6 30.9763V28.6998L33.5953 28.6182C33.5945 28.6116 33.5937 28.6052 33.5928 28.5987C33.5918 28.5924 33.5908 28.586 33.5897 28.5798C33.5966 28.5208 33.6 28.461 33.6 28.4005V25.2004L33.5953 25.1188C33.5938 25.1058 33.5919 25.0929 33.5897 25.0801C33.5965 25.021 33.6 24.9611 33.6 24.9005V21.7004L33.5953 21.6188C33.5938 21.6058 33.5919 21.5929 33.5897 21.5801C33.5965 21.521 33.6 21.4611 33.6 21.4005V18.2004C33.6 16.9857 31.9921 16.1202 29.6045 15.6961L29.2106 15.6312C29.0772 15.6108 28.9415 15.5918 28.8039 15.5741L28.385 15.5249C28.1727 15.5023 27.9561 15.4827 27.7357 15.4661L27.29 15.437L26.835 15.4161C26.7584 15.4133 26.6815 15.4109 26.6042 15.4088L26.1366 15.4004H25.6634ZM30.8421 34.3429C30.2733 34.5235 29.6347 34.6693 28.9442 34.7772L28.5381 34.8356C28.4009 34.8536 28.2619 34.8701 28.1211 34.8853L27.6941 34.9262C27.1182 34.9749 26.5175 35 25.9 35C25.2825 35 24.6818 34.9749 24.1059 34.9262L23.7961 34.8965C23.7987 34.9307 23.8 34.9651 23.8 34.9999V36.8155C24.4676 36.8986 25.172 36.9417 25.893 36.9417C27.3178 36.9417 29.0158 36.7781 30.1959 36.5267C30.3125 35.7598 30.5328 35.0269 30.8421 34.3429ZM30.1063 38.1277C28.8645 38.3589 27.2653 38.5004 25.893 38.5004C25.1725 38.5004 24.4661 38.4601 23.7901 38.382L23.7922 38.3955L23.7941 38.409L23.7953 38.4185L23.8 38.5001V40.324C24.4592 40.4049 25.154 40.4469 25.8649 40.4469C27.4058 40.4469 29.2936 40.2591 30.3881 39.9892C30.2274 39.3924 30.1309 38.7692 30.1063 38.1277ZM19.6 21.4005V19.9123C20.2742 20.2538 21.1618 20.52 22.1955 20.7037L22.5894 20.7686C22.7228 20.7889 22.8585 20.8079 22.9961 20.8257L23.415 20.8749C23.6273 20.8975 23.8439 20.9171 24.0643 20.9336L24.51 20.9627L24.965 20.9836C25.0416 20.9864 25.1185 20.9888 25.1958 20.9909L25.6634 20.9993C25.742 21 25.8208 21.0004 25.9 21.0004L26.1366 20.9993L26.6042 20.9909C26.6815 20.9888 26.7584 20.9864 26.835 20.9836L27.29 20.9627L27.7357 20.9336C27.9561 20.9171 28.1727 20.8975 28.385 20.8749L28.8039 20.8257C28.8727 20.8168 28.941 20.8076 29.0088 20.7981L29.4092 20.7371C30.5266 20.553 31.4837 20.2751 32.2 19.9123V21.4005L32.1951 21.4433C32.1396 21.6947 31.6129 22.0959 30.6227 22.4355C29.3968 22.8558 27.7088 23.1006 25.9 23.1006C24.0912 23.1006 22.4032 22.8558 21.1773 22.4355C20.1288 22.076 19.6 21.6473 19.6 21.4005ZM20.1409 18.6707C19.7935 18.5069 19.6 18.3434 19.6 18.2007C19.6 18.0579 19.7935 17.8944 20.1409 17.7306L20.3272 17.6487C20.3935 17.6215 20.4638 17.5944 20.5381 17.5674L20.7725 17.4873C20.8544 17.4608 20.94 17.4346 21.0292 17.4087L21.3071 17.3325C21.3551 17.32 21.404 17.3076 21.4537 17.2953L21.7615 17.2235C21.8672 17.2001 21.976 17.1774 22.0877 17.1554L22.4314 17.0914L22.7914 17.0323C22.8527 17.0229 22.9146 17.0137 22.9772 17.0048L23.3595 16.954L23.7555 16.9094L24.1639 16.8717C24.3019 16.8603 24.4419 16.8502 24.5836 16.8414L25.0136 16.819L25.4528 16.8051C25.5267 16.8036 25.6009 16.8024 25.6754 16.8016L25.9 16.8004C26.0503 16.8004 26.1994 16.802 26.3472 16.8051L26.7864 16.819L27.2164 16.8414C27.3581 16.8502 27.4981 16.8603 27.6361 16.8717L28.0445 16.9094L28.4405 16.954L28.8228 17.0048L29.1906 17.0613C29.2506 17.0711 29.3099 17.0812 29.3686 17.0914L29.7123 17.1554C29.7681 17.1664 29.8233 17.1776 29.8776 17.1889L30.1948 17.259C30.2974 17.283 30.3968 17.3075 30.4929 17.3325L30.7708 17.4087C30.8154 17.4216 30.8591 17.4347 30.9019 17.4477L31.1476 17.5272C31.2648 17.5673 31.3734 17.6079 31.4728 17.6487L31.6591 17.7306C32.0065 17.8944 32.2 18.0579 32.2 18.2007C32.2 18.3434 32.0065 18.5069 31.6591 18.6707L31.4728 18.7526C31.4065 18.7798 31.3362 18.8069 31.2619 18.8339L31.0275 18.9141C30.9456 18.9405 30.86 18.9667 30.7708 18.9926L30.4929 19.0688C30.4449 19.0813 30.396 19.0937 30.3463 19.106L30.0385 19.1778C29.9328 19.2012 29.824 19.2239 29.7123 19.246L29.3686 19.3099L29.0086 19.369C28.9473 19.3784 28.8854 19.3876 28.8228 19.3965L28.4405 19.4473L28.0445 19.4919L27.6361 19.5296C27.4981 19.541 27.3581 19.5511 27.2164 19.5599L26.7864 19.5823L26.3472 19.5962C26.1994 19.5993 26.0503 19.6009 25.9 19.6009C25.7497 19.6009 25.6006 19.5993 25.4528 19.5962L25.0136 19.5823L24.5836 19.5599C24.4419 19.5511 24.3019 19.541 24.1639 19.5296L23.7555 19.4919L23.3595 19.4473L22.9772 19.3965L22.6094 19.3401C22.5494 19.3302 22.4901 19.3201 22.4314 19.3099L22.0877 19.246C22.0319 19.2349 21.9767 19.2237 21.9224 19.2124L21.6052 19.1423C21.5026 19.1184 21.4032 19.0938 21.3071 19.0688L21.0292 18.9926C20.9846 18.9797 20.9409 18.9667 20.8981 18.9536L20.6524 18.8741C20.5352 18.834 20.4266 18.7934 20.3272 18.7526L20.1409 18.6707ZM19.6 24.9005V23.271C20.4153 23.7298 21.5414 24.0724 22.8558 24.2779L23.2619 24.3362C23.3991 24.3542 23.5381 24.3708 23.6789 24.3859L24.1059 24.4268C24.6818 24.4756 25.2825 24.5006 25.9 24.5006C26.5175 24.5006 27.1182 24.4756 27.6941 24.4268L28.1211 24.3859C28.2619 24.3708 28.4009 24.3542 28.5381 24.3362L28.9442 24.2779C30.2586 24.0724 31.3847 23.7298 32.2 23.271V24.9005L32.1951 24.9433C32.1396 25.1947 31.6129 25.5959 30.6227 25.9355C29.3968 26.3558 27.7088 26.6006 25.9 26.6006C24.0912 26.6006 22.4032 26.3558 21.1773 25.9355C20.1288 25.576 19.6 25.1473 19.6 24.9005ZM22.4 40.0706C21.5847 40.5294 20.4586 40.872 19.1442 41.0775L18.7381 41.1358C18.6009 41.1538 18.4619 41.1704 18.3211 41.1855L17.8941 41.2264C17.3182 41.2752 16.7175 41.3002 16.1 41.3002C15.4825 41.3002 14.8818 41.2752 14.3059 41.2264L13.8789 41.1855C13.7381 41.1704 13.5991 41.1538 13.4619 41.1358L13.0558 41.0775C11.7414 40.872 10.6153 40.5294 9.8 40.0706V41.7002C9.8 41.947 10.3288 42.3757 11.3773 42.7352C12.6032 43.1555 14.2912 43.4003 16.1 43.4003C17.9088 43.4003 19.5968 43.1555 20.8227 42.7352C21.8129 42.3957 22.3396 41.9944 22.3951 41.743L22.4 41.7002V40.0706ZM19.6 26.771C20.4153 27.2298 21.5414 27.5724 22.8558 27.7779L23.2619 27.8362C23.3991 27.8542 23.5381 27.8708 23.6789 27.8859L24.1059 27.9268C24.6818 27.9756 25.2825 28.0006 25.9 28.0006C26.5175 28.0006 27.1182 27.9756 27.6941 27.9268L28.1211 27.8859C28.2619 27.8708 28.4009 27.8542 28.5381 27.8362L28.9442 27.7779C30.2586 27.5724 31.3847 27.2298 32.2 26.771V28.4005L32.1951 28.4433C32.1396 28.6947 31.6129 29.0959 30.6227 29.4355C29.3968 29.8558 27.7088 30.1006 25.9 30.1006C24.0912 30.1006 22.4032 29.8558 21.1773 29.4355C20.1288 29.076 19.6 28.6473 19.6 28.4005V26.771ZM32.2 31.8999V30.271C31.3847 30.7298 30.2586 31.0724 28.9442 31.2779L28.5381 31.3362C28.4009 31.3542 28.2619 31.3708 28.1211 31.3859L27.6941 31.4268C27.1182 31.4756 26.5175 31.5006 25.9 31.5006C25.2825 31.5006 24.6818 31.4756 24.1059 31.4268L23.6789 31.3859C23.5381 31.3708 23.3991 31.3542 23.2619 31.3362L22.8558 31.2779C21.5414 31.0724 20.4153 30.7298 19.6 30.271V31.8999C19.6 32.0763 19.8702 32.3457 20.4074 32.6163C21.1469 32.7808 21.7942 32.9924 22.3196 33.2476C23.3669 33.474 24.6023 33.6 25.9 33.6C27.7088 33.6 29.3968 33.3552 30.6227 32.9348C31.6129 32.5953 32.1396 32.1941 32.1951 31.9427L32.2 31.8999ZM22.0491 34.6289C21.2664 34.4618 20.5705 34.2409 19.993 33.9715C19.9663 33.9661 19.9394 33.9607 19.9123 33.9554L19.5686 33.8914C19.5099 33.8812 19.4506 33.8711 19.3906 33.8613L19.0228 33.8048L18.6405 33.754L18.2445 33.7094L17.8361 33.6717C17.6981 33.6603 17.5581 33.6502 17.4164 33.6414L16.9864 33.619L16.5472 33.6051C16.3994 33.602 16.2503 33.6004 16.1 33.6004L15.8754 33.6016C15.8009 33.6024 15.7267 33.6036 15.6528 33.6051L15.2136 33.619L14.7836 33.6414C14.6419 33.6502 14.5019 33.6603 14.3639 33.6717L13.9555 33.7094L13.5595 33.754L13.1772 33.8048C13.1146 33.8137 13.0527 33.8229 12.9914 33.8323L12.6314 33.8914L12.2877 33.9554C12.176 33.9774 12.0672 34.0002 11.9615 34.0235L11.6537 34.0953C11.604 34.1076 11.5551 34.12 11.5071 34.1325L11.2292 34.2087C11.14 34.2346 11.0544 34.2608 10.9725 34.2873L10.7381 34.3674C10.6638 34.3944 10.5935 34.4215 10.5272 34.4487L10.3409 34.5306C9.99349 34.6944 9.8 34.8579 9.8 35.0007C9.8 35.1434 9.99349 35.3069 10.3409 35.4707L10.5272 35.5526C10.6266 35.5934 10.7352 35.634 10.8524 35.6741L11.0981 35.7536C11.1409 35.7667 11.1846 35.7797 11.2292 35.7926L11.5071 35.8688C11.6032 35.8938 11.7026 35.9184 11.8052 35.9423L12.1224 36.0124C12.1767 36.0237 12.2319 36.0349 12.2877 36.046L12.6314 36.1099C12.6901 36.1201 12.7494 36.1302 12.8094 36.1401L13.1772 36.1965L13.5595 36.2473L13.9555 36.2919L14.3639 36.3296C14.5019 36.341 14.6419 36.3511 14.7836 36.3599L15.2136 36.3823L15.6528 36.3962C15.8006 36.3993 15.9497 36.4009 16.1 36.4009C16.2503 36.4009 16.3994 36.3993 16.5472 36.3962L16.9864 36.3823L17.4164 36.3599C17.5581 36.3511 17.6981 36.341 17.8361 36.3296L18.2445 36.2919L18.6405 36.2473L19.0228 36.1965C19.0854 36.1876 19.1473 36.1784 19.2086 36.169L19.5686 36.1099L19.9123 36.046C20.024 36.0239 20.1328 36.0012 20.2385 35.9778L20.5463 35.906C20.596 35.8937 20.6449 35.8813 20.6929 35.8688L20.9708 35.7926C21.06 35.7667 21.1456 35.7405 21.2275 35.7141L21.4619 35.6339C21.5362 35.6069 21.6065 35.5798 21.6728 35.5526L21.8591 35.4707C22.2065 35.3069 22.4 35.1434 22.4 35.0007C22.4 34.8865 22.2763 34.7591 22.0491 34.6289ZM22.4 38.2001V36.7123C21.6837 37.0751 20.7266 37.353 19.6092 37.5371L19.2088 37.5981C19.141 37.6076 19.0727 37.6168 19.0039 37.6257L18.585 37.6749C18.3727 37.6975 18.1561 37.7171 17.9357 37.7336L17.49 37.7627L17.035 37.7836C16.9584 37.7864 16.8815 37.7888 16.8042 37.7909L16.3366 37.7993L16.1 37.8004C16.0208 37.8004 15.942 37.8 15.8634 37.7993L15.3958 37.7909C15.3185 37.7888 15.2416 37.7864 15.165 37.7836L14.71 37.7627L14.2643 37.7336C14.0439 37.7171 13.8273 37.6975 13.615 37.6749L13.1961 37.6257C13.0585 37.6079 12.9228 37.5889 12.7894 37.5686L12.3955 37.5037C11.3618 37.32 10.4742 37.0538 9.8 36.7123V38.2001C9.8 38.4469 10.3288 38.8756 11.3773 39.235C12.6032 39.6554 14.2912 39.9002 16.1 39.9002C17.9088 39.9002 19.5968 39.6554 20.8227 39.235C21.8129 38.8955 22.3396 38.4943 22.3951 38.2429L22.4 38.2001ZM38.5 30.7999C42.366 30.7999 45.5 33.934 45.5 37.8001C45.5 41.6662 42.366 44.8003 38.5 44.8003C34.634 44.8003 31.5 41.6662 31.5 37.8001C31.5 33.934 34.634 30.7999 38.5 30.7999Z" fill="#000091"/>
<path d="M42.995 28.0657C42.6444 27.9028 42.2281 28.0551 42.0653 28.4057C41.9025 28.7564 42.0547 29.1727 42.4053 29.3355C45.5445 30.7933 47.6002 33.8489 47.6002 37.1009C47.6002 37.4875 47.9136 37.8009 48.3002 37.8009C48.6868 37.8009 49.0002 37.4875 49.0002 37.1009C49.0002 33.2903 46.6168 29.7476 42.995 28.0657Z" fill="#000091"/>
</svg>
