<svg width="126" height="145" viewBox="0 0 126 145" fill="none" xmlns="http://www.w3.org/2000/svg">
<g id="thinking_woman_2_">
<path id="Oval" fill-rule="evenodd" clip-rule="evenodd" d="M62.1897 142.644C95.6429 142.644 122.762 115.161 122.762 81.2596C122.762 47.3582 95.6429 19.8756 62.1897 19.8756C28.7364 19.8756 1.61719 47.3582 1.61719 81.2596C1.61719 115.161 28.7364 142.644 62.1897 142.644Z" fill="white"/>
<g id="thinking_woman">
<path id="Path" fill-rule="evenodd" clip-rule="evenodd" d="M9.05566 86.4101V111.741C14.5539 121.48 22.6394 129.533 32.2959 134.965H78.222V67.2598H27.9528C17.5109 67.2598 9.05566 75.8282 9.05566 86.4101Z" fill="#465F9D"/>
<path id="Path_2" fill-rule="evenodd" clip-rule="evenodd" d="M61.6352 142.644C73.0474 142.644 83.7204 139.46 92.8224 133.888C90.5585 115.44 85.892 76.7647 85.9382 76.6242C85.9844 76.437 47.6357 77.2329 43.9394 77.6075C39.4115 78.0289 35.1146 81.9152 33.9595 86.2228H33.9133L19.082 124.898C29.986 135.854 45.0021 142.644 61.6352 142.644Z" fill="#E4794A"/>
<g id="head_8_">
<g id="head_9_">
<g id="earring_back_2_">
<path id="Path_3" fill-rule="evenodd" clip-rule="evenodd" d="M48.5745 62.0378C48.8431 61.4514 49.5299 61.1968 50.1085 61.469C50.6872 61.7413 50.9384 62.4373 50.6698 63.0237C50.1465 64.166 49.9794 65.6685 50.2511 67.2418C50.7493 70.0773 52.4209 72.0448 53.7634 71.9177L53.8377 71.9085C54.4683 71.8113 55.0574 72.2505 55.1534 72.8897C55.2494 73.5288 54.8159 74.1257 54.1852 74.223C51.3087 74.6666 48.6762 71.6327 47.9761 67.6489C47.6249 65.6151 47.8458 63.6282 48.5745 62.0378Z" fill="#E4794A"/>
<path id="Path_4" fill-rule="evenodd" clip-rule="evenodd" d="M77.8674 60.4458C78.1361 59.8595 78.8229 59.6048 79.4015 59.877C79.9801 60.1493 80.2314 60.8453 79.9628 61.4317C79.4394 62.574 79.2724 64.0765 79.5441 65.6499C80.0423 68.4853 81.7139 70.4528 83.0564 70.3258L83.1306 70.3165C83.7613 70.2193 84.3504 70.6586 84.4463 71.2977C84.5423 71.9368 84.1089 72.5338 83.4782 72.631C80.6016 73.0746 77.9691 70.0407 77.2691 66.0569C76.9179 64.0231 77.1388 62.0362 77.8674 60.4458Z" fill="#E4794A"/>
</g>
<path id="neck_3_" fill-rule="evenodd" clip-rule="evenodd" d="M70.2754 69.9287L71.5229 75.8283L76.6052 76.0624C77.021 76.8115 79.7008 90.7178 66.8101 91.186C58.3549 91.5137 53.2264 84.2095 49.8535 77.748L56.9226 76.9988L54.1042 60.7983L70.2754 69.9287Z" fill="white"/>
<path id="neck_4_" fill-rule="evenodd" clip-rule="evenodd" d="M52.9666 61.0015L55.5693 75.965L49.7333 76.5838C48.9197 76.67 48.4499 77.5625 48.8325 78.2953C50.9443 82.341 53.0903 85.4761 55.6407 87.8715C58.8943 90.9272 62.6046 92.5204 66.8542 92.3557C73.0523 92.1305 76.6013 88.9781 77.8186 84.0117C78.5861 80.8804 78.2636 76.6626 77.6119 75.4885L77.5675 75.415C77.3648 75.1053 77.0273 74.9101 76.6576 74.893L72.4654 74.6998L71.4048 69.6834C71.335 69.3536 71.1283 69.0703 70.8375 68.9061L54.6664 59.7757C53.8165 59.2959 52.7977 60.0306 52.9666 61.0015ZM55.6635 63.0181L69.2552 70.6923L70.3934 76.0735L70.4135 76.1545C70.5502 76.6328 70.9734 76.9747 71.4704 76.9976L75.7097 77.1927L75.699 77.134C75.7895 77.6002 75.8652 78.1633 75.9112 78.7661C76.0322 80.3481 75.9394 81.967 75.5766 83.4473C74.5995 87.4336 71.9019 89.8297 66.7687 90.0162L66.5709 90.0224C60.5198 90.1703 55.9727 86.2747 51.8168 78.9354L51.7007 78.7289L57.0427 78.163C57.709 78.0924 58.1764 77.4641 58.0601 76.7956L55.6635 63.0181Z" fill="#2F4077"/>
<path id="ear_II_2_" fill-rule="evenodd" clip-rule="evenodd" d="M55.7328 60.1744C56.64 58.1493 55.6802 55.7277 53.5889 54.7656C51.4977 53.8035 49.0669 54.6652 48.1597 56.6903C47.2525 58.7153 48.2124 61.1369 50.3036 62.0991C52.3949 63.0612 54.8256 62.1995 55.7328 60.1744Z" fill="white"/>
<path id="ear_II_3_" fill-rule="evenodd" clip-rule="evenodd" d="M47.1747 56.2733C45.9618 58.9352 47.1346 62.0441 49.7596 63.2319C52.3847 64.4197 55.5052 63.2534 56.7181 60.5915C57.931 57.9295 56.7583 54.8206 54.1332 53.6328C51.5082 52.4451 48.3876 53.6113 47.1747 56.2733ZM49.2486 57.2117C49.9074 55.7659 51.6482 55.1153 53.1485 55.7941C54.6487 56.4729 55.3029 58.2072 54.6441 59.6531C53.9854 61.0989 52.2445 61.7495 50.7443 61.0707C49.2441 60.3918 48.5899 58.6575 49.2486 57.2117Z" fill="#2F4077"/>
<path id="ear_6_" fill-rule="evenodd" clip-rule="evenodd" d="M84.393 58.2628C85.3002 56.2377 84.3403 53.8161 82.2491 52.854C80.1578 51.8919 77.7271 52.7536 76.8199 54.7787C75.9127 56.8038 76.8725 59.2254 78.9638 60.1875C81.055 61.1496 83.4858 60.2879 84.393 58.2628Z" fill="white"/>
<path id="ear_7_" fill-rule="evenodd" clip-rule="evenodd" d="M75.8344 54.3617C74.6215 57.0237 75.7942 60.1325 78.4193 61.3203C81.0443 62.5081 84.1649 61.3418 85.3778 58.6799C86.5906 56.0179 85.4179 52.909 82.7929 51.7213C80.1678 50.5335 77.0473 51.6997 75.8344 54.3617ZM77.9083 55.3001C78.567 53.8543 80.3079 53.2037 81.8081 53.8825C83.3083 54.5613 83.9626 56.2957 83.3038 57.7415C82.645 59.1873 80.9042 59.8379 79.404 59.1591C77.9037 58.4803 77.2495 56.7459 77.9083 55.3001Z" fill="#2F4077"/>
<path id="face_7_" fill-rule="evenodd" clip-rule="evenodd" d="M69.7563 73.4394C76.8833 71.9728 81.1502 63.2443 79.2865 53.9438C77.4229 44.6433 70.1346 38.2926 63.0076 39.7592C55.8806 41.2258 51.6138 49.9543 53.4774 59.2548C55.341 68.5554 62.6293 74.906 69.7563 73.4394Z" fill="white"/>
<path id="face_8_" fill-rule="evenodd" clip-rule="evenodd" d="M62.5931 38.4615C54.8722 39.9875 50.4489 49.3748 52.53 59.3372C54.6111 69.2996 62.45 76.2632 70.1708 74.7372C77.8916 73.2111 82.3149 63.8239 80.2338 53.8615C78.1527 43.899 70.3139 36.9354 62.5931 38.4615ZM63.0777 40.7794C69.4207 39.5255 76.1584 45.5118 77.9947 54.3037C79.8311 63.0956 76.0291 71.1654 69.6861 72.4192C63.3431 73.6731 56.6053 67.6869 54.769 58.8949C52.9327 50.103 56.7346 42.0333 63.0777 40.7794Z" fill="#2F4077"/>
<path id="nose_7_" fill-rule="evenodd" clip-rule="evenodd" d="M69.4498 52.4621C70.0387 52.2916 70.6514 52.6165 70.8546 53.1927L70.8778 53.2661L72.8183 60.1489L72.8404 60.2409C73.0181 61.1414 72.4294 62.0981 71.43 62.1536L68.9072 62.2948C68.2702 62.3306 67.7252 61.8364 67.6898 61.191C67.6558 60.5713 68.1039 60.0375 68.7033 59.964L68.779 59.9573L70.3369 59.8693L68.6565 53.9092C68.4883 53.3125 68.8089 52.6915 69.3775 52.4857L69.4498 52.4621Z" fill="#2F4077"/>
<path id="brow_II_6_" fill-rule="evenodd" clip-rule="evenodd" d="M61.8651 48.258C63.0542 47.5515 64.3457 47.3057 65.6159 47.8829C65.9423 48.0312 66.2526 48.2316 66.5437 48.4834C67.0289 48.9031 67.0864 49.642 66.6722 50.1337C66.2761 50.604 65.5918 50.6778 65.1084 50.316L65.0438 50.2639C64.9181 50.1552 64.7941 50.0751 64.6706 50.019C64.2071 49.8084 63.6423 49.9159 63.0336 50.2776C62.8388 50.3934 62.6837 50.5075 62.5863 50.5888L62.5172 50.6496C62.0515 51.0914 61.3206 51.067 60.8846 50.5951C60.4486 50.1231 60.4727 49.3824 60.9384 48.9405C61.1352 48.7538 61.4502 48.5046 61.8651 48.258Z" fill="#2F4077"/>
<path id="brow_3_" fill-rule="evenodd" clip-rule="evenodd" d="M72.0475 47.6691C72.7956 47.4825 73.5739 47.4214 74.3403 47.5708C75.4056 47.7783 76.2984 48.3787 76.8716 49.4064C77.1855 49.9692 76.9897 50.6833 76.4344 51.0014C75.9021 51.3062 75.2328 51.1368 74.9017 50.6268L74.8604 50.5583C74.6375 50.1586 74.332 49.9531 73.9041 49.8698C73.5127 49.7935 73.0514 49.8297 72.5998 49.9424L72.4696 49.9769C72.3915 49.999 72.3315 50.0186 72.2935 50.0323L72.2692 50.0415C71.6756 50.2782 71.005 49.9824 70.7714 49.3808C70.5379 48.7792 70.8298 48.0997 71.4234 47.863L71.5402 47.8192C71.6708 47.773 71.8422 47.7204 72.0475 47.6691Z" fill="#2F4077"/>
<path id="eye_II_13_" fill-rule="evenodd" clip-rule="evenodd" d="M66.4702 54.826C66.4815 53.9986 66.0356 53.3215 65.4743 53.3136C64.913 53.3057 64.4488 53.9701 64.4375 54.7975C64.4262 55.6249 64.872 56.302 65.4334 56.3099C65.9947 56.3178 66.4589 55.6534 66.4702 54.826Z" fill="#2F4077"/>
<path id="eye_13_" fill-rule="evenodd" clip-rule="evenodd" d="M74.995 56.5402C75.5541 56.4885 75.9453 55.7576 75.8687 54.9078C75.7922 54.0579 75.277 53.4109 74.7179 53.4626C74.1588 53.5143 73.7676 54.2452 73.8441 55.095C73.9207 55.9449 74.4359 56.5919 74.995 56.5402Z" fill="#2F4077"/>
<path id="mouth_7_" fill-rule="evenodd" clip-rule="evenodd" d="M62.0689 62.5019C62.7696 66.4876 64.3836 68.4897 66.6668 68.5796C67.4739 68.6114 68.2548 68.3903 68.9957 68.0055C69.3914 67.7999 69.7149 67.5814 69.9527 67.3915L70.0468 67.3141C70.6376 66.8124 70.5869 65.8762 69.9456 65.443L63.8468 61.3226C63.0003 60.7507 61.8904 61.4869 62.0689 62.5019ZM65.2588 65.0905L66.9531 66.2353L66.8709 66.2407C66.8325 66.2419 66.7943 66.2418 66.7564 66.2403C66.2247 66.2194 65.7285 65.9043 65.3003 65.1642L65.2588 65.0905Z" fill="#2F4077"/>
<path id="hair_7_" fill-rule="evenodd" clip-rule="evenodd" d="M49.6226 41.6011C52.2561 38.6513 56.9689 36.5443 61.2658 35.842L61.312 35.7952C88.8491 30.5511 84.6908 47.4539 84.6908 47.4539L79.7933 47.2198C80.9946 50.4506 80.9946 53.494 79.6547 55.5074C79.6547 55.4605 79.6547 55.4137 79.6547 55.3669C79.2389 52.2766 78.2224 49.4673 76.7901 47.0794L62.2823 46.4238C62.6981 44.3168 60.85 42.3971 59.4639 41.3202C59.5101 42.163 59.6949 52.1362 53.1802 54.7114C53.1802 55.6947 53.2264 56.7247 53.365 57.708C53.4112 57.9889 53.4574 58.2699 53.5036 58.5508C53.0878 58.5508 52.672 58.504 52.3023 58.4572C47.3586 57.8485 44.956 46.8452 49.6226 41.6011Z" fill="#2F4077"/>
<g id="earring_front_2_">
<path id="Path_5" fill-rule="evenodd" clip-rule="evenodd" d="M81.0277 57.7253C83.9229 57.215 86.6096 60.2715 87.307 64.2947C88.004 68.3154 86.4934 72.1162 83.5951 72.627C83.5515 72.6347 83.5075 72.6398 83.4634 72.6424L83.3971 72.6443H83.3047C82.6668 72.6443 82.1497 72.1202 82.1497 71.4737C82.1497 70.8531 82.6263 70.3453 83.2288 70.3057L83.2779 70.3037L83.3427 70.2865C84.597 69.9118 85.4844 67.592 85.0573 64.8551L85.0317 64.6998C84.5357 61.8385 82.837 59.8651 81.4963 60.0212L81.4235 60.0318C80.795 60.1426 80.1969 59.716 80.0876 59.0791C79.9783 58.4422 80.3992 57.8361 81.0277 57.7253Z" fill="#E4794A"/>
<path id="Path_6" fill-rule="evenodd" clip-rule="evenodd" d="M51.7347 59.3173C54.6299 58.807 57.3166 61.8635 58.014 65.8867C58.711 69.9074 57.2004 73.7082 54.3021 74.219C54.2585 74.2267 54.2146 74.2318 54.1704 74.2344L54.1042 74.2363H54.0118C53.3738 74.2363 52.8567 73.7122 52.8567 73.0657C52.8567 72.4451 53.3333 71.9373 53.9358 71.8977L53.9836 71.8961L54.0498 71.8785C55.304 71.5038 56.1914 69.184 55.7643 66.4471L55.7387 66.2918C55.2427 63.4305 53.5441 61.4571 52.2033 61.6132L52.1305 61.6238C51.502 61.7346 50.9039 61.308 50.7946 60.6711C50.6853 60.0342 51.1062 59.4281 51.7347 59.3173Z" fill="#E4794A"/>
</g>
</g>
</g>
<g id="hand_3_">
<path id="hand_5_" fill-rule="evenodd" clip-rule="evenodd" d="M95.0397 81.4001C92.3599 79.1994 90.096 77.0924 88.7561 75.3132C87.601 73.9085 86.6307 72.8316 85.8453 71.942C83.9509 69.8818 81.2712 68.7112 78.499 68.7581C76.3736 68.7581 73.8786 68.8517 72.7236 69.1795C70.4134 69.835 62.7898 71.8483 63.1595 73.0657C63.3905 73.9085 67.5026 73.7212 69.5817 73.5339L73.1856 78.9653C73.1856 78.9653 75.0799 78.5439 76.1426 78.7312C78.3141 79.1058 80.6705 80.1359 81.918 79.5272C81.918 79.5272 83.3503 82.7111 86.3073 87.1592" fill="white"/>
<path id="hand_6_" fill-rule="evenodd" clip-rule="evenodd" d="M77.9921 67.5892L78.4796 67.5877C81.5728 67.5354 84.5686 68.8365 86.706 71.1615L87.8089 72.4095C87.8828 72.4937 87.9549 72.5761 88.0273 72.6591C88.48 73.1779 88.903 73.6726 89.3258 74.1802L89.6433 74.5638L89.6742 74.603C90.8602 76.1779 92.9223 78.1547 95.7668 80.4906C96.2625 80.8977 96.3387 81.6348 95.937 82.137C95.5354 82.6393 94.808 82.7165 94.3124 82.3095C91.4271 79.9401 89.2928 77.9062 87.9603 76.1839L87.8559 76.0474L87.5603 75.69C87.2522 75.3202 86.9438 74.9571 86.6226 74.5852L86.19 74.0878L85.0001 72.74C83.367 70.9639 81.0787 69.942 78.6925 69.9276L78.0606 69.93C75.8212 69.9438 73.9781 70.0647 73.1153 70.285L71.123 70.8442C70.3164 71.074 69.5877 71.2891 68.898 71.5031L68.6047 71.5949C67.6637 71.8914 66.8394 72.1738 66.1472 72.4409L65.944 72.5202L65.967 72.5211C66.9356 72.5341 68.0993 72.4829 69.1853 72.3933L69.4794 72.368C69.8708 72.3327 70.251 72.5015 70.4909 72.8121L70.5402 72.8808L73.7214 77.6758L73.7724 77.6676C74.0713 77.6205 74.3671 77.5822 74.6544 77.5554L74.9388 77.5325C75.4682 77.497 75.9351 77.5065 76.3363 77.5773C76.5875 77.6206 76.8475 77.6729 77.1272 77.7357L77.5287 77.8294C77.6866 77.8676 77.8515 77.9088 78.0495 77.9595L78.772 78.1444C80.3949 78.5517 81.04 78.6331 81.3861 78.4865L81.4168 78.4725C81.9768 78.1993 82.6445 78.425 82.9347 78.9716L83.1168 79.3561L83.2223 79.5732C83.4414 80.0201 83.7065 80.5364 84.0177 81.1146C84.9107 82.7736 85.9924 84.5905 87.2652 86.5052C87.6216 87.0414 87.4817 87.7688 86.9526 88.13C86.4235 88.4912 85.7057 88.3494 85.3492 87.8132C84.1223 85.9676 83.066 84.2077 82.1775 82.582L81.9896 82.2357C81.8269 81.9333 81.6759 81.6464 81.5365 81.376L81.2983 80.907L81.2427 80.9119C80.5306 80.96 79.6385 80.7798 78.0945 80.3863L77.178 80.1521C77.0829 80.1284 76.9945 80.1069 76.9074 80.0862L76.8205 80.0657C76.4987 79.9902 76.2139 79.9309 75.9446 79.8845C75.7509 79.8503 75.4533 79.8443 75.0913 79.8685C74.7911 79.8886 74.4634 79.928 74.1275 79.9809C74.0067 80 73.8902 80.0199 73.7797 80.0401L73.4331 80.1087C72.9972 80.2056 72.5478 80.0392 72.2758 79.6867L72.2269 79.6185L69.0004 74.7555L68.6545 74.78C67.7273 74.8409 66.7839 74.8728 65.9531 74.8622L65.6471 74.8563L65.1836 74.8403C63.3008 74.7584 62.3476 74.4775 62.0554 73.41C61.7842 72.5169 62.2469 71.8901 63.0489 71.3487C63.5031 71.0421 64.1275 70.7353 64.9232 70.4121C65.6861 70.1022 66.5996 69.7804 67.6526 69.4438L67.9187 69.3593C68.6179 69.139 69.3479 68.9208 70.1495 68.6901L72.412 68.0523C73.4972 67.7443 75.5037 67.6048 77.9921 67.5892Z" fill="#2F4077"/>
<path id="finger_III_2_" fill-rule="evenodd" clip-rule="evenodd" d="M73.5086 70.9119C73.5086 70.9119 68.3801 73.4871 68.6111 75.4537C68.8421 77.4202 70.3668 76.9988 70.3668 76.9988" fill="white"/>
<path id="finger_III_3_" fill-rule="evenodd" clip-rule="evenodd" d="M72.9961 69.8631C73.5677 69.576 74.2607 69.813 74.544 70.3922C74.8154 70.9474 74.612 71.6155 74.0915 71.9228L73.9993 71.9722L73.8339 72.0586C73.6758 72.1425 73.4987 72.2396 73.3075 72.3482C72.7621 72.6582 72.2172 72.9967 71.7133 73.3498C70.8836 73.9311 70.2583 74.49 69.9404 74.9514C69.7978 75.1585 69.7548 75.2848 69.7584 75.3153C69.7878 75.5654 69.841 75.7233 69.8991 75.8107C69.9185 75.8399 69.9267 75.8467 69.9382 75.8519C69.9626 75.8627 70.0067 75.8677 70.0503 75.8659L70.0931 75.8616C70.094 75.8615 70.0851 75.8635 70.0632 75.8695C70.6787 75.6994 71.3137 76.0671 71.4815 76.6908C71.6494 77.3145 71.2865 77.958 70.6711 78.1281C70.6149 78.1437 70.5422 78.1599 70.4544 78.1739C70.0004 78.2468 69.5071 78.2164 69.0111 77.9962C68.1574 77.6171 67.6045 76.7847 67.4644 75.5921C67.3839 74.9066 67.6078 74.2477 68.0462 73.6113C68.5555 72.872 69.3627 72.1506 70.3995 71.4241C70.9686 71.0253 71.5734 70.6496 72.1775 70.3063L72.4825 70.1356C72.7017 70.0149 72.8772 69.9228 72.9961 69.8631Z" fill="#2F4077"/>
<path id="finger_II_2_" fill-rule="evenodd" clip-rule="evenodd" d="M74.4329 73.0189C74.4329 73.0189 70.0436 75.6878 70.4132 77.6543C70.7828 79.574 72.3075 79.059 72.3075 79.059" fill="white"/>
<path id="finger_II_3_" fill-rule="evenodd" clip-rule="evenodd" d="M73.8389 72.0152C74.3859 71.6826 75.0954 71.8623 75.4236 72.4167C75.7382 72.9479 75.5884 73.6304 75.0939 73.9791L74.8778 74.117C74.7496 74.1994 74.6057 74.2948 74.4503 74.4017C74.0065 74.707 73.563 75.0404 73.1533 75.3877C72.4833 75.9555 71.9788 76.4995 71.7171 76.9541C71.5755 77.2001 71.5345 77.3629 71.5472 77.4302C71.5908 77.6568 71.6504 77.8018 71.7117 77.8849C71.7361 77.918 71.7505 77.9293 71.7675 77.9365C71.8 77.9503 71.8571 77.9547 71.9156 77.9485L71.9595 77.9419C71.9677 77.9403 71.9637 77.9414 71.9425 77.9485C72.5477 77.7441 73.2019 78.0755 73.4036 78.6889C73.6053 79.3022 73.2783 79.9651 72.6731 80.1695C72.6053 80.1924 72.5155 80.217 72.4057 80.2389C71.9218 80.3355 71.3988 80.3185 70.8738 80.0953C70.0559 79.7476 69.4926 78.9839 69.2788 77.8734C69.1464 77.1691 69.3231 76.4667 69.7216 75.7745C70.1438 75.041 70.8142 74.3182 71.6712 73.5918C72.1456 73.1897 72.6494 72.811 73.1529 72.4647L73.3452 72.3339C73.5576 72.1911 73.727 72.0832 73.8389 72.0152Z" fill="#2F4077"/>
<path id="finger_2_" fill-rule="evenodd" clip-rule="evenodd" d="M75.6804 75.5941C75.6804 75.5941 70.4594 78.9185 73.324 80.1827C76.1886 81.4469 77.2051 80.8382 77.2051 80.8382C77.2051 80.8382 78.4063 79.2931 75.4031 78.6376" fill="white"/>
<path id="finger_3_" fill-rule="evenodd" clip-rule="evenodd" d="M75.0659 74.603C75.6061 74.259 76.3191 74.424 76.6585 74.9714C76.9979 75.5188 76.8351 76.2413 76.295 76.5853L76.1157 76.704C76.0394 76.756 75.9476 76.8198 75.8434 76.8941C75.6341 77.0436 75.4249 77.2008 75.2217 77.3629L75.0063 77.5382L75.066 77.5178C75.2255 77.4683 75.3975 77.4533 75.5717 77.4795L75.6464 77.4932C76.908 77.7686 77.7651 78.2365 78.2327 78.9393C78.7205 79.6725 78.6872 80.4591 78.3661 81.1404C78.2813 81.3204 78.1915 81.461 78.1125 81.5626C78.0241 81.6763 77.9157 81.7724 77.7928 81.846C77.6725 81.918 77.5115 81.9869 77.309 82.042C76.3006 82.3163 74.8408 82.1288 72.8629 81.2559C71.1269 80.4898 70.9098 78.9284 71.8859 77.471C72.2341 76.9512 72.723 76.4352 73.3211 75.9155C73.7031 75.5837 74.1081 75.2694 74.5128 74.9804L74.6856 74.8584C74.8481 74.7452 74.9783 74.6587 75.0659 74.603ZM74.3701 78.1136C74.1279 78.3557 73.9336 78.5824 73.7974 78.7858C73.7524 78.853 73.7178 78.911 73.6915 78.9585L73.6484 79.0407L73.6539 79.0438C73.6764 79.0569 73.7032 79.0711 73.7347 79.0862L73.7853 79.1095C74.0207 79.2134 74.2448 79.3047 74.4578 79.3842L74.5378 79.4134L74.4945 79.3602C74.3047 79.1149 74.2124 78.7947 74.2605 78.4668L74.274 78.3911C74.2902 78.3152 74.3132 78.2427 74.3423 78.174L74.3701 78.1136Z" fill="#2F4077"/>
<path id="sleeve" fill-rule="evenodd" clip-rule="evenodd" d="M114.676 110.945C111.396 103.5 101.138 78.6844 96.7492 75.6409L82.1489 85.1927L101.647 127.333C106.868 122.697 111.303 117.172 114.676 110.945Z" fill="#E4794A"/>
</g>
<path id="line_3_" fill-rule="evenodd" clip-rule="evenodd" d="M47.5393 103.096C47.7849 102.5 48.4613 102.218 49.0501 102.467C49.6143 102.705 49.8933 103.345 49.6993 103.923L49.6714 103.998L44.2719 117.113L77.5053 117.781C78.1176 117.794 78.6091 118.287 78.6363 118.898L78.6372 118.975C78.6251 119.595 78.1386 120.093 77.5354 120.121L77.4595 120.122L42.5298 119.42C41.7407 119.404 41.2072 118.612 41.4598 117.87L41.4867 117.799L47.5393 103.096Z" fill="#2F4077"/>
<path id="Path_7" fill-rule="evenodd" clip-rule="evenodd" d="M74.803 91.2795C74.1099 91.2795 73.5093 91.8414 73.3707 92.5906L66.9484 127.145L58.4932 127.099C58.4932 127.099 57.4306 134.169 64.5459 134.122C65.3775 134.122 78.453 134.169 92.3602 134.216C107.561 125.132 118.511 109.54 121.422 91.2327L74.803 91.2795Z" fill="#2F4077"/>
</g>
<path id="Oval_2" fill-rule="evenodd" clip-rule="evenodd" d="M62.1896 18.2368C27.8432 18.2368 0 46.4531 0 81.2596C0 116.066 27.8432 144.282 62.1896 144.282C96.536 144.282 124.379 116.066 124.379 81.2596C124.379 46.4531 96.536 18.2368 62.1896 18.2368ZM62.1895 21.5144C94.7496 21.5144 121.145 48.2632 121.145 81.2596C121.145 114.256 94.7496 141.005 62.1895 141.005C29.6293 141.005 3.23413 114.256 3.23413 81.2596C3.23413 48.2632 29.6293 21.5144 62.1895 21.5144Z" fill="#E4794A"/>
<g id="ponytail">
<path id="Path_8" fill-rule="evenodd" clip-rule="evenodd" d="M49.8532 38.5577C54.2888 34.6714 55.9521 15.9425 42.2297 4.5647C28.3225 -6.95359 18.5274 6.76535 16.4021 10.3238C14.2767 13.8823 13.2141 23.3404 25.0883 31.2066C36.9625 39.0727 44.7709 43.0058 49.8532 38.5577Z" fill="#2F4077"/>
<path id="Path_9" fill-rule="evenodd" clip-rule="evenodd" d="M48.7446 42.3503L47.7743 41.1797C46.3882 39.5409 46.6193 37.153 48.2826 35.8888L48.5598 35.6547C50.2231 34.3905 52.6719 34.6714 54.058 36.3102L55.4903 37.9958C52.8105 39.0259 50.4079 40.5242 48.7446 42.3503Z" fill="#E4794A"/>
</g>
<g id="bulb">
<path id="Path_10" fill-rule="evenodd" clip-rule="evenodd" d="M97.9046 37.8553C98.1819 38.3236 98.4591 38.7918 98.7363 39.26C99.7066 40.7583 102.571 45.6278 102.571 50.4505V56.7247C102.571 59.2531 104.604 61.3133 107.099 61.3133H112.69C115.185 61.3133 117.218 59.2531 117.218 56.7247V50.4505C117.218 44.6446 121.977 38.5577 121.977 38.5577L123.316 36.0761C124.148 34.1096 124.564 31.9089 124.425 29.6146C124.056 22.3572 118.28 16.4107 111.119 15.8957C102.756 15.3338 95.7793 22.0294 95.7793 30.3638C95.7793 32.5176 96.2413 34.6246 97.1192 36.4507L97.9046 37.8553Z" fill="white"/>
<path id="Path_2_" fill-rule="evenodd" clip-rule="evenodd" d="M94.3936 30.3638C94.3936 32.7303 94.9031 35.0474 95.8735 37.0659L95.9136 37.1432L96.6991 38.5479L97.5481 39.9827L97.5778 40.0307C99.5829 43.127 101.185 46.9686 101.185 50.4505V56.7247C101.185 60.0289 103.839 62.718 107.099 62.718H112.69C115.951 62.718 118.604 60.0289 118.604 56.7247V50.4505C118.604 50.2303 118.612 50.0064 118.628 49.779C118.773 47.6718 119.571 45.3472 120.819 42.9909C121.314 42.0547 121.846 41.1795 122.378 40.3922C122.489 40.2278 122.594 40.0746 122.694 39.9335L122.965 39.5601C123.011 39.4977 123.044 39.4541 123.063 39.43C123.112 39.3678 123.155 39.3015 123.193 39.2319L124.533 36.7503C124.554 36.711 124.573 36.6706 124.591 36.6294C125.531 34.4058 125.958 31.9839 125.809 29.5288C125.404 21.5784 119.079 15.06 111.217 14.4945C102.087 13.8811 94.3936 21.1774 94.3936 30.3638ZM111.027 17.2973C117.488 17.7619 122.708 23.1417 123.041 29.687L123.055 29.9511C123.129 31.7978 122.812 33.6053 122.141 35.2838L122.066 35.466L120.815 37.7823L120.632 38.0298C120.482 38.2353 120.299 38.496 120.089 38.8067C119.505 39.6728 118.921 40.6325 118.376 41.6628C116.959 44.339 116.039 47.0177 115.862 49.583C115.842 49.8749 115.832 50.1641 115.832 50.4505V56.7247C115.832 58.4773 114.42 59.9086 112.69 59.9086H107.099C105.37 59.9086 103.958 58.4773 103.958 56.7247V50.4505L103.955 50.1787C103.881 46.1896 102.2 42.1147 100.043 38.7197L99.9121 38.5155L99.0936 37.1326L98.3467 35.7956L98.3657 35.8354C97.5827 34.2068 97.1658 32.3108 97.1658 30.3638C97.1658 22.8022 103.503 16.7917 111.027 17.2973Z" fill="#2F4077"/>
<path id="Path_11" fill-rule="evenodd" clip-rule="evenodd" d="M115.647 26.5244C117.695 26.5244 119.39 28.1387 119.522 30.1962L119.527 30.3154L119.528 30.3638C119.528 31.8767 118.685 33.2319 117.401 33.9022L117.248 33.9794L117.215 34.0004C116.834 34.2305 116.401 34.375 115.92 34.4614L115.758 34.4881C115.219 34.569 114.673 34.5766 114.165 34.543L113.993 34.5291L113.518 34.5165L113.511 34.5848C113.447 35.1917 113.392 35.8474 113.347 36.5468L113.312 37.1544C113.137 40.3299 113.139 43.6351 113.244 49.1593C113.259 49.935 112.65 50.5758 111.885 50.5908C111.12 50.6057 110.487 49.989 110.473 49.2134L110.433 46.9015C110.367 42.4333 110.393 39.512 110.567 36.5882C110.6 36.0401 110.637 35.5164 110.679 35.0169L110.729 34.4425L109.349 34.4055L109.357 34.6473C109.374 35.2136 109.364 35.7476 109.327 36.2097L109.317 36.3247V49.1395C109.317 49.8876 108.74 50.4991 108.013 50.5418L107.931 50.5442C107.193 50.5442 106.59 49.9594 106.547 49.2221L106.545 49.1395V36.2634L106.547 36.1934L106.552 36.1236C106.606 35.5727 106.616 34.978 106.587 34.3796L106.584 34.3306L105.324 34.3038L104.63 34.2977L103.727 34.2969C103.651 34.2969 103.576 34.2906 103.501 34.2782L103.39 34.2549L103.192 34.2045C101.504 33.7584 100.308 32.2053 100.308 30.4106C100.308 28.277 102.037 26.5244 104.142 26.5244C104.403 26.5244 104.661 26.5727 104.979 26.6571C105.054 26.6768 105.13 26.6983 105.208 26.7214L105.492 26.8101L105.612 26.8502L105.62 26.852C107.39 27.2374 108.41 28.8764 108.948 31.2447L108.985 31.4111L109.021 31.5858L111.109 31.6425L111.115 31.6139C111.522 29.5006 112.148 28.1327 113.133 27.4666L113.219 27.3924C113.89 26.8336 114.735 26.5244 115.647 26.5244ZM115.647 29.3337C115.397 29.3337 115.185 29.4052 115.013 29.5358L114.964 29.5778C114.898 29.645 114.825 29.7052 114.746 29.7574L114.667 29.807C114.454 29.9289 114.221 30.4906 114.006 31.4153L113.938 31.7174L114.171 31.7249L114.346 31.7396C114.674 31.7614 115.037 31.7563 115.352 31.7091C115.557 31.6782 115.708 31.633 115.779 31.5963L115.875 31.5368L115.951 31.4954L116.07 31.4355C116.465 31.2462 116.722 30.8722 116.753 30.449L116.755 30.3891L116.752 30.3381C116.698 29.7995 116.259 29.3723 115.721 29.3362L115.647 29.3337ZM104.106 29.3346L104.071 29.3362C103.528 29.3751 103.08 29.8528 103.08 30.4106C103.08 30.8925 103.382 31.3121 103.803 31.4595L103.878 31.4826L103.898 31.4875L104.831 31.4893L105.704 31.5006L106.155 31.5105L106.13 31.4193C105.853 30.4422 105.477 29.7308 105.06 29.6054L105.008 29.5928C104.958 29.5838 104.91 29.5722 104.862 29.5579L104.637 29.4825C104.596 29.469 104.55 29.4545 104.502 29.4398L104.351 29.3951L104.278 29.3751C104.227 29.3615 104.182 29.3506 104.144 29.3426L104.106 29.3346Z" fill="#2F4077"/>
<path id="Path_12" fill-rule="evenodd" clip-rule="evenodd" d="M117.264 48.6245C118.03 48.6245 118.65 49.2534 118.65 50.0291C118.65 50.7772 118.073 51.3887 117.346 51.4314L117.264 51.4338H102.572C101.806 51.4338 101.186 50.8049 101.186 50.0291C101.186 49.2811 101.763 48.6696 102.49 48.6269L102.572 48.6245H117.264Z" fill="#2F4077"/>
<path id="Path_13" fill-rule="evenodd" clip-rule="evenodd" d="M117.264 52.1361C118.03 52.1361 118.65 52.765 118.65 53.5408C118.65 54.2888 118.073 54.9003 117.346 54.9431L117.264 54.9454H102.572C101.806 54.9454 101.186 54.3166 101.186 53.5408C101.186 52.7927 101.763 52.1812 102.49 52.1385L102.572 52.1361H117.264Z" fill="#2F4077"/>
<path id="Path_14" fill-rule="evenodd" clip-rule="evenodd" d="M117.264 55.6478C118.03 55.6478 118.65 56.2767 118.65 57.0525C118.65 57.8005 118.073 58.412 117.346 58.4547L117.264 58.4571H102.572C101.806 58.4571 101.186 57.8282 101.186 57.0525C101.186 56.3044 101.763 55.6929 102.49 55.6502L102.572 55.6478H117.264Z" fill="#2F4077"/>
</g>
</g>
</svg>
